<svg width="386" height="385" viewBox="0 0 386 385" fill="none" xmlns="http://www.w3.org/2000/svg">
<rect x="2" y="2.12988" width="382" height="380.226" rx="23.6533" fill="#00A8CC"/>
<rect x="18.5573" y="311.396" width="348.885" height="37.8452" rx="9.4613" fill="#DEFFFD"/>
<g clip-path="url(#clip0_1_552)">
<path d="M35.0823 324.932C34.1428 323.992 33.4997 322.351 33.1806 320.857C32.861 322.351 32.2186 323.993 31.2788 324.932C30.3393 325.872 28.6976 326.515 27.2047 326.834C28.6982 327.153 30.3396 327.796 31.2791 328.736C32.2186 329.675 32.8616 331.317 33.1812 332.81C33.5004 331.317 34.1432 329.675 35.0826 328.735C36.022 327.796 37.6637 327.153 39.1567 326.833C37.6635 326.514 36.0221 325.871 35.0823 324.932Z" fill="#000AFF"/>
<path d="M41.1851 332.456C40.6243 331.895 40.2395 330.914 40.0489 330.022C39.8579 330.914 39.4744 331.895 38.913 332.457C38.3516 333.018 37.3708 333.402 36.4789 333.593C37.3711 333.784 38.3516 334.168 38.913 334.729C39.4744 335.29 39.8586 336.271 40.0495 337.163C40.2401 336.271 40.6243 335.29 41.1854 334.729C41.7465 334.168 42.7274 333.784 43.6191 333.592C42.7274 333.402 41.7465 333.018 41.1851 332.456Z" fill="#000AFF"/>
<path d="M31.233 334.376C31.0727 335.125 30.7507 335.948 30.2794 336.42C29.8083 336.89 28.9848 337.213 28.2361 337.373C28.9848 337.534 29.8083 337.856 30.2794 338.327C30.7507 338.798 31.0733 339.622 31.2336 340.371C31.3938 339.622 31.716 338.798 32.1874 338.327C32.6582 337.856 33.4818 337.533 34.2304 337.373C33.4819 337.213 32.6582 336.89 32.187 336.419C31.716 335.948 31.3932 335.125 31.233 334.376Z" fill="#000AFF"/>
</g>
<rect x="51.0807" y="323.223" width="1.77399" height="14.7833" fill="black"/>
<path d="M158.656 50.8514H168.282V52.5166H158.656V50.8514ZM158.864 60.2441H156.938V42.0311H169.427V43.6963H158.864V60.2441ZM172.238 60.2441V46.5844H174.008V50.305L173.826 49.6546C174.207 48.6138 174.849 47.8246 175.751 47.2869C176.653 46.7318 177.772 46.4543 179.107 46.4543V48.2496C179.038 48.2496 178.969 48.2496 178.899 48.2496C178.83 48.2322 178.76 48.2236 178.691 48.2236C177.251 48.2236 176.124 48.6659 175.309 49.5505C174.493 50.4178 174.086 51.658 174.086 53.2712V60.2441H172.238ZM181.958 60.2441V46.5844H183.805V60.2441H181.958ZM182.894 43.5662C182.513 43.5662 182.192 43.4361 181.932 43.176C181.672 42.9158 181.541 42.6035 181.541 42.2393C181.541 41.875 181.672 41.5715 181.932 41.3286C182.192 41.0684 182.513 40.9384 182.894 40.9384C183.276 40.9384 183.597 41.0598 183.857 41.3026C184.117 41.5455 184.247 41.849 184.247 42.2133C184.247 42.5949 184.117 42.9158 183.857 43.176C183.614 43.4361 183.293 43.5662 182.894 43.5662ZM193.863 60.3742C192.562 60.3742 191.391 60.0794 190.35 59.4896C189.327 58.8998 188.52 58.0846 187.93 57.0439C187.341 55.9858 187.046 54.7716 187.046 53.4013C187.046 52.0136 187.341 50.7994 187.93 49.7587C188.52 48.7179 189.327 47.9113 190.35 47.3389C191.391 46.7492 192.562 46.4543 193.863 46.4543C195.06 46.4543 196.126 46.7232 197.063 47.2609C198.017 47.7986 198.772 48.5878 199.327 49.6286C199.899 50.652 200.185 51.9095 200.185 53.4013C200.185 54.8756 199.908 56.1332 199.353 57.1739C198.798 58.2147 198.043 59.0126 197.089 59.5677C196.152 60.1054 195.077 60.3742 193.863 60.3742ZM193.993 58.7351C194.964 58.7351 195.831 58.5182 196.595 58.0846C197.375 57.6336 197.982 57.0092 198.416 56.2113C198.867 55.396 199.092 54.4593 199.092 53.4013C199.092 52.3258 198.867 51.3892 198.416 50.5912C197.982 49.7933 197.375 49.1776 196.595 48.7439C195.831 48.2929 194.964 48.0674 193.993 48.0674C193.039 48.0674 192.18 48.2929 191.417 48.7439C190.654 49.1776 190.047 49.7933 189.596 50.5912C189.145 51.3892 188.919 52.3258 188.919 53.4013C188.919 54.4593 189.145 55.396 189.596 56.2113C190.047 57.0092 190.654 57.6336 191.417 58.0846C192.18 58.5182 193.039 58.7351 193.993 58.7351ZM199.144 60.2441V56.1332L199.327 53.3752L199.066 50.6173V40.9384H200.914V60.2441H199.144ZM214.098 60.2441V57.226L214.02 56.7316V51.684C214.02 50.5219 213.691 49.6286 213.031 49.0041C212.39 48.3797 211.427 48.0674 210.143 48.0674C209.259 48.0674 208.418 48.2149 207.62 48.5098C206.822 48.8046 206.145 49.1949 205.59 49.6806L204.758 48.3016C205.451 47.7119 206.284 47.2609 207.255 46.9486C208.227 46.6191 209.25 46.4543 210.326 46.4543C212.095 46.4543 213.456 46.8966 214.41 47.7812C215.382 48.6485 215.868 49.9755 215.868 51.7621V60.2441H214.098ZM209.389 60.3742C208.365 60.3742 207.472 60.2094 206.709 59.8799C205.963 59.533 205.391 59.0646 204.992 58.4749C204.593 57.8678 204.393 57.1739 204.393 56.3934C204.393 55.6822 204.558 55.0404 204.888 54.468C205.235 53.8783 205.79 53.4099 206.553 53.063C207.333 52.6988 208.374 52.5166 209.675 52.5166H214.384V53.8956H209.727C208.409 53.8956 207.49 54.1298 206.969 54.5981C206.466 55.0664 206.215 55.6475 206.215 56.3414C206.215 57.1219 206.518 57.7464 207.125 58.2147C207.732 58.683 208.582 58.9172 209.675 58.9172C210.716 58.9172 211.609 58.683 212.355 58.2147C213.118 57.729 213.673 57.0352 214.02 56.1332L214.436 57.4081C214.09 58.3101 213.482 59.0299 212.615 59.5677C211.765 60.1054 210.69 60.3742 209.389 60.3742ZM220.215 65.4218C219.573 65.4218 218.957 65.3178 218.367 65.1096C217.795 64.9015 217.301 64.5892 216.884 64.1729L217.743 62.794C218.09 63.1235 218.463 63.375 218.862 63.5485C219.278 63.7393 219.738 63.8347 220.241 63.8347C220.848 63.8347 221.368 63.6612 221.802 63.3143C222.253 62.9848 222.678 62.395 223.077 61.5451L223.961 59.5416L224.169 59.2554L229.789 46.5844H231.611L224.768 61.8833C224.386 62.7679 223.961 63.4704 223.493 63.9908C223.042 64.5112 222.548 64.8754 222.01 65.0836C221.472 65.3091 220.874 65.4218 220.215 65.4218ZM223.857 60.6344L217.561 46.5844H219.486L225.054 59.1253L223.857 60.6344Z" fill="#FDFDFD"/>
<path d="M152.591 124.705L150.32 124.336V122.576H165.449L165.818 127.345H163.831L162.894 124.535L156.763 124.279V131.914L160.709 131.829L161.163 129.502H162.979V136.371H161.163L160.709 133.93L156.763 133.844V141.849L163.632 141.508L165.278 137.875L167.407 138.471L166.669 143.665H150.348V141.962L152.591 141.678V124.705ZM173.745 135.916L169.061 129.871L167.585 129.53V127.884H175.788V129.53L173.943 129.871L176.186 133.021L176.924 134.213L177.662 133.021L179.961 129.871L178.03 129.53V127.884H184.19V129.53L182.572 129.871L178.087 135.377L182.998 141.735L184.559 141.991V143.665H176.356V141.991L178.03 141.707L175.845 138.386L174.993 137.137L174.312 138.357L171.985 141.707L174.17 141.991V143.665H167.358V141.991L169.175 141.707L173.745 135.916ZM185.168 135.803C185.168 134.024 185.518 132.51 186.218 131.261C186.937 130.013 187.893 129.076 189.085 128.451C190.277 127.808 191.573 127.486 192.974 127.486C195.358 127.486 197.193 128.224 198.48 129.7C199.786 131.157 200.439 133.144 200.439 135.661C200.439 137.459 200.079 138.991 199.36 140.259C198.66 141.508 197.714 142.445 196.522 143.069C195.349 143.675 194.052 143.977 192.633 143.977C190.268 143.977 188.432 143.249 187.127 141.792C185.821 140.316 185.168 138.32 185.168 135.803ZM192.86 142.133C194.998 142.133 196.068 140.07 196.068 135.945C196.068 133.788 195.812 132.151 195.301 131.034C194.79 129.899 193.958 129.331 192.803 129.331C190.608 129.331 189.511 131.394 189.511 135.519C189.511 137.676 189.776 139.323 190.306 140.458C190.854 141.574 191.706 142.133 192.86 142.133ZM207.22 143.921C206.028 143.921 205.148 143.646 204.58 143.098C204.012 142.549 203.729 141.678 203.729 140.486V130.069H201.884V128.593C202.035 128.537 202.309 128.442 202.707 128.31C203.104 128.158 203.407 128.035 203.615 127.941C203.937 127.695 204.211 127.269 204.438 126.663C204.608 126.266 204.921 125.282 205.375 123.711H207.646L207.759 127.884H212.102V130.069H207.787V138.045C207.787 139.105 207.816 139.852 207.873 140.288C207.929 140.723 208.052 141.007 208.242 141.139C208.431 141.253 208.762 141.309 209.235 141.309C209.708 141.309 210.2 141.262 210.711 141.167C211.222 141.054 211.648 140.921 211.988 140.77L212.528 142.36C211.998 142.757 211.222 143.116 210.2 143.438C209.178 143.76 208.185 143.921 207.22 143.921ZM216.848 125.301C216.166 125.301 215.627 125.102 215.23 124.705C214.832 124.307 214.634 123.797 214.634 123.172C214.634 122.453 214.861 121.857 215.315 121.384C215.769 120.911 216.375 120.674 217.132 120.674C217.888 120.674 218.466 120.882 218.863 121.299C219.26 121.696 219.459 122.198 219.459 122.803C219.459 123.56 219.232 124.166 218.778 124.62C218.324 125.074 217.69 125.301 216.876 125.301H216.848ZM215.343 130.58L213.328 130.041V128.139L218.522 127.515H218.579L219.374 128.082V141.735L221.276 141.962V143.665H213.356V141.962L215.343 141.707V130.58ZM222.373 135.86C222.373 134.232 222.695 132.785 223.339 131.517C224.001 130.249 224.937 129.265 226.149 128.565C227.379 127.846 228.807 127.486 230.435 127.486C231.191 127.486 231.844 127.543 232.393 127.657C232.942 127.77 233.557 127.922 234.238 128.111L235.061 128.338L234.891 133.192H232.421L231.712 130.069C231.598 129.577 231.04 129.331 230.037 129.331C228.977 129.331 228.145 129.795 227.539 130.722C226.953 131.649 226.65 133.097 226.631 135.065C226.631 137.146 226.991 138.745 227.71 139.862C228.429 140.959 229.384 141.508 230.576 141.508C232.015 141.508 233.339 141.12 234.55 140.344L235.203 141.82C234.711 142.35 233.954 142.842 232.932 143.296C231.929 143.75 230.841 143.977 229.668 143.977C227.246 143.977 225.42 143.23 224.19 141.735C222.979 140.24 222.373 138.282 222.373 135.86Z" fill="#FDFDFD"/>
<g filter="url(#filter0_d_1_552)">
<rect x="136.824" y="165.337" width="112.353" height="112.353" rx="56.1765" fill="white"/>
<path d="M168.613 217.892C167.592 217.892 166.639 217.728 165.756 217.4C164.886 217.06 164.129 216.581 163.485 215.962C162.842 215.344 162.337 214.619 161.971 213.786C161.618 212.954 161.442 212.039 161.442 211.042C161.442 210.046 161.618 209.131 161.971 208.299C162.337 207.466 162.842 206.741 163.485 206.123C164.141 205.504 164.904 205.031 165.775 204.703C166.645 204.363 167.598 204.193 168.632 204.193C169.78 204.193 170.815 204.394 171.736 204.798C172.669 205.189 173.451 205.769 174.082 206.539L172.114 208.355C171.66 207.838 171.155 207.454 170.6 207.201C170.045 206.936 169.44 206.804 168.784 206.804C168.165 206.804 167.598 206.905 167.081 207.107C166.563 207.308 166.116 207.599 165.737 207.977C165.359 208.355 165.062 208.803 164.848 209.321C164.646 209.838 164.545 210.412 164.545 211.042C164.545 211.673 164.646 212.247 164.848 212.764C165.062 213.282 165.359 213.73 165.737 214.108C166.116 214.486 166.563 214.777 167.081 214.978C167.598 215.18 168.165 215.281 168.784 215.281C169.44 215.281 170.045 215.155 170.6 214.903C171.155 214.638 171.66 214.24 172.114 213.711L174.082 215.527C173.451 216.297 172.669 216.883 171.736 217.287C170.815 217.691 169.774 217.892 168.613 217.892ZM175.565 217.665V207.485H178.385V210.361L177.988 209.529C178.29 208.81 178.776 208.267 179.445 207.901C180.113 207.523 180.927 207.334 181.886 207.334V210.059C181.759 210.046 181.646 210.04 181.545 210.04C181.444 210.027 181.337 210.021 181.223 210.021C180.416 210.021 179.76 210.254 179.255 210.721C178.763 211.175 178.517 211.888 178.517 212.859V217.665H175.565ZM188.241 217.817C187.08 217.817 186.058 217.59 185.175 217.136C184.305 216.681 183.63 216.063 183.151 215.281C182.671 214.486 182.432 213.584 182.432 212.575C182.432 211.553 182.665 210.651 183.132 209.869C183.611 209.075 184.261 208.456 185.081 208.015C185.901 207.561 186.828 207.334 187.862 207.334C188.859 207.334 189.755 207.548 190.549 207.977C191.357 208.393 191.994 208.999 192.461 209.794C192.927 210.576 193.161 211.516 193.161 212.613C193.161 212.727 193.154 212.859 193.142 213.01C193.129 213.149 193.117 213.282 193.104 213.408H184.835V211.686H191.552L190.417 212.197C190.417 211.667 190.31 211.206 190.095 210.815C189.881 210.424 189.584 210.122 189.206 209.907C188.827 209.68 188.386 209.567 187.881 209.567C187.377 209.567 186.929 209.68 186.538 209.907C186.159 210.122 185.863 210.431 185.648 210.834C185.434 211.225 185.327 211.692 185.327 212.235V212.689C185.327 213.244 185.447 213.736 185.686 214.165C185.939 214.581 186.285 214.903 186.727 215.13C187.181 215.344 187.711 215.451 188.316 215.451C188.859 215.451 189.332 215.369 189.736 215.205C190.152 215.041 190.53 214.795 190.871 214.467L192.442 216.171C191.975 216.7 191.388 217.11 190.682 217.4C189.975 217.678 189.162 217.817 188.241 217.817ZM200.715 217.665V215.679L200.526 215.243V211.686C200.526 211.055 200.33 210.563 199.939 210.21C199.56 209.857 198.974 209.68 198.179 209.68C197.637 209.68 197.101 209.768 196.571 209.945C196.054 210.109 195.612 210.336 195.246 210.626L194.186 208.564C194.742 208.173 195.41 207.87 196.192 207.655C196.974 207.441 197.769 207.334 198.577 207.334C200.128 207.334 201.333 207.7 202.191 208.431C203.049 209.163 203.477 210.305 203.477 211.856V217.665H200.715ZM197.611 217.817C196.817 217.817 196.136 217.684 195.568 217.419C195 217.142 194.565 216.77 194.262 216.303C193.959 215.836 193.808 215.313 193.808 214.732C193.808 214.127 193.953 213.597 194.243 213.143C194.546 212.689 195.019 212.336 195.662 212.083C196.306 211.818 197.145 211.686 198.179 211.686H200.885V213.408H198.501C197.807 213.408 197.328 213.521 197.063 213.748C196.81 213.975 196.684 214.259 196.684 214.6C196.684 214.978 196.829 215.281 197.119 215.508C197.422 215.723 197.832 215.83 198.349 215.83C198.841 215.83 199.283 215.716 199.674 215.489C200.065 215.25 200.349 214.903 200.526 214.449L200.98 215.811C200.765 216.467 200.374 216.965 199.806 217.306C199.239 217.646 198.507 217.817 197.611 217.817ZM209.934 217.817C208.735 217.817 207.802 217.514 207.133 216.909C206.464 216.29 206.13 215.376 206.13 214.165V205.233H209.082V214.127C209.082 214.556 209.196 214.89 209.423 215.13C209.65 215.357 209.959 215.47 210.35 215.47C210.817 215.47 211.214 215.344 211.542 215.092L212.337 217.173C212.034 217.388 211.668 217.552 211.239 217.665C210.823 217.766 210.388 217.817 209.934 217.817ZM204.56 209.983V207.712H211.618V209.983H204.56ZM218.354 217.817C217.193 217.817 216.171 217.59 215.288 217.136C214.418 216.681 213.743 216.063 213.263 215.281C212.784 214.486 212.544 213.584 212.544 212.575C212.544 211.553 212.778 210.651 213.244 209.869C213.724 209.075 214.374 208.456 215.194 208.015C216.014 207.561 216.941 207.334 217.975 207.334C218.972 207.334 219.867 207.548 220.662 207.977C221.47 208.393 222.107 208.999 222.573 209.794C223.04 210.576 223.273 211.516 223.273 212.613C223.273 212.727 223.267 212.859 223.255 213.01C223.242 213.149 223.229 213.282 223.217 213.408H214.948V211.686H221.665L220.53 212.197C220.53 211.667 220.422 211.206 220.208 210.815C219.994 210.424 219.697 210.122 219.319 209.907C218.94 209.68 218.499 209.567 217.994 209.567C217.489 209.567 217.042 209.68 216.651 209.907C216.272 210.122 215.976 210.431 215.761 210.834C215.547 211.225 215.44 211.692 215.44 212.235V212.689C215.44 213.244 215.559 213.736 215.799 214.165C216.051 214.581 216.398 214.903 216.84 215.13C217.294 215.344 217.824 215.451 218.429 215.451C218.972 215.451 219.445 215.369 219.848 215.205C220.265 215.041 220.643 214.795 220.984 214.467L222.554 216.171C222.088 216.7 221.501 217.11 220.795 217.4C220.088 217.678 219.274 217.817 218.354 217.817Z" fill="#00A8CC"/>
<path d="M199.116 233.235C200.147 233.235 200.982 234.07 200.982 235.101C200.982 236.131 200.147 236.967 199.116 236.967H186.291C185.26 236.967 184.425 236.131 184.425 235.101C184.425 234.07 185.26 233.235 186.291 233.235H199.116ZM194.587 241.496C194.587 242.527 193.752 243.362 192.721 243.362C191.691 243.362 190.855 242.527 190.855 241.496V228.671C190.855 227.64 191.691 226.805 192.721 226.805C193.752 226.805 194.587 227.64 194.587 228.671V241.496Z" fill="#00A8CC"/>
</g>
<rect x="1.113" y="1.24313" width="383.774" height="382" rx="24.5402" stroke="url(#paint0_linear_1_552)" stroke-width="1.77399"/>
<defs>
<filter id="filter0_d_1_552" x="128.545" y="159.424" width="128.91" height="128.91" filterUnits="userSpaceOnUse" color-interpolation-filters="sRGB">
<feFlood flood-opacity="0" result="BackgroundImageFix"/>
<feColorMatrix in="SourceAlpha" type="matrix" values="0 0 0 0 0 0 0 0 0 0 0 0 0 0 0 0 0 0 127 0" result="hardAlpha"/>
<feOffset dy="2.36533"/>
<feGaussianBlur stdDeviation="4.13932"/>
<feComposite in2="hardAlpha" operator="out"/>
<feColorMatrix type="matrix" values="0 0 0 0 0 0 0 0 0 0 0 0 0 0 0 0 0 0 0.2 0"/>
<feBlend mode="normal" in2="BackgroundImageFix" result="effect1_dropShadow_1_552"/>
<feBlend mode="normal" in="SourceGraphic" in2="effect1_dropShadow_1_552" result="shape"/>
</filter>
<linearGradient id="paint0_linear_1_552" x1="395.235" y1="2.13013" x2="2.00002" y2="391.226" gradientUnits="userSpaceOnUse">
<stop offset="0.0001" stop-color="#0038FF"/>
<stop offset="0.405" stop-color="#C60083"/>
<stop offset="0.685" stop-color="#FFC700"/>
<stop offset="1" stop-color="#FF0000"/>
</linearGradient>
<clipPath id="clip0_1_552">
<rect width="19.5139" height="19.5139" fill="white" transform="translate(25.6539 320.858)"/>
</clipPath>
</defs>
</svg>
