<svg width="652" height="649" viewBox="0 0 652 649" fill="none" xmlns="http://www.w3.org/2000/svg">
<rect x="3" y="3" width="646" height="643" rx="40" fill="#00A8CC"/>
<rect x="31" y="526" width="590" height="64" rx="16" fill="#DEFFFD"/>
<path d="M58.9428 548.89C57.354 547.301 56.2666 544.525 55.7269 542C55.1864 544.526 54.1001 547.302 52.5108 548.891C50.922 550.479 48.1457 551.567 45.621 552.108C48.1468 552.647 50.9225 553.734 52.5113 555.323C54.1 556.912 55.1875 559.688 55.728 562.214C56.2677 559.688 57.3548 556.912 58.9433 555.322C60.5321 553.734 63.3083 552.647 65.8331 552.106C63.3079 551.566 60.5321 550.479 58.9428 548.89Z" fill="#000AFF"/>
<path d="M69.2627 561.616C68.3144 560.667 67.6637 559.008 67.3413 557.499C67.0183 559.008 66.3698 560.667 65.4204 561.616C64.471 562.565 62.8123 563.215 61.3041 563.538C62.8129 563.861 64.471 564.51 65.4204 565.459C66.3698 566.408 67.0195 568.067 67.3424 569.575C67.6647 568.066 68.3144 566.408 69.2632 565.459C70.2121 564.51 71.871 563.86 73.3789 563.537C71.871 563.214 70.2121 562.565 69.2627 561.616Z" fill="#000AFF"/>
<path d="M52.4328 564.862C52.1617 566.128 51.6172 567.521 50.8203 568.318C50.0235 569.114 48.6309 569.66 47.3647 569.931C48.6309 570.203 50.0235 570.747 50.8203 571.544C51.6172 572.341 52.1628 573.733 52.4339 575C52.7048 573.733 53.2496 572.341 54.0467 571.544C54.843 570.747 56.2358 570.202 57.5017 569.93C56.2359 569.659 54.843 569.114 54.0462 568.318C53.2496 567.521 52.7037 566.128 52.4328 564.862Z" fill="#000AFF"/>
<rect x="86" y="546" width="3" height="25" fill="black"/>
<path d="M267.92 86.116H284.2V88.932H267.92V86.116ZM268.272 102H265.016V71.2H286.136V74.016H268.272V102ZM290.89 102V78.9H293.882V85.192L293.574 84.092C294.219 82.332 295.305 80.9973 296.83 80.088C298.355 79.1493 300.247 78.68 302.506 78.68V81.716C302.389 81.716 302.271 81.716 302.154 81.716C302.037 81.6867 301.919 81.672 301.802 81.672C299.367 81.672 297.461 82.42 296.082 83.916C294.703 85.3827 294.014 87.48 294.014 90.208V102H290.89ZM307.326 102V78.9H310.45V102H307.326ZM308.91 73.796C308.265 73.796 307.722 73.576 307.282 73.136C306.842 72.696 306.622 72.168 306.622 71.552C306.622 70.936 306.842 70.4227 307.282 70.012C307.722 69.572 308.265 69.352 308.91 69.352C309.556 69.352 310.098 69.5573 310.538 69.968C310.978 70.3787 311.198 70.892 311.198 71.508C311.198 72.1533 310.978 72.696 310.538 73.136C310.128 73.576 309.585 73.796 308.91 73.796ZM327.459 102.22C325.259 102.22 323.279 101.721 321.519 100.724C319.788 99.7267 318.424 98.348 317.427 96.588C316.43 94.7987 315.931 92.7453 315.931 90.428C315.931 88.0813 316.43 86.028 317.427 84.268C318.424 82.508 319.788 81.144 321.519 80.176C323.279 79.1787 325.259 78.68 327.459 78.68C329.483 78.68 331.287 79.1347 332.871 80.044C334.484 80.9533 335.76 82.288 336.699 84.048C337.667 85.7787 338.151 87.9053 338.151 90.428C338.151 92.9213 337.682 95.048 336.743 96.808C335.804 98.568 334.528 99.9173 332.915 100.856C331.331 101.765 329.512 102.22 327.459 102.22ZM327.679 99.448C329.322 99.448 330.788 99.0813 332.079 98.348C333.399 97.5853 334.426 96.5293 335.159 95.18C335.922 93.8013 336.303 92.2173 336.303 90.428C336.303 88.6093 335.922 87.0253 335.159 85.676C334.426 84.3267 333.399 83.2853 332.079 82.552C330.788 81.7893 329.322 81.408 327.679 81.408C326.066 81.408 324.614 81.7893 323.323 82.552C322.032 83.2853 321.006 84.3267 320.243 85.676C319.48 87.0253 319.099 88.6093 319.099 90.428C319.099 92.2173 319.48 93.8013 320.243 95.18C321.006 96.5293 322.032 97.5853 323.323 98.348C324.614 99.0813 326.066 99.448 327.679 99.448ZM336.391 102V95.048L336.699 90.384L336.259 85.72V69.352H339.383V102H336.391ZM361.679 102V96.896L361.547 96.06V87.524C361.547 85.5587 360.99 84.048 359.875 82.992C358.79 81.936 357.162 81.408 354.991 81.408C353.495 81.408 352.073 81.6573 350.723 82.156C349.374 82.6547 348.23 83.3147 347.291 84.136L345.883 81.804C347.057 80.8067 348.465 80.044 350.107 79.516C351.75 78.9587 353.481 78.68 355.299 78.68C358.291 78.68 360.594 79.428 362.207 80.924C363.85 82.3907 364.671 84.6347 364.671 87.656V102H361.679ZM353.715 102.22C351.985 102.22 350.474 101.941 349.183 101.384C347.922 100.797 346.954 100.005 346.279 99.008C345.605 97.9813 345.267 96.808 345.267 95.488C345.267 94.2853 345.546 93.2 346.103 92.232C346.69 91.2347 347.629 90.4427 348.919 89.856C350.239 89.24 351.999 88.932 354.199 88.932H362.163V91.264H354.287C352.058 91.264 350.503 91.66 349.623 92.452C348.773 93.244 348.347 94.2267 348.347 95.4C348.347 96.72 348.861 97.776 349.887 98.568C350.914 99.36 352.351 99.756 354.199 99.756C355.959 99.756 357.47 99.36 358.731 98.568C360.022 97.7467 360.961 96.5733 361.547 95.048L362.251 97.204C361.665 98.7293 360.638 99.9467 359.171 100.856C357.734 101.765 355.915 102.22 353.715 102.22ZM372.023 110.756C370.937 110.756 369.896 110.58 368.899 110.228C367.931 109.876 367.095 109.348 366.391 108.644L367.843 106.312C368.429 106.869 369.06 107.295 369.735 107.588C370.439 107.911 371.216 108.072 372.067 108.072C373.093 108.072 373.973 107.779 374.707 107.192C375.469 106.635 376.188 105.637 376.863 104.2L378.359 100.812L378.711 100.328L388.215 78.9H391.295L379.723 104.772C379.077 106.268 378.359 107.456 377.567 108.336C376.804 109.216 375.968 109.832 375.059 110.184C374.149 110.565 373.137 110.756 372.023 110.756ZM378.183 102.66L367.535 78.9H370.791L380.207 100.108L378.183 102.66Z" fill="#FDFDFD"/>
<path d="M257.664 209.936L253.824 209.312V206.336H279.408L280.032 214.4H276.672L275.088 209.648L264.72 209.216V222.128L271.392 221.984L272.16 218.048H275.232V229.664H272.16L271.392 225.536L264.72 225.392V238.928L276.336 238.352L279.12 232.208L282.72 233.216L281.472 242H253.872V239.12L257.664 238.64V209.936ZM293.437 228.896L285.517 218.672L283.021 218.096V215.312H296.893V218.096L293.773 218.672L297.565 224L298.813 226.016L300.061 224L303.949 218.672L300.685 218.096V215.312H311.101V218.096L308.365 218.672L300.781 227.984L309.085 238.736L311.725 239.168V242H297.853V239.168L300.685 238.688L296.989 233.072L295.549 230.96L294.397 233.024L290.461 238.688L294.157 239.168V242H282.637V239.168L285.709 238.688L293.437 228.896ZM312.756 228.704C312.756 225.696 313.348 223.136 314.532 221.024C315.748 218.912 317.364 217.328 319.38 216.272C321.396 215.184 323.588 214.64 325.956 214.64C329.988 214.64 333.092 215.888 335.268 218.384C337.476 220.848 338.58 224.208 338.58 228.464C338.58 231.504 337.972 234.096 336.756 236.24C335.572 238.352 333.972 239.936 331.956 240.992C329.972 242.016 327.78 242.528 325.38 242.528C321.38 242.528 318.276 241.296 316.068 238.832C313.86 236.336 312.756 232.96 312.756 228.704ZM325.764 239.408C329.38 239.408 331.188 235.92 331.188 228.944C331.188 225.296 330.756 222.528 329.892 220.64C329.028 218.72 327.62 217.76 325.668 217.76C321.956 217.76 320.1 221.248 320.1 228.224C320.1 231.872 320.548 234.656 321.444 236.576C322.372 238.464 323.812 239.408 325.764 239.408ZM350.047 242.432C348.031 242.432 346.543 241.968 345.583 241.04C344.623 240.112 344.143 238.64 344.143 236.624V219.008H341.023V216.512C341.279 216.416 341.743 216.256 342.415 216.032C343.087 215.776 343.599 215.568 343.951 215.408C344.495 214.992 344.959 214.272 345.343 213.248C345.631 212.576 346.159 210.912 346.927 208.256H350.767L350.959 215.312H358.303V219.008H351.007V232.496C351.007 234.288 351.055 235.552 351.151 236.288C351.247 237.024 351.455 237.504 351.775 237.728C352.095 237.92 352.655 238.016 353.455 238.016C354.255 238.016 355.087 237.936 355.951 237.776C356.815 237.584 357.535 237.36 358.111 237.104L359.023 239.792C358.127 240.464 356.815 241.072 355.087 241.616C353.359 242.16 351.679 242.432 350.047 242.432ZM366.329 210.944C365.177 210.944 364.265 210.608 363.593 209.936C362.921 209.264 362.585 208.4 362.585 207.344C362.585 206.128 362.969 205.12 363.737 204.32C364.505 203.52 365.529 203.12 366.809 203.12C368.089 203.12 369.065 203.472 369.737 204.176C370.409 204.848 370.745 205.696 370.745 206.72C370.745 208 370.361 209.024 369.593 209.792C368.825 210.56 367.753 210.944 366.377 210.944H366.329ZM363.785 219.872L360.377 218.96V215.744L369.161 214.688H369.257L370.601 215.648V238.736L373.817 239.12V242H360.425V239.12L363.785 238.688V219.872ZM375.673 228.8C375.673 226.048 376.217 223.6 377.305 221.456C378.425 219.312 380.009 217.648 382.057 216.464C384.137 215.248 386.553 214.64 389.305 214.64C390.585 214.64 391.689 214.736 392.617 214.928C393.545 215.12 394.585 215.376 395.737 215.696L397.129 216.08L396.841 224.288H392.665L391.465 219.008C391.273 218.176 390.329 217.76 388.633 217.76C386.841 217.76 385.433 218.544 384.409 220.112C383.417 221.68 382.905 224.128 382.873 227.456C382.873 230.976 383.481 233.68 384.697 235.568C385.913 237.424 387.529 238.352 389.545 238.352C391.977 238.352 394.217 237.696 396.265 236.384L397.369 238.88C396.537 239.776 395.257 240.608 393.529 241.376C391.833 242.144 389.993 242.528 388.009 242.528C383.913 242.528 380.825 241.264 378.745 238.736C376.697 236.208 375.673 232.896 375.673 228.8Z" fill="#FDFDFD"/>
<g filter="url(#filter0_d_1_259)">
<rect x="231" y="279" width="190" height="190" rx="95" fill="white"/>
<path d="M285.376 368.384C283.648 368.384 282.037 368.107 280.544 367.552C279.072 366.976 277.792 366.165 276.704 365.12C275.616 364.075 274.763 362.848 274.144 361.44C273.547 360.032 273.248 358.485 273.248 356.8C273.248 355.115 273.547 353.568 274.144 352.16C274.763 350.752 275.616 349.525 276.704 348.48C277.813 347.435 279.104 346.635 280.576 346.08C282.048 345.504 283.659 345.216 285.408 345.216C287.349 345.216 289.099 345.557 290.656 346.24C292.235 346.901 293.557 347.883 294.624 349.184L291.296 352.256C290.528 351.381 289.675 350.731 288.736 350.304C287.797 349.856 286.773 349.632 285.664 349.632C284.619 349.632 283.659 349.803 282.784 350.144C281.909 350.485 281.152 350.976 280.512 351.616C279.872 352.256 279.371 353.013 279.008 353.888C278.667 354.763 278.496 355.733 278.496 356.8C278.496 357.867 278.667 358.837 279.008 359.712C279.371 360.587 279.872 361.344 280.512 361.984C281.152 362.624 281.909 363.115 282.784 363.456C283.659 363.797 284.619 363.968 285.664 363.968C286.773 363.968 287.797 363.755 288.736 363.328C289.675 362.88 290.528 362.208 291.296 361.312L294.624 364.384C293.557 365.685 292.235 366.677 290.656 367.36C289.099 368.043 287.339 368.384 285.376 368.384ZM297.133 368V350.784H301.901V355.648L301.229 354.24C301.741 353.024 302.562 352.107 303.693 351.488C304.823 350.848 306.199 350.528 307.821 350.528V355.136C307.607 355.115 307.415 355.104 307.245 355.104C307.074 355.083 306.893 355.072 306.701 355.072C305.335 355.072 304.226 355.467 303.373 356.256C302.541 357.024 302.125 358.229 302.125 359.872V368H297.133ZM318.568 368.256C316.605 368.256 314.877 367.872 313.384 367.104C311.912 366.336 310.771 365.291 309.96 363.968C309.149 362.624 308.744 361.099 308.744 359.392C308.744 357.664 309.139 356.139 309.928 354.816C310.739 353.472 311.837 352.427 313.224 351.68C314.611 350.912 316.179 350.528 317.928 350.528C319.613 350.528 321.128 350.891 322.472 351.616C323.837 352.32 324.915 353.344 325.704 354.688C326.493 356.011 326.888 357.6 326.888 359.456C326.888 359.648 326.877 359.872 326.856 360.128C326.835 360.363 326.813 360.587 326.792 360.8H312.808V357.888H324.168L322.248 358.752C322.248 357.856 322.067 357.077 321.704 356.416C321.341 355.755 320.84 355.243 320.2 354.88C319.56 354.496 318.813 354.304 317.96 354.304C317.107 354.304 316.349 354.496 315.688 354.88C315.048 355.243 314.547 355.765 314.184 356.448C313.821 357.109 313.64 357.899 313.64 358.816V359.584C313.64 360.523 313.843 361.355 314.248 362.08C314.675 362.784 315.261 363.328 316.008 363.712C316.776 364.075 317.672 364.256 318.696 364.256C319.613 364.256 320.413 364.117 321.096 363.84C321.8 363.563 322.44 363.147 323.016 362.592L325.672 365.472C324.883 366.368 323.891 367.061 322.696 367.552C321.501 368.021 320.125 368.256 318.568 368.256ZM339.663 368V364.64L339.343 363.904V357.888C339.343 356.821 339.012 355.989 338.351 355.392C337.711 354.795 336.719 354.496 335.375 354.496C334.457 354.496 333.551 354.645 332.655 354.944C331.78 355.221 331.033 355.605 330.415 356.096L328.623 352.608C329.561 351.947 330.692 351.435 332.015 351.072C333.337 350.709 334.681 350.528 336.047 350.528C338.671 350.528 340.708 351.147 342.159 352.384C343.609 353.621 344.335 355.552 344.335 358.176V368H339.663ZM334.415 368.256C333.071 368.256 331.919 368.032 330.959 367.584C329.999 367.115 329.263 366.485 328.751 365.696C328.239 364.907 327.983 364.021 327.983 363.04C327.983 362.016 328.228 361.12 328.719 360.352C329.231 359.584 330.031 358.987 331.119 358.56C332.207 358.112 333.625 357.888 335.375 357.888H339.951V360.8H335.919C334.745 360.8 333.935 360.992 333.487 361.376C333.06 361.76 332.847 362.24 332.847 362.816C332.847 363.456 333.092 363.968 333.583 364.352C334.095 364.715 334.788 364.896 335.663 364.896C336.495 364.896 337.241 364.704 337.903 364.32C338.564 363.915 339.044 363.328 339.343 362.56L340.111 364.864C339.748 365.973 339.087 366.816 338.127 367.392C337.167 367.968 335.929 368.256 334.415 368.256ZM355.253 368.256C353.226 368.256 351.647 367.744 350.517 366.72C349.386 365.675 348.821 364.128 348.821 362.08V346.976H353.813V362.016C353.813 362.741 354.005 363.307 354.389 363.712C354.773 364.096 355.295 364.288 355.957 364.288C356.746 364.288 357.418 364.075 357.973 363.648L359.317 367.168C358.805 367.531 358.186 367.808 357.461 368C356.757 368.171 356.021 368.256 355.253 368.256ZM346.165 355.008V351.168H358.101V355.008H346.165ZM369.492 368.256C367.529 368.256 365.801 367.872 364.308 367.104C362.836 366.336 361.694 365.291 360.884 363.968C360.073 362.624 359.668 361.099 359.668 359.392C359.668 357.664 360.062 356.139 360.852 354.816C361.662 353.472 362.761 352.427 364.148 351.68C365.534 350.912 367.102 350.528 368.852 350.528C370.537 350.528 372.052 350.891 373.396 351.616C374.761 352.32 375.838 353.344 376.628 354.688C377.417 356.011 377.812 357.6 377.812 359.456C377.812 359.648 377.801 359.872 377.78 360.128C377.758 360.363 377.737 360.587 377.716 360.8H363.732V357.888H375.092L373.172 358.752C373.172 357.856 372.99 357.077 372.628 356.416C372.265 355.755 371.764 355.243 371.124 354.88C370.484 354.496 369.737 354.304 368.884 354.304C368.03 354.304 367.273 354.496 366.612 354.88C365.972 355.243 365.47 355.765 365.108 356.448C364.745 357.109 364.564 357.899 364.564 358.816V359.584C364.564 360.523 364.766 361.355 365.172 362.08C365.598 362.784 366.185 363.328 366.932 363.712C367.7 364.075 368.596 364.256 369.62 364.256C370.537 364.256 371.337 364.117 372.02 363.84C372.724 363.563 373.364 363.147 373.94 362.592L376.596 365.472C375.806 366.368 374.814 367.061 373.62 367.552C372.425 368.021 371.049 368.256 369.492 368.256Z" fill="#00A8CC"/>
<path d="M336.344 393.874C338.087 393.874 339.5 395.287 339.5 397.03C339.5 398.772 338.087 400.185 336.344 400.185H314.656C312.913 400.185 311.5 398.772 311.5 397.03C311.5 395.287 312.913 393.874 314.656 393.874H336.344ZM328.685 407.844C328.685 409.587 327.272 411 325.53 411C323.787 411 322.374 409.587 322.374 407.844V386.156C322.374 384.413 323.787 383 325.53 383C327.272 383 328.685 384.413 328.685 386.156V407.844Z" fill="#00A8CC"/>
</g>
<rect x="1.5" y="1.5" width="649" height="646" rx="41.5" stroke="url(#paint0_linear_1_259)" stroke-width="3"/>
<defs>
<filter id="filter0_d_1_259" x="217" y="269" width="218" height="218" filterUnits="userSpaceOnUse" color-interpolation-filters="sRGB">
<feFlood flood-opacity="0" result="BackgroundImageFix"/>
<feColorMatrix in="SourceAlpha" type="matrix" values="0 0 0 0 0 0 0 0 0 0 0 0 0 0 0 0 0 0 127 0" result="hardAlpha"/>
<feOffset dy="4"/>
<feGaussianBlur stdDeviation="7"/>
<feComposite in2="hardAlpha" operator="out"/>
<feColorMatrix type="matrix" values="0 0 0 0 0 0 0 0 0 0 0 0 0 0 0 0 0 0 0.2 0"/>
<feBlend mode="normal" in2="BackgroundImageFix" result="effect1_dropShadow_1_259"/>
<feBlend mode="normal" in="SourceGraphic" in2="effect1_dropShadow_1_259" result="shape"/>
</filter>
<linearGradient id="paint0_linear_1_259" x1="668" y1="3" x2="2.99999" y2="661" gradientUnits="userSpaceOnUse">
<stop offset="0.0001" stop-color="#0038FF"/>
<stop offset="0.405" stop-color="#C60083"/>
<stop offset="0.685" stop-color="#FFC700"/>
<stop offset="1" stop-color="#FF0000"/>
</linearGradient>
</defs>
</svg>
