<svg width="652" height="649" viewBox="0 0 652 649" fill="none" xmlns="http://www.w3.org/2000/svg">
<rect x="3" y="3" width="646" height="643" rx="40" fill="#B3DFFD"/>
<rect x="31" y="526" width="590" height="64" rx="16" fill="#DAF0FF"/>
<path d="M58.9428 548.89C57.354 547.301 56.2666 544.525 55.7269 542C55.1864 544.526 54.1001 547.302 52.5108 548.891C50.922 550.479 48.1457 551.567 45.621 552.108C48.1468 552.647 50.9225 553.734 52.5113 555.323C54.1 556.912 55.1875 559.688 55.728 562.214C56.2677 559.688 57.3548 556.912 58.9433 555.322C60.5321 553.734 63.3083 552.647 65.8331 552.106C63.3079 551.566 60.5321 550.479 58.9428 548.89Z" fill="#000AFF"/>
<path d="M69.2627 561.616C68.3144 560.667 67.6637 559.008 67.3413 557.499C67.0183 559.008 66.3698 560.667 65.4204 561.616C64.471 562.565 62.8123 563.215 61.3041 563.538C62.8129 563.861 64.471 564.51 65.4204 565.459C66.3698 566.408 67.0195 568.067 67.3424 569.575C67.6647 568.066 68.3144 566.408 69.2632 565.459C70.2121 564.51 71.871 563.86 73.3789 563.537C71.871 563.214 70.2121 562.565 69.2627 561.616Z" fill="#000AFF"/>
<path d="M52.4328 564.862C52.1617 566.128 51.6172 567.521 50.8203 568.318C50.0235 569.114 48.6309 569.66 47.3647 569.931C48.6309 570.203 50.0235 570.747 50.8203 571.544C51.6172 572.341 52.1628 573.733 52.4339 575C52.7048 573.733 53.2496 572.341 54.0467 571.544C54.843 570.747 56.2358 570.202 57.5017 569.93C56.2359 569.659 54.843 569.114 54.0462 568.318C53.2496 567.521 52.7037 566.128 52.4328 564.862Z" fill="#000AFF"/>
<rect x="86" y="546" width="3" height="25" fill="black"/>
<path d="M243.016 102V71.2H245.7L259.78 95.224H258.372L272.32 71.2H275.004V102H271.88V76.084H272.628L259.78 98.084H258.24L245.304 76.084H246.14V102H243.016ZM292.915 102.22C290.686 102.22 288.677 101.721 286.887 100.724C285.127 99.6973 283.734 98.304 282.707 96.544C281.681 94.7547 281.167 92.716 281.167 90.428C281.167 88.1107 281.681 86.072 282.707 84.312C283.734 82.552 285.127 81.1733 286.887 80.176C288.647 79.1787 290.657 78.68 292.915 78.68C295.203 78.68 297.227 79.1787 298.987 80.176C300.777 81.1733 302.17 82.552 303.167 84.312C304.194 86.072 304.707 88.1107 304.707 90.428C304.707 92.716 304.194 94.7547 303.167 96.544C302.17 98.304 300.777 99.6973 298.987 100.724C297.198 101.721 295.174 102.22 292.915 102.22ZM292.915 99.448C294.587 99.448 296.069 99.0813 297.359 98.348C298.65 97.5853 299.662 96.5293 300.395 95.18C301.158 93.8013 301.539 92.2173 301.539 90.428C301.539 88.6093 301.158 87.0253 300.395 85.676C299.662 84.3267 298.65 83.2853 297.359 82.552C296.069 81.7893 294.602 81.408 292.959 81.408C291.317 81.408 289.85 81.7893 288.559 82.552C287.269 83.2853 286.242 84.3267 285.479 85.676C284.717 87.0253 284.335 88.6093 284.335 90.428C284.335 92.2173 284.717 93.8013 285.479 95.18C286.242 96.5293 287.269 97.5853 288.559 98.348C289.85 99.0813 291.302 99.448 292.915 99.448ZM321.997 78.68C323.875 78.68 325.517 79.0467 326.925 79.78C328.363 80.484 329.477 81.5693 330.269 83.036C331.091 84.5027 331.501 86.3507 331.501 88.58V102H328.377V88.888C328.377 86.4533 327.761 84.62 326.529 83.388C325.327 82.1267 323.625 81.496 321.425 81.496C319.783 81.496 318.345 81.8333 317.113 82.508C315.911 83.1533 314.972 84.1067 314.297 85.368C313.652 86.6 313.329 88.096 313.329 89.856V102H310.205V78.9H313.197V85.236L312.713 84.048C313.447 82.376 314.62 81.0707 316.233 80.132C317.847 79.164 319.768 78.68 321.997 78.68ZM348.256 102.22C346.056 102.22 344.076 101.721 342.316 100.724C340.585 99.7267 339.221 98.348 338.224 96.588C337.226 94.7987 336.728 92.7453 336.728 90.428C336.728 88.0813 337.226 86.028 338.224 84.268C339.221 82.508 340.585 81.144 342.316 80.176C344.076 79.1787 346.056 78.68 348.256 78.68C350.28 78.68 352.084 79.1347 353.668 80.044C355.281 80.9533 356.557 82.288 357.496 84.048C358.464 85.7787 358.948 87.9053 358.948 90.428C358.948 92.9213 358.478 95.048 357.54 96.808C356.601 98.568 355.325 99.9173 353.712 100.856C352.128 101.765 350.309 102.22 348.256 102.22ZM348.476 99.448C350.118 99.448 351.585 99.0813 352.876 98.348C354.196 97.5853 355.222 96.5293 355.956 95.18C356.718 93.8013 357.1 92.2173 357.1 90.428C357.1 88.6093 356.718 87.0253 355.956 85.676C355.222 84.3267 354.196 83.2853 352.876 82.552C351.585 81.7893 350.118 81.408 348.476 81.408C346.862 81.408 345.41 81.7893 344.12 82.552C342.829 83.2853 341.802 84.3267 341.04 85.676C340.277 87.0253 339.896 88.6093 339.896 90.428C339.896 92.2173 340.277 93.8013 341.04 95.18C341.802 96.5293 342.829 97.5853 344.12 98.348C345.41 99.0813 346.862 99.448 348.476 99.448ZM357.188 102V95.048L357.496 90.384L357.056 85.72V69.352H360.18V102H357.188ZM382.476 102V96.896L382.344 96.06V87.524C382.344 85.5587 381.787 84.048 380.672 82.992C379.587 81.936 377.959 81.408 375.788 81.408C374.292 81.408 372.869 81.6573 371.52 82.156C370.171 82.6547 369.027 83.3147 368.088 84.136L366.68 81.804C367.853 80.8067 369.261 80.044 370.904 79.516C372.547 78.9587 374.277 78.68 376.096 78.68C379.088 78.68 381.391 79.428 383.004 80.924C384.647 82.3907 385.468 84.6347 385.468 87.656V102H382.476ZM374.512 102.22C372.781 102.22 371.271 101.941 369.98 101.384C368.719 100.797 367.751 100.005 367.076 99.008C366.401 97.9813 366.064 96.808 366.064 95.488C366.064 94.2853 366.343 93.2 366.9 92.232C367.487 91.2347 368.425 90.4427 369.716 89.856C371.036 89.24 372.796 88.932 374.996 88.932H382.96V91.264H375.084C372.855 91.264 371.3 91.66 370.42 92.452C369.569 93.244 369.144 94.2267 369.144 95.4C369.144 96.72 369.657 97.776 370.684 98.568C371.711 99.36 373.148 99.756 374.996 99.756C376.756 99.756 378.267 99.36 379.528 98.568C380.819 97.7467 381.757 96.5733 382.344 95.048L383.048 97.204C382.461 98.7293 381.435 99.9467 379.968 100.856C378.531 101.765 376.712 102.22 374.512 102.22ZM392.82 110.756C391.734 110.756 390.693 110.58 389.696 110.228C388.728 109.876 387.892 109.348 387.188 108.644L388.64 106.312C389.226 106.869 389.857 107.295 390.532 107.588C391.236 107.911 392.013 108.072 392.864 108.072C393.89 108.072 394.77 107.779 395.504 107.192C396.266 106.635 396.985 105.637 397.66 104.2L399.156 100.812L399.508 100.328L409.012 78.9H412.092L400.52 104.772C399.874 106.268 399.156 107.456 398.364 108.336C397.601 109.216 396.765 109.832 395.856 110.184C394.946 110.565 393.934 110.756 392.82 110.756ZM398.98 102.66L388.332 78.9H391.588L401.004 100.108L398.98 102.66Z" fill="#1A2930"/>
<path d="M212.712 209.936L209.016 209.312V206.336H224.376V209.312L219.768 209.936V238.592L230.04 238.16L233.064 229.184L236.952 229.712L235.464 242H208.92V239.12L212.712 238.64V209.936ZM244.521 210.944C243.369 210.944 242.457 210.608 241.785 209.936C241.113 209.264 240.777 208.4 240.777 207.344C240.777 206.128 241.161 205.12 241.929 204.32C242.697 203.52 243.721 203.12 245.001 203.12C246.281 203.12 247.257 203.472 247.929 204.176C248.601 204.848 248.937 205.696 248.937 206.72C248.937 208 248.553 209.024 247.785 209.792C247.017 210.56 245.945 210.944 244.569 210.944H244.521ZM241.977 219.872L238.569 218.96V215.744L247.353 214.688H247.449L248.793 215.648V238.736L252.009 239.12V242H238.617V239.12L241.977 238.688V219.872ZM257.802 219.056H253.77V216.368L257.802 215.408V213.296C257.802 211.216 258.346 209.312 259.434 207.584C260.554 205.856 262.042 204.496 263.898 203.504C265.754 202.48 267.722 201.968 269.802 201.968C270.89 201.968 271.914 202.128 272.874 202.448V208.592C272.554 208.272 271.914 207.952 270.954 207.632C270.026 207.312 269.05 207.152 268.026 207.152C266.778 207.152 265.882 207.472 265.338 208.112C264.826 208.72 264.57 209.776 264.57 211.28V215.36H270.666V219.056H264.57V238.736L269.61 239.12V242H254.01V239.12L257.802 238.688V219.056ZM281.188 242.432C279.172 242.432 277.684 241.968 276.724 241.04C275.764 240.112 275.284 238.64 275.284 236.624V219.008H272.164V216.512C272.42 216.416 272.884 216.256 273.556 216.032C274.228 215.776 274.74 215.568 275.092 215.408C275.636 214.992 276.1 214.272 276.484 213.248C276.772 212.576 277.3 210.912 278.068 208.256H281.908L282.1 215.312H289.444V219.008H282.148V232.496C282.148 234.288 282.196 235.552 282.292 236.288C282.388 237.024 282.596 237.504 282.916 237.728C283.236 237.92 283.796 238.016 284.596 238.016C285.396 238.016 286.228 237.936 287.092 237.776C287.956 237.584 288.676 237.36 289.252 237.104L290.164 239.792C289.268 240.464 287.956 241.072 286.228 241.616C284.5 242.16 282.82 242.432 281.188 242.432ZM302.188 239.12L304.876 238.688V219.872L301.804 219.008V215.696L309.772 214.688L310.348 215.072L311.068 216.656V218.672C312.124 217.648 313.628 216.752 315.58 215.984C317.564 215.184 319.276 214.784 320.716 214.784C322.444 214.784 323.836 215.072 324.892 215.648C325.98 216.224 326.796 217.12 327.34 218.336C328.396 217.376 329.788 216.544 331.516 215.84C333.244 215.136 334.94 214.784 336.604 214.784C339.452 214.784 341.468 215.616 342.652 217.28C343.836 218.944 344.428 221.664 344.428 225.44V238.688L347.548 239.12V242H335.116V239.12L337.612 238.688V225.632C337.612 223.136 337.308 221.392 336.7 220.4C336.124 219.376 335.004 218.864 333.34 218.864C332.444 218.864 331.516 219.072 330.556 219.488C329.628 219.872 328.796 220.352 328.06 220.928C328.284 222.144 328.396 223.664 328.396 225.488V238.688L331.372 239.12V242H318.844V239.12L321.484 238.688V225.488C321.484 223.824 321.372 222.528 321.148 221.6C320.956 220.64 320.572 219.952 319.996 219.536C319.42 219.088 318.588 218.864 317.5 218.864C316.476 218.864 315.452 219.104 314.428 219.584C313.436 220.032 312.54 220.576 311.74 221.216V238.688L314.572 239.12V242H302.188V239.12ZM361.934 242.528C357.71 242.528 354.558 241.296 352.478 238.832C350.43 236.336 349.406 232.944 349.406 228.656C349.406 225.776 349.934 223.28 350.99 221.168C352.078 219.056 353.598 217.44 355.55 216.32C357.502 215.2 359.758 214.64 362.318 214.64C365.518 214.64 367.982 215.488 369.71 217.184C371.438 218.848 372.334 221.232 372.398 224.336C372.398 226.448 372.27 228.016 372.014 229.04H356.414C356.542 231.952 357.23 234.224 358.478 235.856C359.726 237.456 361.502 238.256 363.806 238.256C365.054 238.256 366.334 238.048 367.646 237.632C368.99 237.216 370.046 236.72 370.814 236.144L372.014 238.784C371.15 239.712 369.742 240.576 367.79 241.376C365.87 242.144 363.918 242.528 361.934 242.528ZM365.678 226.16C365.742 225.264 365.774 224.576 365.774 224.096C365.774 219.84 364.35 217.712 361.502 217.712C359.934 217.712 358.718 218.336 357.854 219.584C356.99 220.832 356.51 223.024 356.414 226.16H365.678ZM407.347 242.48C406.291 242.48 405.523 242.256 405.043 241.808C404.563 241.36 404.323 240.688 404.323 239.792V238.496C403.459 239.552 402.243 240.496 400.675 241.328C399.107 242.128 397.539 242.528 395.971 242.528C392.899 242.528 390.707 241.744 389.395 240.176C388.083 238.576 387.427 235.952 387.427 232.304V218.768L385.027 218.096V215.36L393.187 214.736H393.235L394.195 215.408V232.304C394.195 234.64 394.483 236.272 395.059 237.2C395.635 238.128 396.707 238.592 398.275 238.592C400.163 238.592 401.923 237.856 403.555 236.384V218.768L400.339 218.048V215.36L409.027 214.736H409.123L410.275 215.408V239.024H412.963L412.915 241.76C412.787 241.792 412.195 241.92 411.139 242.144C410.083 242.368 408.819 242.48 407.347 242.48ZM441.939 227.792C441.939 230.48 441.379 232.944 440.259 235.184C439.171 237.424 437.555 239.216 435.411 240.56C433.299 241.872 430.771 242.528 427.827 242.528C427.187 242.528 426.515 242.464 425.811 242.336C425.139 242.24 424.595 242.112 424.179 241.952L424.323 245.936V250.304L428.787 250.88V253.616H414.531V250.88L417.651 250.304V219.872L414.531 219.008V215.696L422.451 214.688H422.547L423.747 215.648V218.336C424.547 217.344 425.635 216.48 427.011 215.744C428.387 215.008 429.891 214.64 431.523 214.64C434.563 214.64 437.059 215.728 439.011 217.904C440.963 220.048 441.939 223.344 441.939 227.792ZM429.027 218.624C428.067 218.624 427.155 218.832 426.291 219.248C425.427 219.664 424.771 220.128 424.323 220.64V238.448C424.547 238.768 424.995 239.04 425.667 239.264C426.371 239.488 427.139 239.6 427.971 239.6C430.051 239.6 431.699 238.704 432.915 236.912C434.163 235.088 434.787 232.24 434.787 228.368C434.787 225.104 434.259 222.672 433.203 221.072C432.147 219.44 430.755 218.624 429.027 218.624Z" fill="#1A2930"/>
<g filter="url(#filter0_d_1_191)">
<rect x="231" y="279" width="190" height="190" rx="95" fill="white"/>
<path d="M285.376 368.384C283.648 368.384 282.037 368.107 280.544 367.552C279.072 366.976 277.792 366.165 276.704 365.12C275.616 364.075 274.763 362.848 274.144 361.44C273.547 360.032 273.248 358.485 273.248 356.8C273.248 355.115 273.547 353.568 274.144 352.16C274.763 350.752 275.616 349.525 276.704 348.48C277.813 347.435 279.104 346.635 280.576 346.08C282.048 345.504 283.659 345.216 285.408 345.216C287.349 345.216 289.099 345.557 290.656 346.24C292.235 346.901 293.557 347.883 294.624 349.184L291.296 352.256C290.528 351.381 289.675 350.731 288.736 350.304C287.797 349.856 286.773 349.632 285.664 349.632C284.619 349.632 283.659 349.803 282.784 350.144C281.909 350.485 281.152 350.976 280.512 351.616C279.872 352.256 279.371 353.013 279.008 353.888C278.667 354.763 278.496 355.733 278.496 356.8C278.496 357.867 278.667 358.837 279.008 359.712C279.371 360.587 279.872 361.344 280.512 361.984C281.152 362.624 281.909 363.115 282.784 363.456C283.659 363.797 284.619 363.968 285.664 363.968C286.773 363.968 287.797 363.755 288.736 363.328C289.675 362.88 290.528 362.208 291.296 361.312L294.624 364.384C293.557 365.685 292.235 366.677 290.656 367.36C289.099 368.043 287.339 368.384 285.376 368.384ZM297.133 368V350.784H301.901V355.648L301.229 354.24C301.741 353.024 302.562 352.107 303.693 351.488C304.823 350.848 306.199 350.528 307.821 350.528V355.136C307.607 355.115 307.415 355.104 307.245 355.104C307.074 355.083 306.893 355.072 306.701 355.072C305.335 355.072 304.226 355.467 303.373 356.256C302.541 357.024 302.125 358.229 302.125 359.872V368H297.133ZM318.568 368.256C316.605 368.256 314.877 367.872 313.384 367.104C311.912 366.336 310.771 365.291 309.96 363.968C309.149 362.624 308.744 361.099 308.744 359.392C308.744 357.664 309.139 356.139 309.928 354.816C310.739 353.472 311.837 352.427 313.224 351.68C314.611 350.912 316.179 350.528 317.928 350.528C319.613 350.528 321.128 350.891 322.472 351.616C323.837 352.32 324.915 353.344 325.704 354.688C326.493 356.011 326.888 357.6 326.888 359.456C326.888 359.648 326.877 359.872 326.856 360.128C326.835 360.363 326.813 360.587 326.792 360.8H312.808V357.888H324.168L322.248 358.752C322.248 357.856 322.067 357.077 321.704 356.416C321.341 355.755 320.84 355.243 320.2 354.88C319.56 354.496 318.813 354.304 317.96 354.304C317.107 354.304 316.349 354.496 315.688 354.88C315.048 355.243 314.547 355.765 314.184 356.448C313.821 357.109 313.64 357.899 313.64 358.816V359.584C313.64 360.523 313.843 361.355 314.248 362.08C314.675 362.784 315.261 363.328 316.008 363.712C316.776 364.075 317.672 364.256 318.696 364.256C319.613 364.256 320.413 364.117 321.096 363.84C321.8 363.563 322.44 363.147 323.016 362.592L325.672 365.472C324.883 366.368 323.891 367.061 322.696 367.552C321.501 368.021 320.125 368.256 318.568 368.256ZM339.663 368V364.64L339.343 363.904V357.888C339.343 356.821 339.012 355.989 338.351 355.392C337.711 354.795 336.719 354.496 335.375 354.496C334.457 354.496 333.551 354.645 332.655 354.944C331.78 355.221 331.033 355.605 330.415 356.096L328.623 352.608C329.561 351.947 330.692 351.435 332.015 351.072C333.337 350.709 334.681 350.528 336.047 350.528C338.671 350.528 340.708 351.147 342.159 352.384C343.609 353.621 344.335 355.552 344.335 358.176V368H339.663ZM334.415 368.256C333.071 368.256 331.919 368.032 330.959 367.584C329.999 367.115 329.263 366.485 328.751 365.696C328.239 364.907 327.983 364.021 327.983 363.04C327.983 362.016 328.228 361.12 328.719 360.352C329.231 359.584 330.031 358.987 331.119 358.56C332.207 358.112 333.625 357.888 335.375 357.888H339.951V360.8H335.919C334.745 360.8 333.935 360.992 333.487 361.376C333.06 361.76 332.847 362.24 332.847 362.816C332.847 363.456 333.092 363.968 333.583 364.352C334.095 364.715 334.788 364.896 335.663 364.896C336.495 364.896 337.241 364.704 337.903 364.32C338.564 363.915 339.044 363.328 339.343 362.56L340.111 364.864C339.748 365.973 339.087 366.816 338.127 367.392C337.167 367.968 335.929 368.256 334.415 368.256ZM355.253 368.256C353.226 368.256 351.647 367.744 350.517 366.72C349.386 365.675 348.821 364.128 348.821 362.08V346.976H353.813V362.016C353.813 362.741 354.005 363.307 354.389 363.712C354.773 364.096 355.295 364.288 355.957 364.288C356.746 364.288 357.418 364.075 357.973 363.648L359.317 367.168C358.805 367.531 358.186 367.808 357.461 368C356.757 368.171 356.021 368.256 355.253 368.256ZM346.165 355.008V351.168H358.101V355.008H346.165ZM369.492 368.256C367.529 368.256 365.801 367.872 364.308 367.104C362.836 366.336 361.694 365.291 360.884 363.968C360.073 362.624 359.668 361.099 359.668 359.392C359.668 357.664 360.062 356.139 360.852 354.816C361.662 353.472 362.761 352.427 364.148 351.68C365.534 350.912 367.102 350.528 368.852 350.528C370.537 350.528 372.052 350.891 373.396 351.616C374.761 352.32 375.838 353.344 376.628 354.688C377.417 356.011 377.812 357.6 377.812 359.456C377.812 359.648 377.801 359.872 377.78 360.128C377.758 360.363 377.737 360.587 377.716 360.8H363.732V357.888H375.092L373.172 358.752C373.172 357.856 372.99 357.077 372.628 356.416C372.265 355.755 371.764 355.243 371.124 354.88C370.484 354.496 369.737 354.304 368.884 354.304C368.03 354.304 367.273 354.496 366.612 354.88C365.972 355.243 365.47 355.765 365.108 356.448C364.745 357.109 364.564 357.899 364.564 358.816V359.584C364.564 360.523 364.766 361.355 365.172 362.08C365.598 362.784 366.185 363.328 366.932 363.712C367.7 364.075 368.596 364.256 369.62 364.256C370.537 364.256 371.337 364.117 372.02 363.84C372.724 363.563 373.364 363.147 373.94 362.592L376.596 365.472C375.806 366.368 374.814 367.061 373.62 367.552C372.425 368.021 371.049 368.256 369.492 368.256Z" fill="#1A2930"/>
<path d="M336.344 393.874C338.087 393.874 339.5 395.287 339.5 397.03C339.5 398.772 338.087 400.185 336.344 400.185H314.656C312.913 400.185 311.5 398.772 311.5 397.03C311.5 395.287 312.913 393.874 314.656 393.874H336.344ZM328.685 407.844C328.685 409.587 327.272 411 325.53 411C323.787 411 322.374 409.587 322.374 407.844V386.156C322.374 384.413 323.787 383 325.53 383C327.272 383 328.685 384.413 328.685 386.156V407.844Z" fill="#1A2930"/>
</g>
<rect x="1.5" y="1.5" width="649" height="646" rx="41.5" stroke="url(#paint0_linear_1_191)" stroke-width="3"/>
<defs>
<filter id="filter0_d_1_191" x="217" y="269" width="218" height="218" filterUnits="userSpaceOnUse" color-interpolation-filters="sRGB">
<feFlood flood-opacity="0" result="BackgroundImageFix"/>
<feColorMatrix in="SourceAlpha" type="matrix" values="0 0 0 0 0 0 0 0 0 0 0 0 0 0 0 0 0 0 127 0" result="hardAlpha"/>
<feOffset dy="4"/>
<feGaussianBlur stdDeviation="7"/>
<feComposite in2="hardAlpha" operator="out"/>
<feColorMatrix type="matrix" values="0 0 0 0 0 0 0 0 0 0 0 0 0 0 0 0 0 0 0.2 0"/>
<feBlend mode="normal" in2="BackgroundImageFix" result="effect1_dropShadow_1_191"/>
<feBlend mode="normal" in="SourceGraphic" in2="effect1_dropShadow_1_191" result="shape"/>
</filter>
<linearGradient id="paint0_linear_1_191" x1="668" y1="3" x2="2.99999" y2="661" gradientUnits="userSpaceOnUse">
<stop offset="0.0001" stop-color="#0038FF"/>
<stop offset="0.405" stop-color="#C60083"/>
<stop offset="0.685" stop-color="#FFC700"/>
<stop offset="1" stop-color="#FF0000"/>
</linearGradient>
</defs>
</svg>
