<svg width="386" height="385" viewBox="0 0 386 385" fill="none" xmlns="http://www.w3.org/2000/svg">
<rect x="2" y="2.22607" width="382" height="380.226" rx="23.6533" fill="#B3DFFD"/>
<rect x="18.5573" y="311.492" width="348.885" height="37.8452" rx="9.4613" fill="#DAF0FF"/>
<g clip-path="url(#clip0_1_484)">
<path d="M35.0823 325.027C34.1428 324.088 33.4997 322.446 33.1806 320.953C32.861 322.447 32.2186 324.088 31.2788 325.028C30.3393 325.967 28.6976 326.61 27.2047 326.93C28.6982 327.249 30.3396 327.892 31.2791 328.832C32.2186 329.771 32.8616 331.413 33.1812 332.906C33.5004 331.412 34.1432 329.771 35.0826 328.831C36.022 327.892 37.6637 327.249 39.1567 326.929C37.6635 326.61 36.0221 325.967 35.0823 325.027Z" fill="#000AFF"/>
<path d="M41.1851 332.552C40.6243 331.991 40.2395 331.01 40.0489 330.118C39.8579 331.01 39.4744 331.991 38.913 332.553C38.3516 333.113 37.3708 333.498 36.4789 333.689C37.3711 333.88 38.3516 334.264 38.913 334.825C39.4744 335.386 39.8586 336.367 40.0495 337.259C40.2401 336.367 40.6243 335.386 41.1854 334.825C41.7465 334.264 42.7274 333.879 43.6191 333.688C42.7274 333.497 41.7465 333.113 41.1851 332.552Z" fill="#000AFF"/>
<path d="M31.233 334.472C31.0727 335.221 30.7507 336.044 30.2794 336.516C29.8083 336.986 28.9848 337.309 28.2361 337.469C28.9848 337.63 29.8083 337.952 30.2794 338.423C30.7507 338.894 31.0733 339.718 31.2336 340.467C31.3938 339.718 31.716 338.894 32.1874 338.423C32.6582 337.952 33.4818 337.629 34.2304 337.469C33.4819 337.309 32.6582 336.986 32.187 336.515C31.716 336.044 31.3932 335.221 31.233 334.472Z" fill="#000AFF"/>
</g>
<rect x="51.0807" y="323.318" width="1.77399" height="14.7833" fill="black"/>
<path d="M143.929 60.3406V42.1276H145.516L153.842 56.3337H153.009L161.257 42.1276H162.844V60.3406H160.997V45.0156H161.439L153.842 58.0249H152.931L145.282 45.0156H145.776V60.3406H143.929ZM173.436 60.4707C172.118 60.4707 170.93 60.1758 169.872 59.586C168.831 58.9789 168.007 58.155 167.4 57.1143C166.793 56.0562 166.489 54.8507 166.489 53.4977C166.489 52.1274 166.793 50.9219 167.4 49.8811C168.007 48.8404 168.831 48.0251 169.872 47.4354C170.912 46.8456 172.1 46.5507 173.436 46.5507C174.789 46.5507 175.986 46.8456 177.027 47.4354C178.085 48.0251 178.909 48.8404 179.498 49.8811C180.105 50.9219 180.409 52.1274 180.409 53.4977C180.409 54.8507 180.105 56.0562 179.498 57.1143C178.909 58.155 178.085 58.9789 177.027 59.586C175.969 60.1758 174.772 60.4707 173.436 60.4707ZM173.436 58.8315C174.425 58.8315 175.301 58.6147 176.064 58.181C176.827 57.73 177.426 57.1056 177.859 56.3077C178.31 55.4924 178.536 54.5558 178.536 53.4977C178.536 52.4223 178.31 51.4856 177.859 50.6877C177.426 49.8898 176.827 49.274 176.064 48.8404C175.301 48.3894 174.433 48.1639 173.462 48.1639C172.491 48.1639 171.623 48.3894 170.86 48.8404C170.097 49.274 169.49 49.8898 169.039 50.6877C168.588 51.4856 168.362 52.4223 168.362 53.4977C168.362 54.5558 168.588 55.4924 169.039 56.3077C169.49 57.1056 170.097 57.73 170.86 58.181C171.623 58.6147 172.482 58.8315 173.436 58.8315ZM190.633 46.5507C191.743 46.5507 192.715 46.7676 193.547 47.2012C194.397 47.6175 195.056 48.2593 195.525 49.1266C196.01 49.9939 196.253 51.0866 196.253 52.4049V60.3406H194.406V52.587C194.406 51.1473 194.042 50.0632 193.313 49.3347C192.602 48.5889 191.596 48.2159 190.295 48.2159C189.324 48.2159 188.474 48.4154 187.745 48.8143C187.034 49.196 186.479 49.7597 186.08 50.5056C185.698 51.2341 185.507 52.1187 185.507 53.1594V60.3406H183.66V46.6808H185.429V50.4275L185.143 49.725C185.577 48.7363 186.271 47.9644 187.225 47.4093C188.179 46.8369 189.315 46.5507 190.633 46.5507ZM206.161 60.4707C204.86 60.4707 203.689 60.1758 202.648 59.586C201.625 58.9963 200.818 58.181 200.228 57.1403C199.639 56.0822 199.344 54.868 199.344 53.4977C199.344 52.11 199.639 50.8958 200.228 49.8551C200.818 48.8143 201.625 48.0078 202.648 47.4354C203.689 46.8456 204.86 46.5507 206.161 46.5507C207.357 46.5507 208.424 46.8196 209.361 47.3573C210.315 47.895 211.069 48.6843 211.624 49.725C212.197 50.7484 212.483 52.006 212.483 53.4977C212.483 54.9721 212.205 56.2296 211.65 57.2704C211.095 58.3111 210.341 59.109 209.387 59.6641C208.45 60.2018 207.375 60.4707 206.161 60.4707ZM206.291 58.8315C207.262 58.8315 208.129 58.6147 208.892 58.181C209.673 57.73 210.28 57.1056 210.714 56.3077C211.165 55.4924 211.39 54.5558 211.39 53.4977C211.39 52.4223 211.165 51.4856 210.714 50.6877C210.28 49.8898 209.673 49.274 208.892 48.8404C208.129 48.3894 207.262 48.1639 206.291 48.1639C205.337 48.1639 204.478 48.3894 203.715 48.8404C202.952 49.274 202.344 49.8898 201.893 50.6877C201.442 51.4856 201.217 52.4223 201.217 53.4977C201.217 54.5558 201.442 55.4924 201.893 56.3077C202.344 57.1056 202.952 57.73 203.715 58.181C204.478 58.6147 205.337 58.8315 206.291 58.8315ZM211.442 60.3406V56.2296L211.624 53.4717L211.364 50.7137V41.0348H213.212V60.3406H211.442ZM226.396 60.3406V57.3224L226.318 56.8281V51.7805C226.318 50.6183 225.988 49.725 225.329 49.1006C224.687 48.4761 223.725 48.1639 222.441 48.1639C221.557 48.1639 220.715 48.3113 219.917 48.6062C219.12 48.9011 218.443 49.2914 217.888 49.777L217.055 48.398C217.749 47.8083 218.582 47.3573 219.553 47.0451C220.525 46.7155 221.548 46.5507 222.623 46.5507C224.393 46.5507 225.754 46.993 226.708 47.8777C227.68 48.745 228.165 50.0719 228.165 51.8585V60.3406H226.396ZM221.687 60.4707C220.663 60.4707 219.77 60.3059 219.007 59.9763C218.261 59.6294 217.688 59.1611 217.29 58.5713C216.891 57.9642 216.691 57.2704 216.691 56.4898C216.691 55.7787 216.856 55.1369 217.185 54.5645C217.532 53.9747 218.087 53.5064 218.851 53.1594C219.631 52.7952 220.672 52.6131 221.973 52.6131H226.682V53.992H222.025C220.707 53.992 219.787 54.2262 219.267 54.6945C218.764 55.1629 218.512 55.744 218.512 56.4378C218.512 57.2183 218.816 57.8428 219.423 58.3111C220.03 58.7795 220.88 59.0136 221.973 59.0136C223.014 59.0136 223.907 58.7795 224.653 58.3111C225.416 57.8254 225.971 57.1316 226.318 56.2296L226.734 57.5046C226.387 58.4065 225.78 59.1264 224.913 59.6641C224.063 60.2018 222.988 60.4707 221.687 60.4707ZM232.512 65.5183C231.871 65.5183 231.255 65.4142 230.665 65.2061C230.093 64.9979 229.598 64.6857 229.182 64.2694L230.041 62.8904C230.388 63.22 230.761 63.4715 231.159 63.6449C231.576 63.8357 232.035 63.9311 232.538 63.9311C233.146 63.9311 233.666 63.7577 234.1 63.4108C234.551 63.0812 234.976 62.4914 235.374 61.6415L236.259 59.6381L236.467 59.3519L242.087 46.6808H243.909L237.066 61.9797C236.684 62.8644 236.259 63.5669 235.791 64.0873C235.34 64.6076 234.845 64.9719 234.308 65.18C233.77 65.4055 233.172 65.5183 232.512 65.5183ZM236.155 60.7309L229.859 46.6808H231.784L237.352 59.2218L236.155 60.7309Z" fill="#1A2930"/>
<path d="M126.009 124.801L123.824 124.432V122.672H132.907V124.432L130.182 124.801V141.746L136.256 141.491L138.044 136.183L140.343 136.495L139.463 143.762H123.767V142.059L126.009 141.775V124.801ZM144.819 125.397C144.138 125.397 143.599 125.199 143.201 124.801C142.804 124.404 142.605 123.893 142.605 123.269C142.605 122.549 142.832 121.953 143.286 121.48C143.741 121.007 144.346 120.771 145.103 120.771C145.86 120.771 146.437 120.979 146.834 121.395C147.232 121.793 147.43 122.294 147.43 122.9C147.43 123.656 147.203 124.262 146.749 124.716C146.295 125.17 145.661 125.397 144.848 125.397H144.819ZM143.315 130.677L141.3 130.137V128.236L146.494 127.611H146.551L147.345 128.179V141.832L149.247 142.059V143.762H141.328V142.059L143.315 141.803V130.677ZM152.672 130.194H150.288V128.605L152.672 128.037V126.788C152.672 125.558 152.994 124.432 153.637 123.41C154.3 122.389 155.18 121.584 156.277 120.998C157.375 120.392 158.538 120.09 159.768 120.09C160.412 120.09 161.017 120.184 161.585 120.373V124.007C161.396 123.817 161.017 123.628 160.45 123.439C159.901 123.25 159.324 123.155 158.718 123.155C157.98 123.155 157.45 123.344 157.129 123.723C156.826 124.082 156.675 124.707 156.675 125.596V128.009H160.279V130.194H156.675V141.832L159.655 142.059V143.762H150.43V142.059L152.672 141.803V130.194ZM166.501 144.017C165.309 144.017 164.429 143.743 163.861 143.194C163.294 142.645 163.01 141.775 163.01 140.583V130.166H161.165V128.69C161.316 128.633 161.591 128.538 161.988 128.406C162.385 128.255 162.688 128.132 162.896 128.037C163.218 127.791 163.492 127.365 163.72 126.76C163.89 126.362 164.202 125.378 164.656 123.808H166.927L167.04 127.98H171.383V130.166H167.069V138.142C167.069 139.201 167.097 139.949 167.154 140.384C167.211 140.819 167.334 141.103 167.523 141.236C167.712 141.349 168.043 141.406 168.516 141.406C168.989 141.406 169.481 141.359 169.992 141.264C170.503 141.15 170.929 141.018 171.27 140.867L171.809 142.456C171.279 142.853 170.503 143.213 169.481 143.535C168.46 143.856 167.466 144.017 166.501 144.017ZM178.919 142.059L180.509 141.803V130.677L178.692 130.166V128.207L183.404 127.611L183.745 127.838L184.17 128.775V129.967C184.795 129.362 185.684 128.832 186.838 128.378C188.012 127.905 189.024 127.668 189.875 127.668C190.897 127.668 191.72 127.838 192.345 128.179C192.988 128.52 193.471 129.049 193.792 129.768C194.417 129.201 195.24 128.709 196.262 128.292C197.284 127.876 198.287 127.668 199.271 127.668C200.955 127.668 202.147 128.16 202.847 129.144C203.547 130.128 203.897 131.736 203.897 133.969V141.803L205.742 142.059V143.762H198.391V142.059L199.867 141.803V134.083C199.867 132.607 199.687 131.576 199.327 130.989C198.987 130.383 198.324 130.081 197.34 130.081C196.811 130.081 196.262 130.204 195.694 130.45C195.145 130.677 194.653 130.961 194.218 131.301C194.351 132.02 194.417 132.919 194.417 133.998V141.803L196.177 142.059V143.762H188.769V142.059L190.33 141.803V133.998C190.33 133.014 190.263 132.247 190.131 131.699C190.017 131.131 189.79 130.724 189.45 130.478C189.109 130.213 188.617 130.081 187.974 130.081C187.368 130.081 186.763 130.223 186.157 130.506C185.571 130.771 185.041 131.093 184.568 131.471V141.803L186.242 142.059V143.762H178.919V142.059ZM214.249 144.074C211.751 144.074 209.887 143.345 208.657 141.888C207.446 140.412 206.84 138.407 206.84 135.871C206.84 134.168 207.153 132.692 207.777 131.443C208.42 130.194 209.319 129.239 210.474 128.576C211.628 127.914 212.962 127.583 214.476 127.583C216.368 127.583 217.825 128.084 218.847 129.087C219.869 130.071 220.398 131.481 220.436 133.316C220.436 134.565 220.361 135.493 220.209 136.098H210.984C211.06 137.82 211.467 139.164 212.205 140.129C212.943 141.075 213.993 141.548 215.356 141.548C216.094 141.548 216.85 141.425 217.626 141.179C218.421 140.933 219.046 140.639 219.5 140.299L220.209 141.86C219.698 142.409 218.866 142.92 217.711 143.393C216.576 143.847 215.422 144.074 214.249 144.074ZM216.463 134.395C216.5 133.865 216.519 133.458 216.519 133.175C216.519 130.658 215.677 129.399 213.993 129.399C213.066 129.399 212.347 129.768 211.836 130.506C211.325 131.244 211.041 132.541 210.984 134.395H216.463ZM241.103 144.046C240.478 144.046 240.024 143.913 239.74 143.648C239.457 143.383 239.315 142.986 239.315 142.456V141.69C238.804 142.314 238.085 142.872 237.158 143.364C236.23 143.837 235.303 144.074 234.376 144.074C232.559 144.074 231.263 143.61 230.487 142.683C229.711 141.737 229.324 140.185 229.324 138.028V130.024L227.904 129.627V128.009L232.73 127.64H232.758L233.326 128.037V138.028C233.326 139.41 233.496 140.375 233.837 140.923C234.177 141.472 234.811 141.746 235.738 141.746C236.855 141.746 237.896 141.311 238.861 140.441V130.024L236.959 129.598V128.009L242.096 127.64H242.153L242.834 128.037V142.002H244.424L244.395 143.62C244.32 143.639 243.97 143.714 243.345 143.847C242.721 143.979 241.973 144.046 241.103 144.046ZM261.558 135.36C261.558 136.95 261.227 138.407 260.565 139.731C259.922 141.056 258.966 142.115 257.698 142.91C256.449 143.686 254.954 144.074 253.214 144.074C252.835 144.074 252.438 144.036 252.021 143.96C251.624 143.904 251.302 143.828 251.056 143.733L251.141 146.089V148.672L253.781 149.013V150.631H245.351V149.013L247.196 148.672V130.677L245.351 130.166V128.207L250.035 127.611H250.091L250.801 128.179V129.768C251.274 129.182 251.917 128.671 252.731 128.236C253.545 127.801 254.434 127.583 255.399 127.583C257.197 127.583 258.673 128.226 259.827 129.513C260.981 130.781 261.558 132.73 261.558 135.36ZM253.923 129.939C253.355 129.939 252.816 130.062 252.305 130.308C251.794 130.554 251.406 130.828 251.141 131.131V141.661C251.274 141.851 251.539 142.011 251.936 142.144C252.353 142.276 252.807 142.343 253.299 142.343C254.529 142.343 255.503 141.813 256.222 140.753C256.96 139.674 257.329 137.99 257.329 135.701C257.329 133.771 257.017 132.332 256.393 131.386C255.768 130.421 254.945 129.939 253.923 129.939Z" fill="#1A2930"/>
<g filter="url(#filter0_d_1_484)">
<rect x="136.824" y="165.434" width="112.353" height="112.353" rx="56.1765" fill="white"/>
<path d="M168.613 217.989C167.592 217.989 166.639 217.825 165.756 217.497C164.886 217.156 164.129 216.677 163.485 216.059C162.842 215.441 162.337 214.715 161.971 213.883C161.618 213.05 161.442 212.136 161.442 211.139C161.442 210.142 161.618 209.228 161.971 208.395C162.337 207.563 162.842 206.837 163.485 206.219C164.141 205.601 164.904 205.128 165.775 204.8C166.645 204.459 167.598 204.289 168.632 204.289C169.78 204.289 170.815 204.491 171.736 204.895C172.669 205.286 173.451 205.866 174.082 206.635L172.114 208.452C171.66 207.935 171.155 207.55 170.6 207.298C170.045 207.033 169.44 206.9 168.784 206.9C168.165 206.9 167.598 207.001 167.081 207.203C166.563 207.405 166.116 207.695 165.737 208.074C165.359 208.452 165.062 208.9 164.848 209.417C164.646 209.934 164.545 210.508 164.545 211.139C164.545 211.77 164.646 212.344 164.848 212.861C165.062 213.378 165.359 213.826 165.737 214.205C166.116 214.583 166.563 214.873 167.081 215.075C167.598 215.277 168.165 215.378 168.784 215.378C169.44 215.378 170.045 215.252 170.6 214.999C171.155 214.734 171.66 214.337 172.114 213.807L174.082 215.624C173.451 216.393 172.669 216.98 171.736 217.384C170.815 217.787 169.774 217.989 168.613 217.989ZM175.565 217.762V207.582H178.385V210.458L177.988 209.625C178.29 208.906 178.776 208.364 179.445 207.998C180.113 207.619 180.927 207.43 181.886 207.43V210.155C181.759 210.142 181.646 210.136 181.545 210.136C181.444 210.124 181.337 210.117 181.223 210.117C180.416 210.117 179.76 210.351 179.255 210.817C178.763 211.272 178.517 211.984 178.517 212.956V217.762H175.565ZM188.241 217.913C187.08 217.913 186.058 217.686 185.175 217.232C184.305 216.778 183.63 216.16 183.151 215.378C182.671 214.583 182.432 213.681 182.432 212.672C182.432 211.65 182.665 210.748 183.132 209.966C183.611 209.171 184.261 208.553 185.081 208.111C185.901 207.657 186.828 207.43 187.862 207.43C188.859 207.43 189.755 207.645 190.549 208.074C191.357 208.49 191.994 209.095 192.461 209.89C192.927 210.672 193.161 211.612 193.161 212.71C193.161 212.823 193.154 212.956 193.142 213.107C193.129 213.246 193.117 213.378 193.104 213.504H184.835V211.782H191.552L190.417 212.293C190.417 211.763 190.31 211.303 190.095 210.912C189.881 210.521 189.584 210.218 189.206 210.004C188.827 209.777 188.386 209.663 187.881 209.663C187.377 209.663 186.929 209.777 186.538 210.004C186.159 210.218 185.863 210.527 185.648 210.931C185.434 211.322 185.327 211.789 185.327 212.331V212.785C185.327 213.34 185.447 213.832 185.686 214.261C185.939 214.678 186.285 214.999 186.727 215.226C187.181 215.441 187.711 215.548 188.316 215.548C188.859 215.548 189.332 215.466 189.736 215.302C190.152 215.138 190.53 214.892 190.871 214.564L192.442 216.267C191.975 216.797 191.388 217.207 190.682 217.497C189.975 217.775 189.162 217.913 188.241 217.913ZM200.715 217.762V215.775L200.526 215.34V211.782C200.526 211.152 200.33 210.66 199.939 210.306C199.56 209.953 198.974 209.777 198.179 209.777C197.637 209.777 197.101 209.865 196.571 210.042C196.054 210.206 195.612 210.433 195.246 210.723L194.186 208.66C194.742 208.269 195.41 207.966 196.192 207.752C196.974 207.537 197.769 207.43 198.577 207.43C200.128 207.43 201.333 207.796 202.191 208.528C203.049 209.259 203.477 210.401 203.477 211.953V217.762H200.715ZM197.611 217.913C196.817 217.913 196.136 217.781 195.568 217.516C195 217.238 194.565 216.866 194.262 216.4C193.959 215.933 193.808 215.409 193.808 214.829C193.808 214.223 193.953 213.694 194.243 213.239C194.546 212.785 195.019 212.432 195.662 212.18C196.306 211.915 197.145 211.782 198.179 211.782H200.885V213.504H198.501C197.807 213.504 197.328 213.618 197.063 213.845C196.81 214.072 196.684 214.356 196.684 214.697C196.684 215.075 196.829 215.378 197.119 215.605C197.422 215.819 197.832 215.926 198.349 215.926C198.841 215.926 199.283 215.813 199.674 215.586C200.065 215.346 200.349 214.999 200.526 214.545L200.98 215.908C200.765 216.564 200.374 217.062 199.806 217.402C199.239 217.743 198.507 217.913 197.611 217.913ZM209.934 217.913C208.735 217.913 207.802 217.611 207.133 217.005C206.464 216.387 206.13 215.472 206.13 214.261V205.33H209.082V214.223C209.082 214.652 209.196 214.987 209.423 215.226C209.65 215.453 209.959 215.567 210.35 215.567C210.817 215.567 211.214 215.441 211.542 215.188L212.337 217.27C212.034 217.484 211.668 217.648 211.239 217.762C210.823 217.863 210.388 217.913 209.934 217.913ZM204.56 210.079V207.809H211.618V210.079H204.56ZM218.354 217.913C217.193 217.913 216.171 217.686 215.288 217.232C214.418 216.778 213.743 216.16 213.263 215.378C212.784 214.583 212.544 213.681 212.544 212.672C212.544 211.65 212.778 210.748 213.244 209.966C213.724 209.171 214.374 208.553 215.194 208.111C216.014 207.657 216.941 207.43 217.975 207.43C218.972 207.43 219.867 207.645 220.662 208.074C221.47 208.49 222.107 209.095 222.573 209.89C223.04 210.672 223.273 211.612 223.273 212.71C223.273 212.823 223.267 212.956 223.255 213.107C223.242 213.246 223.229 213.378 223.217 213.504H214.948V211.782H221.665L220.53 212.293C220.53 211.763 220.422 211.303 220.208 210.912C219.994 210.521 219.697 210.218 219.319 210.004C218.94 209.777 218.499 209.663 217.994 209.663C217.489 209.663 217.042 209.777 216.651 210.004C216.272 210.218 215.976 210.527 215.761 210.931C215.547 211.322 215.44 211.789 215.44 212.331V212.785C215.44 213.34 215.559 213.832 215.799 214.261C216.051 214.678 216.398 214.999 216.84 215.226C217.294 215.441 217.824 215.548 218.429 215.548C218.972 215.548 219.445 215.466 219.848 215.302C220.265 215.138 220.643 214.892 220.984 214.564L222.554 216.267C222.088 216.797 221.501 217.207 220.795 217.497C220.088 217.775 219.274 217.913 218.354 217.913Z" fill="#1A2930"/>
<path d="M199.116 233.332C200.147 233.332 200.982 234.167 200.982 235.198C200.982 236.228 200.147 237.064 199.116 237.064H186.291C185.26 237.064 184.425 236.228 184.425 235.198C184.425 234.167 185.26 233.332 186.291 233.332H199.116ZM194.587 241.593C194.587 242.623 193.752 243.459 192.721 243.459C191.691 243.459 190.855 242.623 190.855 241.593V228.767C190.855 227.737 191.691 226.901 192.721 226.901C193.752 226.901 194.587 227.737 194.587 228.767V241.593Z" fill="#1A2930"/>
</g>
<rect x="1.113" y="1.33908" width="383.774" height="382" rx="24.5402" stroke="url(#paint0_linear_1_484)" stroke-width="1.77399"/>
<defs>
<filter id="filter0_d_1_484" x="128.545" y="159.52" width="128.91" height="128.91" filterUnits="userSpaceOnUse" color-interpolation-filters="sRGB">
<feFlood flood-opacity="0" result="BackgroundImageFix"/>
<feColorMatrix in="SourceAlpha" type="matrix" values="0 0 0 0 0 0 0 0 0 0 0 0 0 0 0 0 0 0 127 0" result="hardAlpha"/>
<feOffset dy="2.36533"/>
<feGaussianBlur stdDeviation="4.13932"/>
<feComposite in2="hardAlpha" operator="out"/>
<feColorMatrix type="matrix" values="0 0 0 0 0 0 0 0 0 0 0 0 0 0 0 0 0 0 0.2 0"/>
<feBlend mode="normal" in2="BackgroundImageFix" result="effect1_dropShadow_1_484"/>
<feBlend mode="normal" in="SourceGraphic" in2="effect1_dropShadow_1_484" result="shape"/>
</filter>
<linearGradient id="paint0_linear_1_484" x1="395.235" y1="2.22608" x2="2.00002" y2="391.322" gradientUnits="userSpaceOnUse">
<stop offset="0.0001" stop-color="#0038FF"/>
<stop offset="0.405" stop-color="#C60083"/>
<stop offset="0.685" stop-color="#FFC700"/>
<stop offset="1" stop-color="#FF0000"/>
</linearGradient>
<clipPath id="clip0_1_484">
<rect width="19.5139" height="19.5139" fill="white" transform="translate(25.6539 320.953)"/>
</clipPath>
</defs>
</svg>
