<svg width="300" height="91" viewBox="0 0 300 91" fill="none" xmlns="http://www.w3.org/2000/svg">
<g clip-path="url(#clip0_855_93)">
<path fill-rule="evenodd" clip-rule="evenodd" d="M18.3316 18.3387H42.3151C45.3929 18.3387 48.1727 18.7358 50.6548 19.5301C53.1439 20.3243 55.243 21.4519 56.9591 22.9127C58.6753 24.3736 59.9943 26.1677 60.9162 28.2952C61.8381 30.4227 62.2991 32.7912 62.2991 35.408C62.2991 37.6631 61.9799 39.6771 61.3417 41.4429C60.7035 43.2087 59.817 44.7759 58.6895 46.1304C57.5619 47.492 56.2145 48.6408 54.6544 49.5911C53.0943 50.5413 51.3639 51.2717 49.4634 51.7823L63.9939 72.1563H52.8461L39.5849 53.3992H27.7066V72.1563H18.3245V45.017H41.5847C44.9816 45.017 47.6834 44.1944 49.6832 42.5421C51.6972 40.9039 52.6971 38.6843 52.6971 35.9044C52.6971 32.9189 51.7256 30.6638 49.7612 29.1533C47.8111 27.6286 45.0596 26.8698 41.5067 26.8698H18.3245V18.3387H18.3316ZM77.9359 72.1492V18.3316H88.0058L104.38 43.776L120.755 18.3316H130.824V72.1492H121.442V33.5571L104.451 58.9235H104.146L87.3109 33.706V72.1492H77.9359ZM177.09 90.4879V18.3387H185.841L214.604 55.5479V0H0V90.4879H177.09ZM149.234 72.1492V18.3316H158.616V72.1492H149.234Z" fill="#FF0000"/>
<path fill-rule="evenodd" clip-rule="evenodd" d="M237.999 18.3387H281.668V27.1038H264.599V72.1563H255.068V27.1038H237.999V18.3387ZM223.986 0V72.1492H216.079L186.465 33.862V90.4808H300V0H223.986Z" fill="white"/>
</g>
<defs>
<clipPath id="clip0_855_93">
<rect width="300" height="90.4879" fill="white"/>
</clipPath>
</defs>
</svg>
