<svg width="800" height="242" viewBox="0 0 800 242" fill="none" xmlns="http://www.w3.org/2000/svg">
<g clip-path="url(#clip0_425_1056)">
<path fill-rule="evenodd" clip-rule="evenodd" d="M48.8843 48.9032H112.84C121.048 48.9032 128.461 49.9622 135.079 52.0802C141.717 54.1982 147.315 57.205 151.891 61.1006C156.467 64.9962 159.985 69.7806 162.443 75.4539C164.902 81.1271 166.131 87.4433 166.131 94.4213C166.131 100.435 165.28 105.806 163.578 110.514C161.876 115.223 159.512 119.402 156.505 123.014C153.498 126.645 149.905 129.709 145.745 132.243C141.585 134.777 136.97 136.725 131.902 138.086L170.651 192.417H140.923L105.56 142.398H73.8843V192.417H48.8654V120.045H110.893C119.951 120.045 127.156 117.852 132.489 113.446C137.859 109.077 140.526 103.158 140.526 95.7451C140.526 87.7837 137.935 81.7701 132.697 77.7421C127.496 73.6763 120.159 71.6528 110.685 71.6528H48.8654V48.9032H48.8843ZM207.829 192.398V48.8843H234.682L278.347 116.736L322.012 48.8843H348.865V192.398H323.846V89.4856L278.536 157.129H277.723L232.829 89.8828V192.398H207.829ZM472.239 241.301V48.9032H495.575L572.277 148.128V0H0V241.301H472.239ZM397.958 192.398V48.8843H422.977V192.398H397.958Z" fill="#FF0000"/>
<path fill-rule="evenodd" clip-rule="evenodd" d="M634.663 48.9032H751.116V72.2768H705.598V192.417H680.182V72.2768H634.663V48.9032ZM597.296 0V192.398H576.21L497.239 90.2988V241.282H800V0H597.296Z" fill="black"/>
</g>
<defs>
<clipPath id="clip0_425_1056">
<rect width="800" height="241.301" fill="white"/>
</clipPath>
</defs>
</svg>
