<svg width="386" height="385" viewBox="0 0 386 385" fill="none" xmlns="http://www.w3.org/2000/svg">
<rect x="2" y="2.3562" width="382" height="380.226" rx="23.6533" fill="#FFD700"/>
<rect x="18.5573" y="311.623" width="348.885" height="37.8452" rx="9.4613" fill="#FFF4BC"/>
<g clip-path="url(#clip0_1_569)">
<path d="M35.0823 325.158C34.1428 324.218 33.4997 322.577 33.1806 321.084C32.861 322.577 32.2186 324.219 31.2788 325.158C30.3393 326.098 28.6976 326.741 27.2047 327.06C28.6982 327.38 30.3396 328.022 31.2791 328.962C32.2186 329.902 32.8616 331.543 33.1812 333.036C33.5004 331.543 34.1432 329.901 35.0826 328.961C36.022 328.022 37.6637 327.379 39.1567 327.059C37.6635 326.74 36.0221 326.097 35.0823 325.158Z" fill="#000AFF"/>
<path d="M41.1851 332.683C40.6243 332.122 40.2395 331.141 40.0489 330.249C39.8579 331.141 39.4744 332.121 38.913 332.683C38.3516 333.244 37.3708 333.628 36.4789 333.819C37.3711 334.01 38.3516 334.394 38.913 334.955C39.4744 335.516 39.8586 336.497 40.0495 337.389C40.2401 336.497 40.6243 335.516 41.1854 334.955C41.7465 334.394 42.7274 334.01 43.6191 333.818C42.7274 333.628 41.7465 333.244 41.1851 332.683Z" fill="#000AFF"/>
<path d="M31.233 334.602C31.0727 335.351 30.7507 336.175 30.2794 336.646C29.8083 337.117 28.9848 337.439 28.2361 337.6C28.9848 337.761 29.8083 338.082 30.2794 338.554C30.7507 339.025 31.0733 339.848 31.2336 340.597C31.3938 339.848 31.716 339.025 32.1874 338.553C32.6582 338.082 33.4818 337.76 34.2304 337.599C33.4819 337.439 32.6582 337.117 32.187 336.646C31.716 336.175 31.3932 335.351 31.233 334.602Z" fill="#000AFF"/>
</g>
<rect x="51.0807" y="323.449" width="1.77399" height="14.7833" fill="black"/>
<path d="M144.22 60.6269C142.867 60.6269 141.566 60.4101 140.317 59.9765C139.086 59.5255 138.132 58.9531 137.455 58.2592L138.21 56.7762C138.851 57.4006 139.71 57.9297 140.785 58.3633C141.878 58.7796 143.023 58.9878 144.22 58.9878C145.365 58.9878 146.293 58.849 147.004 58.5715C147.732 58.2766 148.261 57.8863 148.591 57.4006C148.938 56.9149 149.111 56.3772 149.111 55.7875C149.111 55.0763 148.903 54.5039 148.487 54.0702C148.088 53.6366 147.559 53.2984 146.9 53.0555C146.241 52.7953 145.512 52.5698 144.714 52.379C143.916 52.1882 143.118 51.9888 142.321 51.7806C141.523 51.5551 140.785 51.2602 140.109 50.896C139.45 50.5317 138.912 50.0547 138.496 49.465C138.097 48.8579 137.897 48.0686 137.897 47.0973C137.897 46.1953 138.132 45.3714 138.6 44.6255C139.086 43.8623 139.823 43.2552 140.811 42.8042C141.8 42.3359 143.066 42.1017 144.61 42.1017C145.634 42.1017 146.648 42.2491 147.654 42.544C148.66 42.8215 149.528 43.2118 150.256 43.7148L149.606 45.2499C148.825 44.7296 147.993 44.348 147.108 44.1051C146.241 43.8623 145.399 43.7409 144.584 43.7409C143.491 43.7409 142.589 43.8883 141.878 44.1832C141.167 44.4781 140.638 44.877 140.291 45.38C139.962 45.8657 139.797 46.4208 139.797 47.0452C139.797 47.7564 139.996 48.3288 140.395 48.7624C140.811 49.1961 141.349 49.5343 142.008 49.7772C142.685 50.02 143.422 50.2368 144.22 50.4276C145.018 50.6184 145.807 50.8266 146.588 51.0521C147.385 51.2776 148.114 51.5725 148.773 51.9367C149.45 52.2836 149.987 52.752 150.386 53.3417C150.803 53.9315 151.011 54.7034 151.011 55.6574C151.011 56.542 150.768 57.3659 150.282 58.1291C149.797 58.875 149.051 59.4821 148.045 59.9504C147.056 60.4014 145.781 60.6269 144.22 60.6269ZM162.855 60.4708V57.4527L162.777 56.9583V51.9107C162.777 50.7485 162.448 49.8552 161.789 49.2308C161.147 48.6063 160.184 48.2941 158.9 48.2941C158.016 48.2941 157.175 48.4416 156.377 48.7364C155.579 49.0313 154.902 49.4216 154.347 49.9073L153.515 48.5283C154.208 47.9385 155.041 47.4875 156.012 47.1753C156.984 46.8457 158.007 46.681 159.083 46.681C160.852 46.681 162.213 47.1233 163.168 48.0079C164.139 48.8752 164.625 50.2021 164.625 51.9888V60.4708H162.855ZM158.146 60.6009C157.123 60.6009 156.229 60.4361 155.466 60.1065C154.72 59.7596 154.148 59.2913 153.749 58.7015C153.35 58.0944 153.15 57.4006 153.15 56.6201C153.15 55.9089 153.315 55.2671 153.645 54.6947C153.992 54.1049 154.547 53.6366 155.31 53.2897C156.09 52.9254 157.131 52.7433 158.432 52.7433H163.141V54.1223H158.484C157.166 54.1223 156.247 54.3564 155.726 54.8248C155.223 55.2931 154.972 55.8742 154.972 56.568C154.972 57.3486 155.275 57.973 155.882 58.4414C156.489 58.9097 157.339 59.1439 158.432 59.1439C159.473 59.1439 160.366 58.9097 161.112 58.4414C161.875 57.9557 162.43 57.2619 162.777 56.3599L163.194 57.6348C162.847 58.5368 162.24 59.2566 161.372 59.7943C160.522 60.332 159.447 60.6009 158.146 60.6009ZM173.441 60.6009C172.157 60.6009 171.168 60.254 170.475 59.5602C169.781 58.8663 169.434 57.8863 169.434 56.6201V43.7929H171.281V56.516C171.281 57.3139 171.481 57.9297 171.88 58.3633C172.296 58.7969 172.886 59.0138 173.649 59.0138C174.464 59.0138 175.141 58.7796 175.678 58.3113L176.329 59.6382C175.965 59.9678 175.522 60.2106 175.002 60.3667C174.499 60.5228 173.978 60.6009 173.441 60.6009ZM166.988 48.3462V46.8111H175.444V48.3462H166.988ZM184.817 60.6009C183.655 60.6009 182.641 60.3841 181.773 59.9504C180.906 59.5168 180.229 58.8663 179.744 57.999C179.275 57.1318 179.041 56.0477 179.041 54.7467V46.8111H180.889V54.5386C180.889 55.9956 181.244 57.0971 181.955 57.8429C182.684 58.5715 183.699 58.9357 185 58.9357C185.954 58.9357 186.777 58.7449 187.471 58.3633C188.182 57.9644 188.72 57.3919 189.084 56.6461C189.466 55.9002 189.657 55.0069 189.657 53.9662V46.8111H191.504V60.4708H189.735V56.7241L190.021 57.4006C189.587 58.4067 188.911 59.1959 187.992 59.7683C187.09 60.3234 186.032 60.6009 184.817 60.6009ZM196.132 60.4708V46.8111H197.901V50.5317L197.719 49.8812C198.101 48.8405 198.743 48.0513 199.645 47.5136C200.547 46.9585 201.666 46.681 203.001 46.681V48.4762C202.932 48.4762 202.862 48.4762 202.793 48.4762C202.724 48.4589 202.654 48.4502 202.585 48.4502C201.145 48.4502 200.018 48.8925 199.202 49.7772C198.387 50.6445 197.98 51.8847 197.98 53.4978V60.4708H196.132ZM211.162 60.6009C209.861 60.6009 208.691 60.306 207.65 59.7163C206.627 59.1265 205.82 58.3113 205.23 57.2705C204.64 56.2124 204.346 54.9982 204.346 53.6279C204.346 52.2403 204.64 51.0261 205.23 49.9853C205.82 48.9446 206.627 48.138 207.65 47.5656C208.691 46.9758 209.861 46.681 211.162 46.681C212.359 46.681 213.426 46.9498 214.363 47.4875C215.317 48.0253 216.071 48.8145 216.626 49.8552C217.199 50.8786 217.485 52.1362 217.485 53.6279C217.485 55.1023 217.207 56.3599 216.652 57.4006C216.097 58.4414 215.343 59.2393 214.389 59.7943C213.452 60.332 212.377 60.6009 211.162 60.6009ZM211.293 58.9617C212.264 58.9617 213.131 58.7449 213.894 58.3113C214.675 57.8603 215.282 57.2358 215.716 56.4379C216.167 55.6227 216.392 54.686 216.392 53.6279C216.392 52.5525 216.167 51.6158 215.716 50.8179C215.282 50.02 214.675 49.4042 213.894 48.9706C213.131 48.5196 212.264 48.2941 211.293 48.2941C210.339 48.2941 209.48 48.5196 208.717 48.9706C207.953 49.4042 207.346 50.02 206.895 50.8179C206.444 51.6158 206.219 52.5525 206.219 53.6279C206.219 54.686 206.444 55.6227 206.895 56.4379C207.346 57.2358 207.953 57.8603 208.717 58.3113C209.48 58.7449 210.339 58.9617 211.293 58.9617ZM216.444 60.4708V56.3599L216.626 53.6019L216.366 50.8439V41.165H218.213V60.4708H216.444ZM231.398 60.4708V57.4527L231.32 56.9583V51.9107C231.32 50.7485 230.99 49.8552 230.331 49.2308C229.689 48.6063 228.727 48.2941 227.443 48.2941C226.559 48.2941 225.717 48.4416 224.919 48.7364C224.121 49.0313 223.445 49.4216 222.89 49.9073L222.057 48.5283C222.751 47.9385 223.584 47.4875 224.555 47.1753C225.526 46.8457 226.55 46.681 227.625 46.681C229.395 46.681 230.756 47.1233 231.71 48.0079C232.682 48.8752 233.167 50.2021 233.167 51.9888V60.4708H231.398ZM226.689 60.6009C225.665 60.6009 224.772 60.4361 224.009 60.1065C223.263 59.7596 222.69 59.2913 222.291 58.7015C221.893 58.0944 221.693 57.4006 221.693 56.6201C221.693 55.9089 221.858 55.2671 222.187 54.6947C222.534 54.1049 223.089 53.6366 223.853 53.2897C224.633 52.9254 225.674 52.7433 226.975 52.7433H231.684V54.1223H227.027C225.709 54.1223 224.789 54.3564 224.269 54.8248C223.766 55.2931 223.514 55.8742 223.514 56.568C223.514 57.3486 223.818 57.973 224.425 58.4414C225.032 58.9097 225.882 59.1439 226.975 59.1439C228.016 59.1439 228.909 58.9097 229.655 58.4414C230.418 57.9557 230.973 57.2619 231.32 56.3599L231.736 57.6348C231.389 58.5368 230.782 59.2566 229.915 59.7943C229.065 60.332 227.99 60.6009 226.689 60.6009ZM237.514 65.6485C236.873 65.6485 236.257 65.5444 235.667 65.3363C235.095 65.1281 234.6 64.8159 234.184 64.3996L235.043 63.0206C235.39 63.3502 235.762 63.6017 236.161 63.7752C236.578 63.966 237.037 64.0614 237.54 64.0614C238.147 64.0614 238.668 63.8879 239.102 63.541C239.552 63.2114 239.977 62.6217 240.376 61.7717L241.261 59.7683L241.469 59.4821L247.089 46.8111H248.911L242.068 62.11C241.686 62.9946 241.261 63.6971 240.793 64.2175C240.342 64.7379 239.847 65.1021 239.31 65.3103C238.772 65.5358 238.174 65.6485 237.514 65.6485ZM241.157 60.8611L234.86 46.8111H236.786L242.354 59.352L241.157 60.8611Z" fill="#2C2C2C"/>
<path d="M159.124 124.931L156.995 124.562V122.803H161.281C161.678 122.803 162.293 122.784 163.126 122.746C164.223 122.67 165.217 122.632 166.106 122.632C168.074 122.632 169.626 122.878 170.761 123.37C171.915 123.843 172.729 124.534 173.202 125.442C173.694 126.332 173.94 127.467 173.94 128.848C173.94 131.233 173.193 133.087 171.698 134.412C170.222 135.736 168.169 136.399 165.539 136.399C164.498 136.399 163.75 136.37 163.296 136.313V141.905L167.1 142.189V143.892H156.881V142.189L159.124 141.905V124.931ZM163.268 134.497C163.703 134.591 164.441 134.639 165.482 134.639C166.75 134.639 167.762 134.203 168.519 133.333C169.295 132.444 169.683 130.977 169.683 128.934C169.683 127.344 169.333 126.19 168.632 125.471C167.951 124.733 166.901 124.364 165.482 124.364C164.952 124.364 164.403 124.402 163.836 124.477C163.571 124.515 163.381 124.534 163.268 124.534V134.497ZM174.909 139.464C174.909 137.742 175.77 136.446 177.492 135.575C179.233 134.705 181.475 134.26 184.219 134.241V133.589C184.219 132.813 184.134 132.207 183.963 131.772C183.812 131.337 183.519 131.015 183.084 130.807C182.667 130.58 182.052 130.466 181.239 130.466C180.311 130.466 179.479 130.589 178.741 130.835C178.003 131.062 177.236 131.365 176.442 131.744L175.562 129.927C175.846 129.681 176.319 129.388 176.981 129.047C177.662 128.706 178.466 128.413 179.394 128.167C180.321 127.902 181.276 127.77 182.26 127.77C183.717 127.77 184.853 127.959 185.666 128.337C186.499 128.716 187.095 129.321 187.455 130.154C187.814 130.987 187.994 132.103 187.994 133.503V142.189H189.527V143.778C189.148 143.873 188.609 143.968 187.909 144.062C187.209 144.157 186.594 144.204 186.064 144.204C185.421 144.204 184.985 144.109 184.758 143.92C184.55 143.731 184.446 143.343 184.446 142.757V141.99C183.935 142.558 183.273 143.069 182.459 143.523C181.645 143.977 180.728 144.204 179.706 144.204C178.835 144.204 178.031 144.024 177.293 143.665C176.574 143.286 175.997 142.747 175.562 142.047C175.127 141.328 174.909 140.467 174.909 139.464ZM181.522 141.848C181.92 141.848 182.374 141.735 182.885 141.508C183.396 141.262 183.84 140.968 184.219 140.628V135.973C182.516 135.973 181.239 136.266 180.387 136.853C179.554 137.42 179.138 138.158 179.138 139.067C179.138 139.975 179.346 140.666 179.763 141.139C180.198 141.612 180.784 141.848 181.522 141.848ZM190.73 142.217L192.604 141.99V130.807L190.787 130.296V128.337L195.187 127.741H195.272L195.981 128.309V128.934L195.896 131.233H195.981C196.114 130.854 196.426 130.391 196.918 129.842C197.41 129.274 198.025 128.782 198.763 128.366C199.52 127.931 200.334 127.713 201.204 127.713C201.62 127.713 201.98 127.77 202.283 127.883V132.141C201.715 131.744 201.024 131.545 200.211 131.545C198.829 131.545 197.628 131.914 196.606 132.652V141.962L199.898 142.217V143.892H190.73V142.217ZM208.292 144.147C207.099 144.147 206.22 143.873 205.652 143.324C205.084 142.775 204.8 141.905 204.8 140.713V130.296H202.955V128.82C203.107 128.763 203.381 128.669 203.779 128.536C204.176 128.385 204.479 128.262 204.687 128.167C205.009 127.921 205.283 127.495 205.51 126.89C205.68 126.493 205.992 125.509 206.447 123.938H208.717L208.831 128.11H213.174V130.296H208.859V138.272C208.859 139.332 208.888 140.079 208.944 140.514C209.001 140.949 209.124 141.233 209.313 141.366C209.503 141.479 209.834 141.536 210.307 141.536C210.78 141.536 211.272 141.489 211.783 141.394C212.294 141.281 212.719 141.148 213.06 140.997L213.599 142.586C213.07 142.984 212.294 143.343 211.272 143.665C210.25 143.986 209.257 144.147 208.292 144.147ZM217.068 150.959C216.727 150.959 216.358 150.931 215.961 150.874C215.583 150.818 215.308 150.751 215.138 150.676V147.639C215.27 147.714 215.535 147.79 215.933 147.866C216.33 147.941 216.69 147.979 217.011 147.979C217.957 147.979 218.733 147.667 219.339 147.042C219.963 146.418 220.54 145.368 221.07 143.892H219.537L214.201 130.126L212.924 129.757V128.11H220.729V129.757L218.657 130.097L221.184 137.96L222.205 141.309L223.085 137.96L225.413 130.097L223.625 129.757V128.11H229.784V129.757L228.393 130.097C227.352 133.276 226.321 136.342 225.299 139.294C224.277 142.246 223.681 143.901 223.511 144.261C222.906 145.85 222.328 147.118 221.78 148.064C221.231 149.01 220.578 149.729 219.821 150.221C219.064 150.713 218.147 150.959 217.068 150.959Z" fill="#2C2C2C"/>
<g filter="url(#filter0_d_1_569)">
<rect x="136.824" y="165.564" width="112.353" height="112.353" rx="56.1765" fill="white"/>
<path d="M168.613 218.119C167.592 218.119 166.639 217.955 165.756 217.627C164.886 217.287 164.129 216.807 163.485 216.189C162.842 215.571 162.337 214.846 161.971 214.013C161.618 213.18 161.442 212.266 161.442 211.269C161.442 210.273 161.618 209.358 161.971 208.526C162.337 207.693 162.842 206.968 163.485 206.349C164.141 205.731 164.904 205.258 165.775 204.93C166.645 204.59 167.598 204.419 168.632 204.419C169.78 204.419 170.815 204.621 171.736 205.025C172.669 205.416 173.451 205.996 174.082 206.766L172.114 208.582C171.66 208.065 171.155 207.68 170.6 207.428C170.045 207.163 169.44 207.031 168.784 207.031C168.165 207.031 167.598 207.132 167.081 207.333C166.563 207.535 166.116 207.825 165.737 208.204C165.359 208.582 165.062 209.03 164.848 209.547C164.646 210.065 164.545 210.639 164.545 211.269C164.545 211.9 164.646 212.474 164.848 212.991C165.062 213.508 165.359 213.956 165.737 214.335C166.116 214.713 166.563 215.003 167.081 215.205C167.598 215.407 168.165 215.508 168.784 215.508C169.44 215.508 170.045 215.382 170.6 215.13C171.155 214.865 171.66 214.467 172.114 213.937L174.082 215.754C173.451 216.523 172.669 217.11 171.736 217.514C170.815 217.917 169.774 218.119 168.613 218.119ZM175.565 217.892V207.712H178.385V210.588L177.988 209.755C178.29 209.036 178.776 208.494 179.445 208.128C180.113 207.75 180.927 207.56 181.886 207.56V210.285C181.759 210.273 181.646 210.266 181.545 210.266C181.444 210.254 181.337 210.247 181.223 210.247C180.416 210.247 179.76 210.481 179.255 210.948C178.763 211.402 178.517 212.115 178.517 213.086V217.892H175.565ZM188.241 218.044C187.08 218.044 186.058 217.817 185.175 217.362C184.305 216.908 183.63 216.29 183.151 215.508C182.671 214.713 182.432 213.811 182.432 212.802C182.432 211.78 182.665 210.878 183.132 210.096C183.611 209.301 184.261 208.683 185.081 208.242C185.901 207.788 186.828 207.56 187.862 207.56C188.859 207.56 189.755 207.775 190.549 208.204C191.357 208.62 191.994 209.226 192.461 210.02C192.927 210.803 193.161 211.742 193.161 212.84C193.161 212.953 193.154 213.086 193.142 213.237C193.129 213.376 193.117 213.508 193.104 213.635H184.835V211.913H191.552L190.417 212.424C190.417 211.894 190.31 211.433 190.095 211.042C189.881 210.651 189.584 210.348 189.206 210.134C188.827 209.907 188.386 209.793 187.881 209.793C187.377 209.793 186.929 209.907 186.538 210.134C186.159 210.348 185.863 210.657 185.648 211.061C185.434 211.452 185.327 211.919 185.327 212.461V212.916C185.327 213.471 185.447 213.963 185.686 214.392C185.939 214.808 186.285 215.13 186.727 215.357C187.181 215.571 187.711 215.678 188.316 215.678C188.859 215.678 189.332 215.596 189.736 215.432C190.152 215.268 190.53 215.022 190.871 214.694L192.442 216.397C191.975 216.927 191.388 217.337 190.682 217.627C189.975 217.905 189.162 218.044 188.241 218.044ZM200.715 217.892V215.905L200.526 215.47V211.913C200.526 211.282 200.33 210.79 199.939 210.437C199.56 210.083 198.974 209.907 198.179 209.907C197.637 209.907 197.101 209.995 196.571 210.172C196.054 210.336 195.612 210.563 195.246 210.853L194.186 208.79C194.742 208.399 195.41 208.097 196.192 207.882C196.974 207.668 197.769 207.56 198.577 207.56C200.128 207.56 201.333 207.926 202.191 208.658C203.049 209.39 203.477 210.531 203.477 212.083V217.892H200.715ZM197.611 218.044C196.817 218.044 196.136 217.911 195.568 217.646C195 217.369 194.565 216.997 194.262 216.53C193.959 216.063 193.808 215.54 193.808 214.959C193.808 214.354 193.953 213.824 194.243 213.37C194.546 212.916 195.019 212.562 195.662 212.31C196.306 212.045 197.145 211.913 198.179 211.913H200.885V213.635H198.501C197.807 213.635 197.328 213.748 197.063 213.975C196.81 214.202 196.684 214.486 196.684 214.827C196.684 215.205 196.829 215.508 197.119 215.735C197.422 215.949 197.832 216.057 198.349 216.057C198.841 216.057 199.283 215.943 199.674 215.716C200.065 215.476 200.349 215.13 200.526 214.675L200.98 216.038C200.765 216.694 200.374 217.192 199.806 217.533C199.239 217.873 198.507 218.044 197.611 218.044ZM209.934 218.044C208.735 218.044 207.802 217.741 207.133 217.135C206.464 216.517 206.13 215.603 206.13 214.392V205.46H209.082V214.354C209.082 214.783 209.196 215.117 209.423 215.357C209.65 215.584 209.959 215.697 210.35 215.697C210.817 215.697 211.214 215.571 211.542 215.319L212.337 217.4C212.034 217.615 211.668 217.779 211.239 217.892C210.823 217.993 210.388 218.044 209.934 218.044ZM204.56 210.21V207.939H211.618V210.21H204.56ZM218.354 218.044C217.193 218.044 216.171 217.817 215.288 217.362C214.418 216.908 213.743 216.29 213.263 215.508C212.784 214.713 212.544 213.811 212.544 212.802C212.544 211.78 212.778 210.878 213.244 210.096C213.724 209.301 214.374 208.683 215.194 208.242C216.014 207.788 216.941 207.56 217.975 207.56C218.972 207.56 219.867 207.775 220.662 208.204C221.47 208.62 222.107 209.226 222.573 210.02C223.04 210.803 223.273 211.742 223.273 212.84C223.273 212.953 223.267 213.086 223.255 213.237C223.242 213.376 223.229 213.508 223.217 213.635H214.948V211.913H221.665L220.53 212.424C220.53 211.894 220.422 211.433 220.208 211.042C219.994 210.651 219.697 210.348 219.319 210.134C218.94 209.907 218.499 209.793 217.994 209.793C217.489 209.793 217.042 209.907 216.651 210.134C216.272 210.348 215.976 210.657 215.761 211.061C215.547 211.452 215.44 211.919 215.44 212.461V212.916C215.44 213.471 215.559 213.963 215.799 214.392C216.051 214.808 216.398 215.13 216.84 215.357C217.294 215.571 217.824 215.678 218.429 215.678C218.972 215.678 219.445 215.596 219.848 215.432C220.265 215.268 220.643 215.022 220.984 214.694L222.554 216.397C222.088 216.927 221.501 217.337 220.795 217.627C220.088 217.905 219.274 218.044 218.354 218.044Z" fill="#2C2C2C"/>
<path d="M199.116 233.462C200.147 233.462 200.982 234.297 200.982 235.328C200.982 236.358 200.147 237.194 199.116 237.194H186.291C185.26 237.194 184.425 236.358 184.425 235.328C184.425 234.297 185.26 233.462 186.291 233.462H199.116ZM194.587 241.723C194.587 242.753 193.752 243.589 192.721 243.589C191.691 243.589 190.855 242.753 190.855 241.723V228.898C190.855 227.867 191.691 227.032 192.721 227.032C193.752 227.032 194.587 227.867 194.587 228.898V241.723Z" fill="#2C2C2C"/>
</g>
<rect x="1.113" y="1.4692" width="383.774" height="382" rx="24.5402" stroke="url(#paint0_linear_1_569)" stroke-width="1.77399"/>
<defs>
<filter id="filter0_d_1_569" x="128.545" y="159.65" width="128.91" height="128.91" filterUnits="userSpaceOnUse" color-interpolation-filters="sRGB">
<feFlood flood-opacity="0" result="BackgroundImageFix"/>
<feColorMatrix in="SourceAlpha" type="matrix" values="0 0 0 0 0 0 0 0 0 0 0 0 0 0 0 0 0 0 127 0" result="hardAlpha"/>
<feOffset dy="2.36533"/>
<feGaussianBlur stdDeviation="4.13932"/>
<feComposite in2="hardAlpha" operator="out"/>
<feColorMatrix type="matrix" values="0 0 0 0 0 0 0 0 0 0 0 0 0 0 0 0 0 0 0.2 0"/>
<feBlend mode="normal" in2="BackgroundImageFix" result="effect1_dropShadow_1_569"/>
<feBlend mode="normal" in="SourceGraphic" in2="effect1_dropShadow_1_569" result="shape"/>
</filter>
<linearGradient id="paint0_linear_1_569" x1="395.235" y1="2.3562" x2="2.00002" y2="391.452" gradientUnits="userSpaceOnUse">
<stop offset="0.0001" stop-color="#0038FF"/>
<stop offset="0.405" stop-color="#C60083"/>
<stop offset="0.685" stop-color="#FFC700"/>
<stop offset="1" stop-color="#FF0000"/>
</linearGradient>
<clipPath id="clip0_1_569">
<rect width="19.5139" height="19.5139" fill="white" transform="translate(25.6539 321.083)"/>
</clipPath>
</defs>
</svg>
