<svg width="652" height="649" viewBox="0 0 652 649" fill="none" xmlns="http://www.w3.org/2000/svg">
<rect x="3" y="3" width="646" height="643" rx="40" fill="#FFD700"/>
<rect x="31" y="526" width="590" height="64" rx="16" fill="#FFF4BC"/>
<path d="M58.9428 548.89C57.354 547.301 56.2666 544.525 55.7269 542C55.1864 544.526 54.1001 547.302 52.5108 548.891C50.922 550.479 48.1457 551.567 45.621 552.108C48.1468 552.647 50.9225 553.734 52.5113 555.323C54.1 556.912 55.1875 559.688 55.728 562.214C56.2677 559.688 57.3548 556.912 58.9433 555.322C60.5321 553.734 63.3083 552.647 65.8331 552.106C63.3079 551.566 60.5321 550.479 58.9428 548.89Z" fill="#000AFF"/>
<path d="M69.2627 561.616C68.3144 560.667 67.6637 559.008 67.3413 557.499C67.0183 559.008 66.3698 560.667 65.4204 561.616C64.471 562.565 62.8123 563.215 61.3041 563.538C62.8129 563.861 64.471 564.51 65.4204 565.459C66.3698 566.408 67.0195 568.067 67.3424 569.575C67.6647 568.066 68.3144 566.408 69.2632 565.459C70.2121 564.51 71.871 563.86 73.3789 563.537C71.871 563.214 70.2121 562.565 69.2627 561.616Z" fill="#000AFF"/>
<path d="M52.4328 564.862C52.1617 566.128 51.6172 567.521 50.8203 568.318C50.0235 569.114 48.6309 569.66 47.3647 569.931C48.6309 570.203 50.0235 570.747 50.8203 571.544C51.6172 572.341 52.1628 573.733 52.4339 575C52.7048 573.733 53.2496 572.341 54.0467 571.544C54.843 570.747 56.2358 570.202 57.5017 569.93C56.2359 569.659 54.843 569.114 54.0462 568.318C53.2496 567.521 52.7037 566.128 52.4328 564.862Z" fill="#000AFF"/>
<rect x="86" y="546" width="3" height="25" fill="black"/>
<path d="M243.508 102.264C241.22 102.264 239.02 101.897 236.908 101.164C234.825 100.401 233.212 99.4333 232.068 98.26L233.344 95.752C234.429 96.808 235.881 97.7027 237.7 98.436C239.548 99.14 241.484 99.492 243.508 99.492C245.444 99.492 247.013 99.2573 248.216 98.788C249.448 98.2893 250.343 97.6293 250.9 96.808C251.487 95.9867 251.78 95.0773 251.78 94.08C251.78 92.8773 251.428 91.9093 250.724 91.176C250.049 90.4427 249.155 89.8707 248.04 89.46C246.925 89.02 245.693 88.6387 244.344 88.316C242.995 87.9933 241.645 87.656 240.296 87.304C238.947 86.9227 237.7 86.424 236.556 85.808C235.441 85.192 234.532 84.3853 233.828 83.388C233.153 82.3613 232.816 81.0267 232.816 79.384C232.816 77.8587 233.212 76.4653 234.004 75.204C234.825 73.9133 236.072 72.8867 237.744 72.124C239.416 71.332 241.557 70.936 244.168 70.936C245.899 70.936 247.615 71.1853 249.316 71.684C251.017 72.1533 252.484 72.8133 253.716 73.664L252.616 76.26C251.296 75.38 249.888 74.7347 248.392 74.324C246.925 73.9133 245.503 73.708 244.124 73.708C242.276 73.708 240.751 73.9573 239.548 74.456C238.345 74.9547 237.451 75.6293 236.864 76.48C236.307 77.3013 236.028 78.24 236.028 79.296C236.028 80.4987 236.365 81.4667 237.04 82.2C237.744 82.9333 238.653 83.5053 239.768 83.916C240.912 84.3267 242.159 84.6933 243.508 85.016C244.857 85.3387 246.192 85.6907 247.512 86.072C248.861 86.4533 250.093 86.952 251.208 87.568C252.352 88.1547 253.261 88.9467 253.936 89.944C254.64 90.9413 254.992 92.2467 254.992 93.86C254.992 95.356 254.581 96.7493 253.76 98.04C252.939 99.3013 251.677 100.328 249.976 101.12C248.304 101.883 246.148 102.264 243.508 102.264ZM275.022 102V96.896L274.89 96.06V87.524C274.89 85.5587 274.333 84.048 273.218 82.992C272.133 81.936 270.505 81.408 268.334 81.408C266.838 81.408 265.416 81.6573 264.066 82.156C262.717 82.6547 261.573 83.3147 260.634 84.136L259.226 81.804C260.4 80.8067 261.808 80.044 263.45 79.516C265.093 78.9587 266.824 78.68 268.642 78.68C271.634 78.68 273.937 79.428 275.55 80.924C277.193 82.3907 278.014 84.6347 278.014 87.656V102H275.022ZM267.058 102.22C265.328 102.22 263.817 101.941 262.526 101.384C261.265 100.797 260.297 100.005 259.622 99.008C258.948 97.9813 258.61 96.808 258.61 95.488C258.61 94.2853 258.889 93.2 259.446 92.232C260.033 91.2347 260.972 90.4427 262.262 89.856C263.582 89.24 265.342 88.932 267.542 88.932H275.506V91.264H267.63C265.401 91.264 263.846 91.66 262.966 92.452C262.116 93.244 261.69 94.2267 261.69 95.4C261.69 96.72 262.204 97.776 263.23 98.568C264.257 99.36 265.694 99.756 267.542 99.756C269.302 99.756 270.813 99.36 272.074 98.568C273.365 97.7467 274.304 96.5733 274.89 95.048L275.594 97.204C275.008 98.7293 273.981 99.9467 272.514 100.856C271.077 101.765 269.258 102.22 267.058 102.22ZM292.923 102.22C290.753 102.22 289.081 101.633 287.907 100.46C286.734 99.2867 286.147 97.6293 286.147 95.488V73.796H289.271V95.312C289.271 96.6613 289.609 97.7027 290.283 98.436C290.987 99.1693 291.985 99.536 293.275 99.536C294.654 99.536 295.798 99.14 296.707 98.348L297.807 100.592C297.191 101.149 296.443 101.56 295.563 101.824C294.713 102.088 293.833 102.22 292.923 102.22ZM282.011 81.496V78.9H296.311V81.496H282.011ZM312.162 102.22C310.197 102.22 308.481 101.853 307.014 101.12C305.548 100.387 304.404 99.2867 303.582 97.82C302.79 96.3533 302.394 94.52 302.394 92.32V78.9H305.518V91.968C305.518 94.432 306.12 96.2947 307.322 97.556C308.554 98.788 310.27 99.404 312.47 99.404C314.084 99.404 315.477 99.0813 316.65 98.436C317.853 97.7613 318.762 96.7933 319.378 95.532C320.024 94.2707 320.346 92.76 320.346 91V78.9H323.47V102H320.478V95.664L320.962 96.808C320.229 98.5093 319.085 99.844 317.53 100.812C316.005 101.751 314.216 102.22 312.162 102.22ZM331.297 102V78.9H334.289V85.192L333.981 84.092C334.626 82.332 335.712 80.9973 337.237 80.088C338.762 79.1493 340.654 78.68 342.913 78.68V81.716C342.796 81.716 342.678 81.716 342.561 81.716C342.444 81.6867 342.326 81.672 342.209 81.672C339.774 81.672 337.868 82.42 336.489 83.916C335.11 85.3827 334.421 87.48 334.421 90.208V102H331.297ZM356.714 102.22C354.514 102.22 352.534 101.721 350.774 100.724C349.044 99.7267 347.68 98.348 346.682 96.588C345.685 94.7987 345.186 92.7453 345.186 90.428C345.186 88.0813 345.685 86.028 346.682 84.268C347.68 82.508 349.044 81.144 350.774 80.176C352.534 79.1787 354.514 78.68 356.714 78.68C358.738 78.68 360.542 79.1347 362.126 80.044C363.74 80.9533 365.016 82.288 365.954 84.048C366.922 85.7787 367.406 87.9053 367.406 90.428C367.406 92.9213 366.937 95.048 365.999 96.808C365.06 98.568 363.784 99.9173 362.17 100.856C360.586 101.765 358.768 102.22 356.714 102.22ZM356.934 99.448C358.577 99.448 360.044 99.0813 361.334 98.348C362.654 97.5853 363.681 96.5293 364.414 95.18C365.177 93.8013 365.558 92.2173 365.558 90.428C365.558 88.6093 365.177 87.0253 364.414 85.676C363.681 84.3267 362.654 83.2853 361.334 82.552C360.044 81.7893 358.577 81.408 356.934 81.408C355.321 81.408 353.869 81.7893 352.578 82.552C351.288 83.2853 350.261 84.3267 349.498 85.676C348.736 87.0253 348.354 88.6093 348.354 90.428C348.354 92.2173 348.736 93.8013 349.498 95.18C350.261 96.5293 351.288 97.5853 352.578 98.348C353.869 99.0813 355.321 99.448 356.934 99.448ZM365.647 102V95.048L365.954 90.384L365.514 85.72V69.352H368.639V102H365.647ZM390.935 102V96.896L390.803 96.06V87.524C390.803 85.5587 390.245 84.048 389.131 82.992C388.045 81.936 386.417 81.408 384.247 81.408C382.751 81.408 381.328 81.6573 379.979 82.156C378.629 82.6547 377.485 83.3147 376.547 84.136L375.139 81.804C376.312 80.8067 377.72 80.044 379.363 79.516C381.005 78.9587 382.736 78.68 384.555 78.68C387.547 78.68 389.849 79.428 391.463 80.924C393.105 82.3907 393.927 84.6347 393.927 87.656V102H390.935ZM382.971 102.22C381.24 102.22 379.729 101.941 378.439 101.384C377.177 100.797 376.209 100.005 375.535 99.008C374.86 97.9813 374.523 96.808 374.523 95.488C374.523 94.2853 374.801 93.2 375.359 92.232C375.945 91.2347 376.884 90.4427 378.175 89.856C379.495 89.24 381.255 88.932 383.455 88.932H391.419V91.264H383.543C381.313 91.264 379.759 91.66 378.879 92.452C378.028 93.244 377.603 94.2267 377.603 95.4C377.603 96.72 378.116 97.776 379.143 98.568C380.169 99.36 381.607 99.756 383.455 99.756C385.215 99.756 386.725 99.36 387.987 98.568C389.277 97.7467 390.216 96.5733 390.803 95.048L391.507 97.204C390.92 98.7293 389.893 99.9467 388.427 100.856C386.989 101.765 385.171 102.22 382.971 102.22ZM401.278 110.756C400.193 110.756 399.152 110.58 398.154 110.228C397.186 109.876 396.35 109.348 395.646 108.644L397.098 106.312C397.685 106.869 398.316 107.295 398.99 107.588C399.694 107.911 400.472 108.072 401.322 108.072C402.349 108.072 403.229 107.779 403.962 107.192C404.725 106.635 405.444 105.637 406.118 104.2L407.614 100.812L407.966 100.328L417.47 78.9H420.55L408.978 104.772C408.333 106.268 407.614 107.456 406.822 108.336C406.06 109.216 405.224 109.832 404.314 110.184C403.405 110.565 402.393 110.756 401.278 110.756ZM407.438 102.66L396.79 78.9H400.046L409.462 100.108L407.438 102.66Z" fill="#2C2C2C"/>
<path d="M268.712 209.936L265.112 209.312V206.336H272.36C273.032 206.336 274.072 206.304 275.48 206.24C277.336 206.112 279.016 206.048 280.52 206.048C283.848 206.048 286.472 206.464 288.392 207.296C290.344 208.096 291.72 209.264 292.52 210.8C293.352 212.304 293.768 214.224 293.768 216.56C293.768 220.592 292.504 223.728 289.976 225.968C287.48 228.208 284.008 229.328 279.56 229.328C277.8 229.328 276.536 229.28 275.768 229.184V238.64L282.2 239.12V242H264.92V239.12L268.712 238.64V209.936ZM275.72 226.112C276.456 226.272 277.704 226.352 279.464 226.352C281.608 226.352 283.32 225.616 284.6 224.144C285.912 222.64 286.568 220.16 286.568 216.704C286.568 214.016 285.976 212.064 284.792 210.848C283.64 209.6 281.864 208.976 279.464 208.976C278.568 208.976 277.64 209.04 276.68 209.168C276.232 209.232 275.912 209.264 275.72 209.264V226.112ZM295.406 234.512C295.406 231.6 296.862 229.408 299.774 227.936C302.718 226.464 306.51 225.712 311.15 225.68V224.576C311.15 223.264 311.006 222.24 310.718 221.504C310.462 220.768 309.966 220.224 309.23 219.872C308.526 219.488 307.486 219.296 306.11 219.296C304.542 219.296 303.134 219.504 301.886 219.92C300.638 220.304 299.342 220.816 297.998 221.456L296.51 218.384C296.99 217.968 297.79 217.472 298.91 216.896C300.062 216.32 301.422 215.824 302.99 215.408C304.558 214.96 306.174 214.736 307.838 214.736C310.302 214.736 312.222 215.056 313.598 215.696C315.006 216.336 316.014 217.36 316.622 218.768C317.23 220.176 317.534 222.064 317.534 224.432V239.12H320.126V241.808C319.486 241.968 318.574 242.128 317.39 242.288C316.206 242.448 315.166 242.528 314.27 242.528C313.182 242.528 312.446 242.368 312.062 242.048C311.71 241.728 311.534 241.072 311.534 240.08V238.784C310.67 239.744 309.55 240.608 308.174 241.376C306.798 242.144 305.246 242.528 303.518 242.528C302.046 242.528 300.686 242.224 299.438 241.616C298.222 240.976 297.246 240.064 296.51 238.88C295.774 237.664 295.406 236.208 295.406 234.512ZM306.59 238.544C307.262 238.544 308.03 238.352 308.894 237.968C309.758 237.552 310.51 237.056 311.15 236.48V228.608C308.27 228.608 306.11 229.104 304.67 230.096C303.262 231.056 302.558 232.304 302.558 233.84C302.558 235.376 302.91 236.544 303.614 237.344C304.35 238.144 305.342 238.544 306.59 238.544ZM322.162 239.168L325.33 238.784V219.872L322.258 219.008V215.696L329.698 214.688H329.842L331.042 215.648V216.704L330.898 220.592H331.042C331.266 219.952 331.794 219.168 332.626 218.24C333.458 217.28 334.498 216.448 335.746 215.744C337.026 215.008 338.402 214.64 339.874 214.64C340.578 214.64 341.186 214.736 341.698 214.928V222.128C340.738 221.456 339.57 221.12 338.194 221.12C335.858 221.12 333.826 221.744 332.098 222.992V238.736L337.666 239.168V242H322.162V239.168ZM351.86 242.432C349.844 242.432 348.356 241.968 347.396 241.04C346.436 240.112 345.956 238.64 345.956 236.624V219.008H342.836V216.512C343.092 216.416 343.556 216.256 344.228 216.032C344.9 215.776 345.412 215.568 345.764 215.408C346.308 214.992 346.772 214.272 347.156 213.248C347.444 212.576 347.972 210.912 348.74 208.256H352.58L352.772 215.312H360.116V219.008H352.82V232.496C352.82 234.288 352.868 235.552 352.964 236.288C353.06 237.024 353.268 237.504 353.588 237.728C353.908 237.92 354.468 238.016 355.268 238.016C356.068 238.016 356.9 237.936 357.764 237.776C358.628 237.584 359.348 237.36 359.924 237.104L360.836 239.792C359.94 240.464 358.628 241.072 356.9 241.616C355.172 242.16 353.492 242.432 351.86 242.432ZM366.701 253.952C366.125 253.952 365.501 253.904 364.829 253.808C364.189 253.712 363.725 253.6 363.437 253.472V248.336C363.661 248.464 364.109 248.592 364.781 248.72C365.453 248.848 366.061 248.912 366.605 248.912C368.205 248.912 369.517 248.384 370.541 247.328C371.597 246.272 372.573 244.496 373.469 242H370.877L361.853 218.72L359.693 218.096V215.312H372.893V218.096L369.389 218.672L373.661 231.968L375.389 237.632L376.877 231.968L380.813 218.672L377.789 218.096V215.312H388.205V218.096L385.853 218.672C384.093 224.048 382.349 229.232 380.621 234.224C378.893 239.216 377.885 242.016 377.597 242.624C376.573 245.312 375.597 247.456 374.669 249.056C373.741 250.656 372.637 251.872 371.357 252.704C370.077 253.536 368.525 253.952 366.701 253.952Z" fill="#2C2C2C"/>
<g filter="url(#filter0_d_1_276)">
<rect x="231" y="279" width="190" height="190" rx="95" fill="white"/>
<path d="M285.376 368.384C283.648 368.384 282.037 368.107 280.544 367.552C279.072 366.976 277.792 366.165 276.704 365.12C275.616 364.075 274.763 362.848 274.144 361.44C273.547 360.032 273.248 358.485 273.248 356.8C273.248 355.115 273.547 353.568 274.144 352.16C274.763 350.752 275.616 349.525 276.704 348.48C277.813 347.435 279.104 346.635 280.576 346.08C282.048 345.504 283.659 345.216 285.408 345.216C287.349 345.216 289.099 345.557 290.656 346.24C292.235 346.901 293.557 347.883 294.624 349.184L291.296 352.256C290.528 351.381 289.675 350.731 288.736 350.304C287.797 349.856 286.773 349.632 285.664 349.632C284.619 349.632 283.659 349.803 282.784 350.144C281.909 350.485 281.152 350.976 280.512 351.616C279.872 352.256 279.371 353.013 279.008 353.888C278.667 354.763 278.496 355.733 278.496 356.8C278.496 357.867 278.667 358.837 279.008 359.712C279.371 360.587 279.872 361.344 280.512 361.984C281.152 362.624 281.909 363.115 282.784 363.456C283.659 363.797 284.619 363.968 285.664 363.968C286.773 363.968 287.797 363.755 288.736 363.328C289.675 362.88 290.528 362.208 291.296 361.312L294.624 364.384C293.557 365.685 292.235 366.677 290.656 367.36C289.099 368.043 287.339 368.384 285.376 368.384ZM297.133 368V350.784H301.901V355.648L301.229 354.24C301.741 353.024 302.562 352.107 303.693 351.488C304.823 350.848 306.199 350.528 307.821 350.528V355.136C307.607 355.115 307.415 355.104 307.245 355.104C307.074 355.083 306.893 355.072 306.701 355.072C305.335 355.072 304.226 355.467 303.373 356.256C302.541 357.024 302.125 358.229 302.125 359.872V368H297.133ZM318.568 368.256C316.605 368.256 314.877 367.872 313.384 367.104C311.912 366.336 310.771 365.291 309.96 363.968C309.149 362.624 308.744 361.099 308.744 359.392C308.744 357.664 309.139 356.139 309.928 354.816C310.739 353.472 311.837 352.427 313.224 351.68C314.611 350.912 316.179 350.528 317.928 350.528C319.613 350.528 321.128 350.891 322.472 351.616C323.837 352.32 324.915 353.344 325.704 354.688C326.493 356.011 326.888 357.6 326.888 359.456C326.888 359.648 326.877 359.872 326.856 360.128C326.835 360.363 326.813 360.587 326.792 360.8H312.808V357.888H324.168L322.248 358.752C322.248 357.856 322.067 357.077 321.704 356.416C321.341 355.755 320.84 355.243 320.2 354.88C319.56 354.496 318.813 354.304 317.96 354.304C317.107 354.304 316.349 354.496 315.688 354.88C315.048 355.243 314.547 355.765 314.184 356.448C313.821 357.109 313.64 357.899 313.64 358.816V359.584C313.64 360.523 313.843 361.355 314.248 362.08C314.675 362.784 315.261 363.328 316.008 363.712C316.776 364.075 317.672 364.256 318.696 364.256C319.613 364.256 320.413 364.117 321.096 363.84C321.8 363.563 322.44 363.147 323.016 362.592L325.672 365.472C324.883 366.368 323.891 367.061 322.696 367.552C321.501 368.021 320.125 368.256 318.568 368.256ZM339.663 368V364.64L339.343 363.904V357.888C339.343 356.821 339.012 355.989 338.351 355.392C337.711 354.795 336.719 354.496 335.375 354.496C334.457 354.496 333.551 354.645 332.655 354.944C331.78 355.221 331.033 355.605 330.415 356.096L328.623 352.608C329.561 351.947 330.692 351.435 332.015 351.072C333.337 350.709 334.681 350.528 336.047 350.528C338.671 350.528 340.708 351.147 342.159 352.384C343.609 353.621 344.335 355.552 344.335 358.176V368H339.663ZM334.415 368.256C333.071 368.256 331.919 368.032 330.959 367.584C329.999 367.115 329.263 366.485 328.751 365.696C328.239 364.907 327.983 364.021 327.983 363.04C327.983 362.016 328.228 361.12 328.719 360.352C329.231 359.584 330.031 358.987 331.119 358.56C332.207 358.112 333.625 357.888 335.375 357.888H339.951V360.8H335.919C334.745 360.8 333.935 360.992 333.487 361.376C333.06 361.76 332.847 362.24 332.847 362.816C332.847 363.456 333.092 363.968 333.583 364.352C334.095 364.715 334.788 364.896 335.663 364.896C336.495 364.896 337.241 364.704 337.903 364.32C338.564 363.915 339.044 363.328 339.343 362.56L340.111 364.864C339.748 365.973 339.087 366.816 338.127 367.392C337.167 367.968 335.929 368.256 334.415 368.256ZM355.253 368.256C353.226 368.256 351.647 367.744 350.517 366.72C349.386 365.675 348.821 364.128 348.821 362.08V346.976H353.813V362.016C353.813 362.741 354.005 363.307 354.389 363.712C354.773 364.096 355.295 364.288 355.957 364.288C356.746 364.288 357.418 364.075 357.973 363.648L359.317 367.168C358.805 367.531 358.186 367.808 357.461 368C356.757 368.171 356.021 368.256 355.253 368.256ZM346.165 355.008V351.168H358.101V355.008H346.165ZM369.492 368.256C367.529 368.256 365.801 367.872 364.308 367.104C362.836 366.336 361.694 365.291 360.884 363.968C360.073 362.624 359.668 361.099 359.668 359.392C359.668 357.664 360.062 356.139 360.852 354.816C361.662 353.472 362.761 352.427 364.148 351.68C365.534 350.912 367.102 350.528 368.852 350.528C370.537 350.528 372.052 350.891 373.396 351.616C374.761 352.32 375.838 353.344 376.628 354.688C377.417 356.011 377.812 357.6 377.812 359.456C377.812 359.648 377.801 359.872 377.78 360.128C377.758 360.363 377.737 360.587 377.716 360.8H363.732V357.888H375.092L373.172 358.752C373.172 357.856 372.99 357.077 372.628 356.416C372.265 355.755 371.764 355.243 371.124 354.88C370.484 354.496 369.737 354.304 368.884 354.304C368.03 354.304 367.273 354.496 366.612 354.88C365.972 355.243 365.47 355.765 365.108 356.448C364.745 357.109 364.564 357.899 364.564 358.816V359.584C364.564 360.523 364.766 361.355 365.172 362.08C365.598 362.784 366.185 363.328 366.932 363.712C367.7 364.075 368.596 364.256 369.62 364.256C370.537 364.256 371.337 364.117 372.02 363.84C372.724 363.563 373.364 363.147 373.94 362.592L376.596 365.472C375.806 366.368 374.814 367.061 373.62 367.552C372.425 368.021 371.049 368.256 369.492 368.256Z" fill="#2C2C2C"/>
<path d="M336.344 393.874C338.087 393.874 339.5 395.287 339.5 397.03C339.5 398.772 338.087 400.185 336.344 400.185H314.656C312.913 400.185 311.5 398.772 311.5 397.03C311.5 395.287 312.913 393.874 314.656 393.874H336.344ZM328.685 407.844C328.685 409.587 327.272 411 325.53 411C323.787 411 322.374 409.587 322.374 407.844V386.156C322.374 384.413 323.787 383 325.53 383C327.272 383 328.685 384.413 328.685 386.156V407.844Z" fill="#2C2C2C"/>
</g>
<rect x="1.5" y="1.5" width="649" height="646" rx="41.5" stroke="url(#paint0_linear_1_276)" stroke-width="3"/>
<defs>
<filter id="filter0_d_1_276" x="217" y="269" width="218" height="218" filterUnits="userSpaceOnUse" color-interpolation-filters="sRGB">
<feFlood flood-opacity="0" result="BackgroundImageFix"/>
<feColorMatrix in="SourceAlpha" type="matrix" values="0 0 0 0 0 0 0 0 0 0 0 0 0 0 0 0 0 0 127 0" result="hardAlpha"/>
<feOffset dy="4"/>
<feGaussianBlur stdDeviation="7"/>
<feComposite in2="hardAlpha" operator="out"/>
<feColorMatrix type="matrix" values="0 0 0 0 0 0 0 0 0 0 0 0 0 0 0 0 0 0 0.2 0"/>
<feBlend mode="normal" in2="BackgroundImageFix" result="effect1_dropShadow_1_276"/>
<feBlend mode="normal" in="SourceGraphic" in2="effect1_dropShadow_1_276" result="shape"/>
</filter>
<linearGradient id="paint0_linear_1_276" x1="668" y1="3" x2="2.99999" y2="661" gradientUnits="userSpaceOnUse">
<stop offset="0.0001" stop-color="#0038FF"/>
<stop offset="0.405" stop-color="#C60083"/>
<stop offset="0.685" stop-color="#FFC700"/>
<stop offset="1" stop-color="#FF0000"/>
</linearGradient>
</defs>
</svg>
