<svg width="386" height="384" viewBox="0 0 386 384" fill="none" xmlns="http://www.w3.org/2000/svg">
<rect x="2" y="1.99976" width="382" height="380.226" rx="23.6533" fill="#FFE59C"/>
<rect x="18.5573" y="311.266" width="348.885" height="37.8452" rx="9.4613" fill="#FFF7E0"/>
<g clip-path="url(#clip0_1_467)">
<path d="M35.0822 324.801C34.1427 323.861 33.4997 322.22 33.1806 320.727C32.861 322.22 32.2186 323.862 31.2788 324.802C30.3393 325.741 28.6976 326.384 27.2046 326.704C28.6982 327.023 30.3396 327.665 31.2791 328.605C32.2186 329.545 32.8616 331.186 33.1812 332.679C33.5003 331.186 34.1432 329.544 35.0825 328.605C36.022 327.665 37.6637 327.022 39.1567 326.703C37.6634 326.383 36.0221 325.74 35.0822 324.801Z" fill="#000AFF"/>
<path d="M41.1851 332.326C40.6243 331.765 40.2395 330.784 40.0488 329.892C39.8578 330.784 39.4743 331.765 38.9129 332.326C38.3515 332.887 37.3707 333.271 36.4789 333.462C37.371 333.653 38.3515 334.037 38.9129 334.598C39.4743 335.159 39.8585 336.14 40.0495 337.032C40.2401 336.14 40.6243 335.159 41.1853 334.598C41.7464 334.037 42.7274 333.653 43.6191 333.462C42.7274 333.271 41.7465 332.887 41.1851 332.326Z" fill="#000AFF"/>
<path d="M31.233 334.245C31.0726 334.994 30.7506 335.818 30.2794 336.289C29.8083 336.76 28.9848 337.082 28.2361 337.243C28.9848 337.404 29.8083 337.725 30.2794 338.197C30.7506 338.668 31.0733 339.491 31.2336 340.24C31.3938 339.491 31.7159 338.668 32.1873 338.196C32.6582 337.725 33.4818 337.403 34.2304 337.242C33.4818 337.082 32.6582 336.76 32.187 336.289C31.7159 335.818 31.3932 334.994 31.233 334.245Z" fill="#000AFF"/>
</g>
<rect x="51.0807" y="323.093" width="1.77399" height="14.7833" fill="black"/>
<path d="M153.09 60.2701C151.737 60.2701 150.436 60.0533 149.187 59.6197C147.956 59.1687 147.002 58.5963 146.325 57.9024L147.08 56.4194C147.721 57.0438 148.58 57.5729 149.655 58.0065C150.748 58.4228 151.893 58.631 153.09 58.631C154.235 58.631 155.163 58.4922 155.874 58.2147C156.602 57.9198 157.131 57.5295 157.461 57.0438C157.808 56.5581 157.981 56.0204 157.981 55.4307C157.981 54.7195 157.773 54.1471 157.357 53.7134C156.958 53.2798 156.429 52.9416 155.77 52.6987C155.111 52.4385 154.382 52.213 153.584 52.0222C152.786 51.8314 151.988 51.632 151.191 51.4238C150.393 51.1983 149.655 50.9034 148.979 50.5392C148.32 50.1749 147.782 49.6979 147.366 49.1082C146.967 48.5011 146.767 47.7118 146.767 46.7405C146.767 45.8385 147.002 45.0146 147.47 44.2687C147.956 43.5055 148.693 42.8984 149.681 42.4474C150.67 41.9791 151.936 41.7449 153.48 41.7449C154.504 41.7449 155.518 41.8923 156.524 42.1872C157.53 42.4647 158.398 42.855 159.126 43.358L158.476 44.8931C157.695 44.3728 156.863 43.9912 155.978 43.7483C155.111 43.5055 154.269 43.3841 153.454 43.3841C152.361 43.3841 151.459 43.5315 150.748 43.8264C150.037 44.1213 149.508 44.5202 149.161 45.0232C148.832 45.5089 148.667 46.064 148.667 46.6884C148.667 47.3996 148.866 47.972 149.265 48.4057C149.681 48.8393 150.219 49.1775 150.878 49.4204C151.555 49.6632 152.292 49.88 153.09 50.0708C153.888 50.2616 154.677 50.4698 155.458 50.6953C156.255 50.9208 156.984 51.2157 157.643 51.5799C158.32 51.9268 158.857 52.3952 159.256 52.9849C159.673 53.5747 159.881 54.3466 159.881 55.3006C159.881 56.1852 159.638 57.0091 159.152 57.7723C158.667 58.5182 157.921 59.1253 156.915 59.5936C155.926 60.0446 154.651 60.2701 153.09 60.2701ZM168.811 60.2441C167.649 60.2441 166.634 60.0273 165.767 59.5936C164.9 59.16 164.223 58.5095 163.738 57.6422C163.269 56.775 163.035 55.6909 163.035 54.3899V46.4543H164.882V54.1818C164.882 55.6388 165.238 56.7403 165.949 57.4861C166.678 58.2147 167.692 58.5789 168.993 58.5789C169.947 58.5789 170.771 58.3881 171.465 58.0065C172.176 57.6076 172.714 57.0351 173.078 56.2893C173.46 55.5434 173.651 54.6501 173.651 53.6094V46.4543H175.498V60.114H173.729V56.3673L174.015 57.0438C173.581 58.0499 172.905 58.8391 171.985 59.4115C171.083 59.9666 170.025 60.2441 168.811 60.2441ZM187.099 46.3242C188.209 46.3242 189.18 46.541 190.013 46.9746C190.863 47.3909 191.522 48.0327 191.99 48.9C192.476 49.7673 192.719 50.8601 192.719 52.1783V60.114H190.872V52.3605C190.872 50.9208 190.507 49.8367 189.779 49.1082C189.068 48.3623 188.062 47.9894 186.761 47.9894C185.789 47.9894 184.939 48.1888 184.211 48.5878C183.5 48.9694 182.945 49.5331 182.546 50.279C182.164 51.0075 181.973 51.8921 181.973 52.9329V60.114H180.126V46.4543H181.895V50.2009L181.609 49.4984C182.043 48.5097 182.737 47.7378 183.691 47.1828C184.645 46.6104 185.781 46.3242 187.099 46.3242ZM202.626 60.2441C201.325 60.2441 200.155 59.9492 199.114 59.3595C198.09 58.7697 197.284 57.9545 196.694 56.9137C196.104 55.8556 195.81 54.6414 195.81 53.2711C195.81 51.8835 196.104 50.6693 196.694 49.6285C197.284 48.5878 198.09 47.7812 199.114 47.2088C200.155 46.619 201.325 46.3242 202.626 46.3242C203.823 46.3242 204.89 46.593 205.827 47.1307C206.781 47.6685 207.535 48.4577 208.09 49.4984C208.663 50.5218 208.949 51.7794 208.949 53.2711C208.949 54.7455 208.671 56.0031 208.116 57.0438C207.561 58.0846 206.807 58.8825 205.853 59.4375C204.916 59.9752 203.841 60.2441 202.626 60.2441ZM202.756 58.6049C203.728 58.6049 204.595 58.3881 205.358 57.9545C206.139 57.5035 206.746 56.879 207.18 56.0811C207.631 55.2659 207.856 54.3292 207.856 53.2711C207.856 52.1957 207.631 51.259 207.18 50.4611C206.746 49.6632 206.139 49.0474 205.358 48.6138C204.595 48.1628 203.728 47.9373 202.756 47.9373C201.802 47.9373 200.944 48.1628 200.181 48.6138C199.417 49.0474 198.81 49.6632 198.359 50.4611C197.908 51.259 197.683 52.1957 197.683 53.2711C197.683 54.3292 197.908 55.2659 198.359 56.0811C198.81 56.879 199.417 57.5035 200.181 57.9545C200.944 58.3881 201.802 58.6049 202.756 58.6049ZM207.908 60.114V56.0031L208.09 53.2451L207.83 50.4871V40.8082H209.677V60.114H207.908ZM222.862 60.114V57.0959L222.784 56.6015V51.5539C222.784 50.3917 222.454 49.4984 221.795 48.874C221.153 48.2495 220.191 47.9373 218.907 47.9373C218.022 47.9373 217.181 48.0848 216.383 48.3796C215.585 48.6745 214.909 49.0648 214.354 49.5505L213.521 48.1715C214.215 47.5817 215.048 47.1307 216.019 46.8185C216.99 46.489 218.014 46.3242 219.089 46.3242C220.859 46.3242 222.22 46.7665 223.174 47.6511C224.146 48.5184 224.631 49.8453 224.631 51.632V60.114H222.862ZM218.153 60.2441C217.129 60.2441 216.236 60.0793 215.473 59.7498C214.727 59.4028 214.154 58.9345 213.755 58.3448C213.356 57.7377 213.157 57.0438 213.157 56.2633C213.157 55.5521 213.322 54.9103 213.651 54.3379C213.998 53.7481 214.553 53.2798 215.317 52.9329C216.097 52.5686 217.138 52.3865 218.439 52.3865H223.148V53.7655H218.491C217.173 53.7655 216.253 53.9996 215.733 54.468C215.23 54.9363 214.978 55.5174 214.978 56.2112C214.978 56.9918 215.282 57.6162 215.889 58.0846C216.496 58.5529 217.346 58.7871 218.439 58.7871C219.48 58.7871 220.373 58.5529 221.119 58.0846C221.882 57.5989 222.437 56.9051 222.784 56.0031L223.2 57.278C222.853 58.18 222.246 58.8998 221.379 59.4375C220.529 59.9752 219.454 60.2441 218.153 60.2441ZM228.978 65.2917C228.337 65.2917 227.721 65.1876 227.131 64.9795C226.559 64.7713 226.064 64.4591 225.648 64.0428L226.507 62.6638C226.853 62.9934 227.226 63.2449 227.625 63.4184C228.042 63.6092 228.501 63.7046 229.004 63.7046C229.611 63.7046 230.132 63.5311 230.565 63.1842C231.016 62.8546 231.441 62.2649 231.84 61.4149L232.725 59.4115L232.933 59.1253L238.553 46.4543H240.374L233.532 61.7532C233.15 62.6378 232.725 63.3403 232.257 63.8607C231.806 64.3811 231.311 64.7453 230.774 64.9535C230.236 65.179 229.637 65.2917 228.978 65.2917ZM232.621 60.5043L226.324 46.4543H228.25L233.818 58.9952L232.621 60.5043Z" fill="#3E3E3E"/>
<path d="M143.498 124.575L141.086 124.206V122.446H150.169V124.206L147.671 124.575V141.548L150.169 141.861V143.535H141.086V141.832L143.498 141.548V124.575ZM153.749 130.45L151.932 129.939V127.981L156.644 127.385H156.729L157.439 127.952V129.059L157.41 129.741C158.073 129.116 158.934 128.577 159.993 128.123C161.053 127.669 162.122 127.441 163.201 127.441C164.355 127.441 165.254 127.659 165.897 128.094C166.559 128.511 167.032 129.173 167.316 130.081C167.6 130.989 167.742 132.219 167.742 133.771V141.605L169.473 141.832V143.535H162.15V141.832L163.683 141.605V133.771C163.683 132.787 163.617 132.021 163.484 131.472C163.352 130.904 163.106 130.497 162.746 130.251C162.406 129.987 161.914 129.854 161.271 129.854C160.192 129.854 159.038 130.318 157.808 131.245V141.577L159.511 141.832V143.535H152.103V141.832L153.749 141.577V130.45ZM176.844 143.847C175.671 143.847 174.62 143.573 173.693 143.024C172.766 142.457 172.028 141.586 171.479 140.413C170.93 139.24 170.656 137.773 170.656 136.013C170.656 134.424 170.978 132.976 171.621 131.671C172.283 130.346 173.248 129.296 174.516 128.52C175.784 127.744 177.307 127.356 179.086 127.356C179.805 127.356 180.486 127.432 181.13 127.583V122.787L178.348 122.389V120.828L184.195 120.26H184.28L185.075 120.856V141.804H186.608V143.422C185.245 143.705 184.12 143.847 183.23 143.847C182.625 143.847 182.189 143.743 181.924 143.535C181.678 143.346 181.555 142.958 181.555 142.371V141.577C181.064 142.239 180.392 142.788 179.54 143.223C178.689 143.639 177.79 143.847 176.844 143.847ZM178.32 141.492C178.944 141.492 179.493 141.369 179.966 141.123C180.458 140.858 180.846 140.545 181.13 140.186V129.854C180.997 129.665 180.713 129.504 180.278 129.372C179.862 129.239 179.408 129.173 178.916 129.173C177.705 129.173 176.73 129.703 175.992 130.762C175.273 131.803 174.914 133.478 174.914 135.786C174.914 137.716 175.226 139.155 175.85 140.101C176.475 141.028 177.298 141.492 178.32 141.492ZM200.913 143.819C200.288 143.819 199.834 143.687 199.55 143.422C199.266 143.157 199.124 142.759 199.124 142.229V141.463C198.614 142.088 197.894 142.646 196.967 143.138C196.04 143.611 195.113 143.847 194.186 143.847C192.369 143.847 191.073 143.384 190.297 142.457C189.521 141.51 189.133 139.959 189.133 137.802V129.797L187.714 129.4V127.782L192.539 127.413H192.568L193.135 127.81V137.802C193.135 139.183 193.306 140.148 193.646 140.697C193.987 141.246 194.621 141.52 195.548 141.52C196.665 141.52 197.705 141.085 198.67 140.214V129.797L196.769 129.372V127.782L201.906 127.413H201.963L202.644 127.81V141.775H204.234L204.205 143.393C204.129 143.412 203.779 143.488 203.155 143.62C202.531 143.753 201.783 143.819 200.913 143.819ZM207.318 122.787L205.218 122.418V120.885L210.469 120.26H210.525L211.292 120.8V141.605L213.364 141.832V143.535H205.331V141.832L207.318 141.577V122.787ZM221.619 151.199C219.084 151.199 217.248 150.801 216.113 150.007C214.977 149.212 214.41 148.133 214.41 146.771C214.41 145.995 214.665 145.257 215.176 144.557C215.706 143.876 216.34 143.365 217.078 143.024C216.207 142.513 215.772 141.7 215.772 140.583C215.772 139.94 215.98 139.334 216.397 138.767C216.813 138.18 217.352 137.726 218.014 137.404C216.974 137.007 216.198 136.401 215.687 135.588C215.176 134.774 214.921 133.809 214.921 132.693C214.921 131.614 215.233 130.677 215.857 129.882C216.501 129.069 217.352 128.444 218.412 128.009C219.49 127.574 220.654 127.356 221.903 127.356C224.117 127.356 225.763 127.782 226.842 128.634C227.088 128.312 227.504 128.009 228.091 127.725C228.677 127.441 229.283 127.3 229.907 127.3H230.901V130.393H227.977C228.261 130.999 228.403 131.642 228.403 132.324C228.422 134.045 227.816 135.427 226.586 136.468C225.356 137.489 223.672 138 221.534 138C220.645 138 219.897 137.934 219.292 137.802C219.102 138.048 218.951 138.313 218.838 138.596C218.743 138.861 218.696 139.098 218.696 139.306C218.696 139.93 218.913 140.356 219.348 140.583C219.803 140.81 220.607 140.924 221.761 140.924H224.798C228.658 140.924 230.588 142.324 230.588 145.125C230.588 146.298 230.172 147.348 229.34 148.275C228.507 149.202 227.4 149.922 226.019 150.432C224.637 150.943 223.171 151.199 221.619 151.199ZM221.818 136.24C223.578 136.24 224.458 135.039 224.458 132.636C224.458 131.406 224.23 130.507 223.776 129.939C223.341 129.353 222.669 129.059 221.761 129.059C220.872 129.059 220.181 129.353 219.689 129.939C219.216 130.507 218.979 131.368 218.979 132.522C218.979 135.001 219.926 136.24 221.818 136.24ZM222.045 149.24C223.237 149.24 224.268 148.947 225.139 148.36C226.009 147.793 226.444 146.998 226.444 145.976C226.444 145.163 226.227 144.576 225.792 144.216C225.375 143.857 224.618 143.677 223.521 143.677H220.427C219.954 143.677 219.519 143.649 219.121 143.592C218.61 144.273 218.355 145.087 218.355 146.033C218.355 147.074 218.639 147.868 219.207 148.417C219.774 148.966 220.72 149.24 222.045 149.24ZM238.992 143.847C236.494 143.847 234.63 143.119 233.4 141.662C232.189 140.186 231.584 138.18 231.584 135.644C231.584 133.941 231.896 132.465 232.521 131.217C233.164 129.968 234.063 129.012 235.217 128.35C236.371 127.687 237.705 127.356 239.219 127.356C241.111 127.356 242.568 127.858 243.59 128.861C244.612 129.845 245.142 131.254 245.18 133.09C245.18 134.339 245.104 135.266 244.953 135.872H235.728C235.804 137.593 236.21 138.937 236.948 139.902C237.686 140.848 238.737 141.321 240.099 141.321C240.837 141.321 241.594 141.198 242.37 140.952C243.165 140.706 243.789 140.413 244.243 140.072L244.953 141.633C244.442 142.182 243.609 142.693 242.455 143.166C241.32 143.62 240.165 143.847 238.992 143.847ZM241.206 134.168C241.244 133.639 241.263 133.232 241.263 132.948C241.263 130.431 240.421 129.173 238.737 129.173C237.809 129.173 237.09 129.542 236.579 130.28C236.069 131.018 235.785 132.314 235.728 134.168H241.206Z" fill="#3E3E3E"/>
<g filter="url(#filter0_d_1_467)">
<rect x="136.824" y="165.207" width="112.353" height="112.353" rx="56.1765" fill="white"/>
<path d="M168.613 217.762C167.592 217.762 166.639 217.598 165.756 217.27C164.886 216.93 164.129 216.45 163.485 215.832C162.842 215.214 162.337 214.489 161.971 213.656C161.618 212.823 161.442 211.909 161.442 210.912C161.442 209.916 161.618 209.001 161.971 208.168C162.337 207.336 162.842 206.611 163.485 205.992C164.141 205.374 164.904 204.901 165.775 204.573C166.645 204.233 167.598 204.062 168.632 204.062C169.78 204.062 170.815 204.264 171.736 204.668C172.669 205.059 173.451 205.639 174.082 206.409L172.114 208.225C171.66 207.708 171.155 207.323 170.6 207.071C170.045 206.806 169.44 206.674 168.784 206.674C168.165 206.674 167.598 206.775 167.081 206.976C166.563 207.178 166.116 207.468 165.737 207.847C165.359 208.225 165.062 208.673 164.848 209.19C164.646 209.708 164.545 210.281 164.545 210.912C164.545 211.543 164.646 212.117 164.848 212.634C165.062 213.151 165.359 213.599 165.737 213.978C166.116 214.356 166.563 214.646 167.081 214.848C167.598 215.05 168.165 215.151 168.784 215.151C169.44 215.151 170.045 215.025 170.6 214.772C171.155 214.508 171.66 214.11 172.114 213.58L174.082 215.397C173.451 216.166 172.669 216.753 171.736 217.157C170.815 217.56 169.774 217.762 168.613 217.762ZM175.565 217.535V207.355H178.385V210.231L177.988 209.398C178.29 208.679 178.776 208.137 179.445 207.771C180.113 207.393 180.927 207.203 181.886 207.203V209.928C181.759 209.916 181.646 209.909 181.545 209.909C181.444 209.897 181.337 209.89 181.223 209.89C180.416 209.89 179.76 210.124 179.255 210.591C178.763 211.045 178.517 211.757 178.517 212.729V217.535H175.565ZM188.241 217.687C187.08 217.687 186.058 217.459 185.175 217.005C184.305 216.551 183.63 215.933 183.151 215.151C182.671 214.356 182.432 213.454 182.432 212.445C182.432 211.423 182.665 210.521 183.132 209.739C183.611 208.944 184.261 208.326 185.081 207.885C185.901 207.43 186.828 207.203 187.862 207.203C188.859 207.203 189.755 207.418 190.549 207.847C191.357 208.263 191.994 208.869 192.461 209.663C192.927 210.445 193.161 211.385 193.161 212.483C193.161 212.596 193.154 212.729 193.142 212.88C193.129 213.019 193.117 213.151 193.104 213.278H184.835V211.556H191.552L190.417 212.067C190.417 211.537 190.31 211.076 190.095 210.685C189.881 210.294 189.584 209.991 189.206 209.777C188.827 209.55 188.386 209.436 187.881 209.436C187.377 209.436 186.929 209.55 186.538 209.777C186.159 209.991 185.863 210.3 185.648 210.704C185.434 211.095 185.327 211.562 185.327 212.104V212.559C185.327 213.114 185.447 213.606 185.686 214.034C185.939 214.451 186.285 214.772 186.727 215C187.181 215.214 187.711 215.321 188.316 215.321C188.859 215.321 189.332 215.239 189.736 215.075C190.152 214.911 190.53 214.665 190.871 214.337L192.442 216.04C191.975 216.57 191.388 216.98 190.682 217.27C189.975 217.548 189.162 217.687 188.241 217.687ZM200.715 217.535V215.548L200.526 215.113V211.556C200.526 210.925 200.33 210.433 199.939 210.08C199.56 209.726 198.974 209.55 198.179 209.55C197.637 209.55 197.101 209.638 196.571 209.815C196.054 209.979 195.612 210.206 195.246 210.496L194.186 208.433C194.742 208.042 195.41 207.74 196.192 207.525C196.974 207.311 197.769 207.203 198.577 207.203C200.128 207.203 201.333 207.569 202.191 208.301C203.049 209.033 203.477 210.174 203.477 211.726V217.535H200.715ZM197.611 217.687C196.817 217.687 196.136 217.554 195.568 217.289C195 217.012 194.565 216.639 194.262 216.173C193.959 215.706 193.808 215.182 193.808 214.602C193.808 213.997 193.953 213.467 194.243 213.013C194.546 212.559 195.019 212.205 195.662 211.953C196.306 211.688 197.145 211.556 198.179 211.556H200.885V213.278H198.501C197.807 213.278 197.328 213.391 197.063 213.618C196.81 213.845 196.684 214.129 196.684 214.47C196.684 214.848 196.829 215.151 197.119 215.378C197.422 215.592 197.832 215.7 198.349 215.7C198.841 215.7 199.283 215.586 199.674 215.359C200.065 215.119 200.349 214.772 200.526 214.318L200.98 215.681C200.765 216.337 200.374 216.835 199.806 217.176C199.239 217.516 198.507 217.687 197.611 217.687ZM209.934 217.687C208.735 217.687 207.802 217.384 207.133 216.778C206.464 216.16 206.13 215.246 206.13 214.034V205.103H209.082V213.997C209.082 214.426 209.196 214.76 209.423 215C209.65 215.227 209.959 215.34 210.35 215.34C210.817 215.34 211.214 215.214 211.542 214.962L212.337 217.043C212.034 217.258 211.668 217.422 211.239 217.535C210.823 217.636 210.388 217.687 209.934 217.687ZM204.56 209.853V207.582H211.618V209.853H204.56ZM218.354 217.687C217.193 217.687 216.171 217.459 215.288 217.005C214.418 216.551 213.743 215.933 213.263 215.151C212.784 214.356 212.544 213.454 212.544 212.445C212.544 211.423 212.778 210.521 213.244 209.739C213.724 208.944 214.374 208.326 215.194 207.885C216.014 207.43 216.941 207.203 217.975 207.203C218.972 207.203 219.867 207.418 220.662 207.847C221.47 208.263 222.107 208.869 222.573 209.663C223.04 210.445 223.273 211.385 223.273 212.483C223.273 212.596 223.267 212.729 223.255 212.88C223.242 213.019 223.229 213.151 223.217 213.278H214.948V211.556H221.665L220.53 212.067C220.53 211.537 220.422 211.076 220.208 210.685C219.994 210.294 219.697 209.991 219.319 209.777C218.94 209.55 218.499 209.436 217.994 209.436C217.489 209.436 217.042 209.55 216.651 209.777C216.272 209.991 215.976 210.3 215.761 210.704C215.547 211.095 215.44 211.562 215.44 212.104V212.559C215.44 213.114 215.559 213.606 215.799 214.034C216.051 214.451 216.398 214.772 216.84 215C217.294 215.214 217.824 215.321 218.429 215.321C218.972 215.321 219.445 215.239 219.848 215.075C220.265 214.911 220.643 214.665 220.984 214.337L222.554 216.04C222.088 216.57 221.501 216.98 220.795 217.27C220.088 217.548 219.274 217.687 218.354 217.687Z" fill="#3E3E3E"/>
<path d="M199.116 233.105C200.147 233.105 200.982 233.94 200.982 234.971C200.982 236.001 200.147 236.837 199.116 236.837H186.291C185.26 236.837 184.425 236.001 184.425 234.971C184.425 233.94 185.26 233.105 186.291 233.105H199.116ZM194.587 241.366C194.587 242.396 193.752 243.232 192.721 243.232C191.691 243.232 190.855 242.396 190.855 241.366V228.541C190.855 227.51 191.691 226.675 192.721 226.675C193.752 226.675 194.587 227.51 194.587 228.541V241.366Z" fill="#3E3E3E"/>
</g>
<rect x="1.113" y="1.113" width="383.774" height="382" rx="24.5402" stroke="url(#paint0_linear_1_467)" stroke-width="1.77399"/>
<defs>
<filter id="filter0_d_1_467" x="128.545" y="159.293" width="128.91" height="128.91" filterUnits="userSpaceOnUse" color-interpolation-filters="sRGB">
<feFlood flood-opacity="0" result="BackgroundImageFix"/>
<feColorMatrix in="SourceAlpha" type="matrix" values="0 0 0 0 0 0 0 0 0 0 0 0 0 0 0 0 0 0 127 0" result="hardAlpha"/>
<feOffset dy="2.36533"/>
<feGaussianBlur stdDeviation="4.13932"/>
<feComposite in2="hardAlpha" operator="out"/>
<feColorMatrix type="matrix" values="0 0 0 0 0 0 0 0 0 0 0 0 0 0 0 0 0 0 0.2 0"/>
<feBlend mode="normal" in2="BackgroundImageFix" result="effect1_dropShadow_1_467"/>
<feBlend mode="normal" in="SourceGraphic" in2="effect1_dropShadow_1_467" result="shape"/>
</filter>
<linearGradient id="paint0_linear_1_467" x1="395.235" y1="2" x2="2.00002" y2="391.096" gradientUnits="userSpaceOnUse">
<stop offset="0.0001" stop-color="#0038FF"/>
<stop offset="0.405" stop-color="#C60083"/>
<stop offset="0.685" stop-color="#FFC700"/>
<stop offset="1" stop-color="#FF0000"/>
</linearGradient>
<clipPath id="clip0_1_467">
<rect width="19.5139" height="19.5139" fill="white" transform="translate(25.6539 320.727)"/>
</clipPath>
</defs>
</svg>
