<svg width="652" height="649" viewBox="0 0 652 649" fill="none" xmlns="http://www.w3.org/2000/svg">
<rect x="3" y="3" width="646" height="643" rx="40" fill="#FFE59C"/>
<rect x="31" y="526" width="590" height="64" rx="16" fill="#FFF7E0"/>
<path d="M58.9428 548.89C57.354 547.301 56.2666 544.525 55.7269 542C55.1864 544.526 54.1001 547.302 52.5108 548.891C50.922 550.479 48.1457 551.567 45.621 552.108C48.1468 552.647 50.9225 553.734 52.5113 555.323C54.1 556.912 55.1875 559.688 55.728 562.214C56.2677 559.688 57.3548 556.912 58.9433 555.322C60.5321 553.734 63.3083 552.647 65.8331 552.106C63.3079 551.566 60.5321 550.479 58.9428 548.89Z" fill="#000AFF"/>
<path d="M69.2627 561.616C68.3144 560.667 67.6637 559.008 67.3413 557.499C67.0183 559.008 66.3698 560.667 65.4204 561.616C64.471 562.564 62.8123 563.215 61.3041 563.537C62.8129 563.86 64.471 564.51 65.4204 565.459C66.3698 566.408 67.0195 568.067 67.3424 569.575C67.6647 568.066 68.3144 566.408 69.2632 565.458C70.2121 564.51 71.871 563.86 73.3789 563.536C71.871 563.214 70.2121 562.564 69.2627 561.616Z" fill="#000AFF"/>
<path d="M52.4328 564.862C52.1617 566.128 51.6172 567.521 50.8203 568.318C50.0235 569.114 48.6309 569.66 47.3647 569.931C48.6309 570.203 50.0235 570.747 50.8203 571.544C51.6172 572.341 52.1628 573.733 52.4339 575C52.7048 573.733 53.2496 572.341 54.0467 571.544C54.843 570.747 56.2358 570.202 57.5017 569.93C56.2359 569.659 54.843 569.114 54.0462 568.317C53.2496 567.521 52.7037 566.128 52.4328 564.862Z" fill="#000AFF"/>
<rect x="86" y="546" width="3" height="25" fill="black"/>
<path d="M258.508 102.264C256.22 102.264 254.02 101.897 251.908 101.164C249.825 100.401 248.212 99.4333 247.068 98.26L248.344 95.752C249.429 96.808 250.881 97.7027 252.7 98.436C254.548 99.14 256.484 99.492 258.508 99.492C260.444 99.492 262.013 99.2573 263.216 98.788C264.448 98.2893 265.343 97.6293 265.9 96.808C266.487 95.9867 266.78 95.0773 266.78 94.08C266.78 92.8773 266.428 91.9093 265.724 91.176C265.049 90.4427 264.155 89.8707 263.04 89.46C261.925 89.02 260.693 88.6387 259.344 88.316C257.995 87.9933 256.645 87.656 255.296 87.304C253.947 86.9227 252.7 86.424 251.556 85.808C250.441 85.192 249.532 84.3853 248.828 83.388C248.153 82.3613 247.816 81.0267 247.816 79.384C247.816 77.8587 248.212 76.4653 249.004 75.204C249.825 73.9133 251.072 72.8867 252.744 72.124C254.416 71.332 256.557 70.936 259.168 70.936C260.899 70.936 262.615 71.1853 264.316 71.684C266.017 72.1533 267.484 72.8133 268.716 73.664L267.616 76.26C266.296 75.38 264.888 74.7347 263.392 74.324C261.925 73.9133 260.503 73.708 259.124 73.708C257.276 73.708 255.751 73.9573 254.548 74.456C253.345 74.9547 252.451 75.6293 251.864 76.48C251.307 77.3013 251.028 78.24 251.028 79.296C251.028 80.4987 251.365 81.4667 252.04 82.2C252.744 82.9333 253.653 83.5053 254.768 83.916C255.912 84.3267 257.159 84.6933 258.508 85.016C259.857 85.3387 261.192 85.6907 262.512 86.072C263.861 86.4533 265.093 86.952 266.208 87.568C267.352 88.1547 268.261 88.9467 268.936 89.944C269.64 90.9413 269.992 92.2467 269.992 93.86C269.992 95.356 269.581 96.7493 268.76 98.04C267.939 99.3013 266.677 100.328 264.976 101.12C263.304 101.883 261.148 102.264 258.508 102.264ZM285.094 102.22C283.129 102.22 281.413 101.853 279.946 101.12C278.48 100.387 277.336 99.2867 276.514 97.82C275.722 96.3533 275.326 94.52 275.326 92.32V78.9H278.45V91.968C278.45 94.432 279.052 96.2947 280.254 97.556C281.486 98.788 283.202 99.404 285.402 99.404C287.016 99.404 288.409 99.0813 289.582 98.436C290.785 97.7613 291.694 96.7933 292.31 95.532C292.956 94.2707 293.278 92.76 293.278 91V78.9H296.402V102H293.41V95.664L293.894 96.808C293.161 98.5093 292.017 99.844 290.462 100.812C288.937 101.751 287.148 102.22 285.094 102.22ZM316.021 78.68C317.898 78.68 319.541 79.0467 320.949 79.78C322.386 80.484 323.501 81.5693 324.293 83.036C325.114 84.5027 325.525 86.3507 325.525 88.58V102H322.401V88.888C322.401 86.4533 321.785 84.62 320.553 83.388C319.35 82.1267 317.649 81.496 315.449 81.496C313.806 81.496 312.369 81.8333 311.137 82.508C309.934 83.1533 308.995 84.1067 308.321 85.368C307.675 86.6 307.353 88.096 307.353 89.856V102H304.229V78.9H307.221V85.236L306.737 84.048C307.47 82.376 308.643 81.0707 310.257 80.132C311.87 79.164 313.791 78.68 316.021 78.68ZM342.279 102.22C340.079 102.22 338.099 101.721 336.339 100.724C334.609 99.7267 333.245 98.348 332.247 96.588C331.25 94.7987 330.751 92.7453 330.751 90.428C330.751 88.0813 331.25 86.028 332.247 84.268C333.245 82.508 334.609 81.144 336.339 80.176C338.099 79.1787 340.079 78.68 342.279 78.68C344.303 78.68 346.107 79.1347 347.691 80.044C349.305 80.9533 350.581 82.288 351.519 84.048C352.487 85.7787 352.971 87.9053 352.971 90.428C352.971 92.9213 352.502 95.048 351.563 96.808C350.625 98.568 349.349 99.9173 347.735 100.856C346.151 101.765 344.333 102.22 342.279 102.22ZM342.499 99.448C344.142 99.448 345.609 99.0813 346.899 98.348C348.219 97.5853 349.246 96.5293 349.979 95.18C350.742 93.8013 351.123 92.2173 351.123 90.428C351.123 88.6093 350.742 87.0253 349.979 85.676C349.246 84.3267 348.219 83.2853 346.899 82.552C345.609 81.7893 344.142 81.408 342.499 81.408C340.886 81.408 339.434 81.7893 338.143 82.552C336.853 83.2853 335.826 84.3267 335.063 85.676C334.301 87.0253 333.919 88.6093 333.919 90.428C333.919 92.2173 334.301 93.8013 335.063 95.18C335.826 96.5293 336.853 97.5853 338.143 98.348C339.434 99.0813 340.886 99.448 342.499 99.448ZM351.211 102V95.048L351.519 90.384L351.079 85.72V69.352H354.203V102H351.211ZM376.5 102V96.896L376.368 96.06V87.524C376.368 85.5587 375.81 84.048 374.696 82.992C373.61 81.936 371.982 81.408 369.812 81.408C368.316 81.408 366.893 81.6573 365.544 82.156C364.194 82.6547 363.05 83.3147 362.112 84.136L360.704 81.804C361.877 80.8067 363.285 80.044 364.928 79.516C366.57 78.9587 368.301 78.68 370.12 78.68C373.112 78.68 375.414 79.428 377.028 80.924C378.67 82.3907 379.492 84.6347 379.492 87.656V102H376.5ZM368.536 102.22C366.805 102.22 365.294 101.941 364.004 101.384C362.742 100.797 361.774 100.005 361.1 99.008C360.425 97.9813 360.088 96.808 360.088 95.488C360.088 94.2853 360.366 93.2 360.924 92.232C361.51 91.2347 362.449 90.4427 363.74 89.856C365.06 89.24 366.82 88.932 369.02 88.932H376.984V91.264H369.108C366.878 91.264 365.324 91.66 364.444 92.452C363.593 93.244 363.168 94.2267 363.168 95.4C363.168 96.72 363.681 97.776 364.708 98.568C365.734 99.36 367.172 99.756 369.02 99.756C370.78 99.756 372.29 99.36 373.552 98.568C374.842 97.7467 375.781 96.5733 376.368 95.048L377.072 97.204C376.485 98.7293 375.458 99.9467 373.992 100.856C372.554 101.765 370.736 102.22 368.536 102.22ZM386.843 110.756C385.758 110.756 384.716 110.58 383.719 110.228C382.751 109.876 381.915 109.348 381.211 108.644L382.663 106.312C383.25 106.869 383.88 107.295 384.555 107.588C385.259 107.911 386.036 108.072 386.887 108.072C387.914 108.072 388.794 107.779 389.527 107.192C390.29 106.635 391.008 105.637 391.683 104.2L393.179 100.812L393.531 100.328L403.035 78.9H406.115L394.543 104.772C393.898 106.268 393.179 107.456 392.387 108.336C391.624 109.216 390.788 109.832 389.879 110.184C388.97 110.565 387.958 110.756 386.843 110.756ZM393.003 102.66L382.355 78.9H385.611L395.027 100.108L393.003 102.66Z" fill="#3E3E3E"/>
<path d="M242.288 209.936L238.208 209.312V206.336H253.568V209.312L249.344 209.936V238.64L253.568 239.168V242H238.208V239.12L242.288 238.64V209.936ZM259.622 219.872L256.55 219.008V215.696L264.518 214.688H264.662L265.862 215.648V217.52L265.814 218.672C266.934 217.616 268.39 216.704 270.182 215.936C271.974 215.168 273.782 214.784 275.606 214.784C277.558 214.784 279.078 215.152 280.166 215.888C281.286 216.592 282.086 217.712 282.566 219.248C283.046 220.784 283.286 222.864 283.286 225.488V238.736L286.214 239.12V242H273.83V239.12L276.422 238.736V225.488C276.422 223.824 276.31 222.528 276.086 221.6C275.862 220.64 275.446 219.952 274.838 219.536C274.262 219.088 273.43 218.864 272.342 218.864C270.518 218.864 268.566 219.648 266.486 221.216V238.688L269.366 239.12V242H256.838V239.12L259.622 238.688V219.872ZM298.678 242.528C296.694 242.528 294.918 242.064 293.35 241.136C291.782 240.176 290.534 238.704 289.606 236.72C288.678 234.736 288.214 232.256 288.214 229.28C288.214 226.592 288.758 224.144 289.846 221.936C290.966 219.696 292.598 217.92 294.742 216.608C296.886 215.296 299.462 214.64 302.47 214.64C303.686 214.64 304.838 214.768 305.926 215.024V206.912L301.222 206.24V203.6L311.11 202.64H311.254L312.598 203.648V239.072H315.19V241.808C312.886 242.288 310.982 242.528 309.478 242.528C308.454 242.528 307.718 242.352 307.27 242C306.854 241.68 306.646 241.024 306.646 240.032V238.688C305.814 239.808 304.678 240.736 303.238 241.472C301.798 242.176 300.278 242.528 298.678 242.528ZM301.174 238.544C302.23 238.544 303.158 238.336 303.958 237.92C304.79 237.472 305.446 236.944 305.926 236.336V218.864C305.702 218.544 305.222 218.272 304.486 218.048C303.782 217.824 303.014 217.712 302.182 217.712C300.134 217.712 298.486 218.608 297.238 220.4C296.022 222.16 295.414 224.992 295.414 228.896C295.414 232.16 295.942 234.592 296.998 236.192C298.054 237.76 299.446 238.544 301.174 238.544ZM339.381 242.48C338.325 242.48 337.557 242.256 337.077 241.808C336.597 241.36 336.357 240.688 336.357 239.792V238.496C335.493 239.552 334.277 240.496 332.709 241.328C331.141 242.128 329.573 242.528 328.005 242.528C324.933 242.528 322.741 241.744 321.429 240.176C320.117 238.576 319.461 235.952 319.461 232.304V218.768L317.061 218.096V215.36L325.221 214.736H325.269L326.229 215.408V232.304C326.229 234.64 326.517 236.272 327.093 237.2C327.669 238.128 328.741 238.592 330.309 238.592C332.197 238.592 333.957 237.856 335.589 236.384V218.768L332.373 218.048V215.36L341.061 214.736H341.157L342.309 215.408V239.024H344.997L344.949 241.76C344.821 241.792 344.229 241.92 343.173 242.144C342.117 242.368 340.853 242.48 339.381 242.48ZM350.213 206.912L346.661 206.288V203.696L355.541 202.64H355.637L356.933 203.552V238.736L360.437 239.12V242H346.853V239.12L350.213 238.688V206.912ZM374.398 254.96C370.11 254.96 367.006 254.288 365.086 252.944C363.166 251.6 362.206 249.776 362.206 247.472C362.206 246.16 362.638 244.912 363.502 243.728C364.398 242.576 365.47 241.712 366.718 241.136C365.246 240.272 364.51 238.896 364.51 237.008C364.51 235.92 364.862 234.896 365.566 233.936C366.27 232.944 367.182 232.176 368.302 231.632C366.542 230.96 365.23 229.936 364.366 228.56C363.502 227.184 363.07 225.552 363.07 223.664C363.07 221.84 363.598 220.256 364.654 218.912C365.742 217.536 367.182 216.48 368.974 215.744C370.798 215.008 372.766 214.64 374.878 214.64C378.622 214.64 381.406 215.36 383.23 216.8C383.646 216.256 384.35 215.744 385.342 215.264C386.334 214.784 387.358 214.544 388.414 214.544H390.094V219.776H385.15C385.63 220.8 385.87 221.888 385.87 223.04C385.902 225.952 384.878 228.288 382.798 230.048C380.718 231.776 377.87 232.64 374.254 232.64C372.75 232.64 371.486 232.528 370.462 232.304C370.142 232.72 369.886 233.168 369.694 233.648C369.534 234.096 369.454 234.496 369.454 234.848C369.454 235.904 369.822 236.624 370.558 237.008C371.326 237.392 372.686 237.584 374.638 237.584H379.774C386.302 237.584 389.566 239.952 389.566 244.688C389.566 246.672 388.862 248.448 387.454 250.016C386.046 251.584 384.174 252.8 381.838 253.664C379.502 254.528 377.022 254.96 374.398 254.96ZM374.734 229.664C377.71 229.664 379.198 227.632 379.198 223.568C379.198 221.488 378.814 219.968 378.046 219.008C377.31 218.016 376.174 217.52 374.638 217.52C373.134 217.52 371.966 218.016 371.134 219.008C370.334 219.968 369.934 221.424 369.934 223.376C369.934 227.568 371.534 229.664 374.734 229.664ZM375.118 251.648C377.134 251.648 378.878 251.152 380.35 250.16C381.822 249.2 382.558 247.856 382.558 246.128C382.558 244.752 382.19 243.76 381.454 243.152C380.75 242.544 379.47 242.24 377.614 242.24H372.382C371.582 242.24 370.846 242.192 370.174 242.096C369.31 243.248 368.878 244.624 368.878 246.224C368.878 247.984 369.358 249.328 370.318 250.256C371.278 251.184 372.878 251.648 375.118 251.648ZM403.777 242.528C399.553 242.528 396.401 241.296 394.321 238.832C392.273 236.336 391.249 232.944 391.249 228.656C391.249 225.776 391.777 223.28 392.833 221.168C393.921 219.056 395.441 217.44 397.393 216.32C399.345 215.2 401.601 214.64 404.161 214.64C407.361 214.64 409.825 215.488 411.553 217.184C413.281 218.848 414.177 221.232 414.241 224.336C414.241 226.448 414.113 228.016 413.857 229.04H398.257C398.385 231.952 399.073 234.224 400.321 235.856C401.569 237.456 403.345 238.256 405.649 238.256C406.897 238.256 408.177 238.048 409.489 237.632C410.833 237.216 411.889 236.72 412.657 236.144L413.857 238.784C412.993 239.712 411.585 240.576 409.633 241.376C407.713 242.144 405.761 242.528 403.777 242.528ZM407.521 226.16C407.585 225.264 407.617 224.576 407.617 224.096C407.617 219.84 406.193 217.712 403.345 217.712C401.777 217.712 400.561 218.336 399.697 219.584C398.833 220.832 398.353 223.024 398.257 226.16H407.521Z" fill="#3E3E3E"/>
<g filter="url(#filter0_d_1_174)">
<rect x="231" y="279" width="190" height="190" rx="95" fill="white"/>
<path d="M285.376 368.384C283.648 368.384 282.037 368.107 280.544 367.552C279.072 366.976 277.792 366.165 276.704 365.12C275.616 364.075 274.763 362.848 274.144 361.44C273.547 360.032 273.248 358.485 273.248 356.8C273.248 355.115 273.547 353.568 274.144 352.16C274.763 350.752 275.616 349.525 276.704 348.48C277.813 347.435 279.104 346.635 280.576 346.08C282.048 345.504 283.659 345.216 285.408 345.216C287.349 345.216 289.099 345.557 290.656 346.24C292.235 346.901 293.557 347.883 294.624 349.184L291.296 352.256C290.528 351.381 289.675 350.731 288.736 350.304C287.797 349.856 286.773 349.632 285.664 349.632C284.619 349.632 283.659 349.803 282.784 350.144C281.909 350.485 281.152 350.976 280.512 351.616C279.872 352.256 279.371 353.013 279.008 353.888C278.667 354.763 278.496 355.733 278.496 356.8C278.496 357.867 278.667 358.837 279.008 359.712C279.371 360.587 279.872 361.344 280.512 361.984C281.152 362.624 281.909 363.115 282.784 363.456C283.659 363.797 284.619 363.968 285.664 363.968C286.773 363.968 287.797 363.755 288.736 363.328C289.675 362.88 290.528 362.208 291.296 361.312L294.624 364.384C293.557 365.685 292.235 366.677 290.656 367.36C289.099 368.043 287.339 368.384 285.376 368.384ZM297.133 368V350.784H301.901V355.648L301.229 354.24C301.741 353.024 302.562 352.107 303.693 351.488C304.823 350.848 306.199 350.528 307.821 350.528V355.136C307.607 355.115 307.415 355.104 307.245 355.104C307.074 355.083 306.893 355.072 306.701 355.072C305.335 355.072 304.226 355.467 303.373 356.256C302.541 357.024 302.125 358.229 302.125 359.872V368H297.133ZM318.568 368.256C316.605 368.256 314.877 367.872 313.384 367.104C311.912 366.336 310.771 365.291 309.96 363.968C309.149 362.624 308.744 361.099 308.744 359.392C308.744 357.664 309.139 356.139 309.928 354.816C310.739 353.472 311.837 352.427 313.224 351.68C314.611 350.912 316.179 350.528 317.928 350.528C319.613 350.528 321.128 350.891 322.472 351.616C323.837 352.32 324.915 353.344 325.704 354.688C326.493 356.011 326.888 357.6 326.888 359.456C326.888 359.648 326.877 359.872 326.856 360.128C326.835 360.363 326.813 360.587 326.792 360.8H312.808V357.888H324.168L322.248 358.752C322.248 357.856 322.067 357.077 321.704 356.416C321.341 355.755 320.84 355.243 320.2 354.88C319.56 354.496 318.813 354.304 317.96 354.304C317.107 354.304 316.349 354.496 315.688 354.88C315.048 355.243 314.547 355.765 314.184 356.448C313.821 357.109 313.64 357.899 313.64 358.816V359.584C313.64 360.523 313.843 361.355 314.248 362.08C314.675 362.784 315.261 363.328 316.008 363.712C316.776 364.075 317.672 364.256 318.696 364.256C319.613 364.256 320.413 364.117 321.096 363.84C321.8 363.563 322.44 363.147 323.016 362.592L325.672 365.472C324.883 366.368 323.891 367.061 322.696 367.552C321.501 368.021 320.125 368.256 318.568 368.256ZM339.663 368V364.64L339.343 363.904V357.888C339.343 356.821 339.012 355.989 338.351 355.392C337.711 354.795 336.719 354.496 335.375 354.496C334.457 354.496 333.551 354.645 332.655 354.944C331.78 355.221 331.033 355.605 330.415 356.096L328.623 352.608C329.561 351.947 330.692 351.435 332.015 351.072C333.337 350.709 334.681 350.528 336.047 350.528C338.671 350.528 340.708 351.147 342.159 352.384C343.609 353.621 344.335 355.552 344.335 358.176V368H339.663ZM334.415 368.256C333.071 368.256 331.919 368.032 330.959 367.584C329.999 367.115 329.263 366.485 328.751 365.696C328.239 364.907 327.983 364.021 327.983 363.04C327.983 362.016 328.228 361.12 328.719 360.352C329.231 359.584 330.031 358.987 331.119 358.56C332.207 358.112 333.625 357.888 335.375 357.888H339.951V360.8H335.919C334.745 360.8 333.935 360.992 333.487 361.376C333.06 361.76 332.847 362.24 332.847 362.816C332.847 363.456 333.092 363.968 333.583 364.352C334.095 364.715 334.788 364.896 335.663 364.896C336.495 364.896 337.241 364.704 337.903 364.32C338.564 363.915 339.044 363.328 339.343 362.56L340.111 364.864C339.748 365.973 339.087 366.816 338.127 367.392C337.167 367.968 335.929 368.256 334.415 368.256ZM355.253 368.256C353.226 368.256 351.647 367.744 350.517 366.72C349.386 365.675 348.821 364.128 348.821 362.08V346.976H353.813V362.016C353.813 362.741 354.005 363.307 354.389 363.712C354.773 364.096 355.295 364.288 355.957 364.288C356.746 364.288 357.418 364.075 357.973 363.648L359.317 367.168C358.805 367.531 358.186 367.808 357.461 368C356.757 368.171 356.021 368.256 355.253 368.256ZM346.165 355.008V351.168H358.101V355.008H346.165ZM369.492 368.256C367.529 368.256 365.801 367.872 364.308 367.104C362.836 366.336 361.694 365.291 360.884 363.968C360.073 362.624 359.668 361.099 359.668 359.392C359.668 357.664 360.062 356.139 360.852 354.816C361.662 353.472 362.761 352.427 364.148 351.68C365.534 350.912 367.102 350.528 368.852 350.528C370.537 350.528 372.052 350.891 373.396 351.616C374.761 352.32 375.838 353.344 376.628 354.688C377.417 356.011 377.812 357.6 377.812 359.456C377.812 359.648 377.801 359.872 377.78 360.128C377.758 360.363 377.737 360.587 377.716 360.8H363.732V357.888H375.092L373.172 358.752C373.172 357.856 372.99 357.077 372.628 356.416C372.265 355.755 371.764 355.243 371.124 354.88C370.484 354.496 369.737 354.304 368.884 354.304C368.03 354.304 367.273 354.496 366.612 354.88C365.972 355.243 365.47 355.765 365.108 356.448C364.745 357.109 364.564 357.899 364.564 358.816V359.584C364.564 360.523 364.766 361.355 365.172 362.08C365.598 362.784 366.185 363.328 366.932 363.712C367.7 364.075 368.596 364.256 369.62 364.256C370.537 364.256 371.337 364.117 372.02 363.84C372.724 363.563 373.364 363.147 373.94 362.592L376.596 365.472C375.806 366.368 374.814 367.061 373.62 367.552C372.425 368.021 371.049 368.256 369.492 368.256Z" fill="#3E3E3E"/>
<path d="M336.344 393.874C338.087 393.874 339.5 395.287 339.5 397.03C339.5 398.772 338.087 400.185 336.344 400.185H314.656C312.913 400.185 311.5 398.772 311.5 397.03C311.5 395.287 312.913 393.874 314.656 393.874H336.344ZM328.685 407.844C328.685 409.587 327.272 411 325.53 411C323.787 411 322.374 409.587 322.374 407.844V386.156C322.374 384.413 323.787 383 325.53 383C327.272 383 328.685 384.413 328.685 386.156V407.844Z" fill="#3E3E3E"/>
</g>
<rect x="1.5" y="1.5" width="649" height="646" rx="41.5" stroke="url(#paint0_linear_1_174)" stroke-width="3"/>
<defs>
<filter id="filter0_d_1_174" x="217" y="269" width="218" height="218" filterUnits="userSpaceOnUse" color-interpolation-filters="sRGB">
<feFlood flood-opacity="0" result="BackgroundImageFix"/>
<feColorMatrix in="SourceAlpha" type="matrix" values="0 0 0 0 0 0 0 0 0 0 0 0 0 0 0 0 0 0 127 0" result="hardAlpha"/>
<feOffset dy="4"/>
<feGaussianBlur stdDeviation="7"/>
<feComposite in2="hardAlpha" operator="out"/>
<feColorMatrix type="matrix" values="0 0 0 0 0 0 0 0 0 0 0 0 0 0 0 0 0 0 0.2 0"/>
<feBlend mode="normal" in2="BackgroundImageFix" result="effect1_dropShadow_1_174"/>
<feBlend mode="normal" in="SourceGraphic" in2="effect1_dropShadow_1_174" result="shape"/>
</filter>
<linearGradient id="paint0_linear_1_174" x1="668" y1="3" x2="2.99999" y2="661" gradientUnits="userSpaceOnUse">
<stop offset="0.0001" stop-color="#0038FF"/>
<stop offset="0.405" stop-color="#C60083"/>
<stop offset="0.685" stop-color="#FFC700"/>
<stop offset="1" stop-color="#FF0000"/>
</linearGradient>
</defs>
</svg>
