<svg width="652" height="649" viewBox="0 0 652 649" fill="none" xmlns="http://www.w3.org/2000/svg">
<rect x="3" y="3" width="646" height="643" rx="40" fill="#D96C4E"/>
<rect x="31" y="526" width="590" height="64" rx="16" fill="#FFE6E0"/>
<path d="M58.9428 548.89C57.354 547.301 56.2666 544.525 55.7269 542C55.1864 544.526 54.1001 547.302 52.5108 548.891C50.922 550.479 48.1457 551.567 45.621 552.108C48.1468 552.647 50.9225 553.734 52.5113 555.323C54.1 556.912 55.1875 559.688 55.728 562.214C56.2677 559.688 57.3548 556.912 58.9433 555.322C60.5321 553.734 63.3083 552.647 65.8331 552.106C63.3079 551.566 60.5321 550.479 58.9428 548.89Z" fill="#000AFF"/>
<path d="M69.2627 561.616C68.3144 560.667 67.6637 559.008 67.3413 557.499C67.0183 559.008 66.3698 560.667 65.4204 561.616C64.471 562.564 62.8123 563.215 61.3041 563.538C62.8129 563.86 64.471 564.51 65.4204 565.459C66.3698 566.408 67.0195 568.067 67.3424 569.575C67.6647 568.066 68.3144 566.408 69.2632 565.458C70.2121 564.51 71.871 563.86 73.3789 563.536C71.871 563.214 70.2121 562.564 69.2627 561.616Z" fill="#000AFF"/>
<path d="M52.4328 564.862C52.1617 566.128 51.6172 567.521 50.8203 568.318C50.0235 569.114 48.6309 569.66 47.3647 569.931C48.6309 570.203 50.0235 570.747 50.8203 571.544C51.6172 572.341 52.1628 573.733 52.4339 575C52.7048 573.733 53.2496 572.341 54.0467 571.544C54.843 570.747 56.2358 570.202 57.5017 569.93C56.2359 569.659 54.843 569.114 54.0462 568.318C53.2496 567.521 52.7037 566.128 52.4328 564.862Z" fill="#000AFF"/>
<rect x="86" y="546" width="3" height="25" fill="black"/>
<path d="M238 102V74.016H227.176V71.2H252.08V74.016H241.256V102H238ZM267.534 78.68C269.411 78.68 271.054 79.0467 272.462 79.78C273.899 80.484 275.014 81.5693 275.806 83.036C276.627 84.5027 277.038 86.3507 277.038 88.58V102H273.914V88.888C273.914 86.4533 273.298 84.62 272.066 83.388C270.863 82.1267 269.162 81.496 266.962 81.496C265.319 81.496 263.882 81.8333 262.65 82.508C261.447 83.1533 260.508 84.1067 259.834 85.368C259.188 86.6 258.866 88.096 258.866 89.856V102H255.742V69.352H258.866V85.236L258.25 84.048C258.983 82.376 260.156 81.0707 261.77 80.132C263.383 79.164 265.304 78.68 267.534 78.68ZM294.144 102.22C292.179 102.22 290.463 101.853 288.996 101.12C287.529 100.387 286.385 99.2867 285.564 97.82C284.772 96.3533 284.376 94.52 284.376 92.32V78.9H287.5V91.968C287.5 94.432 288.101 96.2947 289.304 97.556C290.536 98.788 292.252 99.404 294.452 99.404C296.065 99.404 297.459 99.0813 298.632 98.436C299.835 97.7613 300.744 96.7933 301.36 95.532C302.005 94.2707 302.328 92.76 302.328 91V78.9H305.452V102H302.46V95.664L302.944 96.808C302.211 98.5093 301.067 99.844 299.512 100.812C297.987 101.751 296.197 102.22 294.144 102.22ZM313.279 102V78.9H316.271V85.192L315.963 84.092C316.608 82.332 317.693 80.9973 319.219 80.088C320.744 79.1493 322.636 78.68 324.895 78.68V81.716C324.777 81.716 324.66 81.716 324.543 81.716C324.425 81.6867 324.308 81.672 324.191 81.672C321.756 81.672 319.849 82.42 318.471 83.916C317.092 85.3827 316.403 87.48 316.403 90.208V102H313.279ZM336.177 102.22C334.27 102.22 332.466 101.956 330.765 101.428C329.063 100.871 327.729 100.181 326.761 99.36L328.169 96.896C329.107 97.6 330.31 98.216 331.777 98.744C333.243 99.2427 334.783 99.492 336.397 99.492C338.597 99.492 340.181 99.1547 341.149 98.48C342.117 97.776 342.601 96.852 342.601 95.708C342.601 94.8573 342.322 94.1973 341.765 93.728C341.237 93.2293 340.533 92.8627 339.653 92.628C338.773 92.364 337.79 92.144 336.705 91.968C335.619 91.792 334.534 91.5867 333.449 91.352C332.393 91.1173 331.425 90.78 330.545 90.34C329.665 89.8707 328.946 89.24 328.389 88.448C327.861 87.656 327.597 86.6 327.597 85.28C327.597 84.0187 327.949 82.8893 328.653 81.892C329.357 80.8947 330.383 80.1173 331.733 79.56C333.111 78.9733 334.783 78.68 336.749 78.68C338.245 78.68 339.741 78.8853 341.237 79.296C342.733 79.6773 343.965 80.1907 344.933 80.836L343.569 83.344C342.542 82.64 341.442 82.1413 340.269 81.848C339.095 81.5253 337.922 81.364 336.749 81.364C334.666 81.364 333.126 81.7307 332.129 82.464C331.161 83.168 330.677 84.0773 330.677 85.192C330.677 86.072 330.941 86.7613 331.469 87.26C332.026 87.7587 332.745 88.1547 333.625 88.448C334.534 88.712 335.517 88.932 336.573 89.108C337.658 89.284 338.729 89.504 339.785 89.768C340.87 90.0027 341.853 90.34 342.733 90.78C343.642 91.1907 344.361 91.792 344.889 92.584C345.446 93.3467 345.725 94.3587 345.725 95.62C345.725 96.9693 345.343 98.1427 344.581 99.14C343.847 100.108 342.762 100.871 341.325 101.428C339.917 101.956 338.201 102.22 336.177 102.22ZM359.773 102.22C357.573 102.22 355.593 101.721 353.833 100.724C352.102 99.7267 350.738 98.348 349.741 96.588C348.744 94.7987 348.245 92.7453 348.245 90.428C348.245 88.0813 348.744 86.028 349.741 84.268C350.738 82.508 352.102 81.144 353.833 80.176C355.593 79.1787 357.573 78.68 359.773 78.68C361.797 78.68 363.601 79.1347 365.185 80.044C366.798 80.9533 368.074 82.288 369.013 84.048C369.981 85.7787 370.465 87.9053 370.465 90.428C370.465 92.9213 369.996 95.048 369.057 96.808C368.118 98.568 366.842 99.9173 365.229 100.856C363.645 101.765 361.826 102.22 359.773 102.22ZM359.993 99.448C361.636 99.448 363.102 99.0813 364.393 98.348C365.713 97.5853 366.74 96.5293 367.473 95.18C368.236 93.8013 368.617 92.2173 368.617 90.428C368.617 88.6093 368.236 87.0253 367.473 85.676C366.74 84.3267 365.713 83.2853 364.393 82.552C363.102 81.7893 361.636 81.408 359.993 81.408C358.38 81.408 356.928 81.7893 355.637 82.552C354.346 83.2853 353.32 84.3267 352.557 85.676C351.794 87.0253 351.413 88.6093 351.413 90.428C351.413 92.2173 351.794 93.8013 352.557 95.18C353.32 96.5293 354.346 97.5853 355.637 98.348C356.928 99.0813 358.38 99.448 359.993 99.448ZM368.705 102V95.048L369.013 90.384L368.573 85.72V69.352H371.697V102H368.705ZM393.993 102V96.896L393.861 96.06V87.524C393.861 85.5587 393.304 84.048 392.189 82.992C391.104 81.936 389.476 81.408 387.305 81.408C385.809 81.408 384.387 81.6573 383.037 82.156C381.688 82.6547 380.544 83.3147 379.605 84.136L378.197 81.804C379.371 80.8067 380.779 80.044 382.421 79.516C384.064 78.9587 385.795 78.68 387.613 78.68C390.605 78.68 392.908 79.428 394.521 80.924C396.164 82.3907 396.985 84.6347 396.985 87.656V102H393.993ZM386.029 102.22C384.299 102.22 382.788 101.941 381.497 101.384C380.236 100.797 379.268 100.005 378.593 99.008C377.919 97.9813 377.581 96.808 377.581 95.488C377.581 94.2853 377.86 93.2 378.417 92.232C379.004 91.2347 379.943 90.4427 381.233 89.856C382.553 89.24 384.313 88.932 386.513 88.932H394.477V91.264H386.601C384.372 91.264 382.817 91.66 381.937 92.452C381.087 93.244 380.661 94.2267 380.661 95.4C380.661 96.72 381.175 97.776 382.201 98.568C383.228 99.36 384.665 99.756 386.513 99.756C388.273 99.756 389.784 99.36 391.045 98.568C392.336 97.7467 393.275 96.5733 393.861 95.048L394.565 97.204C393.979 98.7293 392.952 99.9467 391.485 100.856C390.048 101.765 388.229 102.22 386.029 102.22ZM404.337 110.756C403.252 110.756 402.21 110.58 401.213 110.228C400.245 109.876 399.409 109.348 398.705 108.644L400.157 106.312C400.744 106.869 401.374 107.295 402.049 107.588C402.753 107.911 403.53 108.072 404.381 108.072C405.408 108.072 406.288 107.779 407.021 107.192C407.784 106.635 408.502 105.637 409.177 104.2L410.673 100.812L411.025 100.328L420.529 78.9H423.609L412.037 104.772C411.392 106.268 410.673 107.456 409.881 108.336C409.118 109.216 408.282 109.832 407.373 110.184C406.464 110.565 405.452 110.756 404.337 110.756ZM410.497 102.66L399.849 78.9H403.105L412.521 100.108L410.497 102.66Z" fill="#FDFDFD"/>
<path d="M251.712 209.936L248.16 209.312V206.336H262.752V209.312L258.72 209.936V221.984H273.312V209.936L269.616 209.312V206.336H284.016V209.312L280.368 209.936V238.64L284.016 239.12V242H269.568V239.12L273.312 238.64V225.632H258.72V238.64L262.752 239.12V242H248.064V239.12L251.712 238.64V209.936ZM299.374 242.528C295.15 242.528 291.998 241.296 289.918 238.832C287.87 236.336 286.846 232.944 286.846 228.656C286.846 225.776 287.374 223.28 288.43 221.168C289.518 219.056 291.038 217.44 292.99 216.32C294.942 215.2 297.198 214.64 299.758 214.64C302.958 214.64 305.422 215.488 307.15 217.184C308.878 218.848 309.774 221.232 309.838 224.336C309.838 226.448 309.71 228.016 309.454 229.04H293.854C293.982 231.952 294.67 234.224 295.918 235.856C297.166 237.456 298.942 238.256 301.246 238.256C302.494 238.256 303.774 238.048 305.086 237.632C306.43 237.216 307.486 236.72 308.254 236.144L309.454 238.784C308.59 239.712 307.182 240.576 305.23 241.376C303.31 242.144 301.358 242.528 299.374 242.528ZM303.118 226.16C303.182 225.264 303.214 224.576 303.214 224.096C303.214 219.84 301.79 217.712 298.942 217.712C297.374 217.712 296.158 218.336 295.294 219.584C294.43 220.832 293.95 223.024 293.854 226.16H303.118ZM312.181 234.512C312.181 231.6 313.637 229.408 316.549 227.936C319.493 226.464 323.285 225.712 327.925 225.68V224.576C327.925 223.264 327.781 222.24 327.493 221.504C327.237 220.768 326.741 220.224 326.005 219.872C325.301 219.488 324.261 219.296 322.885 219.296C321.317 219.296 319.909 219.504 318.661 219.92C317.413 220.304 316.117 220.816 314.773 221.456L313.285 218.384C313.765 217.968 314.565 217.472 315.685 216.896C316.837 216.32 318.197 215.824 319.765 215.408C321.333 214.96 322.949 214.736 324.613 214.736C327.077 214.736 328.997 215.056 330.373 215.696C331.781 216.336 332.789 217.36 333.397 218.768C334.005 220.176 334.309 222.064 334.309 224.432V239.12H336.901V241.808C336.261 241.968 335.349 242.128 334.165 242.288C332.981 242.448 331.941 242.528 331.045 242.528C329.957 242.528 329.221 242.368 328.837 242.048C328.485 241.728 328.309 241.072 328.309 240.08V238.784C327.445 239.744 326.325 240.608 324.949 241.376C323.573 242.144 322.021 242.528 320.293 242.528C318.821 242.528 317.461 242.224 316.213 241.616C314.997 240.976 314.021 240.064 313.285 238.88C312.549 237.664 312.181 236.208 312.181 234.512ZM323.365 238.544C324.037 238.544 324.805 238.352 325.669 237.968C326.533 237.552 327.285 237.056 327.925 236.48V228.608C325.045 228.608 322.885 229.104 321.445 230.096C320.037 231.056 319.333 232.304 319.333 233.84C319.333 235.376 319.685 236.544 320.389 237.344C321.125 238.144 322.117 238.544 323.365 238.544ZM338.936 239.168L342.104 238.784V219.872L339.032 219.008V215.696L346.472 214.688H346.616L347.816 215.648V216.704L347.672 220.592H347.816C348.04 219.952 348.568 219.168 349.4 218.24C350.232 217.28 351.272 216.448 352.52 215.744C353.8 215.008 355.176 214.64 356.648 214.64C357.352 214.64 357.96 214.736 358.472 214.928V222.128C357.512 221.456 356.344 221.12 354.968 221.12C352.632 221.12 350.6 221.744 348.872 222.992V238.736L354.44 239.168V242H338.936V239.168ZM368.634 242.432C366.618 242.432 365.13 241.968 364.17 241.04C363.21 240.112 362.73 238.64 362.73 236.624V219.008H359.61V216.512C359.866 216.416 360.33 216.256 361.002 216.032C361.674 215.776 362.186 215.568 362.538 215.408C363.082 214.992 363.546 214.272 363.93 213.248C364.218 212.576 364.746 210.912 365.514 208.256H369.354L369.546 215.312H376.89V219.008H369.594V232.496C369.594 234.288 369.642 235.552 369.738 236.288C369.834 237.024 370.042 237.504 370.362 237.728C370.682 237.92 371.242 238.016 372.042 238.016C372.842 238.016 373.674 237.936 374.538 237.776C375.402 237.584 376.122 237.36 376.698 237.104L377.61 239.792C376.714 240.464 375.402 241.072 373.674 241.616C371.946 242.16 370.266 242.432 368.634 242.432ZM383.476 253.952C382.9 253.952 382.276 253.904 381.604 253.808C380.964 253.712 380.5 253.6 380.212 253.472V248.336C380.436 248.464 380.884 248.592 381.556 248.72C382.228 248.848 382.836 248.912 383.38 248.912C384.98 248.912 386.292 248.384 387.316 247.328C388.372 246.272 389.348 244.496 390.244 242H387.652L378.628 218.72L376.468 218.096V215.312H389.668V218.096L386.164 218.672L390.436 231.968L392.164 237.632L393.652 231.968L397.588 218.672L394.564 218.096V215.312H404.98V218.096L402.628 218.672C400.868 224.048 399.124 229.232 397.396 234.224C395.668 239.216 394.66 242.016 394.372 242.624C393.348 245.312 392.372 247.456 391.444 249.056C390.516 250.656 389.412 251.872 388.132 252.704C386.852 253.536 385.3 253.952 383.476 253.952Z" fill="#FDFDFD"/>
<g filter="url(#filter0_d_1_242)">
<rect x="231" y="279" width="190" height="190" rx="95" fill="white"/>
<path d="M285.376 368.384C283.648 368.384 282.037 368.107 280.544 367.552C279.072 366.976 277.792 366.165 276.704 365.12C275.616 364.075 274.763 362.848 274.144 361.44C273.547 360.032 273.248 358.485 273.248 356.8C273.248 355.115 273.547 353.568 274.144 352.16C274.763 350.752 275.616 349.525 276.704 348.48C277.813 347.435 279.104 346.635 280.576 346.08C282.048 345.504 283.659 345.216 285.408 345.216C287.349 345.216 289.099 345.557 290.656 346.24C292.235 346.901 293.557 347.883 294.624 349.184L291.296 352.256C290.528 351.381 289.675 350.731 288.736 350.304C287.797 349.856 286.773 349.632 285.664 349.632C284.619 349.632 283.659 349.803 282.784 350.144C281.909 350.485 281.152 350.976 280.512 351.616C279.872 352.256 279.371 353.013 279.008 353.888C278.667 354.763 278.496 355.733 278.496 356.8C278.496 357.867 278.667 358.837 279.008 359.712C279.371 360.587 279.872 361.344 280.512 361.984C281.152 362.624 281.909 363.115 282.784 363.456C283.659 363.797 284.619 363.968 285.664 363.968C286.773 363.968 287.797 363.755 288.736 363.328C289.675 362.88 290.528 362.208 291.296 361.312L294.624 364.384C293.557 365.685 292.235 366.677 290.656 367.36C289.099 368.043 287.339 368.384 285.376 368.384ZM297.133 368V350.784H301.901V355.648L301.229 354.24C301.741 353.024 302.562 352.107 303.693 351.488C304.823 350.848 306.199 350.528 307.821 350.528V355.136C307.607 355.115 307.415 355.104 307.245 355.104C307.074 355.083 306.893 355.072 306.701 355.072C305.335 355.072 304.226 355.467 303.373 356.256C302.541 357.024 302.125 358.229 302.125 359.872V368H297.133ZM318.568 368.256C316.605 368.256 314.877 367.872 313.384 367.104C311.912 366.336 310.771 365.291 309.96 363.968C309.149 362.624 308.744 361.099 308.744 359.392C308.744 357.664 309.139 356.139 309.928 354.816C310.739 353.472 311.837 352.427 313.224 351.68C314.611 350.912 316.179 350.528 317.928 350.528C319.613 350.528 321.128 350.891 322.472 351.616C323.837 352.32 324.915 353.344 325.704 354.688C326.493 356.011 326.888 357.6 326.888 359.456C326.888 359.648 326.877 359.872 326.856 360.128C326.835 360.363 326.813 360.587 326.792 360.8H312.808V357.888H324.168L322.248 358.752C322.248 357.856 322.067 357.077 321.704 356.416C321.341 355.755 320.84 355.243 320.2 354.88C319.56 354.496 318.813 354.304 317.96 354.304C317.107 354.304 316.349 354.496 315.688 354.88C315.048 355.243 314.547 355.765 314.184 356.448C313.821 357.109 313.64 357.899 313.64 358.816V359.584C313.64 360.523 313.843 361.355 314.248 362.08C314.675 362.784 315.261 363.328 316.008 363.712C316.776 364.075 317.672 364.256 318.696 364.256C319.613 364.256 320.413 364.117 321.096 363.84C321.8 363.563 322.44 363.147 323.016 362.592L325.672 365.472C324.883 366.368 323.891 367.061 322.696 367.552C321.501 368.021 320.125 368.256 318.568 368.256ZM339.663 368V364.64L339.343 363.904V357.888C339.343 356.821 339.012 355.989 338.351 355.392C337.711 354.795 336.719 354.496 335.375 354.496C334.457 354.496 333.551 354.645 332.655 354.944C331.78 355.221 331.033 355.605 330.415 356.096L328.623 352.608C329.561 351.947 330.692 351.435 332.015 351.072C333.337 350.709 334.681 350.528 336.047 350.528C338.671 350.528 340.708 351.147 342.159 352.384C343.609 353.621 344.335 355.552 344.335 358.176V368H339.663ZM334.415 368.256C333.071 368.256 331.919 368.032 330.959 367.584C329.999 367.115 329.263 366.485 328.751 365.696C328.239 364.907 327.983 364.021 327.983 363.04C327.983 362.016 328.228 361.12 328.719 360.352C329.231 359.584 330.031 358.987 331.119 358.56C332.207 358.112 333.625 357.888 335.375 357.888H339.951V360.8H335.919C334.745 360.8 333.935 360.992 333.487 361.376C333.06 361.76 332.847 362.24 332.847 362.816C332.847 363.456 333.092 363.968 333.583 364.352C334.095 364.715 334.788 364.896 335.663 364.896C336.495 364.896 337.241 364.704 337.903 364.32C338.564 363.915 339.044 363.328 339.343 362.56L340.111 364.864C339.748 365.973 339.087 366.816 338.127 367.392C337.167 367.968 335.929 368.256 334.415 368.256ZM355.253 368.256C353.226 368.256 351.647 367.744 350.517 366.72C349.386 365.675 348.821 364.128 348.821 362.08V346.976H353.813V362.016C353.813 362.741 354.005 363.307 354.389 363.712C354.773 364.096 355.295 364.288 355.957 364.288C356.746 364.288 357.418 364.075 357.973 363.648L359.317 367.168C358.805 367.531 358.186 367.808 357.461 368C356.757 368.171 356.021 368.256 355.253 368.256ZM346.165 355.008V351.168H358.101V355.008H346.165ZM369.492 368.256C367.529 368.256 365.801 367.872 364.308 367.104C362.836 366.336 361.694 365.291 360.884 363.968C360.073 362.624 359.668 361.099 359.668 359.392C359.668 357.664 360.062 356.139 360.852 354.816C361.662 353.472 362.761 352.427 364.148 351.68C365.534 350.912 367.102 350.528 368.852 350.528C370.537 350.528 372.052 350.891 373.396 351.616C374.761 352.32 375.838 353.344 376.628 354.688C377.417 356.011 377.812 357.6 377.812 359.456C377.812 359.648 377.801 359.872 377.78 360.128C377.758 360.363 377.737 360.587 377.716 360.8H363.732V357.888H375.092L373.172 358.752C373.172 357.856 372.99 357.077 372.628 356.416C372.265 355.755 371.764 355.243 371.124 354.88C370.484 354.496 369.737 354.304 368.884 354.304C368.03 354.304 367.273 354.496 366.612 354.88C365.972 355.243 365.47 355.765 365.108 356.448C364.745 357.109 364.564 357.899 364.564 358.816V359.584C364.564 360.523 364.766 361.355 365.172 362.08C365.598 362.784 366.185 363.328 366.932 363.712C367.7 364.075 368.596 364.256 369.62 364.256C370.537 364.256 371.337 364.117 372.02 363.84C372.724 363.563 373.364 363.147 373.94 362.592L376.596 365.472C375.806 366.368 374.814 367.061 373.62 367.552C372.425 368.021 371.049 368.256 369.492 368.256Z" fill="#D96C4E"/>
<path d="M336.344 393.874C338.087 393.874 339.5 395.287 339.5 397.03C339.5 398.772 338.087 400.185 336.344 400.185H314.656C312.913 400.185 311.5 398.772 311.5 397.03C311.5 395.287 312.913 393.874 314.656 393.874H336.344ZM328.685 407.844C328.685 409.587 327.272 411 325.53 411C323.787 411 322.374 409.587 322.374 407.844V386.156C322.374 384.413 323.787 383 325.53 383C327.272 383 328.685 384.413 328.685 386.156V407.844Z" fill="#D96C4E"/>
</g>
<rect x="1.5" y="1.5" width="649" height="646" rx="41.5" stroke="url(#paint0_linear_1_242)" stroke-width="3"/>
<defs>
<filter id="filter0_d_1_242" x="217" y="269" width="218" height="218" filterUnits="userSpaceOnUse" color-interpolation-filters="sRGB">
<feFlood flood-opacity="0" result="BackgroundImageFix"/>
<feColorMatrix in="SourceAlpha" type="matrix" values="0 0 0 0 0 0 0 0 0 0 0 0 0 0 0 0 0 0 127 0" result="hardAlpha"/>
<feOffset dy="4"/>
<feGaussianBlur stdDeviation="7"/>
<feComposite in2="hardAlpha" operator="out"/>
<feColorMatrix type="matrix" values="0 0 0 0 0 0 0 0 0 0 0 0 0 0 0 0 0 0 0.2 0"/>
<feBlend mode="normal" in2="BackgroundImageFix" result="effect1_dropShadow_1_242"/>
<feBlend mode="normal" in="SourceGraphic" in2="effect1_dropShadow_1_242" result="shape"/>
</filter>
<linearGradient id="paint0_linear_1_242" x1="668" y1="3" x2="2.99999" y2="661" gradientUnits="userSpaceOnUse">
<stop offset="0.0001" stop-color="#0038FF"/>
<stop offset="0.405" stop-color="#C60083"/>
<stop offset="0.685" stop-color="#FFC700"/>
<stop offset="1" stop-color="#FF0000"/>
</linearGradient>
</defs>
</svg>
