<svg width="386" height="384" viewBox="0 0 386 384" fill="none" xmlns="http://www.w3.org/2000/svg">
<rect x="2" y="1.90356" width="382" height="380.226" rx="23.6533" fill="#D96C4E"/>
<rect x="18.5573" y="311.169" width="348.885" height="37.8452" rx="9.4613" fill="#FFE6E0"/>
<g clip-path="url(#clip0_1_535)">
<path d="M35.0822 324.704C34.1427 323.764 33.4997 322.123 33.1806 320.63C32.861 322.123 32.2186 323.765 31.2788 324.705C30.3393 325.644 28.6976 326.287 27.2046 326.607C28.6982 326.926 30.3396 327.569 31.2791 328.508C32.2186 329.448 32.8616 331.089 33.1812 332.583C33.5003 331.089 34.1432 329.448 35.0825 328.508C36.022 327.568 37.6637 326.926 39.1567 326.606C37.6634 326.287 36.0221 325.644 35.0822 324.704Z" fill="#000AFF"/>
<path d="M41.1851 332.229C40.6243 331.668 40.2395 330.687 40.0488 329.795C39.8578 330.687 39.4743 331.668 38.9129 332.229C38.3515 332.79 37.3707 333.175 36.4789 333.366C37.371 333.556 38.3515 333.94 38.9129 334.502C39.4743 335.063 39.8585 336.044 40.0495 336.936C40.2401 336.043 40.6243 335.063 41.1853 334.501C41.7464 333.94 42.7274 333.556 43.6191 333.365C42.7274 333.174 41.7465 332.79 41.1851 332.229Z" fill="#000AFF"/>
<path d="M31.233 334.148C31.0726 334.897 30.7506 335.721 30.2794 336.192C29.8083 336.663 28.9848 336.986 28.2361 337.146C28.9848 337.307 29.8083 337.629 30.2794 338.1C30.7506 338.571 31.0733 339.394 31.2336 340.144C31.3938 339.394 31.7159 338.571 32.1873 338.1C32.6582 337.629 33.4818 337.306 34.2304 337.146C33.4818 336.985 32.6582 336.663 32.187 336.192C31.7159 335.721 31.3932 334.897 31.233 334.148Z" fill="#000AFF"/>
</g>
<rect x="51.0807" y="322.996" width="1.77399" height="14.7833" fill="black"/>
<path d="M140.963 60.0177V43.4699H134.562V41.8047H149.289V43.4699H142.888V60.0177H140.963ZM158.427 46.2279C159.537 46.2279 160.508 46.4447 161.341 46.8783C162.191 47.2946 162.85 47.9364 163.318 48.8037C163.804 49.671 164.047 50.7638 164.047 52.082V60.0177H162.2V52.2642C162.2 50.8245 161.835 49.7404 161.107 49.0118C160.396 48.266 159.39 47.893 158.089 47.893C157.117 47.893 156.267 48.0925 155.539 48.4915C154.828 48.8731 154.273 49.4368 153.874 50.1827C153.492 50.9112 153.301 51.7958 153.301 52.8366V60.0177H151.454V40.7119H153.301V50.1046L152.937 49.4021C153.371 48.4134 154.065 47.6415 155.019 47.0865C155.973 46.5141 157.109 46.2279 158.427 46.2279ZM174.163 60.1478C173 60.1478 171.986 59.931 171.118 59.4973C170.251 59.0637 169.575 58.4132 169.089 57.5459C168.621 56.6786 168.386 55.5945 168.386 54.2936V46.3579H170.234V54.0855C170.234 55.5425 170.589 56.644 171.3 57.3898C172.029 58.1183 173.044 58.4826 174.345 58.4826C175.299 58.4826 176.123 58.2918 176.816 57.9102C177.528 57.5112 178.065 56.9388 178.43 56.193C178.811 55.4471 179.002 54.5538 179.002 53.5131V46.3579H180.849V60.0177H179.08V56.271L179.366 56.9475C178.933 57.9536 178.256 58.7428 177.337 59.3152C176.435 59.8703 175.377 60.1478 174.163 60.1478ZM185.477 60.0177V46.3579H187.247V50.0786L187.065 49.4281C187.446 48.3874 188.088 47.5982 188.99 47.0604C189.892 46.5054 191.011 46.2279 192.346 46.2279V48.0231C192.277 48.0231 192.208 48.0231 192.138 48.0231C192.069 48.0058 191.999 47.9971 191.93 47.9971C190.49 47.9971 189.363 48.4394 188.548 49.3241C187.732 50.1914 187.325 51.4316 187.325 53.0447V60.0177H185.477ZM199.018 60.1478C197.89 60.1478 196.824 59.9917 195.818 59.6795C194.811 59.3499 194.022 58.9423 193.45 58.4566L194.282 56.9995C194.837 57.4158 195.549 57.7801 196.416 58.0923C197.283 58.3872 198.194 58.5346 199.148 58.5346C200.449 58.5346 201.385 58.3352 201.958 57.9362C202.53 57.5199 202.817 56.9735 202.817 56.297C202.817 55.794 202.652 55.4037 202.322 55.1262C202.01 54.8313 201.594 54.6145 201.073 54.4757C200.553 54.3196 199.972 54.1895 199.33 54.0855C198.688 53.9814 198.046 53.86 197.405 53.7212C196.78 53.5824 196.208 53.383 195.687 53.1228C195.167 52.8452 194.742 52.4723 194.413 52.004C194.1 51.5356 193.944 50.9112 193.944 50.1306C193.944 49.3848 194.152 48.717 194.569 48.1272C194.985 47.5375 195.592 47.0778 196.39 46.7482C197.205 46.4013 198.194 46.2279 199.356 46.2279C200.241 46.2279 201.125 46.3493 202.01 46.5921C202.895 46.8176 203.623 47.1212 204.196 47.5028L203.389 48.9858C202.782 48.5695 202.131 48.2746 201.438 48.1012C200.744 47.9104 200.05 47.815 199.356 47.815C198.125 47.815 197.214 48.0318 196.624 48.4655C196.052 48.8817 195.765 49.4195 195.765 50.0786C195.765 50.599 195.922 51.0066 196.234 51.3015C196.563 51.5964 196.988 51.8305 197.509 52.004C198.046 52.1601 198.628 52.2902 199.252 52.3943C199.894 52.4983 200.527 52.6284 201.151 52.7845C201.793 52.9233 202.374 53.1228 202.895 53.383C203.432 53.6258 203.857 53.9814 204.169 54.4497C204.499 54.9007 204.664 55.4991 204.664 56.245C204.664 57.0429 204.438 57.7367 203.987 58.3265C203.554 58.8989 202.912 59.3499 202.062 59.6795C201.229 59.9917 200.215 60.1478 199.018 60.1478ZM212.971 60.1478C211.67 60.1478 210.499 59.8529 209.459 59.2632C208.435 58.6734 207.629 57.8582 207.039 56.8174C206.449 55.7593 206.154 54.5451 206.154 53.1748C206.154 51.7872 206.449 50.573 207.039 49.5322C207.629 48.4915 208.435 47.6849 209.459 47.1125C210.499 46.5227 211.67 46.2279 212.971 46.2279C214.168 46.2279 215.235 46.4967 216.171 47.0344C217.125 47.5721 217.88 48.3614 218.435 49.4021C219.007 50.4255 219.294 51.6831 219.294 53.1748C219.294 54.6492 219.016 55.9068 218.461 56.9475C217.906 57.9883 217.151 58.7862 216.197 59.3412C215.261 59.8789 214.185 60.1478 212.971 60.1478ZM213.101 58.5086C214.073 58.5086 214.94 58.2918 215.703 57.8582C216.484 57.4072 217.091 56.7827 217.524 55.9848C217.975 55.1696 218.201 54.2329 218.201 53.1748C218.201 52.0994 217.975 51.1627 217.524 50.3648C217.091 49.5669 216.484 48.9511 215.703 48.5175C214.94 48.0665 214.073 47.841 213.101 47.841C212.147 47.841 211.289 48.0665 210.525 48.5175C209.762 48.9511 209.155 49.5669 208.704 50.3648C208.253 51.1627 208.028 52.0994 208.028 53.1748C208.028 54.2329 208.253 55.1696 208.704 55.9848C209.155 56.7827 209.762 57.4072 210.525 57.8582C211.289 58.2918 212.147 58.5086 213.101 58.5086ZM218.253 60.0177V55.9068L218.435 53.1488L218.175 50.3908V40.7119H220.022V60.0177H218.253ZM233.207 60.0177V56.9995L233.129 56.5052V51.4576C233.129 50.2954 232.799 49.4021 232.14 48.7777C231.498 48.1532 230.535 47.841 229.252 47.841C228.367 47.841 227.526 47.9884 226.728 48.2833C225.93 48.5782 225.254 48.9685 224.699 49.4542L223.866 48.0752C224.56 47.4854 225.392 47.0344 226.364 46.7222C227.335 46.3926 228.358 46.2279 229.434 46.2279C231.203 46.2279 232.565 46.6702 233.519 47.5548C234.49 48.4221 234.976 49.749 234.976 51.5356V60.0177H233.207ZM228.497 60.1478C227.474 60.1478 226.581 59.983 225.817 59.6534C225.071 59.3065 224.499 58.8382 224.1 58.2484C223.701 57.6413 223.502 56.9475 223.502 56.167C223.502 55.4558 223.666 54.814 223.996 54.2416C224.343 53.6518 224.898 53.1835 225.661 52.8366C226.442 52.4723 227.483 52.2902 228.783 52.2902H233.493V53.6692H228.836C227.517 53.6692 226.598 53.9033 226.078 54.3717C225.575 54.84 225.323 55.4211 225.323 56.1149C225.323 56.8955 225.627 57.5199 226.234 57.9883C226.841 58.4566 227.691 58.6908 228.783 58.6908C229.824 58.6908 230.718 58.4566 231.463 57.9883C232.227 57.5026 232.782 56.8087 233.129 55.9068L233.545 57.1817C233.198 58.0837 232.591 58.8035 231.724 59.3412C230.874 59.8789 229.798 60.1478 228.497 60.1478ZM239.323 65.1954C238.681 65.1954 238.065 65.0913 237.476 64.8832C236.903 64.675 236.409 64.3628 235.993 63.9465L236.851 62.5675C237.198 62.8971 237.571 63.1486 237.97 63.3221C238.386 63.5129 238.846 63.6083 239.349 63.6083C239.956 63.6083 240.477 63.4348 240.91 63.0879C241.361 62.7583 241.786 62.1686 242.185 61.3186L243.07 59.3152L243.278 59.029L248.898 46.3579H250.719L243.876 61.6569C243.495 62.5415 243.07 63.244 242.601 63.7644C242.15 64.2847 241.656 64.649 241.118 64.8572C240.581 65.0827 239.982 65.1954 239.323 65.1954ZM242.966 60.408L236.669 46.3579H238.594L244.162 58.8989L242.966 60.408Z" fill="#FDFDFD"/>
<path d="M149.071 124.478L146.971 124.109V122.349H155.599V124.109L153.215 124.478V131.603H161.844V124.478L159.658 124.109V122.349H168.174V124.109L166.016 124.478V141.452L168.174 141.736V143.439H159.63V141.736L161.844 141.452V133.76H153.215V141.452L155.599 141.736V143.439H146.914V141.736L149.071 141.452V124.478ZM177.255 143.751C174.757 143.751 172.894 143.022 171.664 141.565C170.453 140.089 169.847 138.084 169.847 135.548C169.847 133.845 170.159 132.369 170.784 131.12C171.427 129.871 172.326 128.916 173.48 128.253C174.634 127.591 175.969 127.26 177.482 127.26C179.375 127.26 180.832 127.761 181.853 128.764C182.875 129.748 183.405 131.158 183.443 132.993C183.443 134.242 183.367 135.17 183.216 135.775H173.991C174.067 137.497 174.474 138.841 175.212 139.806C175.95 140.752 177 141.225 178.362 141.225C179.1 141.225 179.857 141.102 180.633 140.856C181.428 140.61 182.052 140.316 182.506 139.976L183.216 141.537C182.705 142.086 181.872 142.597 180.718 143.07C179.583 143.524 178.428 143.751 177.255 143.751ZM179.469 134.072C179.507 133.542 179.526 133.135 179.526 132.852C179.526 130.335 178.684 129.076 177 129.076C176.073 129.076 175.354 129.445 174.843 130.183C174.332 130.921 174.048 132.218 173.991 134.072H179.469ZM184.828 139.011C184.828 137.289 185.689 135.993 187.411 135.122C189.152 134.252 191.394 133.807 194.138 133.788V133.135C194.138 132.36 194.053 131.754 193.883 131.319C193.731 130.884 193.438 130.562 193.003 130.354C192.586 130.127 191.972 130.013 191.158 130.013C190.231 130.013 189.398 130.136 188.66 130.382C187.922 130.609 187.156 130.912 186.361 131.29L185.481 129.474C185.765 129.228 186.238 128.935 186.9 128.594C187.581 128.253 188.386 127.96 189.313 127.714C190.24 127.449 191.196 127.317 192.18 127.317C193.637 127.317 194.772 127.506 195.586 127.884C196.418 128.263 197.014 128.868 197.374 129.701C197.733 130.534 197.913 131.65 197.913 133.05V141.736H199.446V143.325C199.067 143.42 198.528 143.514 197.828 143.609C197.128 143.704 196.513 143.751 195.983 143.751C195.34 143.751 194.905 143.656 194.677 143.467C194.469 143.278 194.365 142.89 194.365 142.303V141.537C193.854 142.105 193.192 142.616 192.378 143.07C191.565 143.524 190.647 143.751 189.625 143.751C188.755 143.751 187.95 143.571 187.212 143.212C186.493 142.833 185.916 142.294 185.481 141.594C185.046 140.875 184.828 140.014 184.828 139.011ZM191.442 141.395C191.839 141.395 192.293 141.282 192.804 141.054C193.315 140.808 193.76 140.515 194.138 140.175V135.52C192.435 135.52 191.158 135.813 190.306 136.4C189.474 136.967 189.057 137.705 189.057 138.613C189.057 139.522 189.266 140.212 189.682 140.685C190.117 141.159 190.704 141.395 191.442 141.395ZM200.65 141.764L202.523 141.537V130.354L200.706 129.843V127.884L205.106 127.288H205.191L205.901 127.856V128.48L205.815 130.779H205.901C206.033 130.401 206.345 129.937 206.837 129.389C207.329 128.821 207.944 128.329 208.682 127.913C209.439 127.478 210.253 127.26 211.123 127.26C211.54 127.26 211.899 127.317 212.202 127.43V131.688C211.634 131.29 210.943 131.092 210.13 131.092C208.748 131.092 207.547 131.461 206.525 132.199V141.509L209.818 141.764V143.439H200.65V141.764ZM218.211 143.694C217.019 143.694 216.139 143.42 215.571 142.871C215.003 142.322 214.72 141.452 214.72 140.26V129.843H212.875V128.367C213.026 128.31 213.3 128.215 213.698 128.083C214.095 127.932 214.398 127.809 214.606 127.714C214.928 127.468 215.202 127.042 215.429 126.437C215.599 126.039 215.912 125.055 216.366 123.485H218.637L218.75 127.657H223.093V129.843H218.778V137.819C218.778 138.878 218.807 139.626 218.864 140.061C218.92 140.496 219.043 140.78 219.233 140.913C219.422 141.026 219.753 141.083 220.226 141.083C220.699 141.083 221.191 141.036 221.702 140.941C222.213 140.827 222.639 140.695 222.979 140.544L223.519 142.133C222.989 142.53 222.213 142.89 221.191 143.212C220.169 143.533 219.176 143.694 218.211 143.694ZM226.987 150.506C226.647 150.506 226.278 150.478 225.88 150.421C225.502 150.364 225.227 150.298 225.057 150.222V147.185C225.19 147.261 225.454 147.337 225.852 147.412C226.249 147.488 226.609 147.526 226.93 147.526C227.877 147.526 228.652 147.214 229.258 146.589C229.882 145.965 230.459 144.915 230.989 143.439H229.457L224.12 129.673L222.843 129.304V127.657H230.649V129.304L228.577 129.644L231.103 137.506L232.125 140.856L233.005 137.506L235.332 129.644L233.544 129.304V127.657H239.703V129.304L238.312 129.644C237.272 132.823 236.24 135.889 235.219 138.841C234.197 141.792 233.601 143.448 233.43 143.808C232.825 145.397 232.248 146.665 231.699 147.611C231.15 148.557 230.497 149.276 229.74 149.768C228.984 150.26 228.066 150.506 226.987 150.506Z" fill="#FDFDFD"/>
<g filter="url(#filter0_d_1_535)">
<rect x="136.824" y="165.111" width="112.353" height="112.353" rx="56.1765" fill="white"/>
<path d="M168.613 217.666C167.592 217.666 166.639 217.502 165.756 217.174C164.886 216.833 164.129 216.354 163.485 215.736C162.842 215.117 162.337 214.392 161.971 213.56C161.618 212.727 161.442 211.812 161.442 210.816C161.442 209.819 161.618 208.905 161.971 208.072C162.337 207.239 162.842 206.514 163.485 205.896C164.141 205.278 164.904 204.805 165.775 204.477C166.645 204.136 167.598 203.966 168.632 203.966C169.78 203.966 170.815 204.168 171.736 204.571C172.669 204.962 173.451 205.543 174.082 206.312L172.114 208.129C171.66 207.612 171.155 207.227 170.6 206.974C170.045 206.71 169.44 206.577 168.784 206.577C168.165 206.577 167.598 206.678 167.081 206.88C166.563 207.082 166.116 207.372 165.737 207.75C165.359 208.129 165.062 208.577 164.848 209.094C164.646 209.611 164.545 210.185 164.545 210.816C164.545 211.447 164.646 212.02 164.848 212.538C165.062 213.055 165.359 213.503 165.737 213.881C166.116 214.26 166.563 214.55 167.081 214.752C167.598 214.953 168.165 215.054 168.784 215.054C169.44 215.054 170.045 214.928 170.6 214.676C171.155 214.411 171.66 214.014 172.114 213.484L174.082 215.3C173.451 216.07 172.669 216.657 171.736 217.06C170.815 217.464 169.774 217.666 168.613 217.666ZM175.565 217.439V207.258H178.385V210.135L177.988 209.302C178.29 208.583 178.776 208.04 179.445 207.675C180.113 207.296 180.927 207.107 181.886 207.107V209.832C181.759 209.819 181.646 209.813 181.545 209.813C181.444 209.8 181.337 209.794 181.223 209.794C180.416 209.794 179.76 210.027 179.255 210.494C178.763 210.948 178.517 211.661 178.517 212.632V217.439H175.565ZM188.241 217.59C187.08 217.59 186.058 217.363 185.175 216.909C184.305 216.455 183.63 215.837 183.151 215.054C182.671 214.26 182.432 213.358 182.432 212.348C182.432 211.327 182.665 210.425 183.132 209.643C183.611 208.848 184.261 208.23 185.081 207.788C185.901 207.334 186.828 207.107 187.862 207.107C188.859 207.107 189.755 207.321 190.549 207.75C191.357 208.167 191.994 208.772 192.461 209.567C192.927 210.349 193.161 211.289 193.161 212.386C193.161 212.5 193.154 212.632 193.142 212.784C193.129 212.922 193.117 213.055 193.104 213.181H184.835V211.459H191.552L190.417 211.97C190.417 211.44 190.31 210.98 190.095 210.589C189.881 210.198 189.584 209.895 189.206 209.68C188.827 209.453 188.386 209.34 187.881 209.34C187.377 209.34 186.929 209.453 186.538 209.68C186.159 209.895 185.863 210.204 185.648 210.608C185.434 210.999 185.327 211.465 185.327 212.008V212.462C185.327 213.017 185.447 213.509 185.686 213.938C185.939 214.354 186.285 214.676 186.727 214.903C187.181 215.117 187.711 215.225 188.316 215.225C188.859 215.225 189.332 215.143 189.736 214.979C190.152 214.815 190.53 214.569 190.871 214.241L192.442 215.944C191.975 216.474 191.388 216.884 190.682 217.174C189.975 217.451 189.162 217.59 188.241 217.59ZM200.715 217.439V215.452L200.526 215.017V211.459C200.526 210.828 200.33 210.336 199.939 209.983C199.56 209.63 198.974 209.453 198.179 209.453C197.637 209.453 197.101 209.542 196.571 209.718C196.054 209.882 195.612 210.109 195.246 210.399L194.186 208.337C194.742 207.946 195.41 207.643 196.192 207.429C196.974 207.214 197.769 207.107 198.577 207.107C200.128 207.107 201.333 207.473 202.191 208.204C203.049 208.936 203.477 210.078 203.477 211.629V217.439H200.715ZM197.611 217.59C196.817 217.59 196.136 217.458 195.568 217.193C195 216.915 194.565 216.543 194.262 216.076C193.959 215.609 193.808 215.086 193.808 214.506C193.808 213.9 193.953 213.37 194.243 212.916C194.546 212.462 195.019 212.109 195.662 211.856C196.306 211.592 197.145 211.459 198.179 211.459H200.885V213.181H198.501C197.807 213.181 197.328 213.295 197.063 213.522C196.81 213.749 196.684 214.033 196.684 214.373C196.684 214.752 196.829 215.054 197.119 215.281C197.422 215.496 197.832 215.603 198.349 215.603C198.841 215.603 199.283 215.49 199.674 215.263C200.065 215.023 200.349 214.676 200.526 214.222L200.98 215.584C200.765 216.24 200.374 216.739 199.806 217.079C199.239 217.42 198.507 217.59 197.611 217.59ZM209.934 217.59C208.735 217.59 207.802 217.287 207.133 216.682C206.464 216.064 206.13 215.149 206.13 213.938V205.007H209.082V213.9C209.082 214.329 209.196 214.663 209.423 214.903C209.65 215.13 209.959 215.244 210.35 215.244C210.817 215.244 211.214 215.117 211.542 214.865L212.337 216.947C212.034 217.161 211.668 217.325 211.239 217.439C210.823 217.54 210.388 217.59 209.934 217.59ZM204.56 209.756V207.485H211.618V209.756H204.56ZM218.354 217.59C217.193 217.59 216.171 217.363 215.288 216.909C214.418 216.455 213.743 215.837 213.263 215.054C212.784 214.26 212.544 213.358 212.544 212.348C212.544 211.327 212.778 210.425 213.244 209.643C213.724 208.848 214.374 208.23 215.194 207.788C216.014 207.334 216.941 207.107 217.975 207.107C218.972 207.107 219.867 207.321 220.662 207.75C221.47 208.167 222.107 208.772 222.573 209.567C223.04 210.349 223.273 211.289 223.273 212.386C223.273 212.5 223.267 212.632 223.255 212.784C223.242 212.922 223.229 213.055 223.217 213.181H214.948V211.459H221.665L220.53 211.97C220.53 211.44 220.422 210.98 220.208 210.589C219.994 210.198 219.697 209.895 219.319 209.68C218.94 209.453 218.499 209.34 217.994 209.34C217.489 209.34 217.042 209.453 216.651 209.68C216.272 209.895 215.976 210.204 215.761 210.608C215.547 210.999 215.44 211.465 215.44 212.008V212.462C215.44 213.017 215.559 213.509 215.799 213.938C216.051 214.354 216.398 214.676 216.84 214.903C217.294 215.117 217.824 215.225 218.429 215.225C218.972 215.225 219.445 215.143 219.848 214.979C220.265 214.815 220.643 214.569 220.984 214.241L222.554 215.944C222.088 216.474 221.501 216.884 220.795 217.174C220.088 217.451 219.274 217.59 218.354 217.59Z" fill="#D96C4E"/>
<path d="M199.116 233.008C200.147 233.008 200.982 233.844 200.982 234.874C200.982 235.905 200.147 236.74 199.116 236.74H186.291C185.26 236.74 184.425 235.905 184.425 234.874C184.425 233.844 185.26 233.008 186.291 233.008H199.116ZM194.587 241.269C194.587 242.3 193.752 243.135 192.721 243.135C191.691 243.135 190.855 242.3 190.855 241.269V228.444C190.855 227.413 191.691 226.578 192.721 226.578C193.752 226.578 194.587 227.413 194.587 228.444V241.269Z" fill="#D96C4E"/>
</g>
<rect x="1.113" y="1.01706" width="383.774" height="382" rx="24.5402" stroke="url(#paint0_linear_1_535)" stroke-width="1.77399"/>
<defs>
<filter id="filter0_d_1_535" x="128.545" y="159.197" width="128.91" height="128.91" filterUnits="userSpaceOnUse" color-interpolation-filters="sRGB">
<feFlood flood-opacity="0" result="BackgroundImageFix"/>
<feColorMatrix in="SourceAlpha" type="matrix" values="0 0 0 0 0 0 0 0 0 0 0 0 0 0 0 0 0 0 127 0" result="hardAlpha"/>
<feOffset dy="2.36533"/>
<feGaussianBlur stdDeviation="4.13932"/>
<feComposite in2="hardAlpha" operator="out"/>
<feColorMatrix type="matrix" values="0 0 0 0 0 0 0 0 0 0 0 0 0 0 0 0 0 0 0.2 0"/>
<feBlend mode="normal" in2="BackgroundImageFix" result="effect1_dropShadow_1_535"/>
<feBlend mode="normal" in="SourceGraphic" in2="effect1_dropShadow_1_535" result="shape"/>
</filter>
<linearGradient id="paint0_linear_1_535" x1="395.235" y1="1.90405" x2="2.00002" y2="391" gradientUnits="userSpaceOnUse">
<stop offset="0.0001" stop-color="#0038FF"/>
<stop offset="0.405" stop-color="#C60083"/>
<stop offset="0.685" stop-color="#FFC700"/>
<stop offset="1" stop-color="#FF0000"/>
</linearGradient>
<clipPath id="clip0_1_535">
<rect width="19.5139" height="19.5139" fill="white" transform="translate(25.6539 320.631)"/>
</clipPath>
</defs>
</svg>
