<svg width="652" height="649" viewBox="0 0 652 649" fill="none" xmlns="http://www.w3.org/2000/svg">
<rect x="3" y="3" width="646" height="643" rx="40" fill="#C8E6C9"/>
<rect x="31" y="526" width="590" height="64" rx="16" fill="#E3FFE4"/>
<path d="M58.9428 548.89C57.354 547.301 56.2666 544.525 55.7269 542C55.1864 544.526 54.1001 547.302 52.5108 548.891C50.922 550.479 48.1457 551.567 45.621 552.108C48.1468 552.647 50.9225 553.734 52.5113 555.323C54.1 556.912 55.1875 559.688 55.728 562.214C56.2677 559.688 57.3548 556.912 58.9433 555.322C60.5321 553.734 63.3083 552.647 65.8331 552.106C63.3079 551.566 60.5321 550.479 58.9428 548.89Z" fill="#000AFF"/>
<path d="M69.2627 561.616C68.3144 560.667 67.6637 559.008 67.3413 557.499C67.0183 559.008 66.3698 560.667 65.4204 561.616C64.471 562.565 62.8123 563.215 61.3041 563.538C62.8129 563.861 64.471 564.51 65.4204 565.459C66.3698 566.408 67.0195 568.067 67.3424 569.575C67.6647 568.066 68.3144 566.408 69.2632 565.459C70.2121 564.51 71.871 563.86 73.3789 563.537C71.871 563.214 70.2121 562.565 69.2627 561.616Z" fill="#000AFF"/>
<path d="M52.4328 564.862C52.1617 566.128 51.6172 567.521 50.8203 568.318C50.0235 569.114 48.6309 569.66 47.3647 569.931C48.6309 570.203 50.0235 570.747 50.8203 571.544C51.6172 572.341 52.1628 573.733 52.4339 575C52.7048 573.733 53.2496 572.341 54.0467 571.544C54.843 570.747 56.2358 570.202 57.5017 569.93C56.2359 569.659 54.843 569.114 54.0462 568.318C53.2496 567.521 52.7037 566.128 52.4328 564.862Z" fill="#000AFF"/>
<rect x="86" y="546" width="3" height="25" fill="black"/>
<path d="M248 102V74.016H237.176V71.2H262.08V74.016H251.256V102H248ZM274.688 102.22C272.723 102.22 271.007 101.853 269.54 101.12C268.073 100.387 266.929 99.2867 266.108 97.82C265.316 96.3533 264.92 94.52 264.92 92.32V78.9H268.044V91.968C268.044 94.432 268.645 96.2947 269.848 97.556C271.08 98.788 272.796 99.404 274.996 99.404C276.609 99.404 278.003 99.0813 279.176 98.436C280.379 97.7613 281.288 96.7933 281.904 95.532C282.549 94.2707 282.872 92.76 282.872 91V78.9H285.996V102H283.004V95.664L283.488 96.808C282.755 98.5093 281.611 99.844 280.056 100.812C278.531 101.751 276.741 102.22 274.688 102.22ZM303.635 102.22C301.229 102.22 299.117 101.721 297.299 100.724C295.48 99.6973 294.057 98.304 293.031 96.544C292.004 94.7547 291.491 92.716 291.491 90.428C291.491 88.14 291.975 86.116 292.943 84.356C293.94 82.596 295.289 81.2173 296.991 80.22C298.721 79.1933 300.657 78.68 302.799 78.68C304.969 78.68 306.891 79.1787 308.563 80.176C310.264 81.144 311.599 82.5227 312.567 84.312C313.535 86.072 314.019 88.1107 314.019 90.428C314.019 90.5747 314.004 90.736 313.975 90.912C313.975 91.0587 313.975 91.22 313.975 91.396H293.867V89.064H312.303L311.071 89.988C311.071 88.316 310.704 86.8347 309.971 85.544C309.267 84.224 308.299 83.1973 307.067 82.464C305.835 81.7307 304.412 81.364 302.799 81.364C301.215 81.364 299.792 81.7307 298.531 82.464C297.269 83.1973 296.287 84.224 295.583 85.544C294.879 86.864 294.527 88.3747 294.527 90.076V90.56C294.527 92.32 294.908 93.8747 295.671 95.224C296.463 96.544 297.548 97.5853 298.927 98.348C300.335 99.0813 301.933 99.448 303.723 99.448C305.131 99.448 306.436 99.1987 307.639 98.7C308.871 98.2013 309.927 97.4387 310.807 96.412L312.567 98.436C311.54 99.668 310.249 100.607 308.695 101.252C307.169 101.897 305.483 102.22 303.635 102.22ZM325.701 102.22C323.795 102.22 321.991 101.956 320.289 101.428C318.588 100.871 317.253 100.181 316.285 99.36L317.693 96.896C318.632 97.6 319.835 98.216 321.301 98.744C322.768 99.2427 324.308 99.492 325.921 99.492C328.121 99.492 329.705 99.1547 330.673 98.48C331.641 97.776 332.125 96.852 332.125 95.708C332.125 94.8573 331.847 94.1973 331.289 93.728C330.761 93.2293 330.057 92.8627 329.177 92.628C328.297 92.364 327.315 92.144 326.229 91.968C325.144 91.792 324.059 91.5867 322.973 91.352C321.917 91.1173 320.949 90.78 320.069 90.34C319.189 89.8707 318.471 89.24 317.913 88.448C317.385 87.656 317.121 86.6 317.121 85.28C317.121 84.0187 317.473 82.8893 318.177 81.892C318.881 80.8947 319.908 80.1173 321.257 79.56C322.636 78.9733 324.308 78.68 326.273 78.68C327.769 78.68 329.265 78.8853 330.761 79.296C332.257 79.6773 333.489 80.1907 334.457 80.836L333.093 83.344C332.067 82.64 330.967 82.1413 329.793 81.848C328.62 81.5253 327.447 81.364 326.273 81.364C324.191 81.364 322.651 81.7307 321.653 82.464C320.685 83.168 320.201 84.0773 320.201 85.192C320.201 86.072 320.465 86.7613 320.993 87.26C321.551 87.7587 322.269 88.1547 323.149 88.448C324.059 88.712 325.041 88.932 326.097 89.108C327.183 89.284 328.253 89.504 329.309 89.768C330.395 90.0027 331.377 90.34 332.257 90.78C333.167 91.1907 333.885 91.792 334.413 92.584C334.971 93.3467 335.249 94.3587 335.249 95.62C335.249 96.9693 334.868 98.1427 334.105 99.14C333.372 100.108 332.287 100.871 330.849 101.428C329.441 101.956 327.725 102.22 325.701 102.22ZM349.298 102.22C347.098 102.22 345.118 101.721 343.358 100.724C341.627 99.7267 340.263 98.348 339.266 96.588C338.268 94.7987 337.77 92.7453 337.77 90.428C337.77 88.0813 338.268 86.028 339.266 84.268C340.263 82.508 341.627 81.144 343.358 80.176C345.118 79.1787 347.098 78.68 349.298 78.68C351.322 78.68 353.126 79.1347 354.71 80.044C356.323 80.9533 357.599 82.288 358.538 84.048C359.506 85.7787 359.99 87.9053 359.99 90.428C359.99 92.9213 359.52 95.048 358.582 96.808C357.643 98.568 356.367 99.9173 354.754 100.856C353.17 101.765 351.351 102.22 349.298 102.22ZM349.518 99.448C351.16 99.448 352.627 99.0813 353.918 98.348C355.238 97.5853 356.264 96.5293 356.998 95.18C357.76 93.8013 358.142 92.2173 358.142 90.428C358.142 88.6093 357.76 87.0253 356.998 85.676C356.264 84.3267 355.238 83.2853 353.918 82.552C352.627 81.7893 351.16 81.408 349.518 81.408C347.904 81.408 346.452 81.7893 345.162 82.552C343.871 83.2853 342.844 84.3267 342.082 85.676C341.319 87.0253 340.938 88.6093 340.938 90.428C340.938 92.2173 341.319 93.8013 342.082 95.18C342.844 96.5293 343.871 97.5853 345.162 98.348C346.452 99.0813 347.904 99.448 349.518 99.448ZM358.23 102V95.048L358.538 90.384L358.098 85.72V69.352H361.222V102H358.23ZM383.518 102V96.896L383.386 96.06V87.524C383.386 85.5587 382.829 84.048 381.714 82.992C380.629 81.936 379.001 81.408 376.83 81.408C375.334 81.408 373.911 81.6573 372.562 82.156C371.213 82.6547 370.069 83.3147 369.13 84.136L367.722 81.804C368.895 80.8067 370.303 80.044 371.946 79.516C373.589 78.9587 375.319 78.68 377.138 78.68C380.13 78.68 382.433 79.428 384.046 80.924C385.689 82.3907 386.51 84.6347 386.51 87.656V102H383.518ZM375.554 102.22C373.823 102.22 372.313 101.941 371.022 101.384C369.761 100.797 368.793 100.005 368.118 99.008C367.443 97.9813 367.106 96.808 367.106 95.488C367.106 94.2853 367.385 93.2 367.942 92.232C368.529 91.2347 369.467 90.4427 370.758 89.856C372.078 89.24 373.838 88.932 376.038 88.932H384.002V91.264H376.126C373.897 91.264 372.342 91.66 371.462 92.452C370.611 93.244 370.186 94.2267 370.186 95.4C370.186 96.72 370.699 97.776 371.726 98.568C372.753 99.36 374.19 99.756 376.038 99.756C377.798 99.756 379.309 99.36 380.57 98.568C381.861 97.7467 382.799 96.5733 383.386 95.048L384.09 97.204C383.503 98.7293 382.477 99.9467 381.01 100.856C379.573 101.765 377.754 102.22 375.554 102.22ZM393.861 110.756C392.776 110.756 391.735 110.58 390.737 110.228C389.769 109.876 388.933 109.348 388.229 108.644L389.681 106.312C390.268 106.869 390.899 107.295 391.573 107.588C392.277 107.911 393.055 108.072 393.905 108.072C394.932 108.072 395.812 107.779 396.545 107.192C397.308 106.635 398.027 105.637 398.701 104.2L400.197 100.812L400.549 100.328L410.053 78.9H413.133L401.561 104.772C400.916 106.268 400.197 107.456 399.405 108.336C398.643 109.216 397.807 109.832 396.897 110.184C395.988 110.565 394.976 110.756 393.861 110.756ZM400.021 102.66L389.373 78.9H392.629L402.045 100.108L400.021 102.66Z" fill="#36454F"/>
<path d="M182.136 206.336H196.536V209.312L192.36 209.936L198.408 231.584L199.512 236.912L200.616 231.584L205.752 214.016L204.408 209.936L201.24 209.312V206.336H216.264V209.312L211.656 209.936L217.656 231.584L218.952 237.344L219.96 231.584L225.432 209.936L221.112 209.312V206.336H232.68V209.312L229.608 209.936L220.488 242.24H214.152L207.528 219.824L201.192 242.24H194.952L185.064 209.984L182.136 209.312V206.336ZM245.093 242.528C240.869 242.528 237.717 241.296 235.637 238.832C233.589 236.336 232.565 232.944 232.565 228.656C232.565 225.776 233.093 223.28 234.149 221.168C235.237 219.056 236.757 217.44 238.709 216.32C240.661 215.2 242.917 214.64 245.477 214.64C248.677 214.64 251.141 215.488 252.869 217.184C254.597 218.848 255.493 221.232 255.557 224.336C255.557 226.448 255.429 228.016 255.173 229.04H239.573C239.701 231.952 240.389 234.224 241.637 235.856C242.885 237.456 244.661 238.256 246.965 238.256C248.213 238.256 249.493 238.048 250.805 237.632C252.149 237.216 253.205 236.72 253.973 236.144L255.173 238.784C254.309 239.712 252.901 240.576 250.949 241.376C249.029 242.144 247.077 242.528 245.093 242.528ZM248.837 226.16C248.901 225.264 248.933 224.576 248.933 224.096C248.933 219.84 247.509 217.712 244.661 217.712C243.093 217.712 241.877 218.336 241.013 219.584C240.149 220.832 239.669 223.024 239.573 226.16H248.837ZM264.14 210.944C262.988 210.944 262.076 210.608 261.404 209.936C260.732 209.264 260.396 208.4 260.396 207.344C260.396 206.128 260.78 205.12 261.548 204.32C262.316 203.52 263.34 203.12 264.62 203.12C265.9 203.12 266.876 203.472 267.548 204.176C268.22 204.848 268.556 205.696 268.556 206.72C268.556 208 268.172 209.024 267.404 209.792C266.636 210.56 265.564 210.944 264.188 210.944H264.14ZM261.596 219.872L258.188 218.96V215.744L266.972 214.688H267.068L268.412 215.648V238.736L271.628 239.12V242H258.236V239.12L261.596 238.688V219.872ZM285.724 254.96C281.436 254.96 278.332 254.288 276.412 252.944C274.492 251.6 273.532 249.776 273.532 247.472C273.532 246.16 273.964 244.912 274.828 243.728C275.724 242.576 276.796 241.712 278.044 241.136C276.572 240.272 275.836 238.896 275.836 237.008C275.836 235.92 276.188 234.896 276.892 233.936C277.596 232.944 278.508 232.176 279.628 231.632C277.868 230.96 276.556 229.936 275.692 228.56C274.828 227.184 274.396 225.552 274.396 223.664C274.396 221.84 274.924 220.256 275.98 218.912C277.068 217.536 278.508 216.48 280.3 215.744C282.124 215.008 284.092 214.64 286.204 214.64C289.948 214.64 292.732 215.36 294.556 216.8C294.972 216.256 295.676 215.744 296.668 215.264C297.66 214.784 298.684 214.544 299.74 214.544H301.42V219.776H296.476C296.956 220.8 297.196 221.888 297.196 223.04C297.228 225.952 296.204 228.288 294.124 230.048C292.044 231.776 289.196 232.64 285.58 232.64C284.076 232.64 282.812 232.528 281.788 232.304C281.468 232.72 281.212 233.168 281.02 233.648C280.86 234.096 280.78 234.496 280.78 234.848C280.78 235.904 281.148 236.624 281.884 237.008C282.652 237.392 284.012 237.584 285.964 237.584H291.1C297.628 237.584 300.892 239.952 300.892 244.688C300.892 246.672 300.188 248.448 298.78 250.016C297.372 251.584 295.5 252.8 293.164 253.664C290.828 254.528 288.348 254.96 285.724 254.96ZM286.06 229.664C289.036 229.664 290.524 227.632 290.524 223.568C290.524 221.488 290.14 219.968 289.372 219.008C288.636 218.016 287.5 217.52 285.964 217.52C284.46 217.52 283.292 218.016 282.46 219.008C281.66 219.968 281.26 221.424 281.26 223.376C281.26 227.568 282.86 229.664 286.06 229.664ZM286.444 251.648C288.46 251.648 290.204 251.152 291.676 250.16C293.148 249.2 293.884 247.856 293.884 246.128C293.884 244.752 293.516 243.76 292.78 243.152C292.076 242.544 290.796 242.24 288.94 242.24H283.708C282.908 242.24 282.172 242.192 281.5 242.096C280.636 243.248 280.204 244.624 280.204 246.224C280.204 247.984 280.684 249.328 281.644 250.256C282.604 251.184 284.204 251.648 286.444 251.648ZM305.264 206.912L301.616 206.288V203.696L310.544 202.64H310.688L311.936 203.552L311.984 214.256L311.648 218.432C312.64 217.536 313.984 216.704 315.68 215.936C317.408 215.168 319.216 214.784 321.104 214.784C323.12 214.784 324.688 215.168 325.808 215.936C326.928 216.672 327.712 217.808 328.16 219.344C328.608 220.88 328.832 222.928 328.832 225.488V238.688L331.904 239.12V242H319.28V239.12L322.064 238.688V225.488C322.064 223.824 321.952 222.528 321.728 221.6C321.504 220.672 321.088 219.984 320.48 219.536C319.904 219.088 319.04 218.864 317.888 218.864C316.896 218.864 315.872 219.104 314.816 219.584C313.792 220.032 312.88 220.576 312.08 221.216V238.688L315.008 239.12V242H302.576V239.12L305.264 238.736V206.912ZM342.268 242.432C340.252 242.432 338.764 241.968 337.804 241.04C336.844 240.112 336.364 238.64 336.364 236.624V219.008H333.244V216.512C333.5 216.416 333.964 216.256 334.636 216.032C335.308 215.776 335.82 215.568 336.172 215.408C336.716 214.992 337.18 214.272 337.564 213.248C337.852 212.576 338.38 210.912 339.148 208.256H342.988L343.18 215.312H350.524V219.008H343.228V232.496C343.228 234.288 343.276 235.552 343.372 236.288C343.468 237.024 343.676 237.504 343.996 237.728C344.316 237.92 344.876 238.016 345.676 238.016C346.476 238.016 347.308 237.936 348.172 237.776C349.036 237.584 349.756 237.36 350.332 237.104L351.244 239.792C350.348 240.464 349.036 241.072 347.308 241.616C345.58 242.16 343.9 242.432 342.268 242.432ZM366.82 209.936L363.124 209.312V206.336H378.484V209.312L373.876 209.936V238.592L384.148 238.16L387.172 229.184L391.06 229.712L389.572 242H363.028V239.12L366.82 238.64V209.936ZM392.918 228.704C392.918 225.696 393.51 223.136 394.694 221.024C395.91 218.912 397.526 217.328 399.542 216.272C401.558 215.184 403.75 214.64 406.118 214.64C410.15 214.64 413.254 215.888 415.43 218.384C417.638 220.848 418.742 224.208 418.742 228.464C418.742 231.504 418.134 234.096 416.918 236.24C415.734 238.352 414.134 239.936 412.118 240.992C410.134 242.016 407.942 242.528 405.542 242.528C401.542 242.528 398.438 241.296 396.23 238.832C394.022 236.336 392.918 232.96 392.918 228.704ZM405.926 239.408C409.542 239.408 411.35 235.92 411.35 228.944C411.35 225.296 410.918 222.528 410.054 220.64C409.19 218.72 407.782 217.76 405.83 217.76C402.118 217.76 400.262 221.248 400.262 228.224C400.262 231.872 400.71 234.656 401.606 236.576C402.534 238.464 403.974 239.408 405.926 239.408ZM427.473 238.064C427.729 238.448 428.305 238.816 429.201 239.168C430.129 239.488 431.057 239.648 431.985 239.648C433.489 239.648 434.609 239.344 435.345 238.736C436.113 238.096 436.497 237.264 436.497 236.24C436.497 235.184 436.033 234.336 435.105 233.696C434.177 233.024 432.609 232.208 430.401 231.248L429.057 230.672C426.849 229.744 425.201 228.624 424.113 227.312C423.025 226 422.481 224.304 422.481 222.224C422.481 220.784 422.913 219.504 423.777 218.384C424.641 217.232 425.857 216.336 427.425 215.696C428.993 215.056 430.801 214.736 432.849 214.736C434.353 214.736 435.633 214.832 436.689 215.024C437.777 215.216 438.913 215.472 440.097 215.792C440.737 216.016 441.217 216.144 441.537 216.176V222.464H437.745L436.641 218.816C436.449 218.496 436.017 218.208 435.345 217.952C434.673 217.696 433.905 217.568 433.041 217.568C431.729 217.568 430.673 217.856 429.873 218.432C429.105 218.976 428.721 219.744 428.721 220.736C428.721 221.632 428.993 222.384 429.537 222.992C430.081 223.568 430.673 224.016 431.313 224.336C431.953 224.656 433.137 225.184 434.865 225.92C436.593 226.656 438.017 227.36 439.137 228.032C440.289 228.704 441.233 229.584 441.969 230.672C442.737 231.728 443.121 233.024 443.121 234.56C443.121 236.928 442.193 238.848 440.337 240.32C438.481 241.792 435.809 242.528 432.321 242.528C430.689 242.528 429.217 242.384 427.905 242.096C426.625 241.808 425.137 241.424 423.441 240.944L422.385 240.608V234.272H426.369L427.473 238.064ZM451.404 238.064C451.66 238.448 452.236 238.816 453.132 239.168C454.06 239.488 454.988 239.648 455.916 239.648C457.42 239.648 458.54 239.344 459.276 238.736C460.044 238.096 460.428 237.264 460.428 236.24C460.428 235.184 459.964 234.336 459.036 233.696C458.108 233.024 456.54 232.208 454.332 231.248L452.988 230.672C450.78 229.744 449.132 228.624 448.044 227.312C446.956 226 446.412 224.304 446.412 222.224C446.412 220.784 446.844 219.504 447.708 218.384C448.572 217.232 449.788 216.336 451.356 215.696C452.924 215.056 454.732 214.736 456.78 214.736C458.284 214.736 459.564 214.832 460.62 215.024C461.708 215.216 462.844 215.472 464.028 215.792C464.668 216.016 465.148 216.144 465.468 216.176V222.464H461.676L460.572 218.816C460.38 218.496 459.948 218.208 459.276 217.952C458.604 217.696 457.836 217.568 456.972 217.568C455.66 217.568 454.604 217.856 453.804 218.432C453.036 218.976 452.652 219.744 452.652 220.736C452.652 221.632 452.924 222.384 453.468 222.992C454.012 223.568 454.604 224.016 455.244 224.336C455.884 224.656 457.068 225.184 458.796 225.92C460.524 226.656 461.948 227.36 463.068 228.032C464.22 228.704 465.164 229.584 465.9 230.672C466.668 231.728 467.052 233.024 467.052 234.56C467.052 236.928 466.124 238.848 464.268 240.32C462.412 241.792 459.74 242.528 456.252 242.528C454.62 242.528 453.148 242.384 451.836 242.096C450.556 241.808 449.068 241.424 447.372 240.944L446.316 240.608V234.272H450.3L451.404 238.064Z" fill="#36454F"/>
<g filter="url(#filter0_d_1_208)">
<rect x="231" y="279" width="190" height="190" rx="95" fill="white"/>
<path d="M285.376 368.384C283.648 368.384 282.037 368.107 280.544 367.552C279.072 366.976 277.792 366.165 276.704 365.12C275.616 364.075 274.763 362.848 274.144 361.44C273.547 360.032 273.248 358.485 273.248 356.8C273.248 355.115 273.547 353.568 274.144 352.16C274.763 350.752 275.616 349.525 276.704 348.48C277.813 347.435 279.104 346.635 280.576 346.08C282.048 345.504 283.659 345.216 285.408 345.216C287.349 345.216 289.099 345.557 290.656 346.24C292.235 346.901 293.557 347.883 294.624 349.184L291.296 352.256C290.528 351.381 289.675 350.731 288.736 350.304C287.797 349.856 286.773 349.632 285.664 349.632C284.619 349.632 283.659 349.803 282.784 350.144C281.909 350.485 281.152 350.976 280.512 351.616C279.872 352.256 279.371 353.013 279.008 353.888C278.667 354.763 278.496 355.733 278.496 356.8C278.496 357.867 278.667 358.837 279.008 359.712C279.371 360.587 279.872 361.344 280.512 361.984C281.152 362.624 281.909 363.115 282.784 363.456C283.659 363.797 284.619 363.968 285.664 363.968C286.773 363.968 287.797 363.755 288.736 363.328C289.675 362.88 290.528 362.208 291.296 361.312L294.624 364.384C293.557 365.685 292.235 366.677 290.656 367.36C289.099 368.043 287.339 368.384 285.376 368.384ZM297.133 368V350.784H301.901V355.648L301.229 354.24C301.741 353.024 302.562 352.107 303.693 351.488C304.823 350.848 306.199 350.528 307.821 350.528V355.136C307.607 355.115 307.415 355.104 307.245 355.104C307.074 355.083 306.893 355.072 306.701 355.072C305.335 355.072 304.226 355.467 303.373 356.256C302.541 357.024 302.125 358.229 302.125 359.872V368H297.133ZM318.568 368.256C316.605 368.256 314.877 367.872 313.384 367.104C311.912 366.336 310.771 365.291 309.96 363.968C309.149 362.624 308.744 361.099 308.744 359.392C308.744 357.664 309.139 356.139 309.928 354.816C310.739 353.472 311.837 352.427 313.224 351.68C314.611 350.912 316.179 350.528 317.928 350.528C319.613 350.528 321.128 350.891 322.472 351.616C323.837 352.32 324.915 353.344 325.704 354.688C326.493 356.011 326.888 357.6 326.888 359.456C326.888 359.648 326.877 359.872 326.856 360.128C326.835 360.363 326.813 360.587 326.792 360.8H312.808V357.888H324.168L322.248 358.752C322.248 357.856 322.067 357.077 321.704 356.416C321.341 355.755 320.84 355.243 320.2 354.88C319.56 354.496 318.813 354.304 317.96 354.304C317.107 354.304 316.349 354.496 315.688 354.88C315.048 355.243 314.547 355.765 314.184 356.448C313.821 357.109 313.64 357.899 313.64 358.816V359.584C313.64 360.523 313.843 361.355 314.248 362.08C314.675 362.784 315.261 363.328 316.008 363.712C316.776 364.075 317.672 364.256 318.696 364.256C319.613 364.256 320.413 364.117 321.096 363.84C321.8 363.563 322.44 363.147 323.016 362.592L325.672 365.472C324.883 366.368 323.891 367.061 322.696 367.552C321.501 368.021 320.125 368.256 318.568 368.256ZM339.663 368V364.64L339.343 363.904V357.888C339.343 356.821 339.012 355.989 338.351 355.392C337.711 354.795 336.719 354.496 335.375 354.496C334.457 354.496 333.551 354.645 332.655 354.944C331.78 355.221 331.033 355.605 330.415 356.096L328.623 352.608C329.561 351.947 330.692 351.435 332.015 351.072C333.337 350.709 334.681 350.528 336.047 350.528C338.671 350.528 340.708 351.147 342.159 352.384C343.609 353.621 344.335 355.552 344.335 358.176V368H339.663ZM334.415 368.256C333.071 368.256 331.919 368.032 330.959 367.584C329.999 367.115 329.263 366.485 328.751 365.696C328.239 364.907 327.983 364.021 327.983 363.04C327.983 362.016 328.228 361.12 328.719 360.352C329.231 359.584 330.031 358.987 331.119 358.56C332.207 358.112 333.625 357.888 335.375 357.888H339.951V360.8H335.919C334.745 360.8 333.935 360.992 333.487 361.376C333.06 361.76 332.847 362.24 332.847 362.816C332.847 363.456 333.092 363.968 333.583 364.352C334.095 364.715 334.788 364.896 335.663 364.896C336.495 364.896 337.241 364.704 337.903 364.32C338.564 363.915 339.044 363.328 339.343 362.56L340.111 364.864C339.748 365.973 339.087 366.816 338.127 367.392C337.167 367.968 335.929 368.256 334.415 368.256ZM355.253 368.256C353.226 368.256 351.647 367.744 350.517 366.72C349.386 365.675 348.821 364.128 348.821 362.08V346.976H353.813V362.016C353.813 362.741 354.005 363.307 354.389 363.712C354.773 364.096 355.295 364.288 355.957 364.288C356.746 364.288 357.418 364.075 357.973 363.648L359.317 367.168C358.805 367.531 358.186 367.808 357.461 368C356.757 368.171 356.021 368.256 355.253 368.256ZM346.165 355.008V351.168H358.101V355.008H346.165ZM369.492 368.256C367.529 368.256 365.801 367.872 364.308 367.104C362.836 366.336 361.694 365.291 360.884 363.968C360.073 362.624 359.668 361.099 359.668 359.392C359.668 357.664 360.062 356.139 360.852 354.816C361.662 353.472 362.761 352.427 364.148 351.68C365.534 350.912 367.102 350.528 368.852 350.528C370.537 350.528 372.052 350.891 373.396 351.616C374.761 352.32 375.838 353.344 376.628 354.688C377.417 356.011 377.812 357.6 377.812 359.456C377.812 359.648 377.801 359.872 377.78 360.128C377.758 360.363 377.737 360.587 377.716 360.8H363.732V357.888H375.092L373.172 358.752C373.172 357.856 372.99 357.077 372.628 356.416C372.265 355.755 371.764 355.243 371.124 354.88C370.484 354.496 369.737 354.304 368.884 354.304C368.03 354.304 367.273 354.496 366.612 354.88C365.972 355.243 365.47 355.765 365.108 356.448C364.745 357.109 364.564 357.899 364.564 358.816V359.584C364.564 360.523 364.766 361.355 365.172 362.08C365.598 362.784 366.185 363.328 366.932 363.712C367.7 364.075 368.596 364.256 369.62 364.256C370.537 364.256 371.337 364.117 372.02 363.84C372.724 363.563 373.364 363.147 373.94 362.592L376.596 365.472C375.806 366.368 374.814 367.061 373.62 367.552C372.425 368.021 371.049 368.256 369.492 368.256Z" fill="#36454F"/>
<path d="M336.344 393.874C338.087 393.874 339.5 395.287 339.5 397.03C339.5 398.772 338.087 400.185 336.344 400.185H314.656C312.913 400.185 311.5 398.772 311.5 397.03C311.5 395.287 312.913 393.874 314.656 393.874H336.344ZM328.685 407.844C328.685 409.587 327.272 411 325.53 411C323.787 411 322.374 409.587 322.374 407.844V386.156C322.374 384.413 323.787 383 325.53 383C327.272 383 328.685 384.413 328.685 386.156V407.844Z" fill="#36454F"/>
</g>
<rect x="1.5" y="1.5" width="649" height="646" rx="41.5" stroke="url(#paint0_linear_1_208)" stroke-width="3"/>
<defs>
<filter id="filter0_d_1_208" x="217" y="269" width="218" height="218" filterUnits="userSpaceOnUse" color-interpolation-filters="sRGB">
<feFlood flood-opacity="0" result="BackgroundImageFix"/>
<feColorMatrix in="SourceAlpha" type="matrix" values="0 0 0 0 0 0 0 0 0 0 0 0 0 0 0 0 0 0 127 0" result="hardAlpha"/>
<feOffset dy="4"/>
<feGaussianBlur stdDeviation="7"/>
<feComposite in2="hardAlpha" operator="out"/>
<feColorMatrix type="matrix" values="0 0 0 0 0 0 0 0 0 0 0 0 0 0 0 0 0 0 0.2 0"/>
<feBlend mode="normal" in2="BackgroundImageFix" result="effect1_dropShadow_1_208"/>
<feBlend mode="normal" in="SourceGraphic" in2="effect1_dropShadow_1_208" result="shape"/>
</filter>
<linearGradient id="paint0_linear_1_208" x1="668" y1="3" x2="2.99999" y2="661" gradientUnits="userSpaceOnUse">
<stop offset="0.0001" stop-color="#0038FF"/>
<stop offset="0.405" stop-color="#C60083"/>
<stop offset="0.685" stop-color="#FFC700"/>
<stop offset="1" stop-color="#FF0000"/>
</linearGradient>
</defs>
</svg>
