<svg width="386" height="385" viewBox="0 0 386 385" fill="none" xmlns="http://www.w3.org/2000/svg">
<rect x="2" y="2.45215" width="382" height="380.226" rx="23.6533" fill="#C8E6C9"/>
<rect x="18.5573" y="311.718" width="348.885" height="37.8452" rx="9.4613" fill="#E3FFE4"/>
<g clip-path="url(#clip0_1_501)">
<path d="M35.0823 325.254C34.1428 324.314 33.4997 322.673 33.1806 321.18C32.861 322.673 32.2186 324.315 31.2788 325.255C30.3393 326.194 28.6976 326.837 27.2047 327.157C28.6982 327.476 30.3396 328.118 31.2791 329.058C32.2186 329.998 32.8616 331.639 33.1812 333.132C33.5004 331.639 34.1432 329.997 35.0826 329.058C36.022 328.118 37.6637 327.475 39.1567 327.156C37.6635 326.836 36.0221 326.193 35.0823 325.254Z" fill="#000AFF"/>
<path d="M41.1851 332.779C40.6243 332.218 40.2395 331.237 40.0489 330.345C39.8579 331.237 39.4744 332.218 38.913 332.779C38.3516 333.34 37.3708 333.724 36.4789 333.915C37.3711 334.106 38.3516 334.49 38.913 335.051C39.4744 335.612 39.8586 336.593 40.0495 337.485C40.2401 336.593 40.6243 335.612 41.1854 335.051C41.7465 334.49 42.7274 334.106 43.6191 333.915C42.7274 333.724 41.7465 333.34 41.1851 332.779Z" fill="#000AFF"/>
<path d="M31.233 334.698C31.0727 335.447 30.7507 336.271 30.2794 336.742C29.8083 337.213 28.9848 337.535 28.2361 337.696C28.9848 337.857 29.8083 338.178 30.2794 338.65C30.7507 339.121 31.0733 339.944 31.2336 340.693C31.3938 339.944 31.716 339.121 32.1874 338.649C32.6582 338.178 33.4818 337.856 34.2304 337.695C33.4819 337.535 32.6582 337.213 32.187 336.742C31.716 336.271 31.3932 335.447 31.233 334.698Z" fill="#000AFF"/>
</g>
<rect x="51.0807" y="323.545" width="1.77399" height="14.7833" fill="black"/>
<path d="M146.876 60.5667V44.0188H140.476V42.3536H155.202V44.0188H148.802V60.5667H146.876ZM162.658 60.6967C161.495 60.6967 160.481 60.4799 159.613 60.0463C158.746 59.6126 158.07 58.9622 157.584 58.0949C157.116 57.2276 156.882 56.1435 156.882 54.8426V46.9069H158.729V54.6344C158.729 56.0915 159.084 57.1929 159.796 57.9388C160.524 58.6673 161.539 59.0316 162.84 59.0316C163.794 59.0316 164.618 58.8408 165.312 58.4591C166.023 58.0602 166.56 57.4878 166.925 56.7419C167.306 55.9961 167.497 55.1027 167.497 54.062V46.9069H169.344V60.5667H167.575V56.82L167.861 57.4965C167.428 58.5025 166.751 59.2917 165.832 59.8641C164.93 60.4192 163.872 60.6967 162.658 60.6967ZM179.775 60.6967C178.352 60.6967 177.103 60.4019 176.028 59.8121C174.953 59.205 174.111 58.3811 173.504 57.3403C172.897 56.2823 172.593 55.0767 172.593 53.7238C172.593 52.3708 172.88 51.1739 173.452 50.1332C174.042 49.0925 174.84 48.2772 175.846 47.6875C176.869 47.0804 178.014 46.7768 179.28 46.7768C180.564 46.7768 181.7 47.0717 182.689 47.6614C183.695 48.2338 184.484 49.0491 185.056 50.1072C185.629 51.1479 185.915 52.3535 185.915 53.7238C185.915 53.8105 185.906 53.9059 185.889 54.01C185.889 54.0967 185.889 54.1921 185.889 54.2962H173.998V52.9172H184.9L184.172 53.4636C184.172 52.4749 183.955 51.5989 183.521 50.8357C183.105 50.0551 182.533 49.448 181.804 49.0144C181.076 48.5808 180.234 48.3639 179.28 48.3639C178.344 48.3639 177.502 48.5808 176.756 49.0144C176.011 49.448 175.43 50.0551 175.013 50.8357C174.597 51.6163 174.389 52.5096 174.389 53.5156V53.8018C174.389 54.8426 174.614 55.7619 175.065 56.5598C175.534 57.3403 176.175 57.9561 176.991 58.4071C177.823 58.8408 178.769 59.0576 179.827 59.0576C180.659 59.0576 181.431 58.9101 182.142 58.6153C182.871 58.3204 183.495 57.8694 184.016 57.2623L185.056 58.4591C184.449 59.1877 183.686 59.7427 182.767 60.1243C181.865 60.5059 180.867 60.6967 179.775 60.6967ZM192.823 60.6967C191.696 60.6967 190.629 60.5406 189.623 60.2284C188.617 59.8988 187.828 59.4912 187.255 59.0055L188.088 57.5485C188.643 57.9648 189.354 58.3291 190.221 58.6413C191.089 58.9362 191.999 59.0836 192.953 59.0836C194.254 59.0836 195.191 58.8841 195.763 58.4852C196.336 58.0689 196.622 57.5225 196.622 56.846C196.622 56.343 196.457 55.9527 196.128 55.6752C195.815 55.3803 195.399 55.1635 194.879 55.0247C194.358 54.8686 193.777 54.7385 193.136 54.6344C192.494 54.5303 191.852 54.4089 191.21 54.2702C190.586 54.1314 190.013 53.9319 189.493 53.6717C188.973 53.3942 188.548 53.0213 188.218 52.5529C187.906 52.0846 187.75 51.4601 187.75 50.6796C187.75 49.9337 187.958 49.2659 188.374 48.6762C188.79 48.0864 189.398 47.6267 190.195 47.2972C191.011 46.9503 191.999 46.7768 193.162 46.7768C194.046 46.7768 194.931 46.8982 195.815 47.1411C196.7 47.3666 197.429 47.6701 198.001 48.0517L197.194 49.5348C196.587 49.1185 195.937 48.8236 195.243 48.6501C194.549 48.4593 193.855 48.3639 193.162 48.3639C191.93 48.3639 191.019 48.5808 190.43 49.0144C189.857 49.4307 189.571 49.9684 189.571 50.6276C189.571 51.1479 189.727 51.5555 190.039 51.8504C190.369 52.1453 190.794 52.3795 191.314 52.5529C191.852 52.709 192.433 52.8391 193.058 52.9432C193.699 53.0473 194.332 53.1774 194.957 53.3335C195.599 53.4723 196.18 53.6717 196.7 53.9319C197.238 54.1748 197.663 54.5303 197.975 54.9987C198.305 55.4497 198.469 56.0481 198.469 56.794C198.469 57.5919 198.244 58.2857 197.793 58.8754C197.359 59.4479 196.717 59.8988 195.868 60.2284C195.035 60.5406 194.02 60.6967 192.823 60.6967ZM206.777 60.6967C205.476 60.6967 204.305 60.4019 203.264 59.8121C202.241 59.2224 201.434 58.4071 200.844 57.3664C200.255 56.3083 199.96 55.0941 199.96 53.7238C199.96 52.3361 200.255 51.1219 200.844 50.0812C201.434 49.0404 202.241 48.2338 203.264 47.6614C204.305 47.0717 205.476 46.7768 206.777 46.7768C207.973 46.7768 209.04 47.0457 209.977 47.5834C210.931 48.1211 211.685 48.9103 212.241 49.9511C212.813 50.9745 213.099 52.232 213.099 53.7238C213.099 55.1982 212.822 56.4557 212.267 57.4965C211.711 58.5372 210.957 59.3351 210.003 59.8902C209.066 60.4279 207.991 60.6967 206.777 60.6967ZM206.907 59.0576C207.878 59.0576 208.745 58.8408 209.509 58.4071C210.289 57.9561 210.896 57.3317 211.33 56.5338C211.781 55.7185 212.006 54.7819 212.006 53.7238C212.006 52.6483 211.781 51.7117 211.33 50.9138C210.896 50.1159 210.289 49.5001 209.509 49.0664C208.745 48.6154 207.878 48.39 206.907 48.39C205.953 48.39 205.094 48.6154 204.331 49.0664C203.568 49.5001 202.961 50.1159 202.51 50.9138C202.059 51.7117 201.833 52.6483 201.833 53.7238C201.833 54.7819 202.059 55.7185 202.51 56.5338C202.961 57.3317 203.568 57.9561 204.331 58.4071C205.094 58.8408 205.953 59.0576 206.907 59.0576ZM212.058 60.5667V56.4557L212.241 53.6977L211.98 50.9398V41.2609H213.828V60.5667H212.058ZM227.012 60.5667V57.5485L226.934 57.0541V52.0065C226.934 50.8444 226.605 49.9511 225.945 49.3266C225.304 48.7022 224.341 48.39 223.057 48.39C222.173 48.39 221.331 48.5374 220.534 48.8323C219.736 49.1271 219.059 49.5174 218.504 50.0031L217.671 48.6241C218.365 48.0344 219.198 47.5834 220.169 47.2712C221.141 46.9416 222.164 46.7768 223.239 46.7768C225.009 46.7768 226.37 47.2191 227.324 48.1038C228.296 48.971 228.781 50.298 228.781 52.0846V60.5667H227.012ZM222.303 60.6967C221.279 60.6967 220.386 60.532 219.623 60.2024C218.877 59.8555 218.305 59.3871 217.906 58.7974C217.507 58.1903 217.307 57.4965 217.307 56.7159C217.307 56.0047 217.472 55.3629 217.802 54.7905C218.149 54.2008 218.704 53.7324 219.467 53.3855C220.247 53.0213 221.288 52.8391 222.589 52.8391H227.298V54.2181H222.641C221.323 54.2181 220.403 54.4523 219.883 54.9206C219.38 55.389 219.129 55.97 219.129 56.6639C219.129 57.4444 219.432 58.0689 220.039 58.5372C220.646 59.0055 221.496 59.2397 222.589 59.2397C223.63 59.2397 224.523 59.0055 225.269 58.5372C226.032 58.0515 226.587 57.3577 226.934 56.4557L227.35 57.7306C227.003 58.6326 226.396 59.3525 225.529 59.8902C224.679 60.4279 223.604 60.6967 222.303 60.6967ZM233.129 65.7443C232.487 65.7443 231.871 65.6403 231.281 65.4321C230.709 65.224 230.214 64.9118 229.798 64.4955L230.657 63.1165C231.004 63.446 231.377 63.6976 231.776 63.871C232.192 64.0618 232.652 64.1572 233.155 64.1572C233.762 64.1572 234.282 63.9838 234.716 63.6368C235.167 63.3073 235.592 62.7175 235.991 61.8676L236.875 59.8641L237.083 59.5779L242.703 46.9069H244.525L237.682 62.2058C237.3 63.0905 236.875 63.793 236.407 64.3133C235.956 64.8337 235.462 65.198 234.924 65.4061C234.386 65.6316 233.788 65.7443 233.129 65.7443ZM236.771 60.9569L230.475 46.9069H232.4L237.968 59.4479L236.771 60.9569Z" fill="#36454F"/>
<path d="M107.929 122.899H116.444V124.658L113.974 125.027L117.551 137.828L118.204 140.979L118.857 137.828L121.894 127.44L121.099 125.027L119.226 124.658V122.899H128.11V124.658L125.385 125.027L128.933 137.828L129.699 141.235L130.295 137.828L133.531 125.027L130.976 124.658V122.899H137.817V124.658L136 125.027L130.607 144.13H126.861L122.944 130.874L119.197 144.13H115.507L109.66 125.056L107.929 124.658V122.899ZM145.157 144.3C142.659 144.3 140.795 143.571 139.565 142.114C138.354 140.638 137.749 138.633 137.749 136.097C137.749 134.394 138.061 132.918 138.686 131.669C139.329 130.42 140.228 129.465 141.382 128.802C142.536 128.14 143.87 127.809 145.384 127.809C147.276 127.809 148.733 128.31 149.755 129.313C150.777 130.297 151.307 131.707 151.345 133.543C151.345 134.791 151.269 135.719 151.118 136.324H141.893C141.969 138.046 142.375 139.39 143.113 140.355C143.851 141.301 144.902 141.774 146.264 141.774C147.002 141.774 147.759 141.651 148.535 141.405C149.33 141.159 149.954 140.866 150.408 140.525L151.118 142.086C150.607 142.635 149.774 143.146 148.62 143.619C147.485 144.073 146.33 144.3 145.157 144.3ZM147.371 134.621C147.409 134.091 147.428 133.684 147.428 133.401C147.428 130.884 146.586 129.626 144.902 129.626C143.974 129.626 143.255 129.995 142.744 130.733C142.234 131.47 141.95 132.767 141.893 134.621H147.371ZM156.42 125.623C155.739 125.623 155.199 125.425 154.802 125.027C154.405 124.63 154.206 124.119 154.206 123.495C154.206 122.776 154.433 122.179 154.887 121.706C155.341 121.233 155.947 120.997 156.704 120.997C157.461 120.997 158.038 121.205 158.435 121.621C158.833 122.019 159.031 122.52 159.031 123.126C159.031 123.883 158.804 124.488 158.35 124.942C157.896 125.396 157.262 125.623 156.448 125.623H156.42ZM154.916 130.903L152.9 130.364V128.462L158.095 127.837H158.151L158.946 128.405V142.058L160.848 142.285V143.988H152.929V142.285L154.916 142.029V130.903ZM169.184 151.651C166.648 151.651 164.813 151.254 163.677 150.459C162.542 149.665 161.974 148.586 161.974 147.224C161.974 146.448 162.23 145.71 162.74 145.01C163.27 144.328 163.904 143.817 164.642 143.477C163.772 142.966 163.337 142.152 163.337 141.036C163.337 140.392 163.545 139.787 163.961 139.219C164.377 138.633 164.917 138.179 165.579 137.857C164.538 137.459 163.762 136.854 163.251 136.04C162.74 135.227 162.485 134.262 162.485 133.145C162.485 132.067 162.797 131.13 163.422 130.335C164.065 129.521 164.917 128.897 165.976 128.462C167.055 128.027 168.219 127.809 169.467 127.809C171.681 127.809 173.328 128.235 174.406 129.086C174.652 128.765 175.069 128.462 175.655 128.178C176.242 127.894 176.847 127.752 177.472 127.752H178.465V130.846H175.542C175.825 131.452 175.967 132.095 175.967 132.776C175.986 134.498 175.381 135.879 174.151 136.92C172.921 137.942 171.237 138.453 169.098 138.453C168.209 138.453 167.462 138.387 166.856 138.254C166.667 138.5 166.516 138.765 166.402 139.049C166.307 139.314 166.26 139.55 166.26 139.759C166.26 140.383 166.478 140.809 166.913 141.036C167.367 141.263 168.171 141.376 169.326 141.376H172.363C176.223 141.376 178.153 142.777 178.153 145.577C178.153 146.75 177.737 147.801 176.904 148.728C176.071 149.655 174.964 150.374 173.583 150.885C172.202 151.396 170.735 151.651 169.184 151.651ZM169.382 136.693C171.142 136.693 172.022 135.492 172.022 133.088C172.022 131.858 171.795 130.96 171.341 130.392C170.906 129.805 170.234 129.512 169.326 129.512C168.436 129.512 167.746 129.805 167.254 130.392C166.78 130.96 166.544 131.821 166.544 132.975C166.544 135.454 167.49 136.693 169.382 136.693ZM169.609 149.693C170.802 149.693 171.833 149.4 172.703 148.813C173.574 148.245 174.009 147.451 174.009 146.429C174.009 145.615 173.791 145.029 173.356 144.669C172.94 144.309 172.183 144.13 171.085 144.13H167.992C167.518 144.13 167.083 144.101 166.686 144.045C166.175 144.726 165.919 145.539 165.919 146.486C165.919 147.526 166.203 148.321 166.771 148.87C167.339 149.419 168.285 149.693 169.609 149.693ZM180.738 123.239L178.581 122.87V121.337L183.86 120.713H183.945L184.683 121.252L184.712 127.582L184.513 130.051C185.1 129.521 185.894 129.029 186.897 128.575C187.919 128.121 188.988 127.894 190.105 127.894C191.297 127.894 192.224 128.121 192.886 128.575C193.548 129.011 194.012 129.682 194.277 130.591C194.542 131.499 194.674 132.71 194.674 134.224V142.029L196.491 142.285V143.988H189.026V142.285L190.672 142.029V134.224C190.672 133.24 190.606 132.473 190.474 131.925C190.341 131.376 190.095 130.969 189.736 130.704C189.395 130.439 188.884 130.307 188.203 130.307C187.616 130.307 187.011 130.449 186.386 130.733C185.781 130.997 185.241 131.319 184.768 131.698V142.029L186.5 142.285V143.988H179.148V142.285L180.738 142.058V123.239ZM202.62 144.243C201.428 144.243 200.548 143.969 199.98 143.42C199.412 142.871 199.128 142.001 199.128 140.809V130.392H197.283V128.916C197.435 128.859 197.709 128.765 198.107 128.632C198.504 128.481 198.807 128.358 199.015 128.263C199.337 128.017 199.611 127.591 199.838 126.986C200.008 126.588 200.321 125.604 200.775 124.034H203.045L203.159 128.206H207.502V130.392H203.187V138.368C203.187 139.427 203.216 140.175 203.272 140.61C203.329 141.045 203.452 141.329 203.641 141.462C203.831 141.575 204.162 141.632 204.635 141.632C205.108 141.632 205.6 141.585 206.111 141.49C206.622 141.376 207.048 141.244 207.388 141.093L207.927 142.682C207.398 143.08 206.622 143.439 205.6 143.761C204.578 144.082 203.585 144.243 202.62 144.243ZM217.138 125.027L214.953 124.658V122.899H224.036V124.658L221.311 125.027V141.973L227.385 141.717L229.173 136.409L231.472 136.722L230.592 143.988H214.896V142.285L217.138 142.001V125.027ZM232.57 136.125C232.57 134.347 232.92 132.833 233.621 131.584C234.34 130.335 235.295 129.398 236.487 128.774C237.68 128.131 238.976 127.809 240.376 127.809C242.76 127.809 244.596 128.547 245.882 130.023C247.188 131.48 247.841 133.467 247.841 135.984C247.841 137.781 247.481 139.314 246.762 140.582C246.062 141.831 245.116 142.767 243.924 143.392C242.751 143.997 241.455 144.3 240.035 144.3C237.67 144.3 235.835 143.571 234.529 142.114C233.223 140.638 232.57 138.642 232.57 136.125ZM240.262 142.455C242.401 142.455 243.47 140.392 243.47 136.267C243.47 134.11 243.214 132.473 242.703 131.357C242.193 130.222 241.36 129.654 240.206 129.654C238.011 129.654 236.913 131.716 236.913 135.842C236.913 137.999 237.178 139.645 237.708 140.78C238.257 141.897 239.108 142.455 240.262 142.455ZM253.004 141.66C253.156 141.887 253.496 142.105 254.026 142.313C254.575 142.502 255.124 142.597 255.672 142.597C256.562 142.597 257.224 142.417 257.659 142.058C258.113 141.679 258.34 141.187 258.34 140.582C258.34 139.957 258.066 139.456 257.517 139.077C256.968 138.68 256.041 138.197 254.736 137.63L253.941 137.289C252.635 136.74 251.661 136.078 251.017 135.302C250.374 134.526 250.052 133.524 250.052 132.294C250.052 131.442 250.308 130.685 250.819 130.023C251.33 129.342 252.049 128.812 252.976 128.433C253.903 128.055 254.972 127.866 256.183 127.866C257.073 127.866 257.829 127.923 258.454 128.036C259.097 128.15 259.769 128.301 260.469 128.49C260.848 128.623 261.131 128.698 261.321 128.717V132.436H259.078L258.426 130.278C258.312 130.089 258.057 129.919 257.659 129.767C257.262 129.616 256.808 129.54 256.297 129.54C255.521 129.54 254.896 129.711 254.423 130.051C253.969 130.373 253.742 130.827 253.742 131.414C253.742 131.944 253.903 132.388 254.225 132.748C254.546 133.088 254.896 133.353 255.275 133.543C255.653 133.732 256.353 134.044 257.375 134.479C258.397 134.914 259.239 135.331 259.901 135.728C260.583 136.125 261.141 136.646 261.576 137.289C262.03 137.914 262.257 138.68 262.257 139.588C262.257 140.989 261.709 142.124 260.611 142.994C259.514 143.865 257.934 144.3 255.871 144.3C254.906 144.3 254.035 144.215 253.26 144.045C252.503 143.874 251.623 143.647 250.62 143.363L249.995 143.165V139.418H252.351L253.004 141.66ZM267.155 141.66C267.306 141.887 267.647 142.105 268.177 142.313C268.726 142.502 269.274 142.597 269.823 142.597C270.713 142.597 271.375 142.417 271.81 142.058C272.264 141.679 272.491 141.187 272.491 140.582C272.491 139.957 272.217 139.456 271.668 139.077C271.119 138.68 270.192 138.197 268.887 137.63L268.092 137.289C266.786 136.74 265.812 136.078 265.168 135.302C264.525 134.526 264.203 133.524 264.203 132.294C264.203 131.442 264.459 130.685 264.97 130.023C265.48 129.342 266.2 128.812 267.127 128.433C268.054 128.055 269.123 127.866 270.334 127.866C271.223 127.866 271.98 127.923 272.605 128.036C273.248 128.15 273.92 128.301 274.62 128.49C274.999 128.623 275.282 128.698 275.472 128.717V132.436H273.229L272.576 130.278C272.463 130.089 272.207 129.919 271.81 129.767C271.413 129.616 270.959 129.54 270.448 129.54C269.672 129.54 269.047 129.711 268.574 130.051C268.12 130.373 267.893 130.827 267.893 131.414C267.893 131.944 268.054 132.388 268.376 132.748C268.697 133.088 269.047 133.353 269.426 133.543C269.804 133.732 270.504 134.044 271.526 134.479C272.548 134.914 273.39 135.331 274.052 135.728C274.734 136.125 275.292 136.646 275.727 137.289C276.181 137.914 276.408 138.68 276.408 139.588C276.408 140.989 275.86 142.124 274.762 142.994C273.664 143.865 272.084 144.3 270.022 144.3C269.057 144.3 268.186 144.215 267.411 144.045C266.654 143.874 265.774 143.647 264.771 143.363L264.146 143.165V139.418H266.502L267.155 141.66Z" fill="#36454F"/>
<g filter="url(#filter0_d_1_501)">
<rect x="136.824" y="165.66" width="112.353" height="112.353" rx="56.1765" fill="white"/>
<path d="M168.613 218.215C167.592 218.215 166.639 218.051 165.756 217.723C164.886 217.383 164.129 216.903 163.485 216.285C162.842 215.667 162.337 214.942 161.971 214.109C161.618 213.277 161.442 212.362 161.442 211.365C161.442 210.369 161.618 209.454 161.971 208.622C162.337 207.789 162.842 207.064 163.485 206.445C164.141 205.827 164.904 205.354 165.775 205.026C166.645 204.686 167.598 204.515 168.632 204.515C169.78 204.515 170.815 204.717 171.736 205.121C172.669 205.512 173.451 206.092 174.082 206.862L172.114 208.678C171.66 208.161 171.155 207.776 170.6 207.524C170.045 207.259 169.44 207.127 168.784 207.127C168.165 207.127 167.598 207.228 167.081 207.429C166.563 207.631 166.116 207.921 165.737 208.3C165.359 208.678 165.062 209.126 164.848 209.643C164.646 210.161 164.545 210.735 164.545 211.365C164.545 211.996 164.646 212.57 164.848 213.087C165.062 213.605 165.359 214.052 165.737 214.431C166.116 214.809 166.563 215.099 167.081 215.301C167.598 215.503 168.165 215.604 168.784 215.604C169.44 215.604 170.045 215.478 170.6 215.226C171.155 214.961 171.66 214.563 172.114 214.033L174.082 215.85C173.451 216.62 172.669 217.206 171.736 217.61C170.815 218.014 169.774 218.215 168.613 218.215ZM175.565 217.988V207.808H178.385V210.684L177.988 209.852C178.29 209.133 178.776 208.59 179.445 208.224C180.113 207.846 180.927 207.657 181.886 207.657V210.381C181.759 210.369 181.646 210.362 181.545 210.362C181.444 210.35 181.337 210.344 181.223 210.344C180.416 210.344 179.76 210.577 179.255 211.044C178.763 211.498 178.517 212.211 178.517 213.182V217.988H175.565ZM188.241 218.14C187.08 218.14 186.058 217.913 185.175 217.458C184.305 217.004 183.63 216.386 183.151 215.604C182.671 214.809 182.432 213.907 182.432 212.898C182.432 211.876 182.665 210.974 183.132 210.192C183.611 209.397 184.261 208.779 185.081 208.338C185.901 207.884 186.828 207.657 187.862 207.657C188.859 207.657 189.755 207.871 190.549 208.3C191.357 208.716 191.994 209.322 192.461 210.116C192.927 210.899 193.161 211.838 193.161 212.936C193.161 213.049 193.154 213.182 193.142 213.333C193.129 213.472 193.117 213.605 193.104 213.731H184.835V212.009H191.552L190.417 212.52C190.417 211.99 190.31 211.529 190.095 211.138C189.881 210.747 189.584 210.444 189.206 210.23C188.827 210.003 188.386 209.889 187.881 209.889C187.377 209.889 186.929 210.003 186.538 210.23C186.159 210.444 185.863 210.754 185.648 211.157C185.434 211.548 185.327 212.015 185.327 212.557V213.012C185.327 213.567 185.447 214.059 185.686 214.488C185.939 214.904 186.285 215.226 186.727 215.453C187.181 215.667 187.711 215.774 188.316 215.774C188.859 215.774 189.332 215.692 189.736 215.528C190.152 215.364 190.53 215.118 190.871 214.79L192.442 216.493C191.975 217.023 191.388 217.433 190.682 217.723C189.975 218.001 189.162 218.14 188.241 218.14ZM200.715 217.988V216.001L200.526 215.566V212.009C200.526 211.378 200.33 210.886 199.939 210.533C199.56 210.18 198.974 210.003 198.179 210.003C197.637 210.003 197.101 210.091 196.571 210.268C196.054 210.432 195.612 210.659 195.246 210.949L194.186 208.887C194.742 208.495 195.41 208.193 196.192 207.978C196.974 207.764 197.769 207.657 198.577 207.657C200.128 207.657 201.333 208.022 202.191 208.754C203.049 209.486 203.477 210.627 203.477 212.179V217.988H200.715ZM197.611 218.14C196.817 218.14 196.136 218.007 195.568 217.742C195 217.465 194.565 217.093 194.262 216.626C193.959 216.159 193.808 215.636 193.808 215.055C193.808 214.45 193.953 213.92 194.243 213.466C194.546 213.012 195.019 212.658 195.662 212.406C196.306 212.141 197.145 212.009 198.179 212.009H200.885V213.731H198.501C197.807 213.731 197.328 213.844 197.063 214.071C196.81 214.298 196.684 214.582 196.684 214.923C196.684 215.301 196.829 215.604 197.119 215.831C197.422 216.046 197.832 216.153 198.349 216.153C198.841 216.153 199.283 216.039 199.674 215.812C200.065 215.572 200.349 215.226 200.526 214.771L200.98 216.134C200.765 216.79 200.374 217.288 199.806 217.629C199.239 217.969 198.507 218.14 197.611 218.14ZM209.934 218.14C208.735 218.14 207.802 217.837 207.133 217.231C206.464 216.613 206.13 215.699 206.13 214.488V205.556H209.082V214.45C209.082 214.879 209.196 215.213 209.423 215.453C209.65 215.68 209.959 215.793 210.35 215.793C210.817 215.793 211.214 215.667 211.542 215.415L212.337 217.496C212.034 217.711 211.668 217.875 211.239 217.988C210.823 218.089 210.388 218.14 209.934 218.14ZM204.56 210.306V208.035H211.618V210.306H204.56ZM218.354 218.14C217.193 218.14 216.171 217.913 215.288 217.458C214.418 217.004 213.743 216.386 213.263 215.604C212.784 214.809 212.544 213.907 212.544 212.898C212.544 211.876 212.778 210.974 213.244 210.192C213.724 209.397 214.374 208.779 215.194 208.338C216.014 207.884 216.941 207.657 217.975 207.657C218.972 207.657 219.867 207.871 220.662 208.3C221.47 208.716 222.107 209.322 222.573 210.116C223.04 210.899 223.273 211.838 223.273 212.936C223.273 213.049 223.267 213.182 223.255 213.333C223.242 213.472 223.229 213.605 223.217 213.731H214.948V212.009H221.665L220.53 212.52C220.53 211.99 220.422 211.529 220.208 211.138C219.994 210.747 219.697 210.444 219.319 210.23C218.94 210.003 218.499 209.889 217.994 209.889C217.489 209.889 217.042 210.003 216.651 210.23C216.272 210.444 215.976 210.754 215.761 211.157C215.547 211.548 215.44 212.015 215.44 212.557V213.012C215.44 213.567 215.559 214.059 215.799 214.488C216.051 214.904 216.398 215.226 216.84 215.453C217.294 215.667 217.824 215.774 218.429 215.774C218.972 215.774 219.445 215.692 219.848 215.528C220.265 215.364 220.643 215.118 220.984 214.79L222.554 216.493C222.088 217.023 221.501 217.433 220.795 217.723C220.088 218.001 219.274 218.14 218.354 218.14Z" fill="#36454F"/>
<path d="M199.116 233.558C200.147 233.558 200.982 234.393 200.982 235.424C200.982 236.454 200.147 237.29 199.116 237.29H186.291C185.26 237.29 184.425 236.454 184.425 235.424C184.425 234.393 185.26 233.558 186.291 233.558H199.116ZM194.587 241.819C194.587 242.849 193.752 243.685 192.721 243.685C191.691 243.685 190.855 242.849 190.855 241.819V228.994C190.855 227.963 191.691 227.128 192.721 227.128C193.752 227.128 194.587 227.963 194.587 228.994V241.819Z" fill="#36454F"/>
</g>
<rect x="1.113" y="1.56515" width="383.774" height="382" rx="24.5402" stroke="url(#paint0_linear_1_501)" stroke-width="1.77399"/>
<defs>
<filter id="filter0_d_1_501" x="128.545" y="159.746" width="128.91" height="128.91" filterUnits="userSpaceOnUse" color-interpolation-filters="sRGB">
<feFlood flood-opacity="0" result="BackgroundImageFix"/>
<feColorMatrix in="SourceAlpha" type="matrix" values="0 0 0 0 0 0 0 0 0 0 0 0 0 0 0 0 0 0 127 0" result="hardAlpha"/>
<feOffset dy="2.36533"/>
<feGaussianBlur stdDeviation="4.13932"/>
<feComposite in2="hardAlpha" operator="out"/>
<feColorMatrix type="matrix" values="0 0 0 0 0 0 0 0 0 0 0 0 0 0 0 0 0 0 0.2 0"/>
<feBlend mode="normal" in2="BackgroundImageFix" result="effect1_dropShadow_1_501"/>
<feBlend mode="normal" in="SourceGraphic" in2="effect1_dropShadow_1_501" result="shape"/>
</filter>
<linearGradient id="paint0_linear_1_501" x1="395.235" y1="2.45215" x2="2.00002" y2="391.548" gradientUnits="userSpaceOnUse">
<stop offset="0.0001" stop-color="#0038FF"/>
<stop offset="0.405" stop-color="#C60083"/>
<stop offset="0.685" stop-color="#FFC700"/>
<stop offset="1" stop-color="#FF0000"/>
</linearGradient>
<clipPath id="clip0_1_501">
<rect width="19.5139" height="19.5139" fill="white" transform="translate(25.6539 321.179)"/>
</clipPath>
</defs>
</svg>
