<svg width="386" height="385" viewBox="0 0 386 385" fill="none" xmlns="http://www.w3.org/2000/svg">
<rect x="2" y="2.67822" width="382" height="380.226" rx="23.6533" fill="#EAEAEA"/>
<rect x="18.5573" y="311.945" width="348.885" height="37.8452" rx="9.4613" fill="#FFF7F7"/>
<g clip-path="url(#clip0_1_518)">
<path d="M35.0822 325.481C34.1427 324.541 33.4997 322.9 33.1806 321.407C32.861 322.9 32.2186 324.542 31.2788 325.482C30.3393 326.421 28.6976 327.064 27.2046 327.384C28.6982 327.703 30.3396 328.345 31.2791 329.285C32.2186 330.225 32.8616 331.866 33.1812 333.36C33.5003 331.866 34.1432 330.225 35.0825 329.285C36.022 328.345 37.6637 327.702 39.1567 327.383C37.6634 327.064 36.0221 326.421 35.0822 325.481Z" fill="#000AFF"/>
<path d="M41.1851 333.006C40.6243 332.445 40.2395 331.464 40.0488 330.572C39.8578 331.464 39.4743 332.445 38.9129 333.006C38.3515 333.567 37.3707 333.951 36.4789 334.142C37.371 334.333 38.3515 334.717 38.9129 335.279C39.4743 335.84 39.8585 336.821 40.0495 337.713C40.2401 336.82 40.6243 335.84 41.1853 335.278C41.7464 334.717 42.7274 334.333 43.6191 334.142C42.7274 333.951 41.7465 333.567 41.1851 333.006Z" fill="#000AFF"/>
<path d="M31.233 334.925C31.0726 335.674 30.7506 336.498 30.2794 336.969C29.8083 337.44 28.9848 337.763 28.2361 337.923C28.9848 338.084 29.8083 338.405 30.2794 338.877C30.7506 339.348 31.0733 340.171 31.2336 340.92C31.3938 340.171 31.7159 339.348 32.1873 338.877C32.6582 338.405 33.4818 338.083 34.2304 337.922C33.4818 337.762 32.6582 337.44 32.187 336.969C31.7159 336.498 31.3932 335.674 31.233 334.925Z" fill="#000AFF"/>
</g>
<rect x="51.0807" y="323.771" width="1.77399" height="14.7833" fill="black"/>
<path d="M125.004 60.7931L118.864 42.5801H120.841L126.591 59.7263H125.602L131.535 42.5801H133.304L139.158 59.7263H138.221L144.024 42.5801H145.871L139.731 60.7931H137.701L132.107 44.5315H132.627L127.007 60.7931H125.004ZM153.251 60.9232C151.828 60.9232 150.58 60.6283 149.504 60.0386C148.429 59.4315 147.587 58.6075 146.98 57.5668C146.373 56.5087 146.07 55.3032 146.07 53.9502C146.07 52.5972 146.356 51.4004 146.928 50.3596C147.518 49.3189 148.316 48.5036 149.322 47.9139C150.345 47.3068 151.49 47.0032 152.756 47.0032C154.04 47.0032 155.176 47.2981 156.165 47.8879C157.171 48.4603 157.96 49.2755 158.533 50.3336C159.105 51.3744 159.391 52.5799 159.391 53.9502C159.391 54.0369 159.383 54.1323 159.365 54.2364C159.365 54.3231 159.365 54.4185 159.365 54.5226H147.475V53.1436H158.376L157.648 53.69C157.648 52.7013 157.431 51.8254 156.998 51.0621C156.581 50.2816 156.009 49.6745 155.28 49.2408C154.552 48.8072 153.71 48.5904 152.756 48.5904C151.82 48.5904 150.979 48.8072 150.233 49.2408C149.487 49.6745 148.906 50.2816 148.489 51.0621C148.073 51.8427 147.865 52.736 147.865 53.7421V54.0283C147.865 55.069 148.09 55.9883 148.541 56.7862C149.01 57.5668 149.652 58.1826 150.467 58.6335C151.299 59.0672 152.245 59.284 153.303 59.284C154.135 59.284 154.907 59.1366 155.619 58.8417C156.347 58.5468 156.971 58.0958 157.492 57.4887L158.533 58.6856C157.926 59.4141 157.162 59.9692 156.243 60.3508C155.341 60.7324 154.344 60.9232 153.251 60.9232ZM168.069 60.9232C166.768 60.9232 165.597 60.6283 164.556 60.0386C163.533 59.4488 162.726 58.6335 162.137 57.5928C161.547 56.5347 161.252 55.3205 161.252 53.9502C161.252 52.5625 161.547 51.3483 162.137 50.3076C162.726 49.2669 163.533 48.4603 164.556 47.8879C165.597 47.2981 166.768 47.0032 168.069 47.0032C169.266 47.0032 170.332 47.2721 171.269 47.8098C172.223 48.3475 172.978 49.1368 173.533 50.1775C174.105 51.2009 174.391 52.4585 174.391 53.9502C174.391 55.4246 174.114 56.6822 173.559 57.7229C173.004 58.7636 172.249 59.5615 171.295 60.1166C170.358 60.6543 169.283 60.9232 168.069 60.9232ZM168.199 59.284C169.17 59.284 170.038 59.0672 170.801 58.6335C171.581 58.1826 172.188 57.5581 172.622 56.7602C173.073 55.945 173.299 55.0083 173.299 53.9502C173.299 52.8748 173.073 51.9381 172.622 51.1402C172.188 50.3423 171.581 49.7265 170.801 49.2929C170.038 48.8419 169.17 48.6164 168.199 48.6164C167.245 48.6164 166.386 48.8419 165.623 49.2929C164.86 49.7265 164.253 50.3423 163.802 51.1402C163.351 51.9381 163.125 52.8748 163.125 53.9502C163.125 55.0083 163.351 55.945 163.802 56.7602C164.253 57.5581 164.86 58.1826 165.623 58.6335C166.386 59.0672 167.245 59.284 168.199 59.284ZM173.351 60.7931V56.6822L173.533 53.9242L173.273 51.1662V41.4873H175.12V60.7931H173.351ZM186.717 47.0032C187.827 47.0032 188.799 47.2201 189.631 47.6537C190.481 48.07 191.14 48.7118 191.609 49.5791C192.094 50.4464 192.337 51.5391 192.337 52.8574V60.7931H190.49V53.0396C190.49 51.5999 190.126 50.5158 189.397 49.7872C188.686 49.0414 187.68 48.6684 186.379 48.6684C185.408 48.6684 184.558 48.8679 183.829 49.2669C183.118 49.6485 182.563 50.2122 182.164 50.9581C181.782 51.6866 181.592 52.5712 181.592 53.612V60.7931H179.744V47.1333H181.514V50.88L181.227 50.1775C181.661 49.1888 182.355 48.4169 183.309 47.8619C184.263 47.2894 185.399 47.0032 186.717 47.0032ZM202.609 60.9232C201.187 60.9232 199.938 60.6283 198.862 60.0386C197.787 59.4315 196.946 58.6075 196.338 57.5668C195.731 56.5087 195.428 55.3032 195.428 53.9502C195.428 52.5972 195.714 51.4004 196.286 50.3596C196.876 49.3189 197.674 48.5036 198.68 47.9139C199.703 47.3068 200.848 47.0032 202.115 47.0032C203.398 47.0032 204.534 47.2981 205.523 47.8879C206.529 48.4603 207.318 49.2755 207.891 50.3336C208.463 51.3744 208.749 52.5799 208.749 53.9502C208.749 54.0369 208.741 54.1323 208.723 54.2364C208.723 54.3231 208.723 54.4185 208.723 54.5226H196.833V53.1436H207.735L207.006 53.69C207.006 52.7013 206.789 51.8254 206.356 51.0621C205.939 50.2816 205.367 49.6745 204.638 49.2408C203.91 48.8072 203.069 48.5904 202.115 48.5904C201.178 48.5904 200.337 48.8072 199.591 49.2408C198.845 49.6745 198.264 50.2816 197.847 51.0621C197.431 51.8427 197.223 52.736 197.223 53.7421V54.0283C197.223 55.069 197.449 55.9883 197.9 56.7862C198.368 57.5668 199.01 58.1826 199.825 58.6335C200.658 59.0672 201.603 59.284 202.661 59.284C203.494 59.284 204.265 59.1366 204.977 58.8417C205.705 58.5468 206.33 58.0958 206.85 57.4887L207.891 58.6856C207.284 59.4141 206.52 59.9692 205.601 60.3508C204.699 60.7324 203.702 60.9232 202.609 60.9232ZM215.658 60.9232C214.53 60.9232 213.463 60.7671 212.457 60.4548C211.451 60.1253 210.662 59.7177 210.09 59.232L210.922 57.7749C211.477 58.1912 212.188 58.5555 213.056 58.8677C213.923 59.1626 214.834 59.31 215.788 59.31C217.089 59.31 218.025 59.1106 218.598 58.7116C219.17 58.2953 219.456 57.7489 219.456 57.0724C219.456 56.5694 219.292 56.1791 218.962 55.9016C218.65 55.6067 218.233 55.3899 217.713 55.2511C217.193 55.095 216.612 54.9649 215.97 54.8609C215.328 54.7568 214.686 54.6354 214.044 54.4966C213.42 54.3578 212.848 54.1584 212.327 53.8982C211.807 53.6206 211.382 53.2477 211.052 52.7794C210.74 52.311 210.584 51.6866 210.584 50.906C210.584 50.1602 210.792 49.4924 211.208 48.9026C211.625 48.3128 212.232 47.8532 213.03 47.5236C213.845 47.1767 214.834 47.0032 215.996 47.0032C216.88 47.0032 217.765 47.1247 218.65 47.3675C219.534 47.593 220.263 47.8965 220.835 48.2782L220.029 49.7612C219.422 49.3449 218.771 49.05 218.077 48.8766C217.384 48.6858 216.69 48.5904 215.996 48.5904C214.764 48.5904 213.854 48.8072 213.264 49.2408C212.691 49.6571 212.405 50.1949 212.405 50.854C212.405 51.3744 212.561 51.782 212.874 52.0769C213.203 52.3717 213.628 52.6059 214.149 52.7794C214.686 52.9355 215.267 53.0656 215.892 53.1696C216.534 53.2737 217.167 53.4038 217.791 53.5599C218.433 53.6987 219.014 53.8982 219.534 54.1584C220.072 54.4012 220.497 54.7568 220.809 55.2251C221.139 55.6761 221.304 56.2745 221.304 57.0204C221.304 57.8183 221.078 58.5121 220.627 59.1019C220.194 59.6743 219.552 60.1253 218.702 60.4548C217.869 60.7671 216.854 60.9232 215.658 60.9232ZM229.611 60.9232C228.31 60.9232 227.139 60.6283 226.098 60.0386C225.075 59.4488 224.268 58.6335 223.679 57.5928C223.089 56.5347 222.794 55.3205 222.794 53.9502C222.794 52.5625 223.089 51.3483 223.679 50.3076C224.268 49.2669 225.075 48.4603 226.098 47.8879C227.139 47.2981 228.31 47.0032 229.611 47.0032C230.808 47.0032 231.875 47.2721 232.811 47.8098C233.765 48.3475 234.52 49.1368 235.075 50.1775C235.647 51.2009 235.933 52.4585 235.933 53.9502C235.933 55.4246 235.656 56.6822 235.101 57.7229C234.546 58.7636 233.791 59.5615 232.837 60.1166C231.901 60.6543 230.825 60.9232 229.611 60.9232ZM229.741 59.284C230.712 59.284 231.58 59.0672 232.343 58.6335C233.123 58.1826 233.73 57.5581 234.164 56.7602C234.615 55.945 234.841 55.0083 234.841 53.9502C234.841 52.8748 234.615 51.9381 234.164 51.1402C233.73 50.3423 233.123 49.7265 232.343 49.2929C231.58 48.8419 230.712 48.6164 229.741 48.6164C228.787 48.6164 227.928 48.8419 227.165 49.2929C226.402 49.7265 225.795 50.3423 225.344 51.1402C224.893 51.9381 224.667 52.8748 224.667 53.9502C224.667 55.0083 224.893 55.945 225.344 56.7602C225.795 57.5581 226.402 58.1826 227.165 58.6335C227.928 59.0672 228.787 59.284 229.741 59.284ZM234.893 60.7931V56.6822L235.075 53.9242L234.815 51.1662V41.4873H236.662V60.7931H234.893ZM249.846 60.7931V57.7749L249.768 57.2806V52.233C249.768 51.0708 249.439 50.1775 248.78 49.5531C248.138 48.9286 247.175 48.6164 245.892 48.6164C245.007 48.6164 244.166 48.7638 243.368 49.0587C242.57 49.3536 241.893 49.7439 241.338 50.2295L240.506 48.8506C241.2 48.2608 242.032 47.8098 243.004 47.4976C243.975 47.168 244.998 47.0032 246.074 47.0032C247.843 47.0032 249.205 47.4456 250.159 48.3302C251.13 49.1975 251.616 50.5244 251.616 52.311V60.7931H249.846ZM245.137 60.9232C244.114 60.9232 243.22 60.7584 242.457 60.4288C241.711 60.0819 241.139 59.6136 240.74 59.0238C240.341 58.4167 240.142 57.7229 240.142 56.9423C240.142 56.2312 240.306 55.5894 240.636 55.017C240.983 54.4272 241.538 53.9589 242.301 53.612C243.082 53.2477 244.122 53.0656 245.423 53.0656H250.133V54.4446H245.475C244.157 54.4446 243.238 54.6787 242.717 55.1471C242.214 55.6154 241.963 56.1965 241.963 56.8903C241.963 57.6709 242.266 58.2953 242.873 58.7636C243.481 59.232 244.33 59.4661 245.423 59.4661C246.464 59.4661 247.357 59.232 248.103 58.7636C248.866 58.278 249.421 57.5841 249.768 56.6822L250.185 57.9571C249.838 58.859 249.231 59.5789 248.363 60.1166C247.513 60.6543 246.438 60.9232 245.137 60.9232ZM255.963 65.9708C255.321 65.9708 254.705 65.8667 254.116 65.6586C253.543 65.4504 253.049 65.1382 252.632 64.7219L253.491 63.3429C253.838 63.6725 254.211 63.924 254.61 64.0975C255.026 64.2883 255.486 64.3837 255.989 64.3837C256.596 64.3837 257.116 64.2102 257.55 63.8633C258.001 63.5337 258.426 62.944 258.825 62.094L259.71 60.0906L259.918 59.8044L265.538 47.1333H267.359L260.516 62.4323C260.134 63.3169 259.71 64.0194 259.241 64.5398C258.79 65.0601 258.296 65.4244 257.758 65.6325C257.22 65.858 256.622 65.9708 255.963 65.9708ZM259.605 61.1834L253.309 47.1333H255.234L260.802 59.6743L259.605 61.1834Z" fill="#333333"/>
<path d="M159.124 125.254L156.938 124.885V123.125H166.021V124.885L163.296 125.254V142.199L169.37 141.943L171.159 136.636L173.458 136.948L172.578 144.214H156.881V142.511L159.124 142.227V125.254ZM177.934 125.85C177.252 125.85 176.713 125.651 176.316 125.254C175.918 124.856 175.72 124.345 175.72 123.721C175.72 123.002 175.947 122.406 176.401 121.933C176.855 121.46 177.461 121.223 178.217 121.223C178.974 121.223 179.552 121.431 179.949 121.848C180.346 122.245 180.545 122.746 180.545 123.352C180.545 124.109 180.318 124.714 179.864 125.169C179.41 125.623 178.776 125.85 177.962 125.85H177.934ZM176.429 131.129L174.414 130.59V128.688L179.608 128.064H179.665L180.46 128.631V142.284L182.362 142.511V144.214H174.442V142.511L176.429 142.256V131.129ZM190.697 151.878C188.162 151.878 186.326 151.48 185.191 150.686C184.055 149.891 183.488 148.812 183.488 147.45C183.488 146.674 183.743 145.936 184.254 145.236C184.784 144.555 185.418 144.044 186.156 143.703C185.285 143.192 184.85 142.379 184.85 141.262C184.85 140.619 185.058 140.013 185.475 139.446C185.891 138.859 186.43 138.405 187.093 138.083C186.052 137.686 185.276 137.08 184.765 136.267C184.254 135.453 183.999 134.488 183.999 133.371C183.999 132.293 184.311 131.356 184.935 130.561C185.579 129.748 186.43 129.123 187.49 128.688C188.569 128.253 189.732 128.035 190.981 128.035C193.195 128.035 194.841 128.461 195.92 129.313C196.166 128.991 196.582 128.688 197.169 128.404C197.755 128.12 198.361 127.979 198.985 127.979H199.979V131.072H197.055C197.339 131.678 197.481 132.321 197.481 133.002C197.5 134.724 196.894 136.106 195.665 137.147C194.435 138.168 192.75 138.679 190.612 138.679C189.723 138.679 188.975 138.613 188.37 138.481C188.181 138.727 188.029 138.991 187.916 139.275C187.821 139.54 187.774 139.777 187.774 139.985C187.774 140.609 187.991 141.035 188.427 141.262C188.881 141.489 189.685 141.603 190.839 141.603H193.876C197.737 141.603 199.667 143.003 199.667 145.804C199.667 146.977 199.25 148.027 198.418 148.954C197.585 149.881 196.478 150.6 195.097 151.111C193.715 151.622 192.249 151.878 190.697 151.878ZM190.896 136.919C192.656 136.919 193.536 135.718 193.536 133.315C193.536 132.085 193.309 131.186 192.855 130.618C192.419 130.032 191.748 129.738 190.839 129.738C189.95 129.738 189.259 130.032 188.767 130.618C188.294 131.186 188.058 132.047 188.058 133.201C188.058 135.68 189.004 136.919 190.896 136.919ZM191.123 149.919C192.315 149.919 193.346 149.626 194.217 149.039C195.087 148.472 195.523 147.677 195.523 146.655C195.523 145.841 195.305 145.255 194.87 144.895C194.453 144.536 193.697 144.356 192.599 144.356H189.505C189.032 144.356 188.597 144.328 188.2 144.271C187.689 144.952 187.433 145.766 187.433 146.712C187.433 147.753 187.717 148.547 188.285 149.096C188.852 149.645 189.799 149.919 191.123 149.919ZM202.252 123.465L200.094 123.096V121.564L205.374 120.939H205.459L206.197 121.479L206.225 127.808L206.027 130.278C206.613 129.748 207.408 129.256 208.411 128.802C209.433 128.348 210.502 128.12 211.618 128.12C212.81 128.12 213.738 128.348 214.4 128.802C215.062 129.237 215.526 129.909 215.791 130.817C216.056 131.725 216.188 132.936 216.188 134.45V142.256L218.005 142.511V144.214H210.54V142.511L212.186 142.256V134.45C212.186 133.466 212.12 132.7 211.987 132.151C211.855 131.602 211.609 131.195 211.249 130.93C210.909 130.666 210.398 130.533 209.717 130.533C209.13 130.533 208.524 130.675 207.9 130.959C207.294 131.224 206.755 131.545 206.282 131.924V142.256L208.014 142.511V144.214H200.662V142.511L202.252 142.284V123.465ZM224.133 144.47C222.941 144.47 222.061 144.195 221.494 143.646C220.926 143.098 220.642 142.227 220.642 141.035V130.618H218.797V129.142C218.949 129.085 219.223 128.991 219.62 128.858C220.018 128.707 220.32 128.584 220.529 128.489C220.85 128.243 221.125 127.818 221.352 127.212C221.522 126.815 221.834 125.831 222.288 124.26H224.559L224.673 128.433H229.015V130.618H224.701V138.594C224.701 139.654 224.729 140.401 224.786 140.836C224.843 141.272 224.966 141.555 225.155 141.688C225.344 141.801 225.676 141.858 226.149 141.858C226.622 141.858 227.114 141.811 227.625 141.716C228.135 141.603 228.561 141.47 228.902 141.319L229.441 142.908C228.911 143.306 228.135 143.665 227.114 143.987C226.092 144.309 225.098 144.47 224.133 144.47Z" fill="#333333"/>
<g filter="url(#filter0_d_1_518)">
<rect x="136.824" y="165.886" width="112.353" height="112.353" rx="56.1765" fill="white"/>
<path d="M168.613 218.441C167.592 218.441 166.639 218.277 165.756 217.949C164.886 217.608 164.129 217.129 163.485 216.511C162.842 215.893 162.337 215.167 161.971 214.335C161.618 213.502 161.442 212.588 161.442 211.591C161.442 210.594 161.618 209.68 161.971 208.847C162.337 208.015 162.842 207.289 163.485 206.671C164.141 206.053 164.904 205.58 165.775 205.252C166.645 204.911 167.598 204.741 168.632 204.741C169.78 204.741 170.815 204.943 171.736 205.346C172.669 205.738 173.451 206.318 174.082 207.087L172.114 208.904C171.66 208.387 171.155 208.002 170.6 207.75C170.045 207.485 169.44 207.352 168.784 207.352C168.165 207.352 167.598 207.453 167.081 207.655C166.563 207.857 166.116 208.147 165.737 208.525C165.359 208.904 165.062 209.352 164.848 209.869C164.646 210.386 164.545 210.96 164.545 211.591C164.545 212.222 164.646 212.796 164.848 213.313C165.062 213.83 165.359 214.278 165.737 214.656C166.116 215.035 166.563 215.325 167.081 215.527C167.598 215.729 168.165 215.83 168.784 215.83C169.44 215.83 170.045 215.703 170.6 215.451C171.155 215.186 171.66 214.789 172.114 214.259L174.082 216.076C173.451 216.845 172.669 217.432 171.736 217.835C170.815 218.239 169.774 218.441 168.613 218.441ZM175.565 218.214V208.034H178.385V210.91L177.988 210.077C178.29 209.358 178.776 208.816 179.445 208.45C180.113 208.071 180.927 207.882 181.886 207.882V210.607C181.759 210.594 181.646 210.588 181.545 210.588C181.444 210.575 181.337 210.569 181.223 210.569C180.416 210.569 179.76 210.803 179.255 211.269C178.763 211.723 178.517 212.436 178.517 213.408V218.214H175.565ZM188.241 218.365C187.08 218.365 186.058 218.138 185.175 217.684C184.305 217.23 183.63 216.612 183.151 215.83C182.671 215.035 182.432 214.133 182.432 213.124C182.432 212.102 182.665 211.2 183.132 210.418C183.611 209.623 184.261 209.005 185.081 208.563C185.901 208.109 186.828 207.882 187.862 207.882C188.859 207.882 189.755 208.097 190.549 208.525C191.357 208.942 191.994 209.547 192.461 210.342C192.927 211.124 193.161 212.064 193.161 213.162C193.161 213.275 193.154 213.408 193.142 213.559C193.129 213.698 193.117 213.83 193.104 213.956H184.835V212.234H191.552L190.417 212.745C190.417 212.215 190.31 211.755 190.095 211.364C189.881 210.973 189.584 210.67 189.206 210.456C188.827 210.229 188.386 210.115 187.881 210.115C187.377 210.115 186.929 210.229 186.538 210.456C186.159 210.67 185.863 210.979 185.648 211.383C185.434 211.774 185.327 212.241 185.327 212.783V213.237C185.327 213.792 185.447 214.284 185.686 214.713C185.939 215.129 186.285 215.451 186.727 215.678C187.181 215.893 187.711 216 188.316 216C188.859 216 189.332 215.918 189.736 215.754C190.152 215.59 190.53 215.344 190.871 215.016L192.442 216.719C191.975 217.249 191.388 217.659 190.682 217.949C189.975 218.226 189.162 218.365 188.241 218.365ZM200.715 218.214V216.227L200.526 215.792V212.234C200.526 211.604 200.33 211.112 199.939 210.758C199.56 210.405 198.974 210.229 198.179 210.229C197.637 210.229 197.101 210.317 196.571 210.493C196.054 210.657 195.612 210.885 195.246 211.175L194.186 209.112C194.742 208.721 195.41 208.418 196.192 208.204C196.974 207.989 197.769 207.882 198.577 207.882C200.128 207.882 201.333 208.248 202.191 208.98C203.049 209.711 203.477 210.853 203.477 212.405V218.214H200.715ZM197.611 218.365C196.817 218.365 196.136 218.233 195.568 217.968C195 217.69 194.565 217.318 194.262 216.851C193.959 216.385 193.808 215.861 193.808 215.281C193.808 214.675 193.953 214.146 194.243 213.691C194.546 213.237 195.019 212.884 195.662 212.632C196.306 212.367 197.145 212.234 198.179 212.234H200.885V213.956H198.501C197.807 213.956 197.328 214.07 197.063 214.297C196.81 214.524 196.684 214.808 196.684 215.148C196.684 215.527 196.829 215.83 197.119 216.057C197.422 216.271 197.832 216.378 198.349 216.378C198.841 216.378 199.283 216.265 199.674 216.038C200.065 215.798 200.349 215.451 200.526 214.997L200.98 216.359C200.765 217.015 200.374 217.514 199.806 217.854C199.239 218.195 198.507 218.365 197.611 218.365ZM209.934 218.365C208.735 218.365 207.802 218.062 207.133 217.457C206.464 216.839 206.13 215.924 206.13 214.713V205.782H209.082V214.675C209.082 215.104 209.196 215.439 209.423 215.678C209.65 215.905 209.959 216.019 210.35 216.019C210.817 216.019 211.214 215.893 211.542 215.64L212.337 217.722C212.034 217.936 211.668 218.1 211.239 218.214C210.823 218.315 210.388 218.365 209.934 218.365ZM204.56 210.531V208.261H211.618V210.531H204.56ZM218.354 218.365C217.193 218.365 216.171 218.138 215.288 217.684C214.418 217.23 213.743 216.612 213.263 215.83C212.784 215.035 212.544 214.133 212.544 213.124C212.544 212.102 212.778 211.2 213.244 210.418C213.724 209.623 214.374 209.005 215.194 208.563C216.014 208.109 216.941 207.882 217.975 207.882C218.972 207.882 219.867 208.097 220.662 208.525C221.47 208.942 222.107 209.547 222.573 210.342C223.04 211.124 223.273 212.064 223.273 213.162C223.273 213.275 223.267 213.408 223.255 213.559C223.242 213.698 223.229 213.83 223.217 213.956H214.948V212.234H221.665L220.53 212.745C220.53 212.215 220.422 211.755 220.208 211.364C219.994 210.973 219.697 210.67 219.319 210.456C218.94 210.229 218.499 210.115 217.994 210.115C217.489 210.115 217.042 210.229 216.651 210.456C216.272 210.67 215.976 210.979 215.761 211.383C215.547 211.774 215.44 212.241 215.44 212.783V213.237C215.44 213.792 215.559 214.284 215.799 214.713C216.051 215.129 216.398 215.451 216.84 215.678C217.294 215.893 217.824 216 218.429 216C218.972 216 219.445 215.918 219.848 215.754C220.265 215.59 220.643 215.344 220.984 215.016L222.554 216.719C222.088 217.249 221.501 217.659 220.795 217.949C220.088 218.226 219.274 218.365 218.354 218.365Z" fill="#333333"/>
<path d="M199.116 233.783C200.147 233.783 200.982 234.619 200.982 235.649C200.982 236.68 200.147 237.515 199.116 237.515H186.291C185.26 237.515 184.425 236.68 184.425 235.649C184.425 234.619 185.26 233.783 186.291 233.783H199.116ZM194.587 242.044C194.587 243.075 193.752 243.91 192.721 243.91C191.691 243.91 190.855 243.075 190.855 242.044V229.219C190.855 228.189 191.691 227.353 192.721 227.353C193.752 227.353 194.587 228.189 194.587 229.219V242.044Z" fill="#333333"/>
</g>
<rect x="1.113" y="1.79098" width="383.774" height="382" rx="24.5402" stroke="url(#paint0_linear_1_518)" stroke-width="1.77399"/>
<defs>
<filter id="filter0_d_1_518" x="128.545" y="159.973" width="128.91" height="128.91" filterUnits="userSpaceOnUse" color-interpolation-filters="sRGB">
<feFlood flood-opacity="0" result="BackgroundImageFix"/>
<feColorMatrix in="SourceAlpha" type="matrix" values="0 0 0 0 0 0 0 0 0 0 0 0 0 0 0 0 0 0 127 0" result="hardAlpha"/>
<feOffset dy="2.36533"/>
<feGaussianBlur stdDeviation="4.13932"/>
<feComposite in2="hardAlpha" operator="out"/>
<feColorMatrix type="matrix" values="0 0 0 0 0 0 0 0 0 0 0 0 0 0 0 0 0 0 0.2 0"/>
<feBlend mode="normal" in2="BackgroundImageFix" result="effect1_dropShadow_1_518"/>
<feBlend mode="normal" in="SourceGraphic" in2="effect1_dropShadow_1_518" result="shape"/>
</filter>
<linearGradient id="paint0_linear_1_518" x1="395.235" y1="2.67798" x2="2.00002" y2="391.774" gradientUnits="userSpaceOnUse">
<stop offset="0.0001" stop-color="#0038FF"/>
<stop offset="0.405" stop-color="#C60083"/>
<stop offset="0.685" stop-color="#FFC700"/>
<stop offset="1" stop-color="#FF0000"/>
</linearGradient>
<clipPath id="clip0_1_518">
<rect width="19.5139" height="19.5139" fill="white" transform="translate(25.6539 321.406)"/>
</clipPath>
</defs>
</svg>
