<svg width="652" height="649" viewBox="0 0 652 649" fill="none" xmlns="http://www.w3.org/2000/svg">
<rect x="3" y="3" width="646" height="643" rx="40" fill="#EAEAEA"/>
<rect x="31" y="526" width="590" height="64" rx="16" fill="#FFF7F7"/>
<path d="M58.9428 548.89C57.354 547.301 56.2666 544.525 55.7269 542C55.1864 544.526 54.1001 547.302 52.5108 548.891C50.922 550.479 48.1457 551.567 45.621 552.108C48.1468 552.647 50.9225 553.734 52.5113 555.323C54.1 556.912 55.1875 559.688 55.728 562.214C56.2677 559.688 57.3548 556.912 58.9433 555.322C60.5321 553.734 63.3083 552.647 65.8331 552.106C63.3079 551.566 60.5321 550.479 58.9428 548.89Z" fill="#000AFF"/>
<path d="M69.2627 561.616C68.3144 560.667 67.6637 559.008 67.3413 557.499C67.0183 559.008 66.3698 560.667 65.4204 561.616C64.471 562.564 62.8123 563.215 61.3041 563.538C62.8129 563.86 64.471 564.51 65.4204 565.459C66.3698 566.408 67.0195 568.067 67.3424 569.575C67.6647 568.066 68.3144 566.408 69.2632 565.458C70.2121 564.51 71.871 563.86 73.3789 563.536C71.871 563.214 70.2121 562.564 69.2627 561.616Z" fill="#000AFF"/>
<path d="M52.4328 564.862C52.1617 566.128 51.6172 567.521 50.8203 568.318C50.0235 569.114 48.6309 569.66 47.3647 569.931C48.6309 570.203 50.0235 570.747 50.8203 571.544C51.6172 572.341 52.1628 573.733 52.4339 575C52.7048 573.733 53.2496 572.341 54.0467 571.544C54.843 570.747 56.2358 570.202 57.5017 569.93C56.2359 569.659 54.843 569.114 54.0462 568.318C53.2496 567.521 52.7037 566.128 52.4328 564.862Z" fill="#000AFF"/>
<rect x="86" y="546" width="3" height="25" fill="black"/>
<path d="M211.012 102L200.628 71.2H203.972L213.696 100.196H212.024L222.056 71.2H225.048L234.948 100.196H233.364L243.176 71.2H246.3L235.916 102H232.484L223.024 74.5H223.904L214.4 102H211.012ZM258.78 102.22C256.375 102.22 254.263 101.721 252.444 100.724C250.626 99.6973 249.203 98.304 248.176 96.544C247.15 94.7547 246.636 92.716 246.636 90.428C246.636 88.14 247.12 86.116 248.088 84.356C249.086 82.596 250.435 81.2173 252.136 80.22C253.867 79.1933 255.803 78.68 257.944 78.68C260.115 78.68 262.036 79.1787 263.708 80.176C265.41 81.144 266.744 82.5227 267.712 84.312C268.68 86.072 269.164 88.1107 269.164 90.428C269.164 90.5747 269.15 90.736 269.12 90.912C269.12 91.0587 269.12 91.22 269.12 91.396H249.012V89.064H267.448L266.216 89.988C266.216 88.316 265.85 86.8347 265.116 85.544C264.412 84.224 263.444 83.1973 262.212 82.464C260.98 81.7307 259.558 81.364 257.944 81.364C256.36 81.364 254.938 81.7307 253.676 82.464C252.415 83.1973 251.432 84.224 250.728 85.544C250.024 86.864 249.672 88.3747 249.672 90.076V90.56C249.672 92.32 250.054 93.8747 250.816 95.224C251.608 96.544 252.694 97.5853 254.072 98.348C255.48 99.0813 257.079 99.448 258.868 99.448C260.276 99.448 261.582 99.1987 262.784 98.7C264.016 98.2013 265.072 97.4387 265.952 96.412L267.712 98.436C266.686 99.668 265.395 100.607 263.84 101.252C262.315 101.897 260.628 102.22 258.78 102.22ZM283.839 102.22C281.639 102.22 279.659 101.721 277.899 100.724C276.168 99.7267 274.804 98.348 273.807 96.588C272.81 94.7987 272.311 92.7453 272.311 90.428C272.311 88.0813 272.81 86.028 273.807 84.268C274.804 82.508 276.168 81.144 277.899 80.176C279.659 79.1787 281.639 78.68 283.839 78.68C285.863 78.68 287.667 79.1347 289.251 80.044C290.864 80.9533 292.14 82.288 293.079 84.048C294.047 85.7787 294.531 87.9053 294.531 90.428C294.531 92.9213 294.062 95.048 293.123 96.808C292.184 98.568 290.908 99.9173 289.295 100.856C287.711 101.765 285.892 102.22 283.839 102.22ZM284.059 99.448C285.702 99.448 287.168 99.0813 288.459 98.348C289.779 97.5853 290.806 96.5293 291.539 95.18C292.302 93.8013 292.683 92.2173 292.683 90.428C292.683 88.6093 292.302 87.0253 291.539 85.676C290.806 84.3267 289.779 83.2853 288.459 82.552C287.168 81.7893 285.702 81.408 284.059 81.408C282.446 81.408 280.994 81.7893 279.703 82.552C278.412 83.2853 277.386 84.3267 276.623 85.676C275.86 87.0253 275.479 88.6093 275.479 90.428C275.479 92.2173 275.86 93.8013 276.623 95.18C277.386 96.5293 278.412 97.5853 279.703 98.348C280.994 99.0813 282.446 99.448 284.059 99.448ZM292.771 102V95.048L293.079 90.384L292.639 85.72V69.352H295.763V102H292.771ZM315.375 78.68C317.253 78.68 318.895 79.0467 320.303 79.78C321.741 80.484 322.855 81.5693 323.647 83.036C324.469 84.5027 324.879 86.3507 324.879 88.58V102H321.755V88.888C321.755 86.4533 321.139 84.62 319.907 83.388C318.705 82.1267 317.003 81.496 314.803 81.496C313.161 81.496 311.723 81.8333 310.491 82.508C309.289 83.1533 308.35 84.1067 307.675 85.368C307.03 86.6 306.707 88.096 306.707 89.856V102H303.583V78.9H306.575V85.236L306.091 84.048C306.825 82.376 307.998 81.0707 309.611 80.132C311.225 79.164 313.146 78.68 315.375 78.68ZM342.25 102.22C339.844 102.22 337.732 101.721 335.914 100.724C334.095 99.6973 332.672 98.304 331.646 96.544C330.619 94.7547 330.106 92.716 330.106 90.428C330.106 88.14 330.59 86.116 331.558 84.356C332.555 82.596 333.904 81.2173 335.606 80.22C337.336 79.1933 339.272 78.68 341.414 78.68C343.584 78.68 345.506 79.1787 347.178 80.176C348.879 81.144 350.214 82.5227 351.182 84.312C352.15 86.072 352.634 88.1107 352.634 90.428C352.634 90.5747 352.619 90.736 352.59 90.912C352.59 91.0587 352.59 91.22 352.59 91.396H332.482V89.064H350.918L349.686 89.988C349.686 88.316 349.319 86.8347 348.586 85.544C347.882 84.224 346.914 83.1973 345.682 82.464C344.45 81.7307 343.027 81.364 341.414 81.364C339.83 81.364 338.407 81.7307 337.146 82.464C335.884 83.1973 334.902 84.224 334.198 85.544C333.494 86.864 333.142 88.3747 333.142 90.076V90.56C333.142 92.32 333.523 93.8747 334.286 95.224C335.078 96.544 336.163 97.5853 337.542 98.348C338.95 99.0813 340.548 99.448 342.338 99.448C343.746 99.448 345.051 99.1987 346.254 98.7C347.486 98.2013 348.542 97.4387 349.422 96.412L351.182 98.436C350.155 99.668 348.864 100.607 347.31 101.252C345.784 101.897 344.098 102.22 342.25 102.22ZM364.316 102.22C362.41 102.22 360.606 101.956 358.904 101.428C357.203 100.871 355.868 100.181 354.9 99.36L356.308 96.896C357.247 97.6 358.45 98.216 359.916 98.744C361.383 99.2427 362.923 99.492 364.536 99.492C366.736 99.492 368.32 99.1547 369.288 98.48C370.256 97.776 370.74 96.852 370.74 95.708C370.74 94.8573 370.462 94.1973 369.904 93.728C369.376 93.2293 368.672 92.8627 367.792 92.628C366.912 92.364 365.93 92.144 364.844 91.968C363.759 91.792 362.674 91.5867 361.588 91.352C360.532 91.1173 359.564 90.78 358.684 90.34C357.804 89.8707 357.086 89.24 356.528 88.448C356 87.656 355.736 86.6 355.736 85.28C355.736 84.0187 356.088 82.8893 356.792 81.892C357.496 80.8947 358.523 80.1173 359.872 79.56C361.251 78.9733 362.923 78.68 364.888 78.68C366.384 78.68 367.88 78.8853 369.376 79.296C370.872 79.6773 372.104 80.1907 373.072 80.836L371.708 83.344C370.682 82.64 369.582 82.1413 368.408 81.848C367.235 81.5253 366.062 81.364 364.888 81.364C362.806 81.364 361.266 81.7307 360.268 82.464C359.3 83.168 358.816 84.0773 358.816 85.192C358.816 86.072 359.08 86.7613 359.608 87.26C360.166 87.7587 360.884 88.1547 361.764 88.448C362.674 88.712 363.656 88.932 364.712 89.108C365.798 89.284 366.868 89.504 367.924 89.768C369.01 90.0027 369.992 90.34 370.872 90.78C371.782 91.1907 372.5 91.792 373.028 92.584C373.586 93.3467 373.864 94.3587 373.864 95.62C373.864 96.9693 373.483 98.1427 372.72 99.14C371.987 100.108 370.902 100.871 369.464 101.428C368.056 101.956 366.34 102.22 364.316 102.22ZM387.913 102.22C385.713 102.22 383.733 101.721 381.973 100.724C380.242 99.7267 378.878 98.348 377.881 96.588C376.883 94.7987 376.385 92.7453 376.385 90.428C376.385 88.0813 376.883 86.028 377.881 84.268C378.878 82.508 380.242 81.144 381.973 80.176C383.733 79.1787 385.713 78.68 387.913 78.68C389.937 78.68 391.741 79.1347 393.325 80.044C394.938 80.9533 396.214 82.288 397.153 84.048C398.121 85.7787 398.605 87.9053 398.605 90.428C398.605 92.9213 398.135 95.048 397.197 96.808C396.258 98.568 394.982 99.9173 393.369 100.856C391.785 101.765 389.966 102.22 387.913 102.22ZM388.133 99.448C389.775 99.448 391.242 99.0813 392.533 98.348C393.853 97.5853 394.879 96.5293 395.613 95.18C396.375 93.8013 396.757 92.2173 396.757 90.428C396.757 88.6093 396.375 87.0253 395.613 85.676C394.879 84.3267 393.853 83.2853 392.533 82.552C391.242 81.7893 389.775 81.408 388.133 81.408C386.519 81.408 385.067 81.7893 383.777 82.552C382.486 83.2853 381.459 84.3267 380.697 85.676C379.934 87.0253 379.553 88.6093 379.553 90.428C379.553 92.2173 379.934 93.8013 380.697 95.18C381.459 96.5293 382.486 97.5853 383.777 98.348C385.067 99.0813 386.519 99.448 388.133 99.448ZM396.845 102V95.048L397.153 90.384L396.713 85.72V69.352H399.837V102H396.845ZM422.133 102V96.896L422.001 96.06V87.524C422.001 85.5587 421.444 84.048 420.329 82.992C419.244 81.936 417.616 81.408 415.445 81.408C413.949 81.408 412.526 81.6573 411.177 82.156C409.828 82.6547 408.684 83.3147 407.745 84.136L406.337 81.804C407.51 80.8067 408.918 80.044 410.561 79.516C412.204 78.9587 413.934 78.68 415.753 78.68C418.745 78.68 421.048 79.428 422.661 80.924C424.304 82.3907 425.125 84.6347 425.125 87.656V102H422.133ZM414.169 102.22C412.438 102.22 410.928 101.941 409.637 101.384C408.376 100.797 407.408 100.005 406.733 99.008C406.058 97.9813 405.721 96.808 405.721 95.488C405.721 94.2853 406 93.2 406.557 92.232C407.144 91.2347 408.082 90.4427 409.373 89.856C410.693 89.24 412.453 88.932 414.653 88.932H422.617V91.264H414.741C412.512 91.264 410.957 91.66 410.077 92.452C409.226 93.244 408.801 94.2267 408.801 95.4C408.801 96.72 409.314 97.776 410.341 98.568C411.368 99.36 412.805 99.756 414.653 99.756C416.413 99.756 417.924 99.36 419.185 98.568C420.476 97.7467 421.414 96.5733 422.001 95.048L422.705 97.204C422.118 98.7293 421.092 99.9467 419.625 100.856C418.188 101.765 416.369 102.22 414.169 102.22ZM432.476 110.756C431.391 110.756 430.35 110.58 429.352 110.228C428.384 109.876 427.548 109.348 426.844 108.644L428.296 106.312C428.883 106.869 429.514 107.295 430.188 107.588C430.892 107.911 431.67 108.072 432.52 108.072C433.547 108.072 434.427 107.779 435.16 107.192C435.923 106.635 436.642 105.637 437.316 104.2L438.812 100.812L439.164 100.328L448.668 78.9H451.748L440.176 104.772C439.531 106.268 438.812 107.456 438.02 108.336C437.258 109.216 436.422 109.832 435.512 110.184C434.603 110.565 433.591 110.756 432.476 110.756ZM438.636 102.66L427.988 78.9H431.244L440.66 100.108L438.636 102.66Z" fill="#333333"/>
<path d="M268.712 209.936L265.016 209.312V206.336H280.376V209.312L275.768 209.936V238.592L286.04 238.16L289.064 229.184L292.952 229.712L291.464 242H264.92V239.12L268.712 238.64V209.936ZM300.521 210.944C299.369 210.944 298.457 210.608 297.785 209.936C297.113 209.264 296.777 208.4 296.777 207.344C296.777 206.128 297.161 205.12 297.929 204.32C298.697 203.52 299.721 203.12 301.001 203.12C302.281 203.12 303.257 203.472 303.929 204.176C304.601 204.848 304.937 205.696 304.937 206.72C304.937 208 304.553 209.024 303.785 209.792C303.017 210.56 301.945 210.944 300.569 210.944H300.521ZM297.977 219.872L294.569 218.96V215.744L303.353 214.688H303.449L304.793 215.648V238.736L308.009 239.12V242H294.617V239.12L297.977 238.688V219.872ZM322.106 254.96C317.818 254.96 314.714 254.288 312.794 252.944C310.874 251.6 309.914 249.776 309.914 247.472C309.914 246.16 310.346 244.912 311.21 243.728C312.106 242.576 313.178 241.712 314.426 241.136C312.954 240.272 312.218 238.896 312.218 237.008C312.218 235.92 312.57 234.896 313.274 233.936C313.978 232.944 314.89 232.176 316.01 231.632C314.25 230.96 312.938 229.936 312.074 228.56C311.21 227.184 310.778 225.552 310.778 223.664C310.778 221.84 311.306 220.256 312.362 218.912C313.45 217.536 314.89 216.48 316.682 215.744C318.506 215.008 320.474 214.64 322.586 214.64C326.33 214.64 329.114 215.36 330.938 216.8C331.354 216.256 332.058 215.744 333.05 215.264C334.042 214.784 335.066 214.544 336.122 214.544H337.802V219.776H332.858C333.338 220.8 333.578 221.888 333.578 223.04C333.61 225.952 332.586 228.288 330.506 230.048C328.426 231.776 325.578 232.64 321.962 232.64C320.458 232.64 319.194 232.528 318.17 232.304C317.85 232.72 317.594 233.168 317.402 233.648C317.242 234.096 317.162 234.496 317.162 234.848C317.162 235.904 317.53 236.624 318.266 237.008C319.034 237.392 320.394 237.584 322.346 237.584H327.482C334.01 237.584 337.274 239.952 337.274 244.688C337.274 246.672 336.57 248.448 335.162 250.016C333.754 251.584 331.882 252.8 329.546 253.664C327.21 254.528 324.73 254.96 322.106 254.96ZM322.442 229.664C325.418 229.664 326.906 227.632 326.906 223.568C326.906 221.488 326.522 219.968 325.754 219.008C325.018 218.016 323.882 217.52 322.346 217.52C320.842 217.52 319.674 218.016 318.842 219.008C318.042 219.968 317.642 221.424 317.642 223.376C317.642 227.568 319.242 229.664 322.442 229.664ZM322.826 251.648C324.842 251.648 326.586 251.152 328.058 250.16C329.53 249.2 330.266 247.856 330.266 246.128C330.266 244.752 329.898 243.76 329.162 243.152C328.458 242.544 327.178 242.24 325.322 242.24H320.09C319.29 242.24 318.554 242.192 317.882 242.096C317.018 243.248 316.586 244.624 316.586 246.224C316.586 247.984 317.066 249.328 318.026 250.256C318.986 251.184 320.586 251.648 322.826 251.648ZM341.645 206.912L337.997 206.288V203.696L346.925 202.64H347.069L348.317 203.552L348.365 214.256L348.029 218.432C349.021 217.536 350.365 216.704 352.061 215.936C353.789 215.168 355.597 214.784 357.485 214.784C359.501 214.784 361.069 215.168 362.189 215.936C363.309 216.672 364.093 217.808 364.541 219.344C364.989 220.88 365.213 222.928 365.213 225.488V238.688L368.285 239.12V242H355.661V239.12L358.445 238.688V225.488C358.445 223.824 358.333 222.528 358.109 221.6C357.885 220.672 357.469 219.984 356.861 219.536C356.285 219.088 355.421 218.864 354.269 218.864C353.277 218.864 352.253 219.104 351.197 219.584C350.173 220.032 349.261 220.576 348.461 221.216V238.688L351.389 239.12V242H338.957V239.12L341.645 238.736V206.912ZM378.65 242.432C376.634 242.432 375.146 241.968 374.186 241.04C373.226 240.112 372.746 238.64 372.746 236.624V219.008H369.626V216.512C369.882 216.416 370.346 216.256 371.018 216.032C371.69 215.776 372.202 215.568 372.554 215.408C373.098 214.992 373.562 214.272 373.946 213.248C374.234 212.576 374.762 210.912 375.53 208.256H379.37L379.562 215.312H386.906V219.008H379.61V232.496C379.61 234.288 379.658 235.552 379.754 236.288C379.85 237.024 380.058 237.504 380.378 237.728C380.698 237.92 381.258 238.016 382.058 238.016C382.858 238.016 383.69 237.936 384.554 237.776C385.418 237.584 386.138 237.36 386.714 237.104L387.626 239.792C386.73 240.464 385.418 241.072 383.69 241.616C381.962 242.16 380.282 242.432 378.65 242.432Z" fill="#333333"/>
<g filter="url(#filter0_d_1_225)">
<rect x="231" y="279" width="190" height="190" rx="95" fill="white"/>
<path d="M285.376 368.384C283.648 368.384 282.037 368.107 280.544 367.552C279.072 366.976 277.792 366.165 276.704 365.12C275.616 364.075 274.763 362.848 274.144 361.44C273.547 360.032 273.248 358.485 273.248 356.8C273.248 355.115 273.547 353.568 274.144 352.16C274.763 350.752 275.616 349.525 276.704 348.48C277.813 347.435 279.104 346.635 280.576 346.08C282.048 345.504 283.659 345.216 285.408 345.216C287.349 345.216 289.099 345.557 290.656 346.24C292.235 346.901 293.557 347.883 294.624 349.184L291.296 352.256C290.528 351.381 289.675 350.731 288.736 350.304C287.797 349.856 286.773 349.632 285.664 349.632C284.619 349.632 283.659 349.803 282.784 350.144C281.909 350.485 281.152 350.976 280.512 351.616C279.872 352.256 279.371 353.013 279.008 353.888C278.667 354.763 278.496 355.733 278.496 356.8C278.496 357.867 278.667 358.837 279.008 359.712C279.371 360.587 279.872 361.344 280.512 361.984C281.152 362.624 281.909 363.115 282.784 363.456C283.659 363.797 284.619 363.968 285.664 363.968C286.773 363.968 287.797 363.755 288.736 363.328C289.675 362.88 290.528 362.208 291.296 361.312L294.624 364.384C293.557 365.685 292.235 366.677 290.656 367.36C289.099 368.043 287.339 368.384 285.376 368.384ZM297.133 368V350.784H301.901V355.648L301.229 354.24C301.741 353.024 302.562 352.107 303.693 351.488C304.823 350.848 306.199 350.528 307.821 350.528V355.136C307.607 355.115 307.415 355.104 307.245 355.104C307.074 355.083 306.893 355.072 306.701 355.072C305.335 355.072 304.226 355.467 303.373 356.256C302.541 357.024 302.125 358.229 302.125 359.872V368H297.133ZM318.568 368.256C316.605 368.256 314.877 367.872 313.384 367.104C311.912 366.336 310.771 365.291 309.96 363.968C309.149 362.624 308.744 361.099 308.744 359.392C308.744 357.664 309.139 356.139 309.928 354.816C310.739 353.472 311.837 352.427 313.224 351.68C314.611 350.912 316.179 350.528 317.928 350.528C319.613 350.528 321.128 350.891 322.472 351.616C323.837 352.32 324.915 353.344 325.704 354.688C326.493 356.011 326.888 357.6 326.888 359.456C326.888 359.648 326.877 359.872 326.856 360.128C326.835 360.363 326.813 360.587 326.792 360.8H312.808V357.888H324.168L322.248 358.752C322.248 357.856 322.067 357.077 321.704 356.416C321.341 355.755 320.84 355.243 320.2 354.88C319.56 354.496 318.813 354.304 317.96 354.304C317.107 354.304 316.349 354.496 315.688 354.88C315.048 355.243 314.547 355.765 314.184 356.448C313.821 357.109 313.64 357.899 313.64 358.816V359.584C313.64 360.523 313.843 361.355 314.248 362.08C314.675 362.784 315.261 363.328 316.008 363.712C316.776 364.075 317.672 364.256 318.696 364.256C319.613 364.256 320.413 364.117 321.096 363.84C321.8 363.563 322.44 363.147 323.016 362.592L325.672 365.472C324.883 366.368 323.891 367.061 322.696 367.552C321.501 368.021 320.125 368.256 318.568 368.256ZM339.663 368V364.64L339.343 363.904V357.888C339.343 356.821 339.012 355.989 338.351 355.392C337.711 354.795 336.719 354.496 335.375 354.496C334.457 354.496 333.551 354.645 332.655 354.944C331.78 355.221 331.033 355.605 330.415 356.096L328.623 352.608C329.561 351.947 330.692 351.435 332.015 351.072C333.337 350.709 334.681 350.528 336.047 350.528C338.671 350.528 340.708 351.147 342.159 352.384C343.609 353.621 344.335 355.552 344.335 358.176V368H339.663ZM334.415 368.256C333.071 368.256 331.919 368.032 330.959 367.584C329.999 367.115 329.263 366.485 328.751 365.696C328.239 364.907 327.983 364.021 327.983 363.04C327.983 362.016 328.228 361.12 328.719 360.352C329.231 359.584 330.031 358.987 331.119 358.56C332.207 358.112 333.625 357.888 335.375 357.888H339.951V360.8H335.919C334.745 360.8 333.935 360.992 333.487 361.376C333.06 361.76 332.847 362.24 332.847 362.816C332.847 363.456 333.092 363.968 333.583 364.352C334.095 364.715 334.788 364.896 335.663 364.896C336.495 364.896 337.241 364.704 337.903 364.32C338.564 363.915 339.044 363.328 339.343 362.56L340.111 364.864C339.748 365.973 339.087 366.816 338.127 367.392C337.167 367.968 335.929 368.256 334.415 368.256ZM355.253 368.256C353.226 368.256 351.647 367.744 350.517 366.72C349.386 365.675 348.821 364.128 348.821 362.08V346.976H353.813V362.016C353.813 362.741 354.005 363.307 354.389 363.712C354.773 364.096 355.295 364.288 355.957 364.288C356.746 364.288 357.418 364.075 357.973 363.648L359.317 367.168C358.805 367.531 358.186 367.808 357.461 368C356.757 368.171 356.021 368.256 355.253 368.256ZM346.165 355.008V351.168H358.101V355.008H346.165ZM369.492 368.256C367.529 368.256 365.801 367.872 364.308 367.104C362.836 366.336 361.694 365.291 360.884 363.968C360.073 362.624 359.668 361.099 359.668 359.392C359.668 357.664 360.062 356.139 360.852 354.816C361.662 353.472 362.761 352.427 364.148 351.68C365.534 350.912 367.102 350.528 368.852 350.528C370.537 350.528 372.052 350.891 373.396 351.616C374.761 352.32 375.838 353.344 376.628 354.688C377.417 356.011 377.812 357.6 377.812 359.456C377.812 359.648 377.801 359.872 377.78 360.128C377.758 360.363 377.737 360.587 377.716 360.8H363.732V357.888H375.092L373.172 358.752C373.172 357.856 372.99 357.077 372.628 356.416C372.265 355.755 371.764 355.243 371.124 354.88C370.484 354.496 369.737 354.304 368.884 354.304C368.03 354.304 367.273 354.496 366.612 354.88C365.972 355.243 365.47 355.765 365.108 356.448C364.745 357.109 364.564 357.899 364.564 358.816V359.584C364.564 360.523 364.766 361.355 365.172 362.08C365.598 362.784 366.185 363.328 366.932 363.712C367.7 364.075 368.596 364.256 369.62 364.256C370.537 364.256 371.337 364.117 372.02 363.84C372.724 363.563 373.364 363.147 373.94 362.592L376.596 365.472C375.806 366.368 374.814 367.061 373.62 367.552C372.425 368.021 371.049 368.256 369.492 368.256Z" fill="#333333"/>
<path d="M336.344 393.874C338.087 393.874 339.5 395.287 339.5 397.03C339.5 398.772 338.087 400.185 336.344 400.185H314.656C312.913 400.185 311.5 398.772 311.5 397.03C311.5 395.287 312.913 393.874 314.656 393.874H336.344ZM328.685 407.844C328.685 409.587 327.272 411 325.53 411C323.787 411 322.374 409.587 322.374 407.844V386.156C322.374 384.413 323.787 383 325.53 383C327.272 383 328.685 384.413 328.685 386.156V407.844Z" fill="#333333"/>
</g>
<rect x="1.5" y="1.5" width="649" height="646" rx="41.5" stroke="url(#paint0_linear_1_225)" stroke-width="3"/>
<defs>
<filter id="filter0_d_1_225" x="217" y="269" width="218" height="218" filterUnits="userSpaceOnUse" color-interpolation-filters="sRGB">
<feFlood flood-opacity="0" result="BackgroundImageFix"/>
<feColorMatrix in="SourceAlpha" type="matrix" values="0 0 0 0 0 0 0 0 0 0 0 0 0 0 0 0 0 0 127 0" result="hardAlpha"/>
<feOffset dy="4"/>
<feGaussianBlur stdDeviation="7"/>
<feComposite in2="hardAlpha" operator="out"/>
<feColorMatrix type="matrix" values="0 0 0 0 0 0 0 0 0 0 0 0 0 0 0 0 0 0 0.2 0"/>
<feBlend mode="normal" in2="BackgroundImageFix" result="effect1_dropShadow_1_225"/>
<feBlend mode="normal" in="SourceGraphic" in2="effect1_dropShadow_1_225" result="shape"/>
</filter>
<linearGradient id="paint0_linear_1_225" x1="668" y1="3" x2="2.99999" y2="661" gradientUnits="userSpaceOnUse">
<stop offset="0.0001" stop-color="#0038FF"/>
<stop offset="0.405" stop-color="#C60083"/>
<stop offset="0.685" stop-color="#FFC700"/>
<stop offset="1" stop-color="#FF0000"/>
</linearGradient>
</defs>
</svg>
