<svg width="33" height="32" viewBox="0 0 33 32" fill="none" xmlns="http://www.w3.org/2000/svg">
<path d="M30.5438 14.1823L17.9015 2.40064C17.3376 1.86645 16.477 1.86645 15.9131 2.40064L3.27085 14.1823C2.29152 15.0726 2.94441 16.7048 4.27987 16.7048H5.91209V29.2581C5.91209 29.6736 6.23853 30 6.65401 30H27.131C27.5464 30 27.8729 29.6736 27.8729 29.2581V16.7048H29.5051C30.8702 16.7048 31.5231 15.0726 30.5438 14.1823ZM13.6874 25.8156C13.539 26.0827 13.2126 26.1717 12.9455 25.9936L12.0552 25.4298C11.8177 25.2517 11.7287 24.9253 11.9068 24.6879L15.5273 19.7022L16.3583 21.1563L13.6874 25.8156ZM21.6704 25.4001L20.7505 25.9936C20.4834 26.1717 20.1272 26.0827 19.9789 25.8156L15.6461 18.248L15.3493 18.3667C14.6371 18.6932 13.8655 18.3964 13.5093 17.7435C13.1532 17.0906 12.6487 16.0223 11.6694 14.0933C10.69 12.1643 12.0552 10.443 12.3223 10.8585L16.1506 16.7939L21.8188 24.6285C21.9969 24.8956 21.9375 25.2517 21.6704 25.4001ZM22.8575 12.5501L20.7801 15.9036L20.513 16.319C20.2459 16.7345 19.8305 17.0313 19.415 17.1203L18.5247 17.2984L18.0796 18.07L17.3673 17.0906L17.6344 16.7048L17.4267 15.8442C17.3376 15.4287 17.4267 14.9539 17.7234 14.5384L17.9905 14.123L20.1866 10.8585C20.2163 10.7992 20.2756 10.7991 20.335 10.8288L20.6911 11.0663C20.7505 11.0959 20.7505 11.1553 20.7208 11.2146L18.6731 14.5384C18.6137 14.6274 18.6434 14.7165 18.7324 14.7758C18.7621 14.8055 18.8215 14.8352 18.8808 14.8649C18.9698 14.9242 19.0589 14.8945 19.1182 14.8055C19.5337 14.1823 21.2846 11.5707 21.2846 11.5707C21.3143 11.5114 21.3737 11.5114 21.433 11.5411L21.7892 11.7785C21.8485 11.8082 21.8485 11.8675 21.8188 11.9269L19.7711 15.2507C19.7118 15.3397 19.7414 15.4287 19.8305 15.4881C19.8602 15.5178 19.9195 15.5474 19.9789 15.5771C20.0679 15.6365 20.1569 15.6068 20.2163 15.5474C20.6317 14.9242 22.3827 12.3127 22.3827 12.3127C22.4124 12.2533 22.4717 12.2533 22.5311 12.283L22.8872 12.5204C22.8872 12.4314 22.8872 12.4907 22.8575 12.5501Z" fill="#F9F9F9"/>
</svg>
