<svg width="33" height="32" viewBox="0 0 33 32" fill="none" xmlns="http://www.w3.org/2000/svg">
<path d="M30.1438 14.1823L17.5015 2.40064C16.9376 1.86645 16.077 1.86645 15.5131 2.40064L2.87083 14.1823C1.89149 15.0726 2.54439 16.7048 3.87984 16.7048H5.51206V29.2581C5.51206 29.6736 5.83851 30 6.25398 30H26.7309C27.1464 30 27.4729 29.6736 27.4729 29.2581V16.7048H29.1051C30.4702 16.7048 31.1231 15.0726 30.1438 14.1823ZM13.2874 25.8156C13.139 26.0827 12.8125 26.1717 12.5454 25.9936L11.6551 25.4298C11.4177 25.2517 11.3287 24.9253 11.5068 24.6879L15.1273 19.7022L15.9583 21.1563L13.2874 25.8156ZM21.2704 25.4001L20.3504 25.9936C20.0834 26.1717 19.7272 26.0827 19.5788 25.8156L15.246 18.248L14.9493 18.3667C14.237 18.6932 13.4654 18.3964 13.1093 17.7435C12.7532 17.0906 12.2487 16.0223 11.2693 14.0933C10.29 12.1643 11.6551 10.443 11.9222 10.8585L15.7505 16.7939L21.4188 24.6285C21.5969 24.8956 21.5375 25.2517 21.2704 25.4001ZM22.4575 12.5501L20.3801 15.9036L20.113 16.319C19.8459 16.7345 19.4305 17.0313 19.015 17.1203L18.1247 17.2984L17.6795 18.07L16.9673 17.0906L17.2344 16.7048L17.0266 15.8442C16.9376 15.4287 17.0266 14.9539 17.3234 14.5384L17.5905 14.123L19.7866 10.8585C19.8163 10.7992 19.8756 10.7991 19.935 10.8288L20.2911 11.0663C20.3504 11.0959 20.3504 11.1553 20.3208 11.2146L18.2731 14.5384C18.2137 14.6274 18.2434 14.7165 18.3324 14.7758C18.3621 14.8055 18.4214 14.8352 18.4808 14.8649C18.5698 14.9242 18.6589 14.8945 18.7182 14.8055C19.1337 14.1823 20.8846 11.5707 20.8846 11.5707C20.9143 11.5114 20.9737 11.5114 21.033 11.5411L21.3891 11.7785C21.4485 11.8082 21.4485 11.8675 21.4188 11.9269L19.3711 15.2507C19.3117 15.3397 19.3414 15.4287 19.4305 15.4881C19.4601 15.5178 19.5195 15.5474 19.5788 15.5771C19.6679 15.6365 19.7569 15.6068 19.8162 15.5474C20.2317 14.9242 21.9827 12.3127 21.9827 12.3127C22.0123 12.2533 22.0717 12.2533 22.131 12.283L22.4872 12.5204C22.4872 12.4314 22.4872 12.4907 22.4575 12.5501Z" fill="#2D2D2D"/>
</svg>
