<svg width="33" height="32" viewBox="0 0 33 32" fill="none" xmlns="http://www.w3.org/2000/svg">
<g clip-path="url(#clip0_1_120)">
<path d="M16.3589 6.68174C14.8182 5.14055 13.7637 2.44924 13.2404 0.000488281C12.7163 2.44974 11.6629 5.14161 10.1217 6.6828C8.58111 8.22293 5.88898 9.27743 3.44073 9.8018C5.88998 10.3251 8.58161 11.379 10.1222 12.9202C11.6629 14.4609 12.7174 17.1527 13.2415 19.6015C13.7648 17.1522 14.819 14.4604 16.3594 12.9192C17.9 11.3786 20.5921 10.3246 23.0404 9.80018C20.5917 9.27686 17.9 8.22243 16.3589 6.68174Z" fill="#F9F9F9"/>
<path d="M26.3651 19.0223C25.4455 18.1022 24.8145 16.4935 24.5019 15.0308C24.1887 16.4935 23.5598 18.1021 22.6392 19.0228C21.7186 19.9424 20.1102 20.5728 18.6477 20.886C20.1107 21.1991 21.7186 21.8286 22.6392 22.7492C23.5598 23.6693 24.1898 25.278 24.503 26.7407C24.8155 25.2774 25.4455 23.6693 26.3656 22.7487C27.2857 21.8286 28.8943 21.1986 30.3566 20.8849C28.8944 20.5723 27.2858 19.9424 26.3651 19.0223Z" fill="#F9F9F9"/>
<path d="M10.0466 22.1694C9.7837 23.3974 9.2557 24.7484 8.48295 25.5211C7.71033 26.2932 6.35995 26.8223 5.13214 27.0852C6.35995 27.3487 7.71033 27.8762 8.48295 28.6494C9.2557 29.4221 9.78477 30.7719 10.0477 32.0006C10.3104 30.7719 10.8386 29.4221 11.6116 28.6489C12.3838 27.8763 13.7344 27.3477 14.962 27.0842C13.7345 26.8217 12.3838 26.2932 11.6111 25.5206C10.8386 24.7484 10.3093 23.3975 10.0466 22.1694Z" fill="#F9F9F9"/>
</g>
<defs>
<clipPath id="clip0_1_120">
<rect width="32" height="32" fill="white" transform="translate(0.900024)"/>
</clipPath>
</defs>
</svg>
