<svg width="33" height="32" viewBox="0 0 33 32" fill="none" xmlns="http://www.w3.org/2000/svg">
<g clip-path="url(#clip0_1_297)">
<path d="M15.9588 6.68174C14.4182 5.14055 13.3637 2.44924 12.8404 0.000488281C12.3163 2.44974 11.2629 5.14161 9.72171 6.6828C8.18109 8.22293 5.48896 9.27743 3.04071 9.8018C5.48996 10.3251 8.18158 11.379 9.72221 12.9202C11.2628 14.4609 12.3173 17.1527 12.8415 19.6015C13.3648 17.1522 14.419 14.4604 15.9593 12.9192C17.5 11.3786 20.1921 10.3246 22.6403 9.80018C20.1916 9.27686 17.5 8.22243 15.9588 6.68174Z" fill="#2D2D2D"/>
<path d="M25.9651 19.0223C25.0455 18.1022 24.4145 16.4935 24.1019 15.0308C23.7887 16.4935 23.1598 18.1021 22.2392 19.0228C21.3186 19.9424 19.7102 20.5728 18.2477 20.886C19.7107 21.1991 21.3186 21.8286 22.2392 22.7492C23.1598 23.6693 23.7898 25.278 24.1029 26.7407C24.4155 25.2774 25.0455 23.6693 25.9656 22.7487C26.8857 21.8286 28.4943 21.1986 29.9566 20.8849C28.4944 20.5723 26.8857 19.9424 25.9651 19.0223Z" fill="#2D2D2D"/>
<path d="M9.64662 22.1694C9.38368 23.3974 8.85568 24.7484 8.08293 25.5211C7.3103 26.2932 5.95993 26.8223 4.73212 27.0852C5.95993 27.3487 7.3103 27.8762 8.08293 28.6494C8.85568 29.4221 9.38474 30.7719 9.64768 32.0006C9.91037 30.7719 10.4386 29.4221 11.2116 28.6489C11.9837 27.8763 13.3344 27.3477 14.5619 27.0842C13.3344 26.8217 11.9837 26.2932 11.2111 25.5206C10.4386 24.7484 9.90931 23.3975 9.64662 22.1694Z" fill="#2D2D2D"/>
</g>
<defs>
<clipPath id="clip0_1_297">
<rect width="32" height="32" fill="white" transform="translate(0.5)"/>
</clipPath>
</defs>
</svg>
