<svg width="48" height="48" viewBox="0 0 48 48" fill="none" xmlns="http://www.w3.org/2000/svg">
<path d="M48.0002 24.0001C48.0002 37.2543 37.2551 47.9995 23.9996 47.9995C10.7454 47.9995 0.000244141 37.2543 0.000244141 24.0001C0.000244141 10.7447 10.7515 -0.000488281 23.9996 -0.000488281C37.2551 -0.000488281 48.0002 10.7447 48.0002 24.0001Z" fill="white"/>
<path d="M31.1116 22.1368L30.7118 25.344C30.6797 25.603 30.5543 25.8413 30.359 26.0143C30.1637 26.1874 29.9121 26.2832 29.6512 26.2839H24.4507V39.712C23.9023 39.762 23.347 39.7869 22.7849 39.7869C21.553 39.7883 20.324 39.6669 19.1162 39.4245V26.2875H15.1165C14.9395 26.2865 14.7701 26.2156 14.6452 26.0903C14.5202 25.9649 14.45 25.7952 14.4496 25.6183V21.5992C14.45 21.4223 14.5202 21.2526 14.6452 21.1272C14.7701 21.0018 14.9395 20.931 15.1165 20.93H19.1162V14.9057C19.1144 14.0283 19.2855 13.1591 19.6197 12.3478C19.9538 11.5365 20.4445 10.7989 21.0637 10.1773C21.6829 9.55562 22.4185 9.062 23.2285 8.72462C24.0384 8.38723 24.9069 8.21268 25.7843 8.21094H30.4508C30.6278 8.21189 30.7972 8.28278 30.9222 8.40815C31.0471 8.53352 31.1173 8.70319 31.1177 8.88017V12.9016C31.1173 13.0786 31.0471 13.2483 30.9222 13.3736C30.7972 13.499 30.6278 13.5699 30.4508 13.5708H27.1168C26.7659 13.5716 26.4185 13.6415 26.0947 13.7766C25.7708 13.9116 25.4766 14.1091 25.2291 14.3578C24.9815 14.6064 24.7853 14.9015 24.6518 15.226C24.5182 15.5505 24.4499 15.8981 24.4507 16.249V20.936H30.051C30.2024 20.9365 30.3519 20.969 30.4898 21.0314C30.6277 21.0938 30.7508 21.1847 30.851 21.2982C30.9512 21.4116 31.0263 21.545 31.0712 21.6896C31.1161 21.8341 31.1299 21.9865 31.1116 22.1368Z" fill="#0D0D0D"/>
</svg>
