<svg width="28" height="28" viewBox="0 0 28 28" fill="none" xmlns="http://www.w3.org/2000/svg">
<path d="M0.683419 3.98325C-0.227809 3.07203 -0.227806 1.59464 0.683425 0.683413C1.59466 -0.227807 3.07203 -0.227804 3.98325 0.683419L14 10.7001L24.0166 0.683419C24.9279 -0.227804 26.4053 -0.227807 27.3166 0.683413C28.2278 1.59464 28.2278 3.07203 27.3166 3.98325L17.2998 14L27.3166 24.0166C28.2278 24.9279 28.2278 26.4053 27.3166 27.3166C26.4053 28.2278 24.9279 28.2278 24.0166 27.3166L14 17.2998L3.98325 27.3166C3.07203 28.2278 1.59466 28.2278 0.683425 27.3166C-0.227806 26.4053 -0.227809 24.9279 0.683419 24.0166L10.7001 14L0.683419 3.98325Z" fill="white"/>
</svg>
