<svg width="33" height="23" viewBox="0 0 33 23" fill="none" xmlns="http://www.w3.org/2000/svg">
<path d="M2.3006 6.81551e-08C1.99846 -7.34848e-05 1.69926 0.0593874 1.42011 0.174981C1.14095 0.290575 0.887307 0.46004 0.673662 0.673692C0.460018 0.887344 0.29056 1.141 0.17497 1.42016C0.059381 1.69932 -7.41828e-05 1.99853 6.9463e-08 2.30068C0.000447184 2.91051 0.243046 3.49521 0.674459 3.92621C1.10587 4.35722 1.69078 4.59925 2.3006 4.59911H29.9016C30.5111 4.59866 31.0954 4.35636 31.5263 3.92542C31.9572 3.49448 32.1995 2.91012 32.2 2.30068C32.2001 1.69084 31.9581 1.10591 31.5271 0.674486C31.0961 0.243058 30.5114 0.00044754 29.9016 6.81551e-08H2.3006ZM2.3006 9.20045C1.99846 9.20038 1.69926 9.25984 1.42011 9.37543C1.14095 9.49102 0.887309 9.66049 0.673664 9.87414C0.46002 10.0878 0.290562 10.3414 0.174972 10.6206C0.0593828 10.8998 -7.3641e-05 11.199 6.9463e-08 11.5011C0.000448824 12.111 0.243048 12.6956 0.674461 13.1267C1.10587 13.5577 1.69078 13.7997 2.3006 13.7995H29.9016C30.5111 13.7991 31.0954 13.5568 31.5263 13.1259C31.9572 12.6949 32.1995 12.1106 32.2 11.5011C32.2001 10.8913 31.9581 10.3064 31.5271 9.87494C31.0961 9.44351 30.5114 9.2009 29.9016 9.20045H2.3006ZM2.3006 18.4009C1.69078 18.4008 1.10587 18.6428 0.674457 19.0738C0.243044 19.5048 0.000445545 20.0895 6.9463e-08 20.6993C-7.17446e-05 21.0015 0.0593858 21.3007 0.174976 21.5799C0.290567 21.859 0.460025 22.1127 0.673669 22.3263C0.887314 22.54 1.14096 22.7094 1.42011 22.825C1.69927 22.9406 1.99846 23.0001 2.3006 23H29.9016C30.5114 22.9996 31.0961 22.7569 31.5271 22.3255C31.9581 21.8941 32.2001 21.3092 32.2 20.6993C32.1995 20.0899 31.9572 19.5055 31.5263 19.0746C31.0954 18.6437 30.5111 18.4014 29.9016 18.4009H2.3006Z" fill="black"/>
</svg>
