<svg width="85" height="75" viewBox="0 0 85 75" fill="none" xmlns="http://www.w3.org/2000/svg">
<g filter="url(#filter0_d_1_337)">
<rect x="14" y="8" width="56.2" height="47" rx="16" fill="white" shape-rendering="crispEdges"/>
<rect x="15" y="9" width="54.2" height="45" rx="15" stroke="black" stroke-width="2" shape-rendering="crispEdges"/>
<path d="M28.3006 20C27.9985 19.9999 27.6993 20.0594 27.4201 20.175C27.141 20.2906 26.8873 20.46 26.6737 20.6737C26.46 20.8873 26.2906 21.141 26.175 21.4202C26.0594 21.6993 25.9999 21.9985 26 22.3007C26.0004 22.9105 26.243 23.4952 26.6745 23.9262C27.1059 24.3572 27.6908 24.5993 28.3006 24.5991H55.9016C56.5111 24.5987 57.0954 24.3564 57.5263 23.9254C57.9572 23.4945 58.1995 22.9101 58.2 22.3007C58.2001 21.6908 57.9581 21.1059 57.5271 20.6745C57.0961 20.2431 56.5114 20.0004 55.9016 20H28.3006ZM28.3006 29.2005C27.9985 29.2004 27.6993 29.2598 27.4201 29.3754C27.141 29.491 26.8873 29.6605 26.6737 29.8741C26.46 30.0878 26.2906 30.3414 26.175 30.6206C26.0594 30.8998 25.9999 31.199 26 31.5011C26.0004 32.111 26.243 32.6956 26.6745 33.1267C27.1059 33.5577 27.6908 33.7997 28.3006 33.7995H55.9016C56.5111 33.7991 57.0954 33.5568 57.5263 33.1259C57.9572 32.6949 58.1995 32.1106 58.2 31.5011C58.2001 30.8913 57.9581 30.3064 57.5271 29.8749C57.0961 29.4435 56.5114 29.2009 55.9016 29.2005H28.3006ZM28.3006 38.4009C27.6908 38.4008 27.1059 38.6428 26.6745 39.0738C26.243 39.5048 26.0004 40.0895 26 40.6993C25.9999 41.0015 26.0594 41.3007 26.175 41.5799C26.2906 41.859 26.46 42.1127 26.6737 42.3263C26.8873 42.54 27.141 42.7094 27.4201 42.825C27.6993 42.9406 27.9985 43.0001 28.3006 43H55.9016C56.5114 42.9996 57.0961 42.7569 57.5271 42.3255C57.9581 41.8941 58.2001 41.3092 58.2 40.6993C58.1995 40.0899 57.9572 39.5055 57.5263 39.0746C57.0954 38.6437 56.5111 38.4014 55.9016 38.4009H28.3006Z" fill="black"/>
</g>
<defs>
<filter id="filter0_d_1_337" x="0" y="0" width="84.2" height="75" filterUnits="userSpaceOnUse" color-interpolation-filters="sRGB">
<feFlood flood-opacity="0" result="BackgroundImageFix"/>
<feColorMatrix in="SourceAlpha" type="matrix" values="0 0 0 0 0 0 0 0 0 0 0 0 0 0 0 0 0 0 127 0" result="hardAlpha"/>
<feOffset dy="6"/>
<feGaussianBlur stdDeviation="7"/>
<feComposite in2="hardAlpha" operator="out"/>
<feColorMatrix type="matrix" values="0 0 0 0 0 0 0 0 0 0 0 0 0 0 0 0 0 0 0.2 0"/>
<feBlend mode="normal" in2="BackgroundImageFix" result="effect1_dropShadow_1_337"/>
<feBlend mode="normal" in="SourceGraphic" in2="effect1_dropShadow_1_337" result="shape"/>
</filter>
</defs>
</svg>
