<svg width="48" height="48" viewBox="0 0 48 48" fill="none" xmlns="http://www.w3.org/2000/svg">
<path d="M48.0011 24.0001C48.0011 37.2543 37.2499 47.9995 24.0017 47.9995C10.7463 47.9995 0.00109863 37.2543 0.00109863 24.0001C0.00109863 10.7447 10.7463 -0.000488281 24.0017 -0.000488281C37.2499 -0.000488281 48.0011 10.7447 48.0011 24.0001Z" fill="white"/>
<path d="M30.5109 11.4102H17.4874C16.6889 11.4103 15.8983 11.5678 15.1607 11.8736C14.4231 12.1793 13.753 12.6274 13.1886 13.1923C12.6242 13.7571 12.1767 14.4276 11.8715 15.1654C11.5663 15.9033 11.4094 16.694 11.4099 17.4925V30.5111C11.4102 32.1228 12.0506 33.6685 13.1903 34.8082C14.33 35.9478 15.8756 36.5882 17.4874 36.5886H30.5109C32.1226 36.5882 33.6682 35.9478 34.8079 34.8082C35.9476 33.6685 36.588 32.1228 36.5883 30.5111V17.4925C36.5888 16.694 36.432 15.9033 36.1268 15.1654C35.8216 14.4276 35.374 13.7571 34.8096 13.1923C34.2453 12.6274 33.5751 12.1793 32.8375 11.8736C32.0999 11.5678 31.3093 11.4103 30.5109 11.4102ZM34.4175 30.0762C34.4156 31.2269 33.9578 32.3299 33.1442 33.1436C32.3307 33.9574 31.2278 34.4155 30.0772 34.4178H17.9223C16.7714 34.4159 15.6682 33.9578 14.8544 33.144C14.0406 32.3303 13.5826 31.2271 13.5807 30.0762V17.9225C13.5826 16.7716 14.0406 15.6685 14.8544 14.8547C15.6682 14.0409 16.7714 13.5829 17.9223 13.5809H30.0772C31.2278 13.5832 32.3307 14.0413 33.1442 14.8551C33.9578 15.6688 34.4156 16.7718 34.4175 17.9225V30.0762Z" fill="#0D0D0D"/>
<path d="M24.0112 17.4922C22.7231 17.4919 21.4638 17.8737 20.3927 18.5892C19.3215 19.3047 18.4866 20.3218 17.9936 21.5118C17.5005 22.7018 17.3715 24.0113 17.6227 25.2747C17.8739 26.5381 18.4942 27.6986 19.405 28.6095C20.3159 29.5203 21.4764 30.1406 22.7398 30.3918C24.0031 30.643 25.3127 30.514 26.5027 30.0209C27.6927 29.5279 28.7098 28.693 29.4253 27.6218C30.1408 26.5507 30.5226 25.2914 30.5223 24.0033C30.5217 22.2767 29.8355 20.6209 28.6145 19.4C27.3936 18.179 25.7378 17.4928 24.0112 17.4922ZM24.0112 28.3449C23.1525 28.3449 22.3131 28.0903 21.5991 27.6132C20.8852 27.1361 20.3287 26.4581 20.0001 25.6648C19.6715 24.8714 19.5855 23.9985 19.753 23.1563C19.9205 22.3141 20.334 21.5406 20.9412 20.9334C21.5484 20.3262 22.322 19.9127 23.1642 19.7452C24.0064 19.5777 24.8793 19.6636 25.6726 19.9922C26.4659 20.3208 27.144 20.8773 27.621 21.5913C28.0981 22.3052 28.3527 23.1446 28.3527 24.0033C28.3495 25.1534 27.8909 26.2553 27.0773 27.068C26.2636 27.8808 25.1612 28.3381 24.0112 28.3401V28.3449Z" fill="#0D0D0D"/>
<path d="M30.957 18.3569C31.6762 18.3569 32.2592 17.7739 32.2592 17.0547C32.2592 16.3355 31.6762 15.7524 30.957 15.7524C30.2378 15.7524 29.6548 16.3355 29.6548 17.0547C29.6548 17.7739 30.2378 18.3569 30.957 18.3569Z" fill="#0D0D0D"/>
</svg>
