<svg width="33" height="32" viewBox="0 0 33 32" fill="none" xmlns="http://www.w3.org/2000/svg">
<g clip-path="url(#clip0_1_140)">
<path d="M16.907 32C13.7425 32 10.6491 31.0616 8.01793 29.3035C5.38674 27.5454 3.33598 25.0466 2.12498 22.1229C0.913976 19.1993 0.597123 15.9823 1.21449 12.8786C1.83185 9.77486 3.3557 6.92394 5.59334 4.6863C7.83098 2.44866 10.6819 0.924806 13.7856 0.307443C16.8893 -0.309921 20.1064 0.00693263 23.03 1.21793C25.9536 2.42894 28.4525 4.4797 30.2106 7.11088C31.9687 9.74207 32.907 12.8355 32.907 16C32.9022 20.242 31.215 24.3088 28.2154 27.3084C25.2159 30.3079 21.149 31.9952 16.907 32ZM16.907 1.39131C14.0177 1.39131 11.1933 2.2481 8.79089 3.85332C6.3885 5.45854 4.51607 7.74011 3.41038 10.4095C2.30468 13.0789 2.01538 16.0162 2.57906 18.85C3.14274 21.6838 4.53408 24.2868 6.57714 26.3299C8.6202 28.373 11.2232 29.7643 14.057 30.328C16.8908 30.8917 19.8282 30.6024 22.4975 29.4967C25.1669 28.391 27.4485 26.5185 29.0537 24.1162C30.659 21.7138 31.5157 18.8893 31.5157 16C31.5113 12.1269 29.9708 8.41367 27.2321 5.67496C24.4934 2.93625 20.7802 1.39571 16.907 1.39131Z" fill="#F9F9F9"/>
<path d="M16.9075 3.12988C14.3621 3.12988 11.8739 3.88467 9.75752 5.29879C7.64114 6.71292 5.99161 8.72287 5.01755 11.0745C4.04348 13.4261 3.78862 16.0137 4.28519 18.5102C4.78177 21.0066 6.00748 23.2998 7.80732 25.0996C9.60716 26.8994 11.9003 28.1251 14.3967 28.6217C16.8932 29.1183 19.4808 28.8634 21.8324 27.8894C24.184 26.9153 26.194 25.2658 27.6081 23.1494C29.0222 21.033 29.777 18.5448 29.777 15.9994C29.7732 12.5874 28.416 9.31623 26.0034 6.90355C23.5907 4.49088 20.3195 3.13374 16.9075 3.12988ZM20.1919 20.2975C19.4955 20.9569 18.5838 21.3416 17.6255 21.3806V22.956H16.1987V21.3891C14.3333 21.2122 13.1783 20.2104 12.7336 18.3839L14.9386 17.8531C15.1425 19.0004 15.8188 19.574 16.9677 19.574C17.3959 19.6103 17.8213 19.4782 18.1536 19.2059C18.2756 19.0922 18.3724 18.9542 18.4378 18.8009C18.5032 18.6475 18.5358 18.4821 18.5335 18.3154C18.5429 18.1583 18.5131 18.0014 18.4468 17.8586C18.3805 17.7159 18.2797 17.5919 18.1536 17.4978C17.624 17.1912 17.0573 16.9539 16.4674 16.7914C15.8322 16.6017 15.2164 16.3523 14.6282 16.0465C14.1868 15.8013 13.8165 15.4458 13.5535 15.0148C13.2723 14.5492 13.1293 14.0132 13.1412 13.4694C13.1368 12.7113 13.3973 11.9754 13.8778 11.3889C14.3688 10.7724 15.1425 10.3957 16.1987 10.2587V9.04292H17.6255V10.2587C19.2191 10.4356 20.2506 11.269 20.72 12.7588L18.7558 13.5036C18.3729 12.4819 17.7799 11.9711 16.9769 11.9711C16.6218 11.9543 16.2743 12.0772 16.0087 12.3136C15.8919 12.4178 15.7988 12.5459 15.7357 12.6891C15.6726 12.8324 15.6409 12.9875 15.6428 13.1441C15.6348 13.2902 15.6628 13.436 15.7242 13.5688C15.7855 13.7016 15.8785 13.8174 15.9948 13.9061C16.4671 14.1912 16.9749 14.4129 17.5051 14.5653C18.1887 14.7838 18.8547 15.0543 19.4971 15.3744C19.9674 15.618 20.3653 15.9812 20.6505 16.4275C20.9441 16.8981 21.0938 17.4442 21.0814 17.9986C21.0938 18.4218 21.0215 18.8431 20.8687 19.2379C20.716 19.6326 20.4859 19.9929 20.1919 20.2975Z" fill="#F9F9F9"/>
</g>
<defs>
<clipPath id="clip0_1_140">
<rect width="32" height="32" fill="white" transform="translate(0.900024)"/>
</clipPath>
</defs>
</svg>
