<svg width="33" height="32" viewBox="0 0 33 32" fill="none" xmlns="http://www.w3.org/2000/svg">
<g clip-path="url(#clip0_1_317)">
<path d="M16.507 32C13.3425 32 10.2491 31.0616 7.6179 29.3035C4.98672 27.5454 2.93596 25.0466 1.72495 22.1229C0.513952 19.1993 0.197098 15.9823 0.814462 12.8786C1.43183 9.77486 2.95568 6.92394 5.19332 4.6863C7.43096 2.44866 10.2819 0.924806 13.3856 0.307443C16.4893 -0.309921 19.7063 0.00693263 22.63 1.21793C25.5536 2.42894 28.0524 4.4797 29.8105 7.11088C31.5686 9.74207 32.507 12.8355 32.507 16C32.5022 20.242 30.8149 24.3088 27.8154 27.3084C24.8159 30.3079 20.749 31.9952 16.507 32ZM16.507 1.39131C13.6177 1.39131 10.7933 2.2481 8.39087 3.85332C5.98848 5.45854 4.11605 7.74011 3.01035 10.4095C1.90465 13.0789 1.61535 16.0162 2.17903 18.85C2.74271 21.6838 4.13406 24.2868 6.17712 26.3299C8.22018 28.373 10.8232 29.7643 13.657 30.328C16.4908 30.8917 19.4281 30.6024 22.0975 29.4967C24.7669 28.391 27.0485 26.5185 28.6537 24.1162C30.2589 21.7138 31.1157 18.8893 31.1157 16C31.1113 12.1269 29.5708 8.41367 26.8321 5.67496C24.0934 2.93625 20.3801 1.39571 16.507 1.39131Z" fill="#2D2D2D"/>
<path d="M16.5074 3.12988C13.9621 3.12988 11.4739 3.88467 9.3575 5.29879C7.24111 6.71292 5.59159 8.72287 4.61752 11.0745C3.64345 13.4261 3.38859 16.0137 3.88517 18.5102C4.38174 21.0066 5.60745 23.2998 7.40729 25.0996C9.20713 26.8994 11.5003 28.1251 13.9967 28.6217C16.4932 29.1183 19.0808 28.8634 21.4324 27.8894C23.784 26.9153 25.794 25.2658 27.2081 23.1494C28.6222 21.033 29.377 18.5448 29.377 15.9994C29.3731 12.5874 28.016 9.31623 25.6033 6.90355C23.1907 4.49088 19.9195 3.13374 16.5074 3.12988ZM19.7919 20.2975C19.0955 20.9569 18.1838 21.3416 17.2255 21.3806V22.956H15.7987V21.3891C13.9333 21.2122 12.7782 20.2104 12.3335 18.3839L14.5386 17.8531C14.7425 19.0004 15.4188 19.574 16.5677 19.574C16.9958 19.6103 17.4212 19.4782 17.7536 19.2059C17.8756 19.0922 17.9724 18.9542 18.0378 18.8009C18.1032 18.6475 18.1358 18.4821 18.1335 18.3154C18.1429 18.1583 18.1131 18.0014 18.0468 17.8586C17.9805 17.7159 17.8797 17.5919 17.7536 17.4978C17.224 17.1912 16.6573 16.9539 16.0673 16.7914C15.4322 16.6017 14.8164 16.3523 14.2282 16.0465C13.7868 15.8013 13.4165 15.4458 13.1535 15.0148C12.8723 14.5492 12.7293 14.0132 12.7412 13.4694C12.7368 12.7113 12.9973 11.9754 13.4778 11.3889C13.9688 10.7724 14.7424 10.3957 15.7987 10.2587V9.04292H17.2255V10.2587C18.8191 10.4356 19.8506 11.269 20.32 12.7588L18.3558 13.5036C17.9728 12.4819 17.3799 11.9711 16.5769 11.9711C16.2218 11.9543 15.8743 12.0772 15.6087 12.3136C15.4919 12.4178 15.3988 12.5459 15.3357 12.6891C15.2726 12.8324 15.2409 12.9875 15.2427 13.1441C15.2348 13.2902 15.2628 13.436 15.3241 13.5688C15.3855 13.7016 15.4784 13.8174 15.5948 13.9061C16.0671 14.1912 16.5749 14.4129 17.105 14.5653C17.7887 14.7838 18.4546 15.0543 19.097 15.3744C19.5674 15.618 19.9653 15.9812 20.2505 16.4275C20.5441 16.8981 20.6938 17.4442 20.6814 17.9986C20.6937 18.4218 20.6214 18.8431 20.4687 19.2379C20.3159 19.6326 20.0859 19.9929 19.7919 20.2975Z" fill="#2D2D2D"/>
</g>
<defs>
<clipPath id="clip0_1_317">
<rect width="32" height="32" fill="white" transform="translate(0.5)"/>
</clipPath>
</defs>
</svg>
