<svg width="57" height="47" viewBox="0 0 57 47" fill="none" xmlns="http://www.w3.org/2000/svg">
<rect width="56.2" height="47" rx="16" fill="black"/>
<path d="M14.3006 12C13.9985 11.9999 13.6993 12.0594 13.4201 12.175C13.141 12.2906 12.8873 12.46 12.6737 12.6737C12.46 12.8873 12.2906 13.141 12.175 13.4202C12.0594 13.6993 11.9999 13.9985 12 14.3007C12.0004 14.9105 12.243 15.4952 12.6745 15.9262C13.1059 16.3572 13.6908 16.5993 14.3006 16.5991H41.9016C42.5111 16.5987 43.0954 16.3564 43.5263 15.9254C43.9572 15.4945 44.1995 14.9101 44.2 14.3007C44.2001 13.6908 43.9581 13.1059 43.5271 12.6745C43.0961 12.2431 42.5114 12.0004 41.9016 12H14.3006ZM14.3006 21.2005C13.9985 21.2004 13.6993 21.2598 13.4201 21.3754C13.141 21.491 12.8873 21.6605 12.6737 21.8741C12.46 22.0878 12.2906 22.3414 12.175 22.6206C12.0594 22.8998 11.9999 23.199 12 23.5011C12.0004 24.111 12.243 24.6956 12.6745 25.1267C13.1059 25.5577 13.6908 25.7997 14.3006 25.7995H41.9016C42.5111 25.7991 43.0954 25.5568 43.5263 25.1259C43.9572 24.6949 44.1995 24.1106 44.2 23.5011C44.2001 22.8913 43.9581 22.3064 43.5271 21.8749C43.0961 21.4435 42.5114 21.2009 41.9016 21.2005H14.3006ZM14.3006 30.4009C13.6908 30.4008 13.1059 30.6428 12.6745 31.0738C12.243 31.5048 12.0004 32.0895 12 32.6993C11.9999 33.0015 12.0594 33.3007 12.175 33.5799C12.2906 33.859 12.46 34.1127 12.6737 34.3263C12.8873 34.54 13.141 34.7094 13.4201 34.825C13.6993 34.9406 13.9985 35.0001 14.3006 35H41.9016C42.5114 34.9996 43.0961 34.7569 43.5271 34.3255C43.9581 33.8941 44.2001 33.3092 44.2 32.6993C44.1995 32.0899 43.9572 31.5055 43.5263 31.0746C43.0954 30.6437 42.5111 30.4014 41.9016 30.4009H14.3006Z" fill="white"/>
</svg>
