<svg width="33" height="32" viewBox="0 0 33 32" fill="none" xmlns="http://www.w3.org/2000/svg">
<path fill-rule="evenodd" clip-rule="evenodd" d="M16.9004 30C24.3562 30 30.4004 23.9559 30.4004 16.5C30.4004 9.04416 24.3562 3 16.9004 3C9.44455 3 3.40039 9.04416 3.40039 16.5C3.40039 23.9559 9.44455 30 16.9004 30ZM22.6511 17.1447C20.1819 18.9446 17.5109 20.4864 14.6783 21.73C14.1825 21.9477 13.6226 21.6235 13.5646 21.0852C13.4021 19.579 13.3188 18.0492 13.3188 16.5C13.3188 14.9508 13.4021 13.421 13.5646 11.9148C13.6226 11.3765 14.1825 11.0523 14.6783 11.27C17.5109 12.5137 20.1819 14.0555 22.6511 15.8553C23.09 16.1752 23.09 16.8248 22.6511 17.1447Z" fill="#FF0000"/>
</svg>
