<svg width="33" height="32" viewBox="0 0 33 32" fill="none" xmlns="http://www.w3.org/2000/svg">
<path fill-rule="evenodd" clip-rule="evenodd" d="M17.3004 30C24.7563 30 30.8004 23.9559 30.8004 16.5C30.8004 9.04416 24.7563 3 17.3004 3C9.84457 3 3.80042 9.04416 3.80042 16.5C3.80042 23.9559 9.84457 30 17.3004 30ZM23.0511 17.1447C20.5819 18.9446 17.9109 20.4864 15.0783 21.73C14.5826 21.9477 14.0226 21.6235 13.9646 21.0852C13.8021 19.579 13.7188 18.0492 13.7188 16.5C13.7188 14.9508 13.8021 13.421 13.9646 11.9148C14.0226 11.3765 14.5826 11.0523 15.0783 11.27C17.9109 12.5137 20.5819 14.0555 23.0511 15.8553C23.49 16.1752 23.49 16.8248 23.0511 17.1447Z" fill="#F9F9F9"/>
</svg>
