<svg width="48" height="48" viewBox="0 0 48 48" fill="none" xmlns="http://www.w3.org/2000/svg">
<path d="M48.0014 23.9989C48.0014 37.2543 37.2502 47.9995 24.002 47.9995C10.7466 47.9995 0.00140381 37.2483 0.00140381 23.9989C0.00140381 10.7447 10.7526 -0.000488281 24.002 -0.000488281C37.2562 -0.000488281 48.0014 10.7507 48.0014 23.9989Z" fill="white"/>
<path d="M28.7575 30.1821V18.2905C28.7575 18.2905 30.0984 20.5253 34.9461 20.6618C35.0076 20.6629 35.0687 20.6518 35.1258 20.629C35.1829 20.6063 35.2349 20.5724 35.2787 20.5293C35.3226 20.4863 35.3574 20.4349 35.3812 20.3782C35.405 20.3215 35.4172 20.2606 35.4172 20.1992V16.8373C35.4161 16.7172 35.3688 16.6022 35.2851 16.516C35.2014 16.4299 35.0878 16.3793 34.9679 16.3746C31.2086 16.162 29.4231 13.2797 29.248 10.6354C29.2373 10.5168 29.1825 10.4066 29.0943 10.3267C29.0061 10.2468 28.891 10.203 28.772 10.2041H24.939C24.8163 10.2041 24.6986 10.2529 24.6119 10.3396C24.5251 10.4264 24.4764 10.5441 24.4764 10.6668V29.5708C24.4764 31.6244 22.906 33.4111 20.8523 33.5077C19.8776 33.5507 18.9237 33.2177 18.1874 32.5776C17.4511 31.9375 16.9887 31.0391 16.8957 30.0679C16.8027 29.0967 17.0861 28.1268 17.6875 27.3586C18.289 26.5904 19.1624 26.0824 20.1275 25.9396C20.4479 25.8949 20.7724 25.8901 21.0939 25.9251C21.1592 25.9336 21.2255 25.9282 21.2885 25.9093C21.3515 25.8903 21.4098 25.8582 21.4594 25.815C21.5091 25.7718 21.549 25.7186 21.5766 25.6589C21.6042 25.5992 21.6188 25.5343 21.6194 25.4685V22.0993C21.6207 21.9833 21.5779 21.8711 21.4996 21.7855C21.4214 21.6998 21.3135 21.647 21.1978 21.6379C20.7061 21.6061 20.2125 21.6182 19.7229 21.6741C18.1742 21.856 16.7112 22.4817 15.5099 23.4759C14.3086 24.47 13.4204 25.7903 12.9521 27.2776C12.4838 28.7649 12.4554 30.3558 12.8704 31.8589C13.2854 33.362 14.126 34.713 15.2911 35.7493C16.4562 36.7857 17.896 37.4631 19.4372 37.7001C20.9783 37.9371 22.5552 37.7235 23.9778 37.085C25.4004 36.4466 26.6081 35.4105 27.4554 34.1016C28.3028 32.7926 28.7537 31.2666 28.7539 29.7073" fill="#0D0D0D"/>
</svg>
