<svg width="48" height="48" viewBox="0 0 48 48" fill="none" xmlns="http://www.w3.org/2000/svg">
<path d="M48.0008 24.0001C48.0008 37.2543 37.2495 47.9995 24.0002 47.9995C10.7447 47.9995 -0.000427246 37.2543 -0.000427246 24.0001C-0.000427246 10.7447 10.7508 -0.000488281 24.0002 -0.000488281C37.2495 -0.000488281 48.0008 10.7447 48.0008 24.0001Z" fill="white"/>
<path d="M34.3412 13.8301H13.6553C12.674 13.8301 11.7328 14.2199 11.0389 14.9138C10.345 15.6077 9.9552 16.5489 9.9552 17.5302V30.4691C9.9552 31.4504 10.345 32.3916 11.0389 33.0855C11.7328 33.7794 12.674 34.1692 13.6553 34.1692H34.3412C34.8271 34.1692 35.3082 34.0735 35.7571 33.8876C36.206 33.7016 36.6139 33.4291 36.9575 33.0855C37.3011 32.7419 37.5737 32.334 37.7596 31.8851C37.9455 31.4362 38.0413 30.955 38.0413 30.4691V17.5302C38.0413 17.0443 37.9455 16.5631 37.7596 16.1142C37.5737 15.6653 37.3011 15.2574 36.9575 14.9138C36.6139 14.5702 36.206 14.2977 35.7571 14.1117C35.3082 13.9258 34.8271 13.8301 34.3412 13.8301ZM27.3214 24.893L21.5689 27.7668C21.4167 27.8441 21.2471 27.8811 21.0765 27.8741C20.9059 27.8672 20.7399 27.8165 20.5944 27.7271C20.449 27.6376 20.3289 27.5123 20.2457 27.3632C20.1625 27.2141 20.119 27.0461 20.1193 26.8753V21.1252C20.1191 20.9545 20.1627 20.7865 20.2459 20.6374C20.3291 20.4883 20.4491 20.363 20.5945 20.2735C20.7399 20.1839 20.9058 20.1332 21.0764 20.126C21.247 20.1188 21.4165 20.1555 21.5689 20.2325L27.3214 23.1075C27.487 23.1907 27.6261 23.3182 27.7233 23.4758C27.8205 23.6335 27.872 23.815 27.872 24.0003C27.872 24.1855 27.8205 24.367 27.7233 24.5247C27.6261 24.6823 27.487 24.8098 27.3214 24.893Z" fill="#0D0D0D"/>
</svg>
